%TF.GenerationSoftware,KiCad,Pcbnew,9.0.6*%
%TF.CreationDate,2025-12-14T00:44:06+01:00*%
%TF.ProjectId,KiCad-Diynamic-Project-Display-Module,4b694361-642d-4446-9979-6e616d69632d,rev?*%
%TF.SameCoordinates,Original*%
%TF.FileFunction,Soldermask,Top*%
%TF.FilePolarity,Negative*%
%FSLAX46Y46*%
G04 Gerber Fmt 4.6, Leading zero omitted, Abs format (unit mm)*
G04 Created by KiCad (PCBNEW 9.0.6) date 2025-12-14 00:44:06*
%MOMM*%
%LPD*%
G01*
G04 APERTURE LIST*
G04 Aperture macros list*
%AMRoundRect*
0 Rectangle with rounded corners*
0 $1 Rounding radius*
0 $2 $3 $4 $5 $6 $7 $8 $9 X,Y pos of 4 corners*
0 Add a 4 corners polygon primitive as box body*
4,1,4,$2,$3,$4,$5,$6,$7,$8,$9,$2,$3,0*
0 Add four circle primitives for the rounded corners*
1,1,$1+$1,$2,$3*
1,1,$1+$1,$4,$5*
1,1,$1+$1,$6,$7*
1,1,$1+$1,$8,$9*
0 Add four rect primitives between the rounded corners*
20,1,$1+$1,$2,$3,$4,$5,0*
20,1,$1+$1,$4,$5,$6,$7,0*
20,1,$1+$1,$6,$7,$8,$9,0*
20,1,$1+$1,$8,$9,$2,$3,0*%
G04 Aperture macros list end*
%ADD10RoundRect,0.250000X0.450000X-0.350000X0.450000X0.350000X-0.450000X0.350000X-0.450000X-0.350000X0*%
%ADD11C,1.700000*%
%ADD12C,4.000000*%
%ADD13C,2.200000*%
%ADD14RoundRect,0.225000X-0.375000X0.225000X-0.375000X-0.225000X0.375000X-0.225000X0.375000X0.225000X0*%
%ADD15R,1.600000X0.850000*%
%ADD16R,1.800000X1.800000*%
%ADD17C,1.800000*%
%ADD18R,1.700000X1.700000*%
%ADD19O,1.700000X1.700000*%
%ADD20RoundRect,0.152400X1.063600X0.609600X-1.063600X0.609600X-1.063600X-0.609600X1.063600X-0.609600X0*%
%ADD21C,1.524000*%
%ADD22RoundRect,0.152400X-1.063600X-0.609600X1.063600X-0.609600X1.063600X0.609600X-1.063600X0.609600X0*%
%ADD23O,2.200000X1.600000*%
%ADD24C,2.100000*%
%ADD25R,2.000000X2.000000*%
%ADD26C,2.000000*%
%ADD27R,3.200000X2.000000*%
%ADD28RoundRect,0.150000X0.150000X-0.875000X0.150000X0.875000X-0.150000X0.875000X-0.150000X-0.875000X0*%
G04 APERTURE END LIST*
D10*
%TO.C,R5*%
X123793750Y-81543750D03*
X123793750Y-79543750D03*
%TD*%
D11*
%TO.C,SW3*%
X111601250Y-116681250D03*
D12*
X116681250Y-116681250D03*
D11*
X121761250Y-116681250D03*
D13*
X119221250Y-111601250D03*
X112871250Y-114141250D03*
%TD*%
D11*
%TO.C,SW6*%
X168751250Y-116681250D03*
D12*
X173831250Y-116681250D03*
D11*
X178911250Y-116681250D03*
D13*
X176371250Y-111601250D03*
X170021250Y-114141250D03*
%TD*%
D11*
%TO.C,SW2*%
X92551250Y-116681250D03*
D12*
X97631250Y-116681250D03*
D11*
X102711250Y-116681250D03*
D13*
X100171250Y-111601250D03*
X93821250Y-114141250D03*
%TD*%
D14*
%TO.C,D37*%
X202406250Y-110268750D03*
X202406250Y-113568750D03*
%TD*%
D15*
%TO.C,D9*%
X111130000Y-54425000D03*
X111130000Y-56175000D03*
X114630000Y-56175000D03*
X114630000Y-54425000D03*
%TD*%
D11*
%TO.C,SW16*%
X206851250Y-97631250D03*
D12*
X211931250Y-97631250D03*
D11*
X217011250Y-97631250D03*
D13*
X214471250Y-92551250D03*
X208121250Y-95091250D03*
%TD*%
D10*
%TO.C,R3*%
X133318750Y-67256250D03*
X133318750Y-65256250D03*
%TD*%
%TO.C,R4*%
X128556250Y-74400000D03*
X128556250Y-72400000D03*
%TD*%
D11*
%TO.C,SW10*%
X92551250Y-97631250D03*
D12*
X97631250Y-97631250D03*
D11*
X102711250Y-97631250D03*
D13*
X100171250Y-92551250D03*
X93821250Y-95091250D03*
%TD*%
D16*
%TO.C,D21*%
X130937500Y-79543750D03*
D17*
X130937500Y-82083750D03*
%TD*%
D10*
%TO.C,R1*%
X142843750Y-52968750D03*
X142843750Y-50968750D03*
%TD*%
D15*
%TO.C,D12*%
X111130000Y-69785000D03*
X111130000Y-71535000D03*
X114630000Y-71535000D03*
X114630000Y-69785000D03*
%TD*%
D14*
%TO.C,D24*%
X107156250Y-91218750D03*
X107156250Y-94518750D03*
%TD*%
D15*
%TO.C,D1*%
X97690000Y-54425000D03*
X97690000Y-56175000D03*
X101190000Y-56175000D03*
X101190000Y-54425000D03*
%TD*%
%TO.C,D13*%
X117850000Y-54425000D03*
X117850000Y-56175000D03*
X121350000Y-56175000D03*
X121350000Y-54425000D03*
%TD*%
D16*
%TO.C,D18*%
X145225000Y-58112500D03*
D17*
X145225000Y-60652500D03*
%TD*%
D11*
%TO.C,SW14*%
X168751250Y-97631250D03*
D12*
X173831250Y-97631250D03*
D11*
X178911250Y-97631250D03*
D13*
X176371250Y-92551250D03*
X170021250Y-95091250D03*
%TD*%
D18*
%TO.C,Brd1*%
X218600000Y-52190000D03*
D19*
X218600000Y-54730000D03*
X218600000Y-57270000D03*
X218600000Y-59810000D03*
%TD*%
D14*
%TO.C,D34*%
X145256250Y-110268750D03*
X145256250Y-113568750D03*
%TD*%
D11*
%TO.C,SW12*%
X130651250Y-97631250D03*
D12*
X135731250Y-97631250D03*
D11*
X140811250Y-97631250D03*
D13*
X138271250Y-92551250D03*
X131921250Y-95091250D03*
%TD*%
D14*
%TO.C,D28*%
X183356250Y-91218750D03*
X183356250Y-94518750D03*
%TD*%
D15*
%TO.C,D2*%
X97690000Y-59545000D03*
X97690000Y-61295000D03*
X101190000Y-61295000D03*
X101190000Y-59545000D03*
%TD*%
%TO.C,D14*%
X117850000Y-59545000D03*
X117850000Y-61295000D03*
X121350000Y-61295000D03*
X121350000Y-59545000D03*
%TD*%
D14*
%TO.C,D31*%
X88106250Y-110268750D03*
X88106250Y-113568750D03*
%TD*%
%TO.C,D22*%
X69056250Y-91218750D03*
X69056250Y-94518750D03*
%TD*%
D15*
%TO.C,D8*%
X104410000Y-69785000D03*
X104410000Y-71535000D03*
X107910000Y-71535000D03*
X107910000Y-69785000D03*
%TD*%
D11*
%TO.C,SW8*%
X206851250Y-116681250D03*
D12*
X211931250Y-116681250D03*
D11*
X217011250Y-116681250D03*
D13*
X214471250Y-111601250D03*
X208121250Y-114141250D03*
%TD*%
D11*
%TO.C,SW7*%
X187801250Y-116681250D03*
D12*
X192881250Y-116681250D03*
D11*
X197961250Y-116681250D03*
D13*
X195421250Y-111601250D03*
X189071250Y-114141250D03*
%TD*%
D15*
%TO.C,D16*%
X117850000Y-69785000D03*
X117850000Y-71535000D03*
X121350000Y-71535000D03*
X121350000Y-69785000D03*
%TD*%
D14*
%TO.C,D23*%
X88106250Y-91218750D03*
X88106250Y-94518750D03*
%TD*%
%TO.C,D32*%
X107156250Y-110268750D03*
X107156250Y-113568750D03*
%TD*%
D15*
%TO.C,D3*%
X97690000Y-64665000D03*
X97690000Y-66415000D03*
X101190000Y-66415000D03*
X101190000Y-64665000D03*
%TD*%
D14*
%TO.C,D30*%
X69056250Y-110268750D03*
X69056250Y-113568750D03*
%TD*%
D11*
%TO.C,SW5*%
X149701250Y-116681250D03*
D12*
X154781250Y-116681250D03*
D11*
X159861250Y-116681250D03*
D13*
X157321250Y-111601250D03*
X150971250Y-114141250D03*
%TD*%
D20*
%TO.C,U1*%
X72507500Y-49530000D03*
D21*
X73342500Y-49530000D03*
D20*
X72507500Y-52070000D03*
D21*
X73342500Y-52070000D03*
D20*
X72507500Y-54610000D03*
D21*
X73342500Y-54610000D03*
D20*
X72507500Y-57150000D03*
D21*
X73342500Y-57150000D03*
D20*
X72507500Y-59690000D03*
D21*
X73342500Y-59690000D03*
D20*
X72507500Y-62230000D03*
D21*
X73342500Y-62230000D03*
D20*
X72507500Y-64770000D03*
D21*
X73342500Y-64770000D03*
X88582500Y-64770000D03*
D22*
X89417500Y-64770000D03*
D21*
X88582500Y-62230000D03*
D22*
X89417500Y-62230000D03*
D21*
X88582500Y-59690000D03*
D22*
X89417500Y-59690000D03*
D21*
X88582500Y-57150000D03*
D22*
X89417500Y-57150000D03*
D21*
X88582500Y-54610000D03*
D22*
X89417500Y-54610000D03*
D21*
X88582500Y-52070000D03*
D22*
X89417500Y-52070000D03*
D21*
X88582500Y-49530000D03*
D22*
X89417500Y-49530000D03*
%TD*%
D14*
%TO.C,D27*%
X164306250Y-91218750D03*
X164306250Y-94518750D03*
%TD*%
%TO.C,D39*%
X220400000Y-91150000D03*
X220400000Y-94450000D03*
%TD*%
%TO.C,D33*%
X126206250Y-110268750D03*
X126206250Y-113568750D03*
%TD*%
D15*
%TO.C,D11*%
X111130000Y-64665000D03*
X111130000Y-66415000D03*
X114630000Y-66415000D03*
X114630000Y-64665000D03*
%TD*%
D23*
%TO.C,SW17*%
X186143750Y-73937500D03*
D24*
X190643750Y-73937500D03*
D25*
X183143750Y-71437500D03*
D26*
X183143750Y-76437500D03*
X183143750Y-73937500D03*
D27*
X190643750Y-68337500D03*
X190643750Y-79537500D03*
D26*
X197643750Y-76437500D03*
X197643750Y-71437500D03*
%TD*%
D16*
%TO.C,D19*%
X140462500Y-65256250D03*
D17*
X140462500Y-67796250D03*
%TD*%
D15*
%TO.C,D15*%
X117850000Y-64665000D03*
X117850000Y-66415000D03*
X121350000Y-66415000D03*
X121350000Y-64665000D03*
%TD*%
%TO.C,D5*%
X104410000Y-54425000D03*
X104410000Y-56175000D03*
X107910000Y-56175000D03*
X107910000Y-54425000D03*
%TD*%
D11*
%TO.C,SW13*%
X149701250Y-97631250D03*
D12*
X154781250Y-97631250D03*
D11*
X159861250Y-97631250D03*
D13*
X157321250Y-92551250D03*
X150971250Y-95091250D03*
%TD*%
D10*
%TO.C,R2*%
X138081250Y-60112500D03*
X138081250Y-58112500D03*
%TD*%
D14*
%TO.C,D35*%
X164306250Y-110268750D03*
X164306250Y-113568750D03*
%TD*%
%TO.C,D29*%
X202406250Y-91218750D03*
X202406250Y-94518750D03*
%TD*%
%TO.C,D26*%
X145256250Y-91218750D03*
X145256250Y-94518750D03*
%TD*%
D15*
%TO.C,D7*%
X104410000Y-64665000D03*
X104410000Y-66415000D03*
X107910000Y-66415000D03*
X107910000Y-64665000D03*
%TD*%
D14*
%TO.C,D36*%
X183356250Y-110268750D03*
X183356250Y-113568750D03*
%TD*%
D16*
%TO.C,D20*%
X135700000Y-72400000D03*
D17*
X135700000Y-74940000D03*
%TD*%
D14*
%TO.C,D25*%
X126206250Y-91218750D03*
X126206250Y-94518750D03*
%TD*%
D15*
%TO.C,D4*%
X97690000Y-69785000D03*
X97690000Y-71535000D03*
X101190000Y-71535000D03*
X101190000Y-69785000D03*
%TD*%
D14*
%TO.C,D38*%
X220500000Y-110250000D03*
X220500000Y-113550000D03*
%TD*%
D11*
%TO.C,SW9*%
X73501250Y-97631250D03*
D12*
X78581250Y-97631250D03*
D11*
X83661250Y-97631250D03*
D13*
X81121250Y-92551250D03*
X74771250Y-95091250D03*
%TD*%
D11*
%TO.C,SW4*%
X130651250Y-116681250D03*
D12*
X135731250Y-116681250D03*
D11*
X140811250Y-116681250D03*
D13*
X138271250Y-111601250D03*
X131921250Y-114141250D03*
%TD*%
D11*
%TO.C,SW11*%
X111601250Y-97631250D03*
D12*
X116681250Y-97631250D03*
D11*
X121761250Y-97631250D03*
D13*
X119221250Y-92551250D03*
X112871250Y-95091250D03*
%TD*%
D28*
%TO.C,U3*%
X72707500Y-81550000D03*
X73977500Y-81550000D03*
X75247500Y-81550000D03*
X76517500Y-81550000D03*
X77787500Y-81550000D03*
X79057500Y-81550000D03*
X80327500Y-81550000D03*
X81597500Y-81550000D03*
X82867500Y-81550000D03*
X84137500Y-81550000D03*
X85407500Y-81550000D03*
X86677500Y-81550000D03*
X87947500Y-81550000D03*
X89217500Y-81550000D03*
X89217500Y-72250000D03*
X87947500Y-72250000D03*
X86677500Y-72250000D03*
X85407500Y-72250000D03*
X84137500Y-72250000D03*
X82867500Y-72250000D03*
X81597500Y-72250000D03*
X80327500Y-72250000D03*
X79057500Y-72250000D03*
X77787500Y-72250000D03*
X76517500Y-72250000D03*
X75247500Y-72250000D03*
X73977500Y-72250000D03*
X72707500Y-72250000D03*
%TD*%
D23*
%TO.C,SW18*%
X205406250Y-73937500D03*
D24*
X209906250Y-73937500D03*
D25*
X202406250Y-71437500D03*
D26*
X202406250Y-76437500D03*
X202406250Y-73937500D03*
D27*
X209906250Y-68337500D03*
X209906250Y-79537500D03*
D26*
X216906250Y-76437500D03*
X216906250Y-71437500D03*
%TD*%
D15*
%TO.C,D10*%
X111130000Y-59545000D03*
X111130000Y-61295000D03*
X114630000Y-61295000D03*
X114630000Y-59545000D03*
%TD*%
%TO.C,D6*%
X104410000Y-59545000D03*
X104410000Y-61295000D03*
X107910000Y-61295000D03*
X107910000Y-59545000D03*
%TD*%
D11*
%TO.C,SW1*%
X73501250Y-116681250D03*
D12*
X78581250Y-116681250D03*
D11*
X83661250Y-116681250D03*
D13*
X81121250Y-111601250D03*
X74771250Y-114141250D03*
%TD*%
D16*
%TO.C,D17*%
X149987500Y-50968750D03*
D17*
X149987500Y-53508750D03*
%TD*%
D11*
%TO.C,SW15*%
X187801250Y-97631250D03*
D12*
X192881250Y-97631250D03*
D11*
X197961250Y-97631250D03*
D13*
X195421250Y-92551250D03*
X189071250Y-95091250D03*
%TD*%
D18*
%TO.C,J2*%
X173880000Y-57885000D03*
D11*
X171340000Y-57885000D03*
%TD*%
D18*
%TO.C,J1*%
X166740000Y-57885000D03*
D11*
X164200000Y-57885000D03*
X161660000Y-57885000D03*
%TD*%
M02*
