%TF.GenerationSoftware,KiCad,Pcbnew,9.0.6*%
%TF.CreationDate,2025-12-14T00:44:06+01:00*%
%TF.ProjectId,KiCad-Diynamic-Project-Display-Module,4b694361-642d-4446-9979-6e616d69632d,rev?*%
%TF.SameCoordinates,Original*%
%TF.FileFunction,Legend,Top*%
%TF.FilePolarity,Positive*%
%FSLAX46Y46*%
G04 Gerber Fmt 4.6, Leading zero omitted, Abs format (unit mm)*
G04 Created by KiCad (PCBNEW 9.0.6) date 2025-12-14 00:44:06*
%MOMM*%
%LPD*%
G01*
G04 APERTURE LIST*
%ADD10C,0.150000*%
%ADD11C,0.100000*%
%ADD12C,0.101600*%
%ADD13C,0.120000*%
%ADD14C,0.040000*%
%ADD15C,0.127000*%
%ADD16C,0.504000*%
G04 APERTURE END LIST*
D10*
X94642858Y-79373914D02*
X94585715Y-79316771D01*
X94585715Y-79316771D02*
X94471429Y-79259628D01*
X94471429Y-79259628D02*
X94357144Y-79259628D01*
X94357144Y-79259628D02*
X94242858Y-79316771D01*
X94242858Y-79316771D02*
X94185715Y-79373914D01*
X94185715Y-79373914D02*
X94128572Y-79488200D01*
X94128572Y-79488200D02*
X94128572Y-79602485D01*
X94128572Y-79602485D02*
X94185715Y-79716771D01*
X94185715Y-79716771D02*
X94242858Y-79773914D01*
X94242858Y-79773914D02*
X94357144Y-79831057D01*
X94357144Y-79831057D02*
X94471429Y-79831057D01*
X94471429Y-79831057D02*
X94585715Y-79773914D01*
X94585715Y-79773914D02*
X94642858Y-79716771D01*
X94642858Y-79259628D02*
X94642858Y-79716771D01*
X94642858Y-79716771D02*
X94700001Y-79773914D01*
X94700001Y-79773914D02*
X94757144Y-79773914D01*
X94757144Y-79773914D02*
X94871429Y-79716771D01*
X94871429Y-79716771D02*
X94928572Y-79602485D01*
X94928572Y-79602485D02*
X94928572Y-79316771D01*
X94928572Y-79316771D02*
X94814287Y-79145342D01*
X94814287Y-79145342D02*
X94642858Y-79031057D01*
X94642858Y-79031057D02*
X94414287Y-78973914D01*
X94414287Y-78973914D02*
X94185715Y-79031057D01*
X94185715Y-79031057D02*
X94014287Y-79145342D01*
X94014287Y-79145342D02*
X93900001Y-79316771D01*
X93900001Y-79316771D02*
X93842858Y-79545342D01*
X93842858Y-79545342D02*
X93900001Y-79773914D01*
X93900001Y-79773914D02*
X94014287Y-79945342D01*
X94014287Y-79945342D02*
X94185715Y-80059628D01*
X94185715Y-80059628D02*
X94414287Y-80116771D01*
X94414287Y-80116771D02*
X94642858Y-80059628D01*
X94642858Y-80059628D02*
X94814287Y-79945342D01*
X95385715Y-79602485D02*
X95957144Y-79602485D01*
X95271429Y-79945342D02*
X95671429Y-78745342D01*
X95671429Y-78745342D02*
X96071429Y-79945342D01*
X96471429Y-79145342D02*
X96471429Y-80345342D01*
X96471429Y-79202485D02*
X96585715Y-79145342D01*
X96585715Y-79145342D02*
X96814286Y-79145342D01*
X96814286Y-79145342D02*
X96928572Y-79202485D01*
X96928572Y-79202485D02*
X96985715Y-79259628D01*
X96985715Y-79259628D02*
X97042857Y-79373914D01*
X97042857Y-79373914D02*
X97042857Y-79716771D01*
X97042857Y-79716771D02*
X96985715Y-79831057D01*
X96985715Y-79831057D02*
X96928572Y-79888200D01*
X96928572Y-79888200D02*
X96814286Y-79945342D01*
X96814286Y-79945342D02*
X96585715Y-79945342D01*
X96585715Y-79945342D02*
X96471429Y-79888200D01*
X97385714Y-79145342D02*
X97842857Y-79145342D01*
X97557143Y-79945342D02*
X97557143Y-78916771D01*
X97557143Y-78916771D02*
X97614286Y-78802485D01*
X97614286Y-78802485D02*
X97728571Y-78745342D01*
X97728571Y-78745342D02*
X97842857Y-78745342D01*
X98700000Y-79888200D02*
X98585714Y-79945342D01*
X98585714Y-79945342D02*
X98357143Y-79945342D01*
X98357143Y-79945342D02*
X98242857Y-79888200D01*
X98242857Y-79888200D02*
X98185714Y-79773914D01*
X98185714Y-79773914D02*
X98185714Y-79316771D01*
X98185714Y-79316771D02*
X98242857Y-79202485D01*
X98242857Y-79202485D02*
X98357143Y-79145342D01*
X98357143Y-79145342D02*
X98585714Y-79145342D01*
X98585714Y-79145342D02*
X98700000Y-79202485D01*
X98700000Y-79202485D02*
X98757143Y-79316771D01*
X98757143Y-79316771D02*
X98757143Y-79431057D01*
X98757143Y-79431057D02*
X98185714Y-79545342D01*
X99442856Y-79945342D02*
X99328571Y-79888200D01*
X99328571Y-79888200D02*
X99271428Y-79773914D01*
X99271428Y-79773914D02*
X99271428Y-78745342D01*
X99899999Y-79945342D02*
X99899999Y-78745342D01*
X100414285Y-79945342D02*
X100414285Y-79316771D01*
X100414285Y-79316771D02*
X100357142Y-79202485D01*
X100357142Y-79202485D02*
X100242856Y-79145342D01*
X100242856Y-79145342D02*
X100071427Y-79145342D01*
X100071427Y-79145342D02*
X99957142Y-79202485D01*
X99957142Y-79202485D02*
X99899999Y-79259628D01*
X101157141Y-79945342D02*
X101042856Y-79888200D01*
X101042856Y-79888200D02*
X100985713Y-79831057D01*
X100985713Y-79831057D02*
X100928570Y-79716771D01*
X100928570Y-79716771D02*
X100928570Y-79373914D01*
X100928570Y-79373914D02*
X100985713Y-79259628D01*
X100985713Y-79259628D02*
X101042856Y-79202485D01*
X101042856Y-79202485D02*
X101157141Y-79145342D01*
X101157141Y-79145342D02*
X101328570Y-79145342D01*
X101328570Y-79145342D02*
X101442856Y-79202485D01*
X101442856Y-79202485D02*
X101499999Y-79259628D01*
X101499999Y-79259628D02*
X101557141Y-79373914D01*
X101557141Y-79373914D02*
X101557141Y-79716771D01*
X101557141Y-79716771D02*
X101499999Y-79831057D01*
X101499999Y-79831057D02*
X101442856Y-79888200D01*
X101442856Y-79888200D02*
X101328570Y-79945342D01*
X101328570Y-79945342D02*
X101157141Y-79945342D01*
X102242855Y-79945342D02*
X102128570Y-79888200D01*
X102128570Y-79888200D02*
X102071427Y-79773914D01*
X102071427Y-79773914D02*
X102071427Y-78745342D01*
X102585712Y-79145342D02*
X103214284Y-79145342D01*
X103214284Y-79145342D02*
X102585712Y-79945342D01*
X102585712Y-79945342D02*
X103214284Y-79945342D01*
D11*
X96908646Y-80996895D02*
X96984836Y-80996895D01*
X96984836Y-80996895D02*
X97061027Y-81034990D01*
X97061027Y-81034990D02*
X97099122Y-81073085D01*
X97099122Y-81073085D02*
X97137217Y-81149276D01*
X97137217Y-81149276D02*
X97175312Y-81301657D01*
X97175312Y-81301657D02*
X97175312Y-81492133D01*
X97175312Y-81492133D02*
X97137217Y-81644514D01*
X97137217Y-81644514D02*
X97099122Y-81720704D01*
X97099122Y-81720704D02*
X97061027Y-81758800D01*
X97061027Y-81758800D02*
X96984836Y-81796895D01*
X96984836Y-81796895D02*
X96908646Y-81796895D01*
X96908646Y-81796895D02*
X96832455Y-81758800D01*
X96832455Y-81758800D02*
X96794360Y-81720704D01*
X96794360Y-81720704D02*
X96756265Y-81644514D01*
X96756265Y-81644514D02*
X96718169Y-81492133D01*
X96718169Y-81492133D02*
X96718169Y-81301657D01*
X96718169Y-81301657D02*
X96756265Y-81149276D01*
X96756265Y-81149276D02*
X96794360Y-81073085D01*
X96794360Y-81073085D02*
X96832455Y-81034990D01*
X96832455Y-81034990D02*
X96908646Y-80996895D01*
X97441979Y-80996895D02*
X97975313Y-80996895D01*
X97975313Y-80996895D02*
X97632455Y-81796895D01*
X98280075Y-81720704D02*
X98318170Y-81758800D01*
X98318170Y-81758800D02*
X98280075Y-81796895D01*
X98280075Y-81796895D02*
X98241979Y-81758800D01*
X98241979Y-81758800D02*
X98280075Y-81720704D01*
X98280075Y-81720704D02*
X98280075Y-81796895D01*
X99080074Y-81796895D02*
X98622931Y-81796895D01*
X98851503Y-81796895D02*
X98851503Y-80996895D01*
X98851503Y-80996895D02*
X98775312Y-81111180D01*
X98775312Y-81111180D02*
X98699122Y-81187371D01*
X98699122Y-81187371D02*
X98622931Y-81225466D01*
X99384836Y-81073085D02*
X99422932Y-81034990D01*
X99422932Y-81034990D02*
X99499122Y-80996895D01*
X99499122Y-80996895D02*
X99689598Y-80996895D01*
X99689598Y-80996895D02*
X99765789Y-81034990D01*
X99765789Y-81034990D02*
X99803884Y-81073085D01*
X99803884Y-81073085D02*
X99841979Y-81149276D01*
X99841979Y-81149276D02*
X99841979Y-81225466D01*
X99841979Y-81225466D02*
X99803884Y-81339752D01*
X99803884Y-81339752D02*
X99346741Y-81796895D01*
X99346741Y-81796895D02*
X99841979Y-81796895D01*
X100184837Y-81720704D02*
X100222932Y-81758800D01*
X100222932Y-81758800D02*
X100184837Y-81796895D01*
X100184837Y-81796895D02*
X100146741Y-81758800D01*
X100146741Y-81758800D02*
X100184837Y-81720704D01*
X100184837Y-81720704D02*
X100184837Y-81796895D01*
X100527693Y-81073085D02*
X100565789Y-81034990D01*
X100565789Y-81034990D02*
X100641979Y-80996895D01*
X100641979Y-80996895D02*
X100832455Y-80996895D01*
X100832455Y-80996895D02*
X100908646Y-81034990D01*
X100908646Y-81034990D02*
X100946741Y-81073085D01*
X100946741Y-81073085D02*
X100984836Y-81149276D01*
X100984836Y-81149276D02*
X100984836Y-81225466D01*
X100984836Y-81225466D02*
X100946741Y-81339752D01*
X100946741Y-81339752D02*
X100489598Y-81796895D01*
X100489598Y-81796895D02*
X100984836Y-81796895D01*
X101480075Y-80996895D02*
X101556265Y-80996895D01*
X101556265Y-80996895D02*
X101632456Y-81034990D01*
X101632456Y-81034990D02*
X101670551Y-81073085D01*
X101670551Y-81073085D02*
X101708646Y-81149276D01*
X101708646Y-81149276D02*
X101746741Y-81301657D01*
X101746741Y-81301657D02*
X101746741Y-81492133D01*
X101746741Y-81492133D02*
X101708646Y-81644514D01*
X101708646Y-81644514D02*
X101670551Y-81720704D01*
X101670551Y-81720704D02*
X101632456Y-81758800D01*
X101632456Y-81758800D02*
X101556265Y-81796895D01*
X101556265Y-81796895D02*
X101480075Y-81796895D01*
X101480075Y-81796895D02*
X101403884Y-81758800D01*
X101403884Y-81758800D02*
X101365789Y-81720704D01*
X101365789Y-81720704D02*
X101327694Y-81644514D01*
X101327694Y-81644514D02*
X101289598Y-81492133D01*
X101289598Y-81492133D02*
X101289598Y-81301657D01*
X101289598Y-81301657D02*
X101327694Y-81149276D01*
X101327694Y-81149276D02*
X101365789Y-81073085D01*
X101365789Y-81073085D02*
X101403884Y-81034990D01*
X101403884Y-81034990D02*
X101480075Y-80996895D01*
X102051503Y-81073085D02*
X102089599Y-81034990D01*
X102089599Y-81034990D02*
X102165789Y-80996895D01*
X102165789Y-80996895D02*
X102356265Y-80996895D01*
X102356265Y-80996895D02*
X102432456Y-81034990D01*
X102432456Y-81034990D02*
X102470551Y-81073085D01*
X102470551Y-81073085D02*
X102508646Y-81149276D01*
X102508646Y-81149276D02*
X102508646Y-81225466D01*
X102508646Y-81225466D02*
X102470551Y-81339752D01*
X102470551Y-81339752D02*
X102013408Y-81796895D01*
X102013408Y-81796895D02*
X102508646Y-81796895D01*
X103232456Y-80996895D02*
X102851504Y-80996895D01*
X102851504Y-80996895D02*
X102813408Y-81377847D01*
X102813408Y-81377847D02*
X102851504Y-81339752D01*
X102851504Y-81339752D02*
X102927694Y-81301657D01*
X102927694Y-81301657D02*
X103118170Y-81301657D01*
X103118170Y-81301657D02*
X103194361Y-81339752D01*
X103194361Y-81339752D02*
X103232456Y-81377847D01*
X103232456Y-81377847D02*
X103270551Y-81454038D01*
X103270551Y-81454038D02*
X103270551Y-81644514D01*
X103270551Y-81644514D02*
X103232456Y-81720704D01*
X103232456Y-81720704D02*
X103194361Y-81758800D01*
X103194361Y-81758800D02*
X103118170Y-81796895D01*
X103118170Y-81796895D02*
X102927694Y-81796895D01*
X102927694Y-81796895D02*
X102851504Y-81758800D01*
X102851504Y-81758800D02*
X102813408Y-81720704D01*
X76508646Y-51772419D02*
X77175312Y-52772419D01*
X77175312Y-51772419D02*
X76508646Y-52772419D01*
X77556265Y-52772419D02*
X77556265Y-51772419D01*
X77984836Y-52486704D02*
X78461026Y-52486704D01*
X77889598Y-52772419D02*
X78222931Y-51772419D01*
X78222931Y-51772419D02*
X78556264Y-52772419D01*
X79080074Y-51772419D02*
X79270550Y-51772419D01*
X79270550Y-51772419D02*
X79365788Y-51820038D01*
X79365788Y-51820038D02*
X79461026Y-51915276D01*
X79461026Y-51915276D02*
X79508645Y-52105752D01*
X79508645Y-52105752D02*
X79508645Y-52439085D01*
X79508645Y-52439085D02*
X79461026Y-52629561D01*
X79461026Y-52629561D02*
X79365788Y-52724800D01*
X79365788Y-52724800D02*
X79270550Y-52772419D01*
X79270550Y-52772419D02*
X79080074Y-52772419D01*
X79080074Y-52772419D02*
X78984836Y-52724800D01*
X78984836Y-52724800D02*
X78889598Y-52629561D01*
X78889598Y-52629561D02*
X78841979Y-52439085D01*
X78841979Y-52439085D02*
X78841979Y-52105752D01*
X78841979Y-52105752D02*
X78889598Y-51915276D01*
X78889598Y-51915276D02*
X78984836Y-51820038D01*
X78984836Y-51820038D02*
X79080074Y-51772419D01*
X80699122Y-52772419D02*
X80699122Y-51772419D01*
X80699122Y-52248609D02*
X81270550Y-52248609D01*
X81270550Y-52772419D02*
X81270550Y-51772419D01*
X81746741Y-52248609D02*
X82080074Y-52248609D01*
X82222931Y-52772419D02*
X81746741Y-52772419D01*
X81746741Y-52772419D02*
X81746741Y-51772419D01*
X81746741Y-51772419D02*
X82222931Y-51772419D01*
X83222931Y-52772419D02*
X82889598Y-52296228D01*
X82651503Y-52772419D02*
X82651503Y-51772419D01*
X82651503Y-51772419D02*
X83032455Y-51772419D01*
X83032455Y-51772419D02*
X83127693Y-51820038D01*
X83127693Y-51820038D02*
X83175312Y-51867657D01*
X83175312Y-51867657D02*
X83222931Y-51962895D01*
X83222931Y-51962895D02*
X83222931Y-52105752D01*
X83222931Y-52105752D02*
X83175312Y-52200990D01*
X83175312Y-52200990D02*
X83127693Y-52248609D01*
X83127693Y-52248609D02*
X83032455Y-52296228D01*
X83032455Y-52296228D02*
X82651503Y-52296228D01*
X83651503Y-52248609D02*
X83984836Y-52248609D01*
X84127693Y-52772419D02*
X83651503Y-52772419D01*
X83651503Y-52772419D02*
X83651503Y-51772419D01*
X83651503Y-51772419D02*
X84127693Y-51772419D01*
X84556265Y-52677180D02*
X84603884Y-52724800D01*
X84603884Y-52724800D02*
X84556265Y-52772419D01*
X84556265Y-52772419D02*
X84508646Y-52724800D01*
X84508646Y-52724800D02*
X84556265Y-52677180D01*
X84556265Y-52677180D02*
X84556265Y-52772419D01*
X84556265Y-52391466D02*
X84508646Y-51820038D01*
X84508646Y-51820038D02*
X84556265Y-51772419D01*
X84556265Y-51772419D02*
X84603884Y-51820038D01*
X84603884Y-51820038D02*
X84556265Y-52391466D01*
X84556265Y-52391466D02*
X84556265Y-51772419D01*
X105003884Y-81872419D02*
X105003884Y-80872419D01*
X105003884Y-81348609D02*
X105575312Y-81348609D01*
X105575312Y-81872419D02*
X105575312Y-80872419D01*
X106480074Y-81872419D02*
X106480074Y-81348609D01*
X106480074Y-81348609D02*
X106432455Y-81253371D01*
X106432455Y-81253371D02*
X106337217Y-81205752D01*
X106337217Y-81205752D02*
X106146741Y-81205752D01*
X106146741Y-81205752D02*
X106051503Y-81253371D01*
X106480074Y-81824800D02*
X106384836Y-81872419D01*
X106384836Y-81872419D02*
X106146741Y-81872419D01*
X106146741Y-81872419D02*
X106051503Y-81824800D01*
X106051503Y-81824800D02*
X106003884Y-81729561D01*
X106003884Y-81729561D02*
X106003884Y-81634323D01*
X106003884Y-81634323D02*
X106051503Y-81539085D01*
X106051503Y-81539085D02*
X106146741Y-81491466D01*
X106146741Y-81491466D02*
X106384836Y-81491466D01*
X106384836Y-81491466D02*
X106480074Y-81443847D01*
X107384836Y-81824800D02*
X107289598Y-81872419D01*
X107289598Y-81872419D02*
X107099122Y-81872419D01*
X107099122Y-81872419D02*
X107003884Y-81824800D01*
X107003884Y-81824800D02*
X106956265Y-81777180D01*
X106956265Y-81777180D02*
X106908646Y-81681942D01*
X106908646Y-81681942D02*
X106908646Y-81396228D01*
X106908646Y-81396228D02*
X106956265Y-81300990D01*
X106956265Y-81300990D02*
X107003884Y-81253371D01*
X107003884Y-81253371D02*
X107099122Y-81205752D01*
X107099122Y-81205752D02*
X107289598Y-81205752D01*
X107289598Y-81205752D02*
X107384836Y-81253371D01*
X107813408Y-81872419D02*
X107813408Y-80872419D01*
X107908646Y-81491466D02*
X108194360Y-81872419D01*
X108194360Y-81205752D02*
X107813408Y-81586704D01*
X109194360Y-81777180D02*
X109146741Y-81824800D01*
X109146741Y-81824800D02*
X109003884Y-81872419D01*
X109003884Y-81872419D02*
X108908646Y-81872419D01*
X108908646Y-81872419D02*
X108765789Y-81824800D01*
X108765789Y-81824800D02*
X108670551Y-81729561D01*
X108670551Y-81729561D02*
X108622932Y-81634323D01*
X108622932Y-81634323D02*
X108575313Y-81443847D01*
X108575313Y-81443847D02*
X108575313Y-81300990D01*
X108575313Y-81300990D02*
X108622932Y-81110514D01*
X108622932Y-81110514D02*
X108670551Y-81015276D01*
X108670551Y-81015276D02*
X108765789Y-80920038D01*
X108765789Y-80920038D02*
X108908646Y-80872419D01*
X108908646Y-80872419D02*
X109003884Y-80872419D01*
X109003884Y-80872419D02*
X109146741Y-80920038D01*
X109146741Y-80920038D02*
X109194360Y-80967657D01*
X109765789Y-81872419D02*
X109670551Y-81824800D01*
X109670551Y-81824800D02*
X109622932Y-81729561D01*
X109622932Y-81729561D02*
X109622932Y-80872419D01*
X110575313Y-81205752D02*
X110575313Y-81872419D01*
X110146742Y-81205752D02*
X110146742Y-81729561D01*
X110146742Y-81729561D02*
X110194361Y-81824800D01*
X110194361Y-81824800D02*
X110289599Y-81872419D01*
X110289599Y-81872419D02*
X110432456Y-81872419D01*
X110432456Y-81872419D02*
X110527694Y-81824800D01*
X110527694Y-81824800D02*
X110575313Y-81777180D01*
X111051504Y-81872419D02*
X111051504Y-80872419D01*
X111051504Y-81253371D02*
X111146742Y-81205752D01*
X111146742Y-81205752D02*
X111337218Y-81205752D01*
X111337218Y-81205752D02*
X111432456Y-81253371D01*
X111432456Y-81253371D02*
X111480075Y-81300990D01*
X111480075Y-81300990D02*
X111527694Y-81396228D01*
X111527694Y-81396228D02*
X111527694Y-81681942D01*
X111527694Y-81681942D02*
X111480075Y-81777180D01*
X111480075Y-81777180D02*
X111432456Y-81824800D01*
X111432456Y-81824800D02*
X111337218Y-81872419D01*
X111337218Y-81872419D02*
X111146742Y-81872419D01*
X111146742Y-81872419D02*
X111051504Y-81824800D01*
X113051504Y-81348609D02*
X113194361Y-81396228D01*
X113194361Y-81396228D02*
X113241980Y-81443847D01*
X113241980Y-81443847D02*
X113289599Y-81539085D01*
X113289599Y-81539085D02*
X113289599Y-81681942D01*
X113289599Y-81681942D02*
X113241980Y-81777180D01*
X113241980Y-81777180D02*
X113194361Y-81824800D01*
X113194361Y-81824800D02*
X113099123Y-81872419D01*
X113099123Y-81872419D02*
X112718171Y-81872419D01*
X112718171Y-81872419D02*
X112718171Y-80872419D01*
X112718171Y-80872419D02*
X113051504Y-80872419D01*
X113051504Y-80872419D02*
X113146742Y-80920038D01*
X113146742Y-80920038D02*
X113194361Y-80967657D01*
X113194361Y-80967657D02*
X113241980Y-81062895D01*
X113241980Y-81062895D02*
X113241980Y-81158133D01*
X113241980Y-81158133D02*
X113194361Y-81253371D01*
X113194361Y-81253371D02*
X113146742Y-81300990D01*
X113146742Y-81300990D02*
X113051504Y-81348609D01*
X113051504Y-81348609D02*
X112718171Y-81348609D01*
X113861028Y-81872419D02*
X113765790Y-81824800D01*
X113765790Y-81824800D02*
X113718171Y-81729561D01*
X113718171Y-81729561D02*
X113718171Y-80872419D01*
X114670552Y-81205752D02*
X114670552Y-81872419D01*
X114241981Y-81205752D02*
X114241981Y-81729561D01*
X114241981Y-81729561D02*
X114289600Y-81824800D01*
X114289600Y-81824800D02*
X114384838Y-81872419D01*
X114384838Y-81872419D02*
X114527695Y-81872419D01*
X114527695Y-81872419D02*
X114622933Y-81824800D01*
X114622933Y-81824800D02*
X114670552Y-81777180D01*
X115527695Y-81824800D02*
X115432457Y-81872419D01*
X115432457Y-81872419D02*
X115241981Y-81872419D01*
X115241981Y-81872419D02*
X115146743Y-81824800D01*
X115146743Y-81824800D02*
X115099124Y-81729561D01*
X115099124Y-81729561D02*
X115099124Y-81348609D01*
X115099124Y-81348609D02*
X115146743Y-81253371D01*
X115146743Y-81253371D02*
X115241981Y-81205752D01*
X115241981Y-81205752D02*
X115432457Y-81205752D01*
X115432457Y-81205752D02*
X115527695Y-81253371D01*
X115527695Y-81253371D02*
X115575314Y-81348609D01*
X115575314Y-81348609D02*
X115575314Y-81443847D01*
X115575314Y-81443847D02*
X115099124Y-81539085D01*
X116003886Y-81205752D02*
X116003886Y-82205752D01*
X116003886Y-81253371D02*
X116099124Y-81205752D01*
X116099124Y-81205752D02*
X116289600Y-81205752D01*
X116289600Y-81205752D02*
X116384838Y-81253371D01*
X116384838Y-81253371D02*
X116432457Y-81300990D01*
X116432457Y-81300990D02*
X116480076Y-81396228D01*
X116480076Y-81396228D02*
X116480076Y-81681942D01*
X116480076Y-81681942D02*
X116432457Y-81777180D01*
X116432457Y-81777180D02*
X116384838Y-81824800D01*
X116384838Y-81824800D02*
X116289600Y-81872419D01*
X116289600Y-81872419D02*
X116099124Y-81872419D01*
X116099124Y-81872419D02*
X116003886Y-81824800D01*
X116908648Y-81872419D02*
X116908648Y-81205752D01*
X116908648Y-81396228D02*
X116956267Y-81300990D01*
X116956267Y-81300990D02*
X117003886Y-81253371D01*
X117003886Y-81253371D02*
X117099124Y-81205752D01*
X117099124Y-81205752D02*
X117194362Y-81205752D01*
X117527696Y-81872419D02*
X117527696Y-81205752D01*
X117527696Y-80872419D02*
X117480077Y-80920038D01*
X117480077Y-80920038D02*
X117527696Y-80967657D01*
X117527696Y-80967657D02*
X117575315Y-80920038D01*
X117575315Y-80920038D02*
X117527696Y-80872419D01*
X117527696Y-80872419D02*
X117527696Y-80967657D01*
X118003886Y-81205752D02*
X118003886Y-81872419D01*
X118003886Y-81300990D02*
X118051505Y-81253371D01*
X118051505Y-81253371D02*
X118146743Y-81205752D01*
X118146743Y-81205752D02*
X118289600Y-81205752D01*
X118289600Y-81205752D02*
X118384838Y-81253371D01*
X118384838Y-81253371D02*
X118432457Y-81348609D01*
X118432457Y-81348609D02*
X118432457Y-81872419D01*
X118765791Y-81205752D02*
X119146743Y-81205752D01*
X118908648Y-80872419D02*
X118908648Y-81729561D01*
X118908648Y-81729561D02*
X118956267Y-81824800D01*
X118956267Y-81824800D02*
X119051505Y-81872419D01*
X119051505Y-81872419D02*
X119146743Y-81872419D01*
X105003884Y-79972419D02*
X105003884Y-78972419D01*
X105003884Y-78972419D02*
X105241979Y-78972419D01*
X105241979Y-78972419D02*
X105384836Y-79020038D01*
X105384836Y-79020038D02*
X105480074Y-79115276D01*
X105480074Y-79115276D02*
X105527693Y-79210514D01*
X105527693Y-79210514D02*
X105575312Y-79400990D01*
X105575312Y-79400990D02*
X105575312Y-79543847D01*
X105575312Y-79543847D02*
X105527693Y-79734323D01*
X105527693Y-79734323D02*
X105480074Y-79829561D01*
X105480074Y-79829561D02*
X105384836Y-79924800D01*
X105384836Y-79924800D02*
X105241979Y-79972419D01*
X105241979Y-79972419D02*
X105003884Y-79972419D01*
X106003884Y-79972419D02*
X106003884Y-78972419D01*
X106003884Y-78972419D02*
X106384836Y-78972419D01*
X106384836Y-78972419D02*
X106480074Y-79020038D01*
X106480074Y-79020038D02*
X106527693Y-79067657D01*
X106527693Y-79067657D02*
X106575312Y-79162895D01*
X106575312Y-79162895D02*
X106575312Y-79305752D01*
X106575312Y-79305752D02*
X106527693Y-79400990D01*
X106527693Y-79400990D02*
X106480074Y-79448609D01*
X106480074Y-79448609D02*
X106384836Y-79496228D01*
X106384836Y-79496228D02*
X106003884Y-79496228D01*
X107003884Y-79972419D02*
X107003884Y-78972419D01*
X107003884Y-78972419D02*
X107241979Y-78972419D01*
X107241979Y-78972419D02*
X107384836Y-79020038D01*
X107384836Y-79020038D02*
X107480074Y-79115276D01*
X107480074Y-79115276D02*
X107527693Y-79210514D01*
X107527693Y-79210514D02*
X107575312Y-79400990D01*
X107575312Y-79400990D02*
X107575312Y-79543847D01*
X107575312Y-79543847D02*
X107527693Y-79734323D01*
X107527693Y-79734323D02*
X107480074Y-79829561D01*
X107480074Y-79829561D02*
X107384836Y-79924800D01*
X107384836Y-79924800D02*
X107241979Y-79972419D01*
X107241979Y-79972419D02*
X107003884Y-79972419D01*
X108003884Y-79972419D02*
X108003884Y-78972419D01*
X108480074Y-79972419D02*
X108480074Y-78972419D01*
X108480074Y-78972419D02*
X108813407Y-79686704D01*
X108813407Y-79686704D02*
X109146740Y-78972419D01*
X109146740Y-78972419D02*
X109146740Y-79972419D01*
X110241979Y-78972419D02*
X110575312Y-79972419D01*
X110575312Y-79972419D02*
X110908645Y-78972419D01*
X111765788Y-79972419D02*
X111194360Y-79972419D01*
X111480074Y-79972419D02*
X111480074Y-78972419D01*
X111480074Y-78972419D02*
X111384836Y-79115276D01*
X111384836Y-79115276D02*
X111289598Y-79210514D01*
X111289598Y-79210514D02*
X111194360Y-79258133D01*
D10*
X122598569Y-80710416D02*
X122122378Y-81043749D01*
X122598569Y-81281844D02*
X121598569Y-81281844D01*
X121598569Y-81281844D02*
X121598569Y-80900892D01*
X121598569Y-80900892D02*
X121646188Y-80805654D01*
X121646188Y-80805654D02*
X121693807Y-80758035D01*
X121693807Y-80758035D02*
X121789045Y-80710416D01*
X121789045Y-80710416D02*
X121931902Y-80710416D01*
X121931902Y-80710416D02*
X122027140Y-80758035D01*
X122027140Y-80758035D02*
X122074759Y-80805654D01*
X122074759Y-80805654D02*
X122122378Y-80900892D01*
X122122378Y-80900892D02*
X122122378Y-81281844D01*
X121598569Y-79805654D02*
X121598569Y-80281844D01*
X121598569Y-80281844D02*
X122074759Y-80329463D01*
X122074759Y-80329463D02*
X122027140Y-80281844D01*
X122027140Y-80281844D02*
X121979521Y-80186606D01*
X121979521Y-80186606D02*
X121979521Y-79948511D01*
X121979521Y-79948511D02*
X122027140Y-79853273D01*
X122027140Y-79853273D02*
X122074759Y-79805654D01*
X122074759Y-79805654D02*
X122169997Y-79758035D01*
X122169997Y-79758035D02*
X122408092Y-79758035D01*
X122408092Y-79758035D02*
X122503330Y-79805654D01*
X122503330Y-79805654D02*
X122550950Y-79853273D01*
X122550950Y-79853273D02*
X122598569Y-79948511D01*
X122598569Y-79948511D02*
X122598569Y-80186606D01*
X122598569Y-80186606D02*
X122550950Y-80281844D01*
X122550950Y-80281844D02*
X122503330Y-80329463D01*
X115347917Y-109214450D02*
X115490774Y-109262069D01*
X115490774Y-109262069D02*
X115728869Y-109262069D01*
X115728869Y-109262069D02*
X115824107Y-109214450D01*
X115824107Y-109214450D02*
X115871726Y-109166830D01*
X115871726Y-109166830D02*
X115919345Y-109071592D01*
X115919345Y-109071592D02*
X115919345Y-108976354D01*
X115919345Y-108976354D02*
X115871726Y-108881116D01*
X115871726Y-108881116D02*
X115824107Y-108833497D01*
X115824107Y-108833497D02*
X115728869Y-108785878D01*
X115728869Y-108785878D02*
X115538393Y-108738259D01*
X115538393Y-108738259D02*
X115443155Y-108690640D01*
X115443155Y-108690640D02*
X115395536Y-108643021D01*
X115395536Y-108643021D02*
X115347917Y-108547783D01*
X115347917Y-108547783D02*
X115347917Y-108452545D01*
X115347917Y-108452545D02*
X115395536Y-108357307D01*
X115395536Y-108357307D02*
X115443155Y-108309688D01*
X115443155Y-108309688D02*
X115538393Y-108262069D01*
X115538393Y-108262069D02*
X115776488Y-108262069D01*
X115776488Y-108262069D02*
X115919345Y-108309688D01*
X116252679Y-108262069D02*
X116490774Y-109262069D01*
X116490774Y-109262069D02*
X116681250Y-108547783D01*
X116681250Y-108547783D02*
X116871726Y-109262069D01*
X116871726Y-109262069D02*
X117109822Y-108262069D01*
X117395536Y-108262069D02*
X118014583Y-108262069D01*
X118014583Y-108262069D02*
X117681250Y-108643021D01*
X117681250Y-108643021D02*
X117824107Y-108643021D01*
X117824107Y-108643021D02*
X117919345Y-108690640D01*
X117919345Y-108690640D02*
X117966964Y-108738259D01*
X117966964Y-108738259D02*
X118014583Y-108833497D01*
X118014583Y-108833497D02*
X118014583Y-109071592D01*
X118014583Y-109071592D02*
X117966964Y-109166830D01*
X117966964Y-109166830D02*
X117919345Y-109214450D01*
X117919345Y-109214450D02*
X117824107Y-109262069D01*
X117824107Y-109262069D02*
X117538393Y-109262069D01*
X117538393Y-109262069D02*
X117443155Y-109214450D01*
X117443155Y-109214450D02*
X117395536Y-109166830D01*
X172497917Y-109214450D02*
X172640774Y-109262069D01*
X172640774Y-109262069D02*
X172878869Y-109262069D01*
X172878869Y-109262069D02*
X172974107Y-109214450D01*
X172974107Y-109214450D02*
X173021726Y-109166830D01*
X173021726Y-109166830D02*
X173069345Y-109071592D01*
X173069345Y-109071592D02*
X173069345Y-108976354D01*
X173069345Y-108976354D02*
X173021726Y-108881116D01*
X173021726Y-108881116D02*
X172974107Y-108833497D01*
X172974107Y-108833497D02*
X172878869Y-108785878D01*
X172878869Y-108785878D02*
X172688393Y-108738259D01*
X172688393Y-108738259D02*
X172593155Y-108690640D01*
X172593155Y-108690640D02*
X172545536Y-108643021D01*
X172545536Y-108643021D02*
X172497917Y-108547783D01*
X172497917Y-108547783D02*
X172497917Y-108452545D01*
X172497917Y-108452545D02*
X172545536Y-108357307D01*
X172545536Y-108357307D02*
X172593155Y-108309688D01*
X172593155Y-108309688D02*
X172688393Y-108262069D01*
X172688393Y-108262069D02*
X172926488Y-108262069D01*
X172926488Y-108262069D02*
X173069345Y-108309688D01*
X173402679Y-108262069D02*
X173640774Y-109262069D01*
X173640774Y-109262069D02*
X173831250Y-108547783D01*
X173831250Y-108547783D02*
X174021726Y-109262069D01*
X174021726Y-109262069D02*
X174259822Y-108262069D01*
X175069345Y-108262069D02*
X174878869Y-108262069D01*
X174878869Y-108262069D02*
X174783631Y-108309688D01*
X174783631Y-108309688D02*
X174736012Y-108357307D01*
X174736012Y-108357307D02*
X174640774Y-108500164D01*
X174640774Y-108500164D02*
X174593155Y-108690640D01*
X174593155Y-108690640D02*
X174593155Y-109071592D01*
X174593155Y-109071592D02*
X174640774Y-109166830D01*
X174640774Y-109166830D02*
X174688393Y-109214450D01*
X174688393Y-109214450D02*
X174783631Y-109262069D01*
X174783631Y-109262069D02*
X174974107Y-109262069D01*
X174974107Y-109262069D02*
X175069345Y-109214450D01*
X175069345Y-109214450D02*
X175116964Y-109166830D01*
X175116964Y-109166830D02*
X175164583Y-109071592D01*
X175164583Y-109071592D02*
X175164583Y-108833497D01*
X175164583Y-108833497D02*
X175116964Y-108738259D01*
X175116964Y-108738259D02*
X175069345Y-108690640D01*
X175069345Y-108690640D02*
X174974107Y-108643021D01*
X174974107Y-108643021D02*
X174783631Y-108643021D01*
X174783631Y-108643021D02*
X174688393Y-108690640D01*
X174688393Y-108690640D02*
X174640774Y-108738259D01*
X174640774Y-108738259D02*
X174593155Y-108833497D01*
X96297917Y-109214450D02*
X96440774Y-109262069D01*
X96440774Y-109262069D02*
X96678869Y-109262069D01*
X96678869Y-109262069D02*
X96774107Y-109214450D01*
X96774107Y-109214450D02*
X96821726Y-109166830D01*
X96821726Y-109166830D02*
X96869345Y-109071592D01*
X96869345Y-109071592D02*
X96869345Y-108976354D01*
X96869345Y-108976354D02*
X96821726Y-108881116D01*
X96821726Y-108881116D02*
X96774107Y-108833497D01*
X96774107Y-108833497D02*
X96678869Y-108785878D01*
X96678869Y-108785878D02*
X96488393Y-108738259D01*
X96488393Y-108738259D02*
X96393155Y-108690640D01*
X96393155Y-108690640D02*
X96345536Y-108643021D01*
X96345536Y-108643021D02*
X96297917Y-108547783D01*
X96297917Y-108547783D02*
X96297917Y-108452545D01*
X96297917Y-108452545D02*
X96345536Y-108357307D01*
X96345536Y-108357307D02*
X96393155Y-108309688D01*
X96393155Y-108309688D02*
X96488393Y-108262069D01*
X96488393Y-108262069D02*
X96726488Y-108262069D01*
X96726488Y-108262069D02*
X96869345Y-108309688D01*
X97202679Y-108262069D02*
X97440774Y-109262069D01*
X97440774Y-109262069D02*
X97631250Y-108547783D01*
X97631250Y-108547783D02*
X97821726Y-109262069D01*
X97821726Y-109262069D02*
X98059822Y-108262069D01*
X98393155Y-108357307D02*
X98440774Y-108309688D01*
X98440774Y-108309688D02*
X98536012Y-108262069D01*
X98536012Y-108262069D02*
X98774107Y-108262069D01*
X98774107Y-108262069D02*
X98869345Y-108309688D01*
X98869345Y-108309688D02*
X98916964Y-108357307D01*
X98916964Y-108357307D02*
X98964583Y-108452545D01*
X98964583Y-108452545D02*
X98964583Y-108547783D01*
X98964583Y-108547783D02*
X98916964Y-108690640D01*
X98916964Y-108690640D02*
X98345536Y-109262069D01*
X98345536Y-109262069D02*
X98964583Y-109262069D01*
X204861069Y-113133035D02*
X203861069Y-113133035D01*
X203861069Y-113133035D02*
X203861069Y-112894940D01*
X203861069Y-112894940D02*
X203908688Y-112752083D01*
X203908688Y-112752083D02*
X204003926Y-112656845D01*
X204003926Y-112656845D02*
X204099164Y-112609226D01*
X204099164Y-112609226D02*
X204289640Y-112561607D01*
X204289640Y-112561607D02*
X204432497Y-112561607D01*
X204432497Y-112561607D02*
X204622973Y-112609226D01*
X204622973Y-112609226D02*
X204718211Y-112656845D01*
X204718211Y-112656845D02*
X204813450Y-112752083D01*
X204813450Y-112752083D02*
X204861069Y-112894940D01*
X204861069Y-112894940D02*
X204861069Y-113133035D01*
X203861069Y-112228273D02*
X203861069Y-111609226D01*
X203861069Y-111609226D02*
X204242021Y-111942559D01*
X204242021Y-111942559D02*
X204242021Y-111799702D01*
X204242021Y-111799702D02*
X204289640Y-111704464D01*
X204289640Y-111704464D02*
X204337259Y-111656845D01*
X204337259Y-111656845D02*
X204432497Y-111609226D01*
X204432497Y-111609226D02*
X204670592Y-111609226D01*
X204670592Y-111609226D02*
X204765830Y-111656845D01*
X204765830Y-111656845D02*
X204813450Y-111704464D01*
X204813450Y-111704464D02*
X204861069Y-111799702D01*
X204861069Y-111799702D02*
X204861069Y-112085416D01*
X204861069Y-112085416D02*
X204813450Y-112180654D01*
X204813450Y-112180654D02*
X204765830Y-112228273D01*
X203861069Y-111275892D02*
X203861069Y-110609226D01*
X203861069Y-110609226D02*
X204861069Y-111037797D01*
X112141905Y-53004819D02*
X112141905Y-52004819D01*
X112141905Y-52004819D02*
X112380000Y-52004819D01*
X112380000Y-52004819D02*
X112522857Y-52052438D01*
X112522857Y-52052438D02*
X112618095Y-52147676D01*
X112618095Y-52147676D02*
X112665714Y-52242914D01*
X112665714Y-52242914D02*
X112713333Y-52433390D01*
X112713333Y-52433390D02*
X112713333Y-52576247D01*
X112713333Y-52576247D02*
X112665714Y-52766723D01*
X112665714Y-52766723D02*
X112618095Y-52861961D01*
X112618095Y-52861961D02*
X112522857Y-52957200D01*
X112522857Y-52957200D02*
X112380000Y-53004819D01*
X112380000Y-53004819D02*
X112141905Y-53004819D01*
X113189524Y-53004819D02*
X113380000Y-53004819D01*
X113380000Y-53004819D02*
X113475238Y-52957200D01*
X113475238Y-52957200D02*
X113522857Y-52909580D01*
X113522857Y-52909580D02*
X113618095Y-52766723D01*
X113618095Y-52766723D02*
X113665714Y-52576247D01*
X113665714Y-52576247D02*
X113665714Y-52195295D01*
X113665714Y-52195295D02*
X113618095Y-52100057D01*
X113618095Y-52100057D02*
X113570476Y-52052438D01*
X113570476Y-52052438D02*
X113475238Y-52004819D01*
X113475238Y-52004819D02*
X113284762Y-52004819D01*
X113284762Y-52004819D02*
X113189524Y-52052438D01*
X113189524Y-52052438D02*
X113141905Y-52100057D01*
X113141905Y-52100057D02*
X113094286Y-52195295D01*
X113094286Y-52195295D02*
X113094286Y-52433390D01*
X113094286Y-52433390D02*
X113141905Y-52528628D01*
X113141905Y-52528628D02*
X113189524Y-52576247D01*
X113189524Y-52576247D02*
X113284762Y-52623866D01*
X113284762Y-52623866D02*
X113475238Y-52623866D01*
X113475238Y-52623866D02*
X113570476Y-52576247D01*
X113570476Y-52576247D02*
X113618095Y-52528628D01*
X113618095Y-52528628D02*
X113665714Y-52433390D01*
X109908571Y-54787295D02*
X109451428Y-54787295D01*
X109680000Y-54787295D02*
X109680000Y-53987295D01*
X109680000Y-53987295D02*
X109603809Y-54101580D01*
X109603809Y-54101580D02*
X109527619Y-54177771D01*
X109527619Y-54177771D02*
X109451428Y-54215866D01*
X210121726Y-90164450D02*
X210264583Y-90212069D01*
X210264583Y-90212069D02*
X210502678Y-90212069D01*
X210502678Y-90212069D02*
X210597916Y-90164450D01*
X210597916Y-90164450D02*
X210645535Y-90116830D01*
X210645535Y-90116830D02*
X210693154Y-90021592D01*
X210693154Y-90021592D02*
X210693154Y-89926354D01*
X210693154Y-89926354D02*
X210645535Y-89831116D01*
X210645535Y-89831116D02*
X210597916Y-89783497D01*
X210597916Y-89783497D02*
X210502678Y-89735878D01*
X210502678Y-89735878D02*
X210312202Y-89688259D01*
X210312202Y-89688259D02*
X210216964Y-89640640D01*
X210216964Y-89640640D02*
X210169345Y-89593021D01*
X210169345Y-89593021D02*
X210121726Y-89497783D01*
X210121726Y-89497783D02*
X210121726Y-89402545D01*
X210121726Y-89402545D02*
X210169345Y-89307307D01*
X210169345Y-89307307D02*
X210216964Y-89259688D01*
X210216964Y-89259688D02*
X210312202Y-89212069D01*
X210312202Y-89212069D02*
X210550297Y-89212069D01*
X210550297Y-89212069D02*
X210693154Y-89259688D01*
X211026488Y-89212069D02*
X211264583Y-90212069D01*
X211264583Y-90212069D02*
X211455059Y-89497783D01*
X211455059Y-89497783D02*
X211645535Y-90212069D01*
X211645535Y-90212069D02*
X211883631Y-89212069D01*
X212788392Y-90212069D02*
X212216964Y-90212069D01*
X212502678Y-90212069D02*
X212502678Y-89212069D01*
X212502678Y-89212069D02*
X212407440Y-89354926D01*
X212407440Y-89354926D02*
X212312202Y-89450164D01*
X212312202Y-89450164D02*
X212216964Y-89497783D01*
X213645535Y-89212069D02*
X213455059Y-89212069D01*
X213455059Y-89212069D02*
X213359821Y-89259688D01*
X213359821Y-89259688D02*
X213312202Y-89307307D01*
X213312202Y-89307307D02*
X213216964Y-89450164D01*
X213216964Y-89450164D02*
X213169345Y-89640640D01*
X213169345Y-89640640D02*
X213169345Y-90021592D01*
X213169345Y-90021592D02*
X213216964Y-90116830D01*
X213216964Y-90116830D02*
X213264583Y-90164450D01*
X213264583Y-90164450D02*
X213359821Y-90212069D01*
X213359821Y-90212069D02*
X213550297Y-90212069D01*
X213550297Y-90212069D02*
X213645535Y-90164450D01*
X213645535Y-90164450D02*
X213693154Y-90116830D01*
X213693154Y-90116830D02*
X213740773Y-90021592D01*
X213740773Y-90021592D02*
X213740773Y-89783497D01*
X213740773Y-89783497D02*
X213693154Y-89688259D01*
X213693154Y-89688259D02*
X213645535Y-89640640D01*
X213645535Y-89640640D02*
X213550297Y-89593021D01*
X213550297Y-89593021D02*
X213359821Y-89593021D01*
X213359821Y-89593021D02*
X213264583Y-89640640D01*
X213264583Y-89640640D02*
X213216964Y-89688259D01*
X213216964Y-89688259D02*
X213169345Y-89783497D01*
X132123569Y-66422916D02*
X131647378Y-66756249D01*
X132123569Y-66994344D02*
X131123569Y-66994344D01*
X131123569Y-66994344D02*
X131123569Y-66613392D01*
X131123569Y-66613392D02*
X131171188Y-66518154D01*
X131171188Y-66518154D02*
X131218807Y-66470535D01*
X131218807Y-66470535D02*
X131314045Y-66422916D01*
X131314045Y-66422916D02*
X131456902Y-66422916D01*
X131456902Y-66422916D02*
X131552140Y-66470535D01*
X131552140Y-66470535D02*
X131599759Y-66518154D01*
X131599759Y-66518154D02*
X131647378Y-66613392D01*
X131647378Y-66613392D02*
X131647378Y-66994344D01*
X131123569Y-66089582D02*
X131123569Y-65470535D01*
X131123569Y-65470535D02*
X131504521Y-65803868D01*
X131504521Y-65803868D02*
X131504521Y-65661011D01*
X131504521Y-65661011D02*
X131552140Y-65565773D01*
X131552140Y-65565773D02*
X131599759Y-65518154D01*
X131599759Y-65518154D02*
X131694997Y-65470535D01*
X131694997Y-65470535D02*
X131933092Y-65470535D01*
X131933092Y-65470535D02*
X132028330Y-65518154D01*
X132028330Y-65518154D02*
X132075950Y-65565773D01*
X132075950Y-65565773D02*
X132123569Y-65661011D01*
X132123569Y-65661011D02*
X132123569Y-65946725D01*
X132123569Y-65946725D02*
X132075950Y-66041963D01*
X132075950Y-66041963D02*
X132028330Y-66089582D01*
X127361069Y-73566666D02*
X126884878Y-73899999D01*
X127361069Y-74138094D02*
X126361069Y-74138094D01*
X126361069Y-74138094D02*
X126361069Y-73757142D01*
X126361069Y-73757142D02*
X126408688Y-73661904D01*
X126408688Y-73661904D02*
X126456307Y-73614285D01*
X126456307Y-73614285D02*
X126551545Y-73566666D01*
X126551545Y-73566666D02*
X126694402Y-73566666D01*
X126694402Y-73566666D02*
X126789640Y-73614285D01*
X126789640Y-73614285D02*
X126837259Y-73661904D01*
X126837259Y-73661904D02*
X126884878Y-73757142D01*
X126884878Y-73757142D02*
X126884878Y-74138094D01*
X126694402Y-72709523D02*
X127361069Y-72709523D01*
X126313450Y-72947618D02*
X127027735Y-73185713D01*
X127027735Y-73185713D02*
X127027735Y-72566666D01*
X95821726Y-90164450D02*
X95964583Y-90212069D01*
X95964583Y-90212069D02*
X96202678Y-90212069D01*
X96202678Y-90212069D02*
X96297916Y-90164450D01*
X96297916Y-90164450D02*
X96345535Y-90116830D01*
X96345535Y-90116830D02*
X96393154Y-90021592D01*
X96393154Y-90021592D02*
X96393154Y-89926354D01*
X96393154Y-89926354D02*
X96345535Y-89831116D01*
X96345535Y-89831116D02*
X96297916Y-89783497D01*
X96297916Y-89783497D02*
X96202678Y-89735878D01*
X96202678Y-89735878D02*
X96012202Y-89688259D01*
X96012202Y-89688259D02*
X95916964Y-89640640D01*
X95916964Y-89640640D02*
X95869345Y-89593021D01*
X95869345Y-89593021D02*
X95821726Y-89497783D01*
X95821726Y-89497783D02*
X95821726Y-89402545D01*
X95821726Y-89402545D02*
X95869345Y-89307307D01*
X95869345Y-89307307D02*
X95916964Y-89259688D01*
X95916964Y-89259688D02*
X96012202Y-89212069D01*
X96012202Y-89212069D02*
X96250297Y-89212069D01*
X96250297Y-89212069D02*
X96393154Y-89259688D01*
X96726488Y-89212069D02*
X96964583Y-90212069D01*
X96964583Y-90212069D02*
X97155059Y-89497783D01*
X97155059Y-89497783D02*
X97345535Y-90212069D01*
X97345535Y-90212069D02*
X97583631Y-89212069D01*
X98488392Y-90212069D02*
X97916964Y-90212069D01*
X98202678Y-90212069D02*
X98202678Y-89212069D01*
X98202678Y-89212069D02*
X98107440Y-89354926D01*
X98107440Y-89354926D02*
X98012202Y-89450164D01*
X98012202Y-89450164D02*
X97916964Y-89497783D01*
X99107440Y-89212069D02*
X99202678Y-89212069D01*
X99202678Y-89212069D02*
X99297916Y-89259688D01*
X99297916Y-89259688D02*
X99345535Y-89307307D01*
X99345535Y-89307307D02*
X99393154Y-89402545D01*
X99393154Y-89402545D02*
X99440773Y-89593021D01*
X99440773Y-89593021D02*
X99440773Y-89831116D01*
X99440773Y-89831116D02*
X99393154Y-90021592D01*
X99393154Y-90021592D02*
X99345535Y-90116830D01*
X99345535Y-90116830D02*
X99297916Y-90164450D01*
X99297916Y-90164450D02*
X99202678Y-90212069D01*
X99202678Y-90212069D02*
X99107440Y-90212069D01*
X99107440Y-90212069D02*
X99012202Y-90164450D01*
X99012202Y-90164450D02*
X98964583Y-90116830D01*
X98964583Y-90116830D02*
X98916964Y-90021592D01*
X98916964Y-90021592D02*
X98869345Y-89831116D01*
X98869345Y-89831116D02*
X98869345Y-89593021D01*
X98869345Y-89593021D02*
X98916964Y-89402545D01*
X98916964Y-89402545D02*
X98964583Y-89307307D01*
X98964583Y-89307307D02*
X99012202Y-89259688D01*
X99012202Y-89259688D02*
X99107440Y-89212069D01*
X135352319Y-84568035D02*
X134352319Y-84568035D01*
X134352319Y-84568035D02*
X134352319Y-84329940D01*
X134352319Y-84329940D02*
X134399938Y-84187083D01*
X134399938Y-84187083D02*
X134495176Y-84091845D01*
X134495176Y-84091845D02*
X134590414Y-84044226D01*
X134590414Y-84044226D02*
X134780890Y-83996607D01*
X134780890Y-83996607D02*
X134923747Y-83996607D01*
X134923747Y-83996607D02*
X135114223Y-84044226D01*
X135114223Y-84044226D02*
X135209461Y-84091845D01*
X135209461Y-84091845D02*
X135304700Y-84187083D01*
X135304700Y-84187083D02*
X135352319Y-84329940D01*
X135352319Y-84329940D02*
X135352319Y-84568035D01*
X134447557Y-83615654D02*
X134399938Y-83568035D01*
X134399938Y-83568035D02*
X134352319Y-83472797D01*
X134352319Y-83472797D02*
X134352319Y-83234702D01*
X134352319Y-83234702D02*
X134399938Y-83139464D01*
X134399938Y-83139464D02*
X134447557Y-83091845D01*
X134447557Y-83091845D02*
X134542795Y-83044226D01*
X134542795Y-83044226D02*
X134638033Y-83044226D01*
X134638033Y-83044226D02*
X134780890Y-83091845D01*
X134780890Y-83091845D02*
X135352319Y-83663273D01*
X135352319Y-83663273D02*
X135352319Y-83044226D01*
X135352319Y-82091845D02*
X135352319Y-82663273D01*
X135352319Y-82377559D02*
X134352319Y-82377559D01*
X134352319Y-82377559D02*
X134495176Y-82472797D01*
X134495176Y-82472797D02*
X134590414Y-82568035D01*
X134590414Y-82568035D02*
X134638033Y-82663273D01*
X141648569Y-52135416D02*
X141172378Y-52468749D01*
X141648569Y-52706844D02*
X140648569Y-52706844D01*
X140648569Y-52706844D02*
X140648569Y-52325892D01*
X140648569Y-52325892D02*
X140696188Y-52230654D01*
X140696188Y-52230654D02*
X140743807Y-52183035D01*
X140743807Y-52183035D02*
X140839045Y-52135416D01*
X140839045Y-52135416D02*
X140981902Y-52135416D01*
X140981902Y-52135416D02*
X141077140Y-52183035D01*
X141077140Y-52183035D02*
X141124759Y-52230654D01*
X141124759Y-52230654D02*
X141172378Y-52325892D01*
X141172378Y-52325892D02*
X141172378Y-52706844D01*
X141648569Y-51183035D02*
X141648569Y-51754463D01*
X141648569Y-51468749D02*
X140648569Y-51468749D01*
X140648569Y-51468749D02*
X140791426Y-51563987D01*
X140791426Y-51563987D02*
X140886664Y-51659225D01*
X140886664Y-51659225D02*
X140934283Y-51754463D01*
X111665714Y-68364819D02*
X111665714Y-67364819D01*
X111665714Y-67364819D02*
X111903809Y-67364819D01*
X111903809Y-67364819D02*
X112046666Y-67412438D01*
X112046666Y-67412438D02*
X112141904Y-67507676D01*
X112141904Y-67507676D02*
X112189523Y-67602914D01*
X112189523Y-67602914D02*
X112237142Y-67793390D01*
X112237142Y-67793390D02*
X112237142Y-67936247D01*
X112237142Y-67936247D02*
X112189523Y-68126723D01*
X112189523Y-68126723D02*
X112141904Y-68221961D01*
X112141904Y-68221961D02*
X112046666Y-68317200D01*
X112046666Y-68317200D02*
X111903809Y-68364819D01*
X111903809Y-68364819D02*
X111665714Y-68364819D01*
X113189523Y-68364819D02*
X112618095Y-68364819D01*
X112903809Y-68364819D02*
X112903809Y-67364819D01*
X112903809Y-67364819D02*
X112808571Y-67507676D01*
X112808571Y-67507676D02*
X112713333Y-67602914D01*
X112713333Y-67602914D02*
X112618095Y-67650533D01*
X113570476Y-67460057D02*
X113618095Y-67412438D01*
X113618095Y-67412438D02*
X113713333Y-67364819D01*
X113713333Y-67364819D02*
X113951428Y-67364819D01*
X113951428Y-67364819D02*
X114046666Y-67412438D01*
X114046666Y-67412438D02*
X114094285Y-67460057D01*
X114094285Y-67460057D02*
X114141904Y-67555295D01*
X114141904Y-67555295D02*
X114141904Y-67650533D01*
X114141904Y-67650533D02*
X114094285Y-67793390D01*
X114094285Y-67793390D02*
X113522857Y-68364819D01*
X113522857Y-68364819D02*
X114141904Y-68364819D01*
X109908571Y-70147295D02*
X109451428Y-70147295D01*
X109680000Y-70147295D02*
X109680000Y-69347295D01*
X109680000Y-69347295D02*
X109603809Y-69461580D01*
X109603809Y-69461580D02*
X109527619Y-69537771D01*
X109527619Y-69537771D02*
X109451428Y-69575866D01*
X109611069Y-94083035D02*
X108611069Y-94083035D01*
X108611069Y-94083035D02*
X108611069Y-93844940D01*
X108611069Y-93844940D02*
X108658688Y-93702083D01*
X108658688Y-93702083D02*
X108753926Y-93606845D01*
X108753926Y-93606845D02*
X108849164Y-93559226D01*
X108849164Y-93559226D02*
X109039640Y-93511607D01*
X109039640Y-93511607D02*
X109182497Y-93511607D01*
X109182497Y-93511607D02*
X109372973Y-93559226D01*
X109372973Y-93559226D02*
X109468211Y-93606845D01*
X109468211Y-93606845D02*
X109563450Y-93702083D01*
X109563450Y-93702083D02*
X109611069Y-93844940D01*
X109611069Y-93844940D02*
X109611069Y-94083035D01*
X108706307Y-93130654D02*
X108658688Y-93083035D01*
X108658688Y-93083035D02*
X108611069Y-92987797D01*
X108611069Y-92987797D02*
X108611069Y-92749702D01*
X108611069Y-92749702D02*
X108658688Y-92654464D01*
X108658688Y-92654464D02*
X108706307Y-92606845D01*
X108706307Y-92606845D02*
X108801545Y-92559226D01*
X108801545Y-92559226D02*
X108896783Y-92559226D01*
X108896783Y-92559226D02*
X109039640Y-92606845D01*
X109039640Y-92606845D02*
X109611069Y-93178273D01*
X109611069Y-93178273D02*
X109611069Y-92559226D01*
X108944402Y-91702083D02*
X109611069Y-91702083D01*
X108563450Y-91940178D02*
X109277735Y-92178273D01*
X109277735Y-92178273D02*
X109277735Y-91559226D01*
X96468571Y-54787295D02*
X96011428Y-54787295D01*
X96240000Y-54787295D02*
X96240000Y-53987295D01*
X96240000Y-53987295D02*
X96163809Y-54101580D01*
X96163809Y-54101580D02*
X96087619Y-54177771D01*
X96087619Y-54177771D02*
X96011428Y-54215866D01*
X118385714Y-53004819D02*
X118385714Y-52004819D01*
X118385714Y-52004819D02*
X118623809Y-52004819D01*
X118623809Y-52004819D02*
X118766666Y-52052438D01*
X118766666Y-52052438D02*
X118861904Y-52147676D01*
X118861904Y-52147676D02*
X118909523Y-52242914D01*
X118909523Y-52242914D02*
X118957142Y-52433390D01*
X118957142Y-52433390D02*
X118957142Y-52576247D01*
X118957142Y-52576247D02*
X118909523Y-52766723D01*
X118909523Y-52766723D02*
X118861904Y-52861961D01*
X118861904Y-52861961D02*
X118766666Y-52957200D01*
X118766666Y-52957200D02*
X118623809Y-53004819D01*
X118623809Y-53004819D02*
X118385714Y-53004819D01*
X119909523Y-53004819D02*
X119338095Y-53004819D01*
X119623809Y-53004819D02*
X119623809Y-52004819D01*
X119623809Y-52004819D02*
X119528571Y-52147676D01*
X119528571Y-52147676D02*
X119433333Y-52242914D01*
X119433333Y-52242914D02*
X119338095Y-52290533D01*
X120242857Y-52004819D02*
X120861904Y-52004819D01*
X120861904Y-52004819D02*
X120528571Y-52385771D01*
X120528571Y-52385771D02*
X120671428Y-52385771D01*
X120671428Y-52385771D02*
X120766666Y-52433390D01*
X120766666Y-52433390D02*
X120814285Y-52481009D01*
X120814285Y-52481009D02*
X120861904Y-52576247D01*
X120861904Y-52576247D02*
X120861904Y-52814342D01*
X120861904Y-52814342D02*
X120814285Y-52909580D01*
X120814285Y-52909580D02*
X120766666Y-52957200D01*
X120766666Y-52957200D02*
X120671428Y-53004819D01*
X120671428Y-53004819D02*
X120385714Y-53004819D01*
X120385714Y-53004819D02*
X120290476Y-52957200D01*
X120290476Y-52957200D02*
X120242857Y-52909580D01*
X116628571Y-54787295D02*
X116171428Y-54787295D01*
X116400000Y-54787295D02*
X116400000Y-53987295D01*
X116400000Y-53987295D02*
X116323809Y-54101580D01*
X116323809Y-54101580D02*
X116247619Y-54177771D01*
X116247619Y-54177771D02*
X116171428Y-54215866D01*
X149639819Y-60596785D02*
X148639819Y-60596785D01*
X148639819Y-60596785D02*
X148639819Y-60358690D01*
X148639819Y-60358690D02*
X148687438Y-60215833D01*
X148687438Y-60215833D02*
X148782676Y-60120595D01*
X148782676Y-60120595D02*
X148877914Y-60072976D01*
X148877914Y-60072976D02*
X149068390Y-60025357D01*
X149068390Y-60025357D02*
X149211247Y-60025357D01*
X149211247Y-60025357D02*
X149401723Y-60072976D01*
X149401723Y-60072976D02*
X149496961Y-60120595D01*
X149496961Y-60120595D02*
X149592200Y-60215833D01*
X149592200Y-60215833D02*
X149639819Y-60358690D01*
X149639819Y-60358690D02*
X149639819Y-60596785D01*
X149639819Y-59072976D02*
X149639819Y-59644404D01*
X149639819Y-59358690D02*
X148639819Y-59358690D01*
X148639819Y-59358690D02*
X148782676Y-59453928D01*
X148782676Y-59453928D02*
X148877914Y-59549166D01*
X148877914Y-59549166D02*
X148925533Y-59644404D01*
X149068390Y-58501547D02*
X149020771Y-58596785D01*
X149020771Y-58596785D02*
X148973152Y-58644404D01*
X148973152Y-58644404D02*
X148877914Y-58692023D01*
X148877914Y-58692023D02*
X148830295Y-58692023D01*
X148830295Y-58692023D02*
X148735057Y-58644404D01*
X148735057Y-58644404D02*
X148687438Y-58596785D01*
X148687438Y-58596785D02*
X148639819Y-58501547D01*
X148639819Y-58501547D02*
X148639819Y-58311071D01*
X148639819Y-58311071D02*
X148687438Y-58215833D01*
X148687438Y-58215833D02*
X148735057Y-58168214D01*
X148735057Y-58168214D02*
X148830295Y-58120595D01*
X148830295Y-58120595D02*
X148877914Y-58120595D01*
X148877914Y-58120595D02*
X148973152Y-58168214D01*
X148973152Y-58168214D02*
X149020771Y-58215833D01*
X149020771Y-58215833D02*
X149068390Y-58311071D01*
X149068390Y-58311071D02*
X149068390Y-58501547D01*
X149068390Y-58501547D02*
X149116009Y-58596785D01*
X149116009Y-58596785D02*
X149163628Y-58644404D01*
X149163628Y-58644404D02*
X149258866Y-58692023D01*
X149258866Y-58692023D02*
X149449342Y-58692023D01*
X149449342Y-58692023D02*
X149544580Y-58644404D01*
X149544580Y-58644404D02*
X149592200Y-58596785D01*
X149592200Y-58596785D02*
X149639819Y-58501547D01*
X149639819Y-58501547D02*
X149639819Y-58311071D01*
X149639819Y-58311071D02*
X149592200Y-58215833D01*
X149592200Y-58215833D02*
X149544580Y-58168214D01*
X149544580Y-58168214D02*
X149449342Y-58120595D01*
X149449342Y-58120595D02*
X149258866Y-58120595D01*
X149258866Y-58120595D02*
X149163628Y-58168214D01*
X149163628Y-58168214D02*
X149116009Y-58215833D01*
X149116009Y-58215833D02*
X149068390Y-58311071D01*
X172021726Y-90164450D02*
X172164583Y-90212069D01*
X172164583Y-90212069D02*
X172402678Y-90212069D01*
X172402678Y-90212069D02*
X172497916Y-90164450D01*
X172497916Y-90164450D02*
X172545535Y-90116830D01*
X172545535Y-90116830D02*
X172593154Y-90021592D01*
X172593154Y-90021592D02*
X172593154Y-89926354D01*
X172593154Y-89926354D02*
X172545535Y-89831116D01*
X172545535Y-89831116D02*
X172497916Y-89783497D01*
X172497916Y-89783497D02*
X172402678Y-89735878D01*
X172402678Y-89735878D02*
X172212202Y-89688259D01*
X172212202Y-89688259D02*
X172116964Y-89640640D01*
X172116964Y-89640640D02*
X172069345Y-89593021D01*
X172069345Y-89593021D02*
X172021726Y-89497783D01*
X172021726Y-89497783D02*
X172021726Y-89402545D01*
X172021726Y-89402545D02*
X172069345Y-89307307D01*
X172069345Y-89307307D02*
X172116964Y-89259688D01*
X172116964Y-89259688D02*
X172212202Y-89212069D01*
X172212202Y-89212069D02*
X172450297Y-89212069D01*
X172450297Y-89212069D02*
X172593154Y-89259688D01*
X172926488Y-89212069D02*
X173164583Y-90212069D01*
X173164583Y-90212069D02*
X173355059Y-89497783D01*
X173355059Y-89497783D02*
X173545535Y-90212069D01*
X173545535Y-90212069D02*
X173783631Y-89212069D01*
X174688392Y-90212069D02*
X174116964Y-90212069D01*
X174402678Y-90212069D02*
X174402678Y-89212069D01*
X174402678Y-89212069D02*
X174307440Y-89354926D01*
X174307440Y-89354926D02*
X174212202Y-89450164D01*
X174212202Y-89450164D02*
X174116964Y-89497783D01*
X175545535Y-89545402D02*
X175545535Y-90212069D01*
X175307440Y-89164450D02*
X175069345Y-89878735D01*
X175069345Y-89878735D02*
X175688392Y-89878735D01*
X183931009Y-57076666D02*
X183978628Y-56933809D01*
X183978628Y-56933809D02*
X184026247Y-56886190D01*
X184026247Y-56886190D02*
X184121485Y-56838571D01*
X184121485Y-56838571D02*
X184264342Y-56838571D01*
X184264342Y-56838571D02*
X184359580Y-56886190D01*
X184359580Y-56886190D02*
X184407200Y-56933809D01*
X184407200Y-56933809D02*
X184454819Y-57029047D01*
X184454819Y-57029047D02*
X184454819Y-57409999D01*
X184454819Y-57409999D02*
X183454819Y-57409999D01*
X183454819Y-57409999D02*
X183454819Y-57076666D01*
X183454819Y-57076666D02*
X183502438Y-56981428D01*
X183502438Y-56981428D02*
X183550057Y-56933809D01*
X183550057Y-56933809D02*
X183645295Y-56886190D01*
X183645295Y-56886190D02*
X183740533Y-56886190D01*
X183740533Y-56886190D02*
X183835771Y-56933809D01*
X183835771Y-56933809D02*
X183883390Y-56981428D01*
X183883390Y-56981428D02*
X183931009Y-57076666D01*
X183931009Y-57076666D02*
X183931009Y-57409999D01*
X184454819Y-56409999D02*
X183788152Y-56409999D01*
X183978628Y-56409999D02*
X183883390Y-56362380D01*
X183883390Y-56362380D02*
X183835771Y-56314761D01*
X183835771Y-56314761D02*
X183788152Y-56219523D01*
X183788152Y-56219523D02*
X183788152Y-56124285D01*
X184454819Y-55362380D02*
X183454819Y-55362380D01*
X184407200Y-55362380D02*
X184454819Y-55457618D01*
X184454819Y-55457618D02*
X184454819Y-55648094D01*
X184454819Y-55648094D02*
X184407200Y-55743332D01*
X184407200Y-55743332D02*
X184359580Y-55790951D01*
X184359580Y-55790951D02*
X184264342Y-55838570D01*
X184264342Y-55838570D02*
X183978628Y-55838570D01*
X183978628Y-55838570D02*
X183883390Y-55790951D01*
X183883390Y-55790951D02*
X183835771Y-55743332D01*
X183835771Y-55743332D02*
X183788152Y-55648094D01*
X183788152Y-55648094D02*
X183788152Y-55457618D01*
X183788152Y-55457618D02*
X183835771Y-55362380D01*
X184454819Y-54362380D02*
X184454819Y-54933808D01*
X184454819Y-54648094D02*
X183454819Y-54648094D01*
X183454819Y-54648094D02*
X183597676Y-54743332D01*
X183597676Y-54743332D02*
X183692914Y-54838570D01*
X183692914Y-54838570D02*
X183740533Y-54933808D01*
X216224878Y-52761428D02*
X216189164Y-52832857D01*
X216189164Y-52832857D02*
X216189164Y-52939999D01*
X216189164Y-52939999D02*
X216224878Y-53047142D01*
X216224878Y-53047142D02*
X216296307Y-53118571D01*
X216296307Y-53118571D02*
X216367735Y-53154285D01*
X216367735Y-53154285D02*
X216510592Y-53189999D01*
X216510592Y-53189999D02*
X216617735Y-53189999D01*
X216617735Y-53189999D02*
X216760592Y-53154285D01*
X216760592Y-53154285D02*
X216832021Y-53118571D01*
X216832021Y-53118571D02*
X216903450Y-53047142D01*
X216903450Y-53047142D02*
X216939164Y-52939999D01*
X216939164Y-52939999D02*
X216939164Y-52868571D01*
X216939164Y-52868571D02*
X216903450Y-52761428D01*
X216903450Y-52761428D02*
X216867735Y-52725714D01*
X216867735Y-52725714D02*
X216617735Y-52725714D01*
X216617735Y-52725714D02*
X216617735Y-52868571D01*
X216939164Y-52404285D02*
X216189164Y-52404285D01*
X216189164Y-52404285D02*
X216939164Y-51975714D01*
X216939164Y-51975714D02*
X216189164Y-51975714D01*
X216939164Y-51618571D02*
X216189164Y-51618571D01*
X216189164Y-51618571D02*
X216189164Y-51440000D01*
X216189164Y-51440000D02*
X216224878Y-51332857D01*
X216224878Y-51332857D02*
X216296307Y-51261428D01*
X216296307Y-51261428D02*
X216367735Y-51225714D01*
X216367735Y-51225714D02*
X216510592Y-51190000D01*
X216510592Y-51190000D02*
X216617735Y-51190000D01*
X216617735Y-51190000D02*
X216760592Y-51225714D01*
X216760592Y-51225714D02*
X216832021Y-51261428D01*
X216832021Y-51261428D02*
X216903450Y-51332857D01*
X216903450Y-51332857D02*
X216939164Y-51440000D01*
X216939164Y-51440000D02*
X216939164Y-51618571D01*
X197171428Y-55454819D02*
X197361904Y-55454819D01*
X197361904Y-55454819D02*
X197457142Y-55502438D01*
X197457142Y-55502438D02*
X197552380Y-55597676D01*
X197552380Y-55597676D02*
X197599999Y-55788152D01*
X197599999Y-55788152D02*
X197599999Y-56121485D01*
X197599999Y-56121485D02*
X197552380Y-56311961D01*
X197552380Y-56311961D02*
X197457142Y-56407200D01*
X197457142Y-56407200D02*
X197361904Y-56454819D01*
X197361904Y-56454819D02*
X197171428Y-56454819D01*
X197171428Y-56454819D02*
X197076190Y-56407200D01*
X197076190Y-56407200D02*
X196980952Y-56311961D01*
X196980952Y-56311961D02*
X196933333Y-56121485D01*
X196933333Y-56121485D02*
X196933333Y-55788152D01*
X196933333Y-55788152D02*
X196980952Y-55597676D01*
X196980952Y-55597676D02*
X197076190Y-55502438D01*
X197076190Y-55502438D02*
X197171428Y-55454819D01*
X198504761Y-56454819D02*
X198028571Y-56454819D01*
X198028571Y-56454819D02*
X198028571Y-55454819D01*
X198838095Y-55931009D02*
X199171428Y-55931009D01*
X199314285Y-56454819D02*
X198838095Y-56454819D01*
X198838095Y-56454819D02*
X198838095Y-55454819D01*
X198838095Y-55454819D02*
X199314285Y-55454819D01*
X199742857Y-56454819D02*
X199742857Y-55454819D01*
X199742857Y-55454819D02*
X199980952Y-55454819D01*
X199980952Y-55454819D02*
X200123809Y-55502438D01*
X200123809Y-55502438D02*
X200219047Y-55597676D01*
X200219047Y-55597676D02*
X200266666Y-55692914D01*
X200266666Y-55692914D02*
X200314285Y-55883390D01*
X200314285Y-55883390D02*
X200314285Y-56026247D01*
X200314285Y-56026247D02*
X200266666Y-56216723D01*
X200266666Y-56216723D02*
X200219047Y-56311961D01*
X200219047Y-56311961D02*
X200123809Y-56407200D01*
X200123809Y-56407200D02*
X199980952Y-56454819D01*
X199980952Y-56454819D02*
X199742857Y-56454819D01*
X201504762Y-56454819D02*
X201504762Y-55454819D01*
X201504762Y-55454819D02*
X201885714Y-55454819D01*
X201885714Y-55454819D02*
X201980952Y-55502438D01*
X201980952Y-55502438D02*
X202028571Y-55550057D01*
X202028571Y-55550057D02*
X202076190Y-55645295D01*
X202076190Y-55645295D02*
X202076190Y-55788152D01*
X202076190Y-55788152D02*
X202028571Y-55883390D01*
X202028571Y-55883390D02*
X201980952Y-55931009D01*
X201980952Y-55931009D02*
X201885714Y-55978628D01*
X201885714Y-55978628D02*
X201504762Y-55978628D01*
X202933333Y-56454819D02*
X202933333Y-55931009D01*
X202933333Y-55931009D02*
X202885714Y-55835771D01*
X202885714Y-55835771D02*
X202790476Y-55788152D01*
X202790476Y-55788152D02*
X202600000Y-55788152D01*
X202600000Y-55788152D02*
X202504762Y-55835771D01*
X202933333Y-56407200D02*
X202838095Y-56454819D01*
X202838095Y-56454819D02*
X202600000Y-56454819D01*
X202600000Y-56454819D02*
X202504762Y-56407200D01*
X202504762Y-56407200D02*
X202457143Y-56311961D01*
X202457143Y-56311961D02*
X202457143Y-56216723D01*
X202457143Y-56216723D02*
X202504762Y-56121485D01*
X202504762Y-56121485D02*
X202600000Y-56073866D01*
X202600000Y-56073866D02*
X202838095Y-56073866D01*
X202838095Y-56073866D02*
X202933333Y-56026247D01*
X203409524Y-55788152D02*
X203409524Y-56454819D01*
X203409524Y-55883390D02*
X203457143Y-55835771D01*
X203457143Y-55835771D02*
X203552381Y-55788152D01*
X203552381Y-55788152D02*
X203695238Y-55788152D01*
X203695238Y-55788152D02*
X203790476Y-55835771D01*
X203790476Y-55835771D02*
X203838095Y-55931009D01*
X203838095Y-55931009D02*
X203838095Y-56454819D01*
X204695238Y-56407200D02*
X204600000Y-56454819D01*
X204600000Y-56454819D02*
X204409524Y-56454819D01*
X204409524Y-56454819D02*
X204314286Y-56407200D01*
X204314286Y-56407200D02*
X204266667Y-56311961D01*
X204266667Y-56311961D02*
X204266667Y-55931009D01*
X204266667Y-55931009D02*
X204314286Y-55835771D01*
X204314286Y-55835771D02*
X204409524Y-55788152D01*
X204409524Y-55788152D02*
X204600000Y-55788152D01*
X204600000Y-55788152D02*
X204695238Y-55835771D01*
X204695238Y-55835771D02*
X204742857Y-55931009D01*
X204742857Y-55931009D02*
X204742857Y-56026247D01*
X204742857Y-56026247D02*
X204266667Y-56121485D01*
X205314286Y-56454819D02*
X205219048Y-56407200D01*
X205219048Y-56407200D02*
X205171429Y-56311961D01*
X205171429Y-56311961D02*
X205171429Y-55454819D01*
X216903450Y-60720713D02*
X216939164Y-60613571D01*
X216939164Y-60613571D02*
X216939164Y-60434999D01*
X216939164Y-60434999D02*
X216903450Y-60363571D01*
X216903450Y-60363571D02*
X216867735Y-60327856D01*
X216867735Y-60327856D02*
X216796307Y-60292142D01*
X216796307Y-60292142D02*
X216724878Y-60292142D01*
X216724878Y-60292142D02*
X216653450Y-60327856D01*
X216653450Y-60327856D02*
X216617735Y-60363571D01*
X216617735Y-60363571D02*
X216582021Y-60434999D01*
X216582021Y-60434999D02*
X216546307Y-60577856D01*
X216546307Y-60577856D02*
X216510592Y-60649285D01*
X216510592Y-60649285D02*
X216474878Y-60684999D01*
X216474878Y-60684999D02*
X216403450Y-60720713D01*
X216403450Y-60720713D02*
X216332021Y-60720713D01*
X216332021Y-60720713D02*
X216260592Y-60684999D01*
X216260592Y-60684999D02*
X216224878Y-60649285D01*
X216224878Y-60649285D02*
X216189164Y-60577856D01*
X216189164Y-60577856D02*
X216189164Y-60399285D01*
X216189164Y-60399285D02*
X216224878Y-60292142D01*
X216939164Y-59970713D02*
X216189164Y-59970713D01*
X216189164Y-59970713D02*
X216189164Y-59792142D01*
X216189164Y-59792142D02*
X216224878Y-59684999D01*
X216224878Y-59684999D02*
X216296307Y-59613570D01*
X216296307Y-59613570D02*
X216367735Y-59577856D01*
X216367735Y-59577856D02*
X216510592Y-59542142D01*
X216510592Y-59542142D02*
X216617735Y-59542142D01*
X216617735Y-59542142D02*
X216760592Y-59577856D01*
X216760592Y-59577856D02*
X216832021Y-59613570D01*
X216832021Y-59613570D02*
X216903450Y-59684999D01*
X216903450Y-59684999D02*
X216939164Y-59792142D01*
X216939164Y-59792142D02*
X216939164Y-59970713D01*
X216724878Y-59256427D02*
X216724878Y-58899285D01*
X216939164Y-59327856D02*
X216189164Y-59077856D01*
X216189164Y-59077856D02*
X216939164Y-58827856D01*
X216903450Y-58162856D02*
X216939164Y-58055714D01*
X216939164Y-58055714D02*
X216939164Y-57877142D01*
X216939164Y-57877142D02*
X216903450Y-57805714D01*
X216903450Y-57805714D02*
X216867735Y-57769999D01*
X216867735Y-57769999D02*
X216796307Y-57734285D01*
X216796307Y-57734285D02*
X216724878Y-57734285D01*
X216724878Y-57734285D02*
X216653450Y-57769999D01*
X216653450Y-57769999D02*
X216617735Y-57805714D01*
X216617735Y-57805714D02*
X216582021Y-57877142D01*
X216582021Y-57877142D02*
X216546307Y-58019999D01*
X216546307Y-58019999D02*
X216510592Y-58091428D01*
X216510592Y-58091428D02*
X216474878Y-58127142D01*
X216474878Y-58127142D02*
X216403450Y-58162856D01*
X216403450Y-58162856D02*
X216332021Y-58162856D01*
X216332021Y-58162856D02*
X216260592Y-58127142D01*
X216260592Y-58127142D02*
X216224878Y-58091428D01*
X216224878Y-58091428D02*
X216189164Y-58019999D01*
X216189164Y-58019999D02*
X216189164Y-57841428D01*
X216189164Y-57841428D02*
X216224878Y-57734285D01*
X216867735Y-56984285D02*
X216903450Y-57019999D01*
X216903450Y-57019999D02*
X216939164Y-57127142D01*
X216939164Y-57127142D02*
X216939164Y-57198570D01*
X216939164Y-57198570D02*
X216903450Y-57305713D01*
X216903450Y-57305713D02*
X216832021Y-57377142D01*
X216832021Y-57377142D02*
X216760592Y-57412856D01*
X216760592Y-57412856D02*
X216617735Y-57448570D01*
X216617735Y-57448570D02*
X216510592Y-57448570D01*
X216510592Y-57448570D02*
X216367735Y-57412856D01*
X216367735Y-57412856D02*
X216296307Y-57377142D01*
X216296307Y-57377142D02*
X216224878Y-57305713D01*
X216224878Y-57305713D02*
X216189164Y-57198570D01*
X216189164Y-57198570D02*
X216189164Y-57127142D01*
X216189164Y-57127142D02*
X216224878Y-57019999D01*
X216224878Y-57019999D02*
X216260592Y-56984285D01*
X216939164Y-56305713D02*
X216939164Y-56662856D01*
X216939164Y-56662856D02*
X216189164Y-56662856D01*
X216189164Y-55729999D02*
X216939164Y-55479999D01*
X216939164Y-55479999D02*
X216189164Y-55229999D01*
X216867735Y-54551428D02*
X216903450Y-54587142D01*
X216903450Y-54587142D02*
X216939164Y-54694285D01*
X216939164Y-54694285D02*
X216939164Y-54765713D01*
X216939164Y-54765713D02*
X216903450Y-54872856D01*
X216903450Y-54872856D02*
X216832021Y-54944285D01*
X216832021Y-54944285D02*
X216760592Y-54979999D01*
X216760592Y-54979999D02*
X216617735Y-55015713D01*
X216617735Y-55015713D02*
X216510592Y-55015713D01*
X216510592Y-55015713D02*
X216367735Y-54979999D01*
X216367735Y-54979999D02*
X216296307Y-54944285D01*
X216296307Y-54944285D02*
X216224878Y-54872856D01*
X216224878Y-54872856D02*
X216189164Y-54765713D01*
X216189164Y-54765713D02*
X216189164Y-54694285D01*
X216189164Y-54694285D02*
X216224878Y-54587142D01*
X216224878Y-54587142D02*
X216260592Y-54551428D01*
X216867735Y-53801428D02*
X216903450Y-53837142D01*
X216903450Y-53837142D02*
X216939164Y-53944285D01*
X216939164Y-53944285D02*
X216939164Y-54015713D01*
X216939164Y-54015713D02*
X216903450Y-54122856D01*
X216903450Y-54122856D02*
X216832021Y-54194285D01*
X216832021Y-54194285D02*
X216760592Y-54229999D01*
X216760592Y-54229999D02*
X216617735Y-54265713D01*
X216617735Y-54265713D02*
X216510592Y-54265713D01*
X216510592Y-54265713D02*
X216367735Y-54229999D01*
X216367735Y-54229999D02*
X216296307Y-54194285D01*
X216296307Y-54194285D02*
X216224878Y-54122856D01*
X216224878Y-54122856D02*
X216189164Y-54015713D01*
X216189164Y-54015713D02*
X216189164Y-53944285D01*
X216189164Y-53944285D02*
X216224878Y-53837142D01*
X216224878Y-53837142D02*
X216260592Y-53801428D01*
X147711069Y-113133035D02*
X146711069Y-113133035D01*
X146711069Y-113133035D02*
X146711069Y-112894940D01*
X146711069Y-112894940D02*
X146758688Y-112752083D01*
X146758688Y-112752083D02*
X146853926Y-112656845D01*
X146853926Y-112656845D02*
X146949164Y-112609226D01*
X146949164Y-112609226D02*
X147139640Y-112561607D01*
X147139640Y-112561607D02*
X147282497Y-112561607D01*
X147282497Y-112561607D02*
X147472973Y-112609226D01*
X147472973Y-112609226D02*
X147568211Y-112656845D01*
X147568211Y-112656845D02*
X147663450Y-112752083D01*
X147663450Y-112752083D02*
X147711069Y-112894940D01*
X147711069Y-112894940D02*
X147711069Y-113133035D01*
X146711069Y-112228273D02*
X146711069Y-111609226D01*
X146711069Y-111609226D02*
X147092021Y-111942559D01*
X147092021Y-111942559D02*
X147092021Y-111799702D01*
X147092021Y-111799702D02*
X147139640Y-111704464D01*
X147139640Y-111704464D02*
X147187259Y-111656845D01*
X147187259Y-111656845D02*
X147282497Y-111609226D01*
X147282497Y-111609226D02*
X147520592Y-111609226D01*
X147520592Y-111609226D02*
X147615830Y-111656845D01*
X147615830Y-111656845D02*
X147663450Y-111704464D01*
X147663450Y-111704464D02*
X147711069Y-111799702D01*
X147711069Y-111799702D02*
X147711069Y-112085416D01*
X147711069Y-112085416D02*
X147663450Y-112180654D01*
X147663450Y-112180654D02*
X147615830Y-112228273D01*
X147044402Y-110752083D02*
X147711069Y-110752083D01*
X146663450Y-110990178D02*
X147377735Y-111228273D01*
X147377735Y-111228273D02*
X147377735Y-110609226D01*
X133921726Y-90164450D02*
X134064583Y-90212069D01*
X134064583Y-90212069D02*
X134302678Y-90212069D01*
X134302678Y-90212069D02*
X134397916Y-90164450D01*
X134397916Y-90164450D02*
X134445535Y-90116830D01*
X134445535Y-90116830D02*
X134493154Y-90021592D01*
X134493154Y-90021592D02*
X134493154Y-89926354D01*
X134493154Y-89926354D02*
X134445535Y-89831116D01*
X134445535Y-89831116D02*
X134397916Y-89783497D01*
X134397916Y-89783497D02*
X134302678Y-89735878D01*
X134302678Y-89735878D02*
X134112202Y-89688259D01*
X134112202Y-89688259D02*
X134016964Y-89640640D01*
X134016964Y-89640640D02*
X133969345Y-89593021D01*
X133969345Y-89593021D02*
X133921726Y-89497783D01*
X133921726Y-89497783D02*
X133921726Y-89402545D01*
X133921726Y-89402545D02*
X133969345Y-89307307D01*
X133969345Y-89307307D02*
X134016964Y-89259688D01*
X134016964Y-89259688D02*
X134112202Y-89212069D01*
X134112202Y-89212069D02*
X134350297Y-89212069D01*
X134350297Y-89212069D02*
X134493154Y-89259688D01*
X134826488Y-89212069D02*
X135064583Y-90212069D01*
X135064583Y-90212069D02*
X135255059Y-89497783D01*
X135255059Y-89497783D02*
X135445535Y-90212069D01*
X135445535Y-90212069D02*
X135683631Y-89212069D01*
X136588392Y-90212069D02*
X136016964Y-90212069D01*
X136302678Y-90212069D02*
X136302678Y-89212069D01*
X136302678Y-89212069D02*
X136207440Y-89354926D01*
X136207440Y-89354926D02*
X136112202Y-89450164D01*
X136112202Y-89450164D02*
X136016964Y-89497783D01*
X136969345Y-89307307D02*
X137016964Y-89259688D01*
X137016964Y-89259688D02*
X137112202Y-89212069D01*
X137112202Y-89212069D02*
X137350297Y-89212069D01*
X137350297Y-89212069D02*
X137445535Y-89259688D01*
X137445535Y-89259688D02*
X137493154Y-89307307D01*
X137493154Y-89307307D02*
X137540773Y-89402545D01*
X137540773Y-89402545D02*
X137540773Y-89497783D01*
X137540773Y-89497783D02*
X137493154Y-89640640D01*
X137493154Y-89640640D02*
X136921726Y-90212069D01*
X136921726Y-90212069D02*
X137540773Y-90212069D01*
X185811069Y-94083035D02*
X184811069Y-94083035D01*
X184811069Y-94083035D02*
X184811069Y-93844940D01*
X184811069Y-93844940D02*
X184858688Y-93702083D01*
X184858688Y-93702083D02*
X184953926Y-93606845D01*
X184953926Y-93606845D02*
X185049164Y-93559226D01*
X185049164Y-93559226D02*
X185239640Y-93511607D01*
X185239640Y-93511607D02*
X185382497Y-93511607D01*
X185382497Y-93511607D02*
X185572973Y-93559226D01*
X185572973Y-93559226D02*
X185668211Y-93606845D01*
X185668211Y-93606845D02*
X185763450Y-93702083D01*
X185763450Y-93702083D02*
X185811069Y-93844940D01*
X185811069Y-93844940D02*
X185811069Y-94083035D01*
X184906307Y-93130654D02*
X184858688Y-93083035D01*
X184858688Y-93083035D02*
X184811069Y-92987797D01*
X184811069Y-92987797D02*
X184811069Y-92749702D01*
X184811069Y-92749702D02*
X184858688Y-92654464D01*
X184858688Y-92654464D02*
X184906307Y-92606845D01*
X184906307Y-92606845D02*
X185001545Y-92559226D01*
X185001545Y-92559226D02*
X185096783Y-92559226D01*
X185096783Y-92559226D02*
X185239640Y-92606845D01*
X185239640Y-92606845D02*
X185811069Y-93178273D01*
X185811069Y-93178273D02*
X185811069Y-92559226D01*
X185239640Y-91987797D02*
X185192021Y-92083035D01*
X185192021Y-92083035D02*
X185144402Y-92130654D01*
X185144402Y-92130654D02*
X185049164Y-92178273D01*
X185049164Y-92178273D02*
X185001545Y-92178273D01*
X185001545Y-92178273D02*
X184906307Y-92130654D01*
X184906307Y-92130654D02*
X184858688Y-92083035D01*
X184858688Y-92083035D02*
X184811069Y-91987797D01*
X184811069Y-91987797D02*
X184811069Y-91797321D01*
X184811069Y-91797321D02*
X184858688Y-91702083D01*
X184858688Y-91702083D02*
X184906307Y-91654464D01*
X184906307Y-91654464D02*
X185001545Y-91606845D01*
X185001545Y-91606845D02*
X185049164Y-91606845D01*
X185049164Y-91606845D02*
X185144402Y-91654464D01*
X185144402Y-91654464D02*
X185192021Y-91702083D01*
X185192021Y-91702083D02*
X185239640Y-91797321D01*
X185239640Y-91797321D02*
X185239640Y-91987797D01*
X185239640Y-91987797D02*
X185287259Y-92083035D01*
X185287259Y-92083035D02*
X185334878Y-92130654D01*
X185334878Y-92130654D02*
X185430116Y-92178273D01*
X185430116Y-92178273D02*
X185620592Y-92178273D01*
X185620592Y-92178273D02*
X185715830Y-92130654D01*
X185715830Y-92130654D02*
X185763450Y-92083035D01*
X185763450Y-92083035D02*
X185811069Y-91987797D01*
X185811069Y-91987797D02*
X185811069Y-91797321D01*
X185811069Y-91797321D02*
X185763450Y-91702083D01*
X185763450Y-91702083D02*
X185715830Y-91654464D01*
X185715830Y-91654464D02*
X185620592Y-91606845D01*
X185620592Y-91606845D02*
X185430116Y-91606845D01*
X185430116Y-91606845D02*
X185334878Y-91654464D01*
X185334878Y-91654464D02*
X185287259Y-91702083D01*
X185287259Y-91702083D02*
X185239640Y-91797321D01*
X98701905Y-58124819D02*
X98701905Y-57124819D01*
X98701905Y-57124819D02*
X98940000Y-57124819D01*
X98940000Y-57124819D02*
X99082857Y-57172438D01*
X99082857Y-57172438D02*
X99178095Y-57267676D01*
X99178095Y-57267676D02*
X99225714Y-57362914D01*
X99225714Y-57362914D02*
X99273333Y-57553390D01*
X99273333Y-57553390D02*
X99273333Y-57696247D01*
X99273333Y-57696247D02*
X99225714Y-57886723D01*
X99225714Y-57886723D02*
X99178095Y-57981961D01*
X99178095Y-57981961D02*
X99082857Y-58077200D01*
X99082857Y-58077200D02*
X98940000Y-58124819D01*
X98940000Y-58124819D02*
X98701905Y-58124819D01*
X99654286Y-57220057D02*
X99701905Y-57172438D01*
X99701905Y-57172438D02*
X99797143Y-57124819D01*
X99797143Y-57124819D02*
X100035238Y-57124819D01*
X100035238Y-57124819D02*
X100130476Y-57172438D01*
X100130476Y-57172438D02*
X100178095Y-57220057D01*
X100178095Y-57220057D02*
X100225714Y-57315295D01*
X100225714Y-57315295D02*
X100225714Y-57410533D01*
X100225714Y-57410533D02*
X100178095Y-57553390D01*
X100178095Y-57553390D02*
X99606667Y-58124819D01*
X99606667Y-58124819D02*
X100225714Y-58124819D01*
X96468571Y-59907295D02*
X96011428Y-59907295D01*
X96240000Y-59907295D02*
X96240000Y-59107295D01*
X96240000Y-59107295D02*
X96163809Y-59221580D01*
X96163809Y-59221580D02*
X96087619Y-59297771D01*
X96087619Y-59297771D02*
X96011428Y-59335866D01*
X118385714Y-58124819D02*
X118385714Y-57124819D01*
X118385714Y-57124819D02*
X118623809Y-57124819D01*
X118623809Y-57124819D02*
X118766666Y-57172438D01*
X118766666Y-57172438D02*
X118861904Y-57267676D01*
X118861904Y-57267676D02*
X118909523Y-57362914D01*
X118909523Y-57362914D02*
X118957142Y-57553390D01*
X118957142Y-57553390D02*
X118957142Y-57696247D01*
X118957142Y-57696247D02*
X118909523Y-57886723D01*
X118909523Y-57886723D02*
X118861904Y-57981961D01*
X118861904Y-57981961D02*
X118766666Y-58077200D01*
X118766666Y-58077200D02*
X118623809Y-58124819D01*
X118623809Y-58124819D02*
X118385714Y-58124819D01*
X119909523Y-58124819D02*
X119338095Y-58124819D01*
X119623809Y-58124819D02*
X119623809Y-57124819D01*
X119623809Y-57124819D02*
X119528571Y-57267676D01*
X119528571Y-57267676D02*
X119433333Y-57362914D01*
X119433333Y-57362914D02*
X119338095Y-57410533D01*
X120766666Y-57458152D02*
X120766666Y-58124819D01*
X120528571Y-57077200D02*
X120290476Y-57791485D01*
X120290476Y-57791485D02*
X120909523Y-57791485D01*
X116628571Y-59907295D02*
X116171428Y-59907295D01*
X116400000Y-59907295D02*
X116400000Y-59107295D01*
X116400000Y-59107295D02*
X116323809Y-59221580D01*
X116323809Y-59221580D02*
X116247619Y-59297771D01*
X116247619Y-59297771D02*
X116171428Y-59335866D01*
X90561069Y-113133035D02*
X89561069Y-113133035D01*
X89561069Y-113133035D02*
X89561069Y-112894940D01*
X89561069Y-112894940D02*
X89608688Y-112752083D01*
X89608688Y-112752083D02*
X89703926Y-112656845D01*
X89703926Y-112656845D02*
X89799164Y-112609226D01*
X89799164Y-112609226D02*
X89989640Y-112561607D01*
X89989640Y-112561607D02*
X90132497Y-112561607D01*
X90132497Y-112561607D02*
X90322973Y-112609226D01*
X90322973Y-112609226D02*
X90418211Y-112656845D01*
X90418211Y-112656845D02*
X90513450Y-112752083D01*
X90513450Y-112752083D02*
X90561069Y-112894940D01*
X90561069Y-112894940D02*
X90561069Y-113133035D01*
X89561069Y-112228273D02*
X89561069Y-111609226D01*
X89561069Y-111609226D02*
X89942021Y-111942559D01*
X89942021Y-111942559D02*
X89942021Y-111799702D01*
X89942021Y-111799702D02*
X89989640Y-111704464D01*
X89989640Y-111704464D02*
X90037259Y-111656845D01*
X90037259Y-111656845D02*
X90132497Y-111609226D01*
X90132497Y-111609226D02*
X90370592Y-111609226D01*
X90370592Y-111609226D02*
X90465830Y-111656845D01*
X90465830Y-111656845D02*
X90513450Y-111704464D01*
X90513450Y-111704464D02*
X90561069Y-111799702D01*
X90561069Y-111799702D02*
X90561069Y-112085416D01*
X90561069Y-112085416D02*
X90513450Y-112180654D01*
X90513450Y-112180654D02*
X90465830Y-112228273D01*
X90561069Y-110656845D02*
X90561069Y-111228273D01*
X90561069Y-110942559D02*
X89561069Y-110942559D01*
X89561069Y-110942559D02*
X89703926Y-111037797D01*
X89703926Y-111037797D02*
X89799164Y-111133035D01*
X89799164Y-111133035D02*
X89846783Y-111228273D01*
X71511069Y-94083035D02*
X70511069Y-94083035D01*
X70511069Y-94083035D02*
X70511069Y-93844940D01*
X70511069Y-93844940D02*
X70558688Y-93702083D01*
X70558688Y-93702083D02*
X70653926Y-93606845D01*
X70653926Y-93606845D02*
X70749164Y-93559226D01*
X70749164Y-93559226D02*
X70939640Y-93511607D01*
X70939640Y-93511607D02*
X71082497Y-93511607D01*
X71082497Y-93511607D02*
X71272973Y-93559226D01*
X71272973Y-93559226D02*
X71368211Y-93606845D01*
X71368211Y-93606845D02*
X71463450Y-93702083D01*
X71463450Y-93702083D02*
X71511069Y-93844940D01*
X71511069Y-93844940D02*
X71511069Y-94083035D01*
X70606307Y-93130654D02*
X70558688Y-93083035D01*
X70558688Y-93083035D02*
X70511069Y-92987797D01*
X70511069Y-92987797D02*
X70511069Y-92749702D01*
X70511069Y-92749702D02*
X70558688Y-92654464D01*
X70558688Y-92654464D02*
X70606307Y-92606845D01*
X70606307Y-92606845D02*
X70701545Y-92559226D01*
X70701545Y-92559226D02*
X70796783Y-92559226D01*
X70796783Y-92559226D02*
X70939640Y-92606845D01*
X70939640Y-92606845D02*
X71511069Y-93178273D01*
X71511069Y-93178273D02*
X71511069Y-92559226D01*
X70606307Y-92178273D02*
X70558688Y-92130654D01*
X70558688Y-92130654D02*
X70511069Y-92035416D01*
X70511069Y-92035416D02*
X70511069Y-91797321D01*
X70511069Y-91797321D02*
X70558688Y-91702083D01*
X70558688Y-91702083D02*
X70606307Y-91654464D01*
X70606307Y-91654464D02*
X70701545Y-91606845D01*
X70701545Y-91606845D02*
X70796783Y-91606845D01*
X70796783Y-91606845D02*
X70939640Y-91654464D01*
X70939640Y-91654464D02*
X71511069Y-92225892D01*
X71511069Y-92225892D02*
X71511069Y-91606845D01*
X105421905Y-68364819D02*
X105421905Y-67364819D01*
X105421905Y-67364819D02*
X105660000Y-67364819D01*
X105660000Y-67364819D02*
X105802857Y-67412438D01*
X105802857Y-67412438D02*
X105898095Y-67507676D01*
X105898095Y-67507676D02*
X105945714Y-67602914D01*
X105945714Y-67602914D02*
X105993333Y-67793390D01*
X105993333Y-67793390D02*
X105993333Y-67936247D01*
X105993333Y-67936247D02*
X105945714Y-68126723D01*
X105945714Y-68126723D02*
X105898095Y-68221961D01*
X105898095Y-68221961D02*
X105802857Y-68317200D01*
X105802857Y-68317200D02*
X105660000Y-68364819D01*
X105660000Y-68364819D02*
X105421905Y-68364819D01*
X106564762Y-67793390D02*
X106469524Y-67745771D01*
X106469524Y-67745771D02*
X106421905Y-67698152D01*
X106421905Y-67698152D02*
X106374286Y-67602914D01*
X106374286Y-67602914D02*
X106374286Y-67555295D01*
X106374286Y-67555295D02*
X106421905Y-67460057D01*
X106421905Y-67460057D02*
X106469524Y-67412438D01*
X106469524Y-67412438D02*
X106564762Y-67364819D01*
X106564762Y-67364819D02*
X106755238Y-67364819D01*
X106755238Y-67364819D02*
X106850476Y-67412438D01*
X106850476Y-67412438D02*
X106898095Y-67460057D01*
X106898095Y-67460057D02*
X106945714Y-67555295D01*
X106945714Y-67555295D02*
X106945714Y-67602914D01*
X106945714Y-67602914D02*
X106898095Y-67698152D01*
X106898095Y-67698152D02*
X106850476Y-67745771D01*
X106850476Y-67745771D02*
X106755238Y-67793390D01*
X106755238Y-67793390D02*
X106564762Y-67793390D01*
X106564762Y-67793390D02*
X106469524Y-67841009D01*
X106469524Y-67841009D02*
X106421905Y-67888628D01*
X106421905Y-67888628D02*
X106374286Y-67983866D01*
X106374286Y-67983866D02*
X106374286Y-68174342D01*
X106374286Y-68174342D02*
X106421905Y-68269580D01*
X106421905Y-68269580D02*
X106469524Y-68317200D01*
X106469524Y-68317200D02*
X106564762Y-68364819D01*
X106564762Y-68364819D02*
X106755238Y-68364819D01*
X106755238Y-68364819D02*
X106850476Y-68317200D01*
X106850476Y-68317200D02*
X106898095Y-68269580D01*
X106898095Y-68269580D02*
X106945714Y-68174342D01*
X106945714Y-68174342D02*
X106945714Y-67983866D01*
X106945714Y-67983866D02*
X106898095Y-67888628D01*
X106898095Y-67888628D02*
X106850476Y-67841009D01*
X106850476Y-67841009D02*
X106755238Y-67793390D01*
X103188571Y-70147295D02*
X102731428Y-70147295D01*
X102960000Y-70147295D02*
X102960000Y-69347295D01*
X102960000Y-69347295D02*
X102883809Y-69461580D01*
X102883809Y-69461580D02*
X102807619Y-69537771D01*
X102807619Y-69537771D02*
X102731428Y-69575866D01*
X210597917Y-109214450D02*
X210740774Y-109262069D01*
X210740774Y-109262069D02*
X210978869Y-109262069D01*
X210978869Y-109262069D02*
X211074107Y-109214450D01*
X211074107Y-109214450D02*
X211121726Y-109166830D01*
X211121726Y-109166830D02*
X211169345Y-109071592D01*
X211169345Y-109071592D02*
X211169345Y-108976354D01*
X211169345Y-108976354D02*
X211121726Y-108881116D01*
X211121726Y-108881116D02*
X211074107Y-108833497D01*
X211074107Y-108833497D02*
X210978869Y-108785878D01*
X210978869Y-108785878D02*
X210788393Y-108738259D01*
X210788393Y-108738259D02*
X210693155Y-108690640D01*
X210693155Y-108690640D02*
X210645536Y-108643021D01*
X210645536Y-108643021D02*
X210597917Y-108547783D01*
X210597917Y-108547783D02*
X210597917Y-108452545D01*
X210597917Y-108452545D02*
X210645536Y-108357307D01*
X210645536Y-108357307D02*
X210693155Y-108309688D01*
X210693155Y-108309688D02*
X210788393Y-108262069D01*
X210788393Y-108262069D02*
X211026488Y-108262069D01*
X211026488Y-108262069D02*
X211169345Y-108309688D01*
X211502679Y-108262069D02*
X211740774Y-109262069D01*
X211740774Y-109262069D02*
X211931250Y-108547783D01*
X211931250Y-108547783D02*
X212121726Y-109262069D01*
X212121726Y-109262069D02*
X212359822Y-108262069D01*
X212883631Y-108690640D02*
X212788393Y-108643021D01*
X212788393Y-108643021D02*
X212740774Y-108595402D01*
X212740774Y-108595402D02*
X212693155Y-108500164D01*
X212693155Y-108500164D02*
X212693155Y-108452545D01*
X212693155Y-108452545D02*
X212740774Y-108357307D01*
X212740774Y-108357307D02*
X212788393Y-108309688D01*
X212788393Y-108309688D02*
X212883631Y-108262069D01*
X212883631Y-108262069D02*
X213074107Y-108262069D01*
X213074107Y-108262069D02*
X213169345Y-108309688D01*
X213169345Y-108309688D02*
X213216964Y-108357307D01*
X213216964Y-108357307D02*
X213264583Y-108452545D01*
X213264583Y-108452545D02*
X213264583Y-108500164D01*
X213264583Y-108500164D02*
X213216964Y-108595402D01*
X213216964Y-108595402D02*
X213169345Y-108643021D01*
X213169345Y-108643021D02*
X213074107Y-108690640D01*
X213074107Y-108690640D02*
X212883631Y-108690640D01*
X212883631Y-108690640D02*
X212788393Y-108738259D01*
X212788393Y-108738259D02*
X212740774Y-108785878D01*
X212740774Y-108785878D02*
X212693155Y-108881116D01*
X212693155Y-108881116D02*
X212693155Y-109071592D01*
X212693155Y-109071592D02*
X212740774Y-109166830D01*
X212740774Y-109166830D02*
X212788393Y-109214450D01*
X212788393Y-109214450D02*
X212883631Y-109262069D01*
X212883631Y-109262069D02*
X213074107Y-109262069D01*
X213074107Y-109262069D02*
X213169345Y-109214450D01*
X213169345Y-109214450D02*
X213216964Y-109166830D01*
X213216964Y-109166830D02*
X213264583Y-109071592D01*
X213264583Y-109071592D02*
X213264583Y-108881116D01*
X213264583Y-108881116D02*
X213216964Y-108785878D01*
X213216964Y-108785878D02*
X213169345Y-108738259D01*
X213169345Y-108738259D02*
X213074107Y-108690640D01*
X191547917Y-109214450D02*
X191690774Y-109262069D01*
X191690774Y-109262069D02*
X191928869Y-109262069D01*
X191928869Y-109262069D02*
X192024107Y-109214450D01*
X192024107Y-109214450D02*
X192071726Y-109166830D01*
X192071726Y-109166830D02*
X192119345Y-109071592D01*
X192119345Y-109071592D02*
X192119345Y-108976354D01*
X192119345Y-108976354D02*
X192071726Y-108881116D01*
X192071726Y-108881116D02*
X192024107Y-108833497D01*
X192024107Y-108833497D02*
X191928869Y-108785878D01*
X191928869Y-108785878D02*
X191738393Y-108738259D01*
X191738393Y-108738259D02*
X191643155Y-108690640D01*
X191643155Y-108690640D02*
X191595536Y-108643021D01*
X191595536Y-108643021D02*
X191547917Y-108547783D01*
X191547917Y-108547783D02*
X191547917Y-108452545D01*
X191547917Y-108452545D02*
X191595536Y-108357307D01*
X191595536Y-108357307D02*
X191643155Y-108309688D01*
X191643155Y-108309688D02*
X191738393Y-108262069D01*
X191738393Y-108262069D02*
X191976488Y-108262069D01*
X191976488Y-108262069D02*
X192119345Y-108309688D01*
X192452679Y-108262069D02*
X192690774Y-109262069D01*
X192690774Y-109262069D02*
X192881250Y-108547783D01*
X192881250Y-108547783D02*
X193071726Y-109262069D01*
X193071726Y-109262069D02*
X193309822Y-108262069D01*
X193595536Y-108262069D02*
X194262202Y-108262069D01*
X194262202Y-108262069D02*
X193833631Y-109262069D01*
X118385714Y-68364819D02*
X118385714Y-67364819D01*
X118385714Y-67364819D02*
X118623809Y-67364819D01*
X118623809Y-67364819D02*
X118766666Y-67412438D01*
X118766666Y-67412438D02*
X118861904Y-67507676D01*
X118861904Y-67507676D02*
X118909523Y-67602914D01*
X118909523Y-67602914D02*
X118957142Y-67793390D01*
X118957142Y-67793390D02*
X118957142Y-67936247D01*
X118957142Y-67936247D02*
X118909523Y-68126723D01*
X118909523Y-68126723D02*
X118861904Y-68221961D01*
X118861904Y-68221961D02*
X118766666Y-68317200D01*
X118766666Y-68317200D02*
X118623809Y-68364819D01*
X118623809Y-68364819D02*
X118385714Y-68364819D01*
X119909523Y-68364819D02*
X119338095Y-68364819D01*
X119623809Y-68364819D02*
X119623809Y-67364819D01*
X119623809Y-67364819D02*
X119528571Y-67507676D01*
X119528571Y-67507676D02*
X119433333Y-67602914D01*
X119433333Y-67602914D02*
X119338095Y-67650533D01*
X120766666Y-67364819D02*
X120576190Y-67364819D01*
X120576190Y-67364819D02*
X120480952Y-67412438D01*
X120480952Y-67412438D02*
X120433333Y-67460057D01*
X120433333Y-67460057D02*
X120338095Y-67602914D01*
X120338095Y-67602914D02*
X120290476Y-67793390D01*
X120290476Y-67793390D02*
X120290476Y-68174342D01*
X120290476Y-68174342D02*
X120338095Y-68269580D01*
X120338095Y-68269580D02*
X120385714Y-68317200D01*
X120385714Y-68317200D02*
X120480952Y-68364819D01*
X120480952Y-68364819D02*
X120671428Y-68364819D01*
X120671428Y-68364819D02*
X120766666Y-68317200D01*
X120766666Y-68317200D02*
X120814285Y-68269580D01*
X120814285Y-68269580D02*
X120861904Y-68174342D01*
X120861904Y-68174342D02*
X120861904Y-67936247D01*
X120861904Y-67936247D02*
X120814285Y-67841009D01*
X120814285Y-67841009D02*
X120766666Y-67793390D01*
X120766666Y-67793390D02*
X120671428Y-67745771D01*
X120671428Y-67745771D02*
X120480952Y-67745771D01*
X120480952Y-67745771D02*
X120385714Y-67793390D01*
X120385714Y-67793390D02*
X120338095Y-67841009D01*
X120338095Y-67841009D02*
X120290476Y-67936247D01*
X116628571Y-70147295D02*
X116171428Y-70147295D01*
X116400000Y-70147295D02*
X116400000Y-69347295D01*
X116400000Y-69347295D02*
X116323809Y-69461580D01*
X116323809Y-69461580D02*
X116247619Y-69537771D01*
X116247619Y-69537771D02*
X116171428Y-69575866D01*
X90561069Y-94083035D02*
X89561069Y-94083035D01*
X89561069Y-94083035D02*
X89561069Y-93844940D01*
X89561069Y-93844940D02*
X89608688Y-93702083D01*
X89608688Y-93702083D02*
X89703926Y-93606845D01*
X89703926Y-93606845D02*
X89799164Y-93559226D01*
X89799164Y-93559226D02*
X89989640Y-93511607D01*
X89989640Y-93511607D02*
X90132497Y-93511607D01*
X90132497Y-93511607D02*
X90322973Y-93559226D01*
X90322973Y-93559226D02*
X90418211Y-93606845D01*
X90418211Y-93606845D02*
X90513450Y-93702083D01*
X90513450Y-93702083D02*
X90561069Y-93844940D01*
X90561069Y-93844940D02*
X90561069Y-94083035D01*
X89656307Y-93130654D02*
X89608688Y-93083035D01*
X89608688Y-93083035D02*
X89561069Y-92987797D01*
X89561069Y-92987797D02*
X89561069Y-92749702D01*
X89561069Y-92749702D02*
X89608688Y-92654464D01*
X89608688Y-92654464D02*
X89656307Y-92606845D01*
X89656307Y-92606845D02*
X89751545Y-92559226D01*
X89751545Y-92559226D02*
X89846783Y-92559226D01*
X89846783Y-92559226D02*
X89989640Y-92606845D01*
X89989640Y-92606845D02*
X90561069Y-93178273D01*
X90561069Y-93178273D02*
X90561069Y-92559226D01*
X89561069Y-92225892D02*
X89561069Y-91606845D01*
X89561069Y-91606845D02*
X89942021Y-91940178D01*
X89942021Y-91940178D02*
X89942021Y-91797321D01*
X89942021Y-91797321D02*
X89989640Y-91702083D01*
X89989640Y-91702083D02*
X90037259Y-91654464D01*
X90037259Y-91654464D02*
X90132497Y-91606845D01*
X90132497Y-91606845D02*
X90370592Y-91606845D01*
X90370592Y-91606845D02*
X90465830Y-91654464D01*
X90465830Y-91654464D02*
X90513450Y-91702083D01*
X90513450Y-91702083D02*
X90561069Y-91797321D01*
X90561069Y-91797321D02*
X90561069Y-92083035D01*
X90561069Y-92083035D02*
X90513450Y-92178273D01*
X90513450Y-92178273D02*
X90465830Y-92225892D01*
X109611069Y-113133035D02*
X108611069Y-113133035D01*
X108611069Y-113133035D02*
X108611069Y-112894940D01*
X108611069Y-112894940D02*
X108658688Y-112752083D01*
X108658688Y-112752083D02*
X108753926Y-112656845D01*
X108753926Y-112656845D02*
X108849164Y-112609226D01*
X108849164Y-112609226D02*
X109039640Y-112561607D01*
X109039640Y-112561607D02*
X109182497Y-112561607D01*
X109182497Y-112561607D02*
X109372973Y-112609226D01*
X109372973Y-112609226D02*
X109468211Y-112656845D01*
X109468211Y-112656845D02*
X109563450Y-112752083D01*
X109563450Y-112752083D02*
X109611069Y-112894940D01*
X109611069Y-112894940D02*
X109611069Y-113133035D01*
X108611069Y-112228273D02*
X108611069Y-111609226D01*
X108611069Y-111609226D02*
X108992021Y-111942559D01*
X108992021Y-111942559D02*
X108992021Y-111799702D01*
X108992021Y-111799702D02*
X109039640Y-111704464D01*
X109039640Y-111704464D02*
X109087259Y-111656845D01*
X109087259Y-111656845D02*
X109182497Y-111609226D01*
X109182497Y-111609226D02*
X109420592Y-111609226D01*
X109420592Y-111609226D02*
X109515830Y-111656845D01*
X109515830Y-111656845D02*
X109563450Y-111704464D01*
X109563450Y-111704464D02*
X109611069Y-111799702D01*
X109611069Y-111799702D02*
X109611069Y-112085416D01*
X109611069Y-112085416D02*
X109563450Y-112180654D01*
X109563450Y-112180654D02*
X109515830Y-112228273D01*
X108706307Y-111228273D02*
X108658688Y-111180654D01*
X108658688Y-111180654D02*
X108611069Y-111085416D01*
X108611069Y-111085416D02*
X108611069Y-110847321D01*
X108611069Y-110847321D02*
X108658688Y-110752083D01*
X108658688Y-110752083D02*
X108706307Y-110704464D01*
X108706307Y-110704464D02*
X108801545Y-110656845D01*
X108801545Y-110656845D02*
X108896783Y-110656845D01*
X108896783Y-110656845D02*
X109039640Y-110704464D01*
X109039640Y-110704464D02*
X109611069Y-111275892D01*
X109611069Y-111275892D02*
X109611069Y-110656845D01*
X98701905Y-63244819D02*
X98701905Y-62244819D01*
X98701905Y-62244819D02*
X98940000Y-62244819D01*
X98940000Y-62244819D02*
X99082857Y-62292438D01*
X99082857Y-62292438D02*
X99178095Y-62387676D01*
X99178095Y-62387676D02*
X99225714Y-62482914D01*
X99225714Y-62482914D02*
X99273333Y-62673390D01*
X99273333Y-62673390D02*
X99273333Y-62816247D01*
X99273333Y-62816247D02*
X99225714Y-63006723D01*
X99225714Y-63006723D02*
X99178095Y-63101961D01*
X99178095Y-63101961D02*
X99082857Y-63197200D01*
X99082857Y-63197200D02*
X98940000Y-63244819D01*
X98940000Y-63244819D02*
X98701905Y-63244819D01*
X99606667Y-62244819D02*
X100225714Y-62244819D01*
X100225714Y-62244819D02*
X99892381Y-62625771D01*
X99892381Y-62625771D02*
X100035238Y-62625771D01*
X100035238Y-62625771D02*
X100130476Y-62673390D01*
X100130476Y-62673390D02*
X100178095Y-62721009D01*
X100178095Y-62721009D02*
X100225714Y-62816247D01*
X100225714Y-62816247D02*
X100225714Y-63054342D01*
X100225714Y-63054342D02*
X100178095Y-63149580D01*
X100178095Y-63149580D02*
X100130476Y-63197200D01*
X100130476Y-63197200D02*
X100035238Y-63244819D01*
X100035238Y-63244819D02*
X99749524Y-63244819D01*
X99749524Y-63244819D02*
X99654286Y-63197200D01*
X99654286Y-63197200D02*
X99606667Y-63149580D01*
X96468571Y-65027295D02*
X96011428Y-65027295D01*
X96240000Y-65027295D02*
X96240000Y-64227295D01*
X96240000Y-64227295D02*
X96163809Y-64341580D01*
X96163809Y-64341580D02*
X96087619Y-64417771D01*
X96087619Y-64417771D02*
X96011428Y-64455866D01*
X71511069Y-113133035D02*
X70511069Y-113133035D01*
X70511069Y-113133035D02*
X70511069Y-112894940D01*
X70511069Y-112894940D02*
X70558688Y-112752083D01*
X70558688Y-112752083D02*
X70653926Y-112656845D01*
X70653926Y-112656845D02*
X70749164Y-112609226D01*
X70749164Y-112609226D02*
X70939640Y-112561607D01*
X70939640Y-112561607D02*
X71082497Y-112561607D01*
X71082497Y-112561607D02*
X71272973Y-112609226D01*
X71272973Y-112609226D02*
X71368211Y-112656845D01*
X71368211Y-112656845D02*
X71463450Y-112752083D01*
X71463450Y-112752083D02*
X71511069Y-112894940D01*
X71511069Y-112894940D02*
X71511069Y-113133035D01*
X70511069Y-112228273D02*
X70511069Y-111609226D01*
X70511069Y-111609226D02*
X70892021Y-111942559D01*
X70892021Y-111942559D02*
X70892021Y-111799702D01*
X70892021Y-111799702D02*
X70939640Y-111704464D01*
X70939640Y-111704464D02*
X70987259Y-111656845D01*
X70987259Y-111656845D02*
X71082497Y-111609226D01*
X71082497Y-111609226D02*
X71320592Y-111609226D01*
X71320592Y-111609226D02*
X71415830Y-111656845D01*
X71415830Y-111656845D02*
X71463450Y-111704464D01*
X71463450Y-111704464D02*
X71511069Y-111799702D01*
X71511069Y-111799702D02*
X71511069Y-112085416D01*
X71511069Y-112085416D02*
X71463450Y-112180654D01*
X71463450Y-112180654D02*
X71415830Y-112228273D01*
X70511069Y-110990178D02*
X70511069Y-110894940D01*
X70511069Y-110894940D02*
X70558688Y-110799702D01*
X70558688Y-110799702D02*
X70606307Y-110752083D01*
X70606307Y-110752083D02*
X70701545Y-110704464D01*
X70701545Y-110704464D02*
X70892021Y-110656845D01*
X70892021Y-110656845D02*
X71130116Y-110656845D01*
X71130116Y-110656845D02*
X71320592Y-110704464D01*
X71320592Y-110704464D02*
X71415830Y-110752083D01*
X71415830Y-110752083D02*
X71463450Y-110799702D01*
X71463450Y-110799702D02*
X71511069Y-110894940D01*
X71511069Y-110894940D02*
X71511069Y-110990178D01*
X71511069Y-110990178D02*
X71463450Y-111085416D01*
X71463450Y-111085416D02*
X71415830Y-111133035D01*
X71415830Y-111133035D02*
X71320592Y-111180654D01*
X71320592Y-111180654D02*
X71130116Y-111228273D01*
X71130116Y-111228273D02*
X70892021Y-111228273D01*
X70892021Y-111228273D02*
X70701545Y-111180654D01*
X70701545Y-111180654D02*
X70606307Y-111133035D01*
X70606307Y-111133035D02*
X70558688Y-111085416D01*
X70558688Y-111085416D02*
X70511069Y-110990178D01*
X153447917Y-109214450D02*
X153590774Y-109262069D01*
X153590774Y-109262069D02*
X153828869Y-109262069D01*
X153828869Y-109262069D02*
X153924107Y-109214450D01*
X153924107Y-109214450D02*
X153971726Y-109166830D01*
X153971726Y-109166830D02*
X154019345Y-109071592D01*
X154019345Y-109071592D02*
X154019345Y-108976354D01*
X154019345Y-108976354D02*
X153971726Y-108881116D01*
X153971726Y-108881116D02*
X153924107Y-108833497D01*
X153924107Y-108833497D02*
X153828869Y-108785878D01*
X153828869Y-108785878D02*
X153638393Y-108738259D01*
X153638393Y-108738259D02*
X153543155Y-108690640D01*
X153543155Y-108690640D02*
X153495536Y-108643021D01*
X153495536Y-108643021D02*
X153447917Y-108547783D01*
X153447917Y-108547783D02*
X153447917Y-108452545D01*
X153447917Y-108452545D02*
X153495536Y-108357307D01*
X153495536Y-108357307D02*
X153543155Y-108309688D01*
X153543155Y-108309688D02*
X153638393Y-108262069D01*
X153638393Y-108262069D02*
X153876488Y-108262069D01*
X153876488Y-108262069D02*
X154019345Y-108309688D01*
X154352679Y-108262069D02*
X154590774Y-109262069D01*
X154590774Y-109262069D02*
X154781250Y-108547783D01*
X154781250Y-108547783D02*
X154971726Y-109262069D01*
X154971726Y-109262069D02*
X155209822Y-108262069D01*
X156066964Y-108262069D02*
X155590774Y-108262069D01*
X155590774Y-108262069D02*
X155543155Y-108738259D01*
X155543155Y-108738259D02*
X155590774Y-108690640D01*
X155590774Y-108690640D02*
X155686012Y-108643021D01*
X155686012Y-108643021D02*
X155924107Y-108643021D01*
X155924107Y-108643021D02*
X156019345Y-108690640D01*
X156019345Y-108690640D02*
X156066964Y-108738259D01*
X156066964Y-108738259D02*
X156114583Y-108833497D01*
X156114583Y-108833497D02*
X156114583Y-109071592D01*
X156114583Y-109071592D02*
X156066964Y-109166830D01*
X156066964Y-109166830D02*
X156019345Y-109214450D01*
X156019345Y-109214450D02*
X155924107Y-109262069D01*
X155924107Y-109262069D02*
X155686012Y-109262069D01*
X155686012Y-109262069D02*
X155590774Y-109214450D01*
X155590774Y-109214450D02*
X155543155Y-109166830D01*
D12*
X70016190Y-47453479D02*
X70016190Y-47967526D01*
X70016190Y-47967526D02*
X70046428Y-48028002D01*
X70046428Y-48028002D02*
X70076666Y-48058241D01*
X70076666Y-48058241D02*
X70137142Y-48088479D01*
X70137142Y-48088479D02*
X70258095Y-48088479D01*
X70258095Y-48088479D02*
X70318571Y-48058241D01*
X70318571Y-48058241D02*
X70348809Y-48028002D01*
X70348809Y-48028002D02*
X70379047Y-47967526D01*
X70379047Y-47967526D02*
X70379047Y-47453479D01*
X71014047Y-48088479D02*
X70651190Y-48088479D01*
X70832618Y-48088479D02*
X70832618Y-47453479D01*
X70832618Y-47453479D02*
X70772142Y-47544193D01*
X70772142Y-47544193D02*
X70711666Y-47604669D01*
X70711666Y-47604669D02*
X70651190Y-47634907D01*
D10*
X166761069Y-94083035D02*
X165761069Y-94083035D01*
X165761069Y-94083035D02*
X165761069Y-93844940D01*
X165761069Y-93844940D02*
X165808688Y-93702083D01*
X165808688Y-93702083D02*
X165903926Y-93606845D01*
X165903926Y-93606845D02*
X165999164Y-93559226D01*
X165999164Y-93559226D02*
X166189640Y-93511607D01*
X166189640Y-93511607D02*
X166332497Y-93511607D01*
X166332497Y-93511607D02*
X166522973Y-93559226D01*
X166522973Y-93559226D02*
X166618211Y-93606845D01*
X166618211Y-93606845D02*
X166713450Y-93702083D01*
X166713450Y-93702083D02*
X166761069Y-93844940D01*
X166761069Y-93844940D02*
X166761069Y-94083035D01*
X165856307Y-93130654D02*
X165808688Y-93083035D01*
X165808688Y-93083035D02*
X165761069Y-92987797D01*
X165761069Y-92987797D02*
X165761069Y-92749702D01*
X165761069Y-92749702D02*
X165808688Y-92654464D01*
X165808688Y-92654464D02*
X165856307Y-92606845D01*
X165856307Y-92606845D02*
X165951545Y-92559226D01*
X165951545Y-92559226D02*
X166046783Y-92559226D01*
X166046783Y-92559226D02*
X166189640Y-92606845D01*
X166189640Y-92606845D02*
X166761069Y-93178273D01*
X166761069Y-93178273D02*
X166761069Y-92559226D01*
X165761069Y-92225892D02*
X165761069Y-91559226D01*
X165761069Y-91559226D02*
X166761069Y-91987797D01*
X222854819Y-94014285D02*
X221854819Y-94014285D01*
X221854819Y-94014285D02*
X221854819Y-93776190D01*
X221854819Y-93776190D02*
X221902438Y-93633333D01*
X221902438Y-93633333D02*
X221997676Y-93538095D01*
X221997676Y-93538095D02*
X222092914Y-93490476D01*
X222092914Y-93490476D02*
X222283390Y-93442857D01*
X222283390Y-93442857D02*
X222426247Y-93442857D01*
X222426247Y-93442857D02*
X222616723Y-93490476D01*
X222616723Y-93490476D02*
X222711961Y-93538095D01*
X222711961Y-93538095D02*
X222807200Y-93633333D01*
X222807200Y-93633333D02*
X222854819Y-93776190D01*
X222854819Y-93776190D02*
X222854819Y-94014285D01*
X221854819Y-93109523D02*
X221854819Y-92490476D01*
X221854819Y-92490476D02*
X222235771Y-92823809D01*
X222235771Y-92823809D02*
X222235771Y-92680952D01*
X222235771Y-92680952D02*
X222283390Y-92585714D01*
X222283390Y-92585714D02*
X222331009Y-92538095D01*
X222331009Y-92538095D02*
X222426247Y-92490476D01*
X222426247Y-92490476D02*
X222664342Y-92490476D01*
X222664342Y-92490476D02*
X222759580Y-92538095D01*
X222759580Y-92538095D02*
X222807200Y-92585714D01*
X222807200Y-92585714D02*
X222854819Y-92680952D01*
X222854819Y-92680952D02*
X222854819Y-92966666D01*
X222854819Y-92966666D02*
X222807200Y-93061904D01*
X222807200Y-93061904D02*
X222759580Y-93109523D01*
X222854819Y-92014285D02*
X222854819Y-91823809D01*
X222854819Y-91823809D02*
X222807200Y-91728571D01*
X222807200Y-91728571D02*
X222759580Y-91680952D01*
X222759580Y-91680952D02*
X222616723Y-91585714D01*
X222616723Y-91585714D02*
X222426247Y-91538095D01*
X222426247Y-91538095D02*
X222045295Y-91538095D01*
X222045295Y-91538095D02*
X221950057Y-91585714D01*
X221950057Y-91585714D02*
X221902438Y-91633333D01*
X221902438Y-91633333D02*
X221854819Y-91728571D01*
X221854819Y-91728571D02*
X221854819Y-91919047D01*
X221854819Y-91919047D02*
X221902438Y-92014285D01*
X221902438Y-92014285D02*
X221950057Y-92061904D01*
X221950057Y-92061904D02*
X222045295Y-92109523D01*
X222045295Y-92109523D02*
X222283390Y-92109523D01*
X222283390Y-92109523D02*
X222378628Y-92061904D01*
X222378628Y-92061904D02*
X222426247Y-92014285D01*
X222426247Y-92014285D02*
X222473866Y-91919047D01*
X222473866Y-91919047D02*
X222473866Y-91728571D01*
X222473866Y-91728571D02*
X222426247Y-91633333D01*
X222426247Y-91633333D02*
X222378628Y-91585714D01*
X222378628Y-91585714D02*
X222283390Y-91538095D01*
X128661069Y-113133035D02*
X127661069Y-113133035D01*
X127661069Y-113133035D02*
X127661069Y-112894940D01*
X127661069Y-112894940D02*
X127708688Y-112752083D01*
X127708688Y-112752083D02*
X127803926Y-112656845D01*
X127803926Y-112656845D02*
X127899164Y-112609226D01*
X127899164Y-112609226D02*
X128089640Y-112561607D01*
X128089640Y-112561607D02*
X128232497Y-112561607D01*
X128232497Y-112561607D02*
X128422973Y-112609226D01*
X128422973Y-112609226D02*
X128518211Y-112656845D01*
X128518211Y-112656845D02*
X128613450Y-112752083D01*
X128613450Y-112752083D02*
X128661069Y-112894940D01*
X128661069Y-112894940D02*
X128661069Y-113133035D01*
X127661069Y-112228273D02*
X127661069Y-111609226D01*
X127661069Y-111609226D02*
X128042021Y-111942559D01*
X128042021Y-111942559D02*
X128042021Y-111799702D01*
X128042021Y-111799702D02*
X128089640Y-111704464D01*
X128089640Y-111704464D02*
X128137259Y-111656845D01*
X128137259Y-111656845D02*
X128232497Y-111609226D01*
X128232497Y-111609226D02*
X128470592Y-111609226D01*
X128470592Y-111609226D02*
X128565830Y-111656845D01*
X128565830Y-111656845D02*
X128613450Y-111704464D01*
X128613450Y-111704464D02*
X128661069Y-111799702D01*
X128661069Y-111799702D02*
X128661069Y-112085416D01*
X128661069Y-112085416D02*
X128613450Y-112180654D01*
X128613450Y-112180654D02*
X128565830Y-112228273D01*
X127661069Y-111275892D02*
X127661069Y-110656845D01*
X127661069Y-110656845D02*
X128042021Y-110990178D01*
X128042021Y-110990178D02*
X128042021Y-110847321D01*
X128042021Y-110847321D02*
X128089640Y-110752083D01*
X128089640Y-110752083D02*
X128137259Y-110704464D01*
X128137259Y-110704464D02*
X128232497Y-110656845D01*
X128232497Y-110656845D02*
X128470592Y-110656845D01*
X128470592Y-110656845D02*
X128565830Y-110704464D01*
X128565830Y-110704464D02*
X128613450Y-110752083D01*
X128613450Y-110752083D02*
X128661069Y-110847321D01*
X128661069Y-110847321D02*
X128661069Y-111133035D01*
X128661069Y-111133035D02*
X128613450Y-111228273D01*
X128613450Y-111228273D02*
X128565830Y-111275892D01*
X111665714Y-63244819D02*
X111665714Y-62244819D01*
X111665714Y-62244819D02*
X111903809Y-62244819D01*
X111903809Y-62244819D02*
X112046666Y-62292438D01*
X112046666Y-62292438D02*
X112141904Y-62387676D01*
X112141904Y-62387676D02*
X112189523Y-62482914D01*
X112189523Y-62482914D02*
X112237142Y-62673390D01*
X112237142Y-62673390D02*
X112237142Y-62816247D01*
X112237142Y-62816247D02*
X112189523Y-63006723D01*
X112189523Y-63006723D02*
X112141904Y-63101961D01*
X112141904Y-63101961D02*
X112046666Y-63197200D01*
X112046666Y-63197200D02*
X111903809Y-63244819D01*
X111903809Y-63244819D02*
X111665714Y-63244819D01*
X113189523Y-63244819D02*
X112618095Y-63244819D01*
X112903809Y-63244819D02*
X112903809Y-62244819D01*
X112903809Y-62244819D02*
X112808571Y-62387676D01*
X112808571Y-62387676D02*
X112713333Y-62482914D01*
X112713333Y-62482914D02*
X112618095Y-62530533D01*
X114141904Y-63244819D02*
X113570476Y-63244819D01*
X113856190Y-63244819D02*
X113856190Y-62244819D01*
X113856190Y-62244819D02*
X113760952Y-62387676D01*
X113760952Y-62387676D02*
X113665714Y-62482914D01*
X113665714Y-62482914D02*
X113570476Y-62530533D01*
X109908571Y-65027295D02*
X109451428Y-65027295D01*
X109680000Y-65027295D02*
X109680000Y-64227295D01*
X109680000Y-64227295D02*
X109603809Y-64341580D01*
X109603809Y-64341580D02*
X109527619Y-64417771D01*
X109527619Y-64417771D02*
X109451428Y-64455866D01*
X184134226Y-67144700D02*
X184277083Y-67192319D01*
X184277083Y-67192319D02*
X184515178Y-67192319D01*
X184515178Y-67192319D02*
X184610416Y-67144700D01*
X184610416Y-67144700D02*
X184658035Y-67097080D01*
X184658035Y-67097080D02*
X184705654Y-67001842D01*
X184705654Y-67001842D02*
X184705654Y-66906604D01*
X184705654Y-66906604D02*
X184658035Y-66811366D01*
X184658035Y-66811366D02*
X184610416Y-66763747D01*
X184610416Y-66763747D02*
X184515178Y-66716128D01*
X184515178Y-66716128D02*
X184324702Y-66668509D01*
X184324702Y-66668509D02*
X184229464Y-66620890D01*
X184229464Y-66620890D02*
X184181845Y-66573271D01*
X184181845Y-66573271D02*
X184134226Y-66478033D01*
X184134226Y-66478033D02*
X184134226Y-66382795D01*
X184134226Y-66382795D02*
X184181845Y-66287557D01*
X184181845Y-66287557D02*
X184229464Y-66239938D01*
X184229464Y-66239938D02*
X184324702Y-66192319D01*
X184324702Y-66192319D02*
X184562797Y-66192319D01*
X184562797Y-66192319D02*
X184705654Y-66239938D01*
X185038988Y-66192319D02*
X185277083Y-67192319D01*
X185277083Y-67192319D02*
X185467559Y-66478033D01*
X185467559Y-66478033D02*
X185658035Y-67192319D01*
X185658035Y-67192319D02*
X185896131Y-66192319D01*
X186800892Y-67192319D02*
X186229464Y-67192319D01*
X186515178Y-67192319D02*
X186515178Y-66192319D01*
X186515178Y-66192319D02*
X186419940Y-66335176D01*
X186419940Y-66335176D02*
X186324702Y-66430414D01*
X186324702Y-66430414D02*
X186229464Y-66478033D01*
X187134226Y-66192319D02*
X187800892Y-66192319D01*
X187800892Y-66192319D02*
X187372321Y-67192319D01*
X145679819Y-68851785D02*
X144679819Y-68851785D01*
X144679819Y-68851785D02*
X144679819Y-68613690D01*
X144679819Y-68613690D02*
X144727438Y-68470833D01*
X144727438Y-68470833D02*
X144822676Y-68375595D01*
X144822676Y-68375595D02*
X144917914Y-68327976D01*
X144917914Y-68327976D02*
X145108390Y-68280357D01*
X145108390Y-68280357D02*
X145251247Y-68280357D01*
X145251247Y-68280357D02*
X145441723Y-68327976D01*
X145441723Y-68327976D02*
X145536961Y-68375595D01*
X145536961Y-68375595D02*
X145632200Y-68470833D01*
X145632200Y-68470833D02*
X145679819Y-68613690D01*
X145679819Y-68613690D02*
X145679819Y-68851785D01*
X145679819Y-67327976D02*
X145679819Y-67899404D01*
X145679819Y-67613690D02*
X144679819Y-67613690D01*
X144679819Y-67613690D02*
X144822676Y-67708928D01*
X144822676Y-67708928D02*
X144917914Y-67804166D01*
X144917914Y-67804166D02*
X144965533Y-67899404D01*
X145679819Y-66851785D02*
X145679819Y-66661309D01*
X145679819Y-66661309D02*
X145632200Y-66566071D01*
X145632200Y-66566071D02*
X145584580Y-66518452D01*
X145584580Y-66518452D02*
X145441723Y-66423214D01*
X145441723Y-66423214D02*
X145251247Y-66375595D01*
X145251247Y-66375595D02*
X144870295Y-66375595D01*
X144870295Y-66375595D02*
X144775057Y-66423214D01*
X144775057Y-66423214D02*
X144727438Y-66470833D01*
X144727438Y-66470833D02*
X144679819Y-66566071D01*
X144679819Y-66566071D02*
X144679819Y-66756547D01*
X144679819Y-66756547D02*
X144727438Y-66851785D01*
X144727438Y-66851785D02*
X144775057Y-66899404D01*
X144775057Y-66899404D02*
X144870295Y-66947023D01*
X144870295Y-66947023D02*
X145108390Y-66947023D01*
X145108390Y-66947023D02*
X145203628Y-66899404D01*
X145203628Y-66899404D02*
X145251247Y-66851785D01*
X145251247Y-66851785D02*
X145298866Y-66756547D01*
X145298866Y-66756547D02*
X145298866Y-66566071D01*
X145298866Y-66566071D02*
X145251247Y-66470833D01*
X145251247Y-66470833D02*
X145203628Y-66423214D01*
X145203628Y-66423214D02*
X145108390Y-66375595D01*
X118385714Y-63244819D02*
X118385714Y-62244819D01*
X118385714Y-62244819D02*
X118623809Y-62244819D01*
X118623809Y-62244819D02*
X118766666Y-62292438D01*
X118766666Y-62292438D02*
X118861904Y-62387676D01*
X118861904Y-62387676D02*
X118909523Y-62482914D01*
X118909523Y-62482914D02*
X118957142Y-62673390D01*
X118957142Y-62673390D02*
X118957142Y-62816247D01*
X118957142Y-62816247D02*
X118909523Y-63006723D01*
X118909523Y-63006723D02*
X118861904Y-63101961D01*
X118861904Y-63101961D02*
X118766666Y-63197200D01*
X118766666Y-63197200D02*
X118623809Y-63244819D01*
X118623809Y-63244819D02*
X118385714Y-63244819D01*
X119909523Y-63244819D02*
X119338095Y-63244819D01*
X119623809Y-63244819D02*
X119623809Y-62244819D01*
X119623809Y-62244819D02*
X119528571Y-62387676D01*
X119528571Y-62387676D02*
X119433333Y-62482914D01*
X119433333Y-62482914D02*
X119338095Y-62530533D01*
X120814285Y-62244819D02*
X120338095Y-62244819D01*
X120338095Y-62244819D02*
X120290476Y-62721009D01*
X120290476Y-62721009D02*
X120338095Y-62673390D01*
X120338095Y-62673390D02*
X120433333Y-62625771D01*
X120433333Y-62625771D02*
X120671428Y-62625771D01*
X120671428Y-62625771D02*
X120766666Y-62673390D01*
X120766666Y-62673390D02*
X120814285Y-62721009D01*
X120814285Y-62721009D02*
X120861904Y-62816247D01*
X120861904Y-62816247D02*
X120861904Y-63054342D01*
X120861904Y-63054342D02*
X120814285Y-63149580D01*
X120814285Y-63149580D02*
X120766666Y-63197200D01*
X120766666Y-63197200D02*
X120671428Y-63244819D01*
X120671428Y-63244819D02*
X120433333Y-63244819D01*
X120433333Y-63244819D02*
X120338095Y-63197200D01*
X120338095Y-63197200D02*
X120290476Y-63149580D01*
X116628571Y-65027295D02*
X116171428Y-65027295D01*
X116400000Y-65027295D02*
X116400000Y-64227295D01*
X116400000Y-64227295D02*
X116323809Y-64341580D01*
X116323809Y-64341580D02*
X116247619Y-64417771D01*
X116247619Y-64417771D02*
X116171428Y-64455866D01*
X105421905Y-53004819D02*
X105421905Y-52004819D01*
X105421905Y-52004819D02*
X105660000Y-52004819D01*
X105660000Y-52004819D02*
X105802857Y-52052438D01*
X105802857Y-52052438D02*
X105898095Y-52147676D01*
X105898095Y-52147676D02*
X105945714Y-52242914D01*
X105945714Y-52242914D02*
X105993333Y-52433390D01*
X105993333Y-52433390D02*
X105993333Y-52576247D01*
X105993333Y-52576247D02*
X105945714Y-52766723D01*
X105945714Y-52766723D02*
X105898095Y-52861961D01*
X105898095Y-52861961D02*
X105802857Y-52957200D01*
X105802857Y-52957200D02*
X105660000Y-53004819D01*
X105660000Y-53004819D02*
X105421905Y-53004819D01*
X106898095Y-52004819D02*
X106421905Y-52004819D01*
X106421905Y-52004819D02*
X106374286Y-52481009D01*
X106374286Y-52481009D02*
X106421905Y-52433390D01*
X106421905Y-52433390D02*
X106517143Y-52385771D01*
X106517143Y-52385771D02*
X106755238Y-52385771D01*
X106755238Y-52385771D02*
X106850476Y-52433390D01*
X106850476Y-52433390D02*
X106898095Y-52481009D01*
X106898095Y-52481009D02*
X106945714Y-52576247D01*
X106945714Y-52576247D02*
X106945714Y-52814342D01*
X106945714Y-52814342D02*
X106898095Y-52909580D01*
X106898095Y-52909580D02*
X106850476Y-52957200D01*
X106850476Y-52957200D02*
X106755238Y-53004819D01*
X106755238Y-53004819D02*
X106517143Y-53004819D01*
X106517143Y-53004819D02*
X106421905Y-52957200D01*
X106421905Y-52957200D02*
X106374286Y-52909580D01*
X103188571Y-54787295D02*
X102731428Y-54787295D01*
X102960000Y-54787295D02*
X102960000Y-53987295D01*
X102960000Y-53987295D02*
X102883809Y-54101580D01*
X102883809Y-54101580D02*
X102807619Y-54177771D01*
X102807619Y-54177771D02*
X102731428Y-54215866D01*
X152971726Y-90164450D02*
X153114583Y-90212069D01*
X153114583Y-90212069D02*
X153352678Y-90212069D01*
X153352678Y-90212069D02*
X153447916Y-90164450D01*
X153447916Y-90164450D02*
X153495535Y-90116830D01*
X153495535Y-90116830D02*
X153543154Y-90021592D01*
X153543154Y-90021592D02*
X153543154Y-89926354D01*
X153543154Y-89926354D02*
X153495535Y-89831116D01*
X153495535Y-89831116D02*
X153447916Y-89783497D01*
X153447916Y-89783497D02*
X153352678Y-89735878D01*
X153352678Y-89735878D02*
X153162202Y-89688259D01*
X153162202Y-89688259D02*
X153066964Y-89640640D01*
X153066964Y-89640640D02*
X153019345Y-89593021D01*
X153019345Y-89593021D02*
X152971726Y-89497783D01*
X152971726Y-89497783D02*
X152971726Y-89402545D01*
X152971726Y-89402545D02*
X153019345Y-89307307D01*
X153019345Y-89307307D02*
X153066964Y-89259688D01*
X153066964Y-89259688D02*
X153162202Y-89212069D01*
X153162202Y-89212069D02*
X153400297Y-89212069D01*
X153400297Y-89212069D02*
X153543154Y-89259688D01*
X153876488Y-89212069D02*
X154114583Y-90212069D01*
X154114583Y-90212069D02*
X154305059Y-89497783D01*
X154305059Y-89497783D02*
X154495535Y-90212069D01*
X154495535Y-90212069D02*
X154733631Y-89212069D01*
X155638392Y-90212069D02*
X155066964Y-90212069D01*
X155352678Y-90212069D02*
X155352678Y-89212069D01*
X155352678Y-89212069D02*
X155257440Y-89354926D01*
X155257440Y-89354926D02*
X155162202Y-89450164D01*
X155162202Y-89450164D02*
X155066964Y-89497783D01*
X155971726Y-89212069D02*
X156590773Y-89212069D01*
X156590773Y-89212069D02*
X156257440Y-89593021D01*
X156257440Y-89593021D02*
X156400297Y-89593021D01*
X156400297Y-89593021D02*
X156495535Y-89640640D01*
X156495535Y-89640640D02*
X156543154Y-89688259D01*
X156543154Y-89688259D02*
X156590773Y-89783497D01*
X156590773Y-89783497D02*
X156590773Y-90021592D01*
X156590773Y-90021592D02*
X156543154Y-90116830D01*
X156543154Y-90116830D02*
X156495535Y-90164450D01*
X156495535Y-90164450D02*
X156400297Y-90212069D01*
X156400297Y-90212069D02*
X156114583Y-90212069D01*
X156114583Y-90212069D02*
X156019345Y-90164450D01*
X156019345Y-90164450D02*
X155971726Y-90116830D01*
X136886069Y-59279166D02*
X136409878Y-59612499D01*
X136886069Y-59850594D02*
X135886069Y-59850594D01*
X135886069Y-59850594D02*
X135886069Y-59469642D01*
X135886069Y-59469642D02*
X135933688Y-59374404D01*
X135933688Y-59374404D02*
X135981307Y-59326785D01*
X135981307Y-59326785D02*
X136076545Y-59279166D01*
X136076545Y-59279166D02*
X136219402Y-59279166D01*
X136219402Y-59279166D02*
X136314640Y-59326785D01*
X136314640Y-59326785D02*
X136362259Y-59374404D01*
X136362259Y-59374404D02*
X136409878Y-59469642D01*
X136409878Y-59469642D02*
X136409878Y-59850594D01*
X135981307Y-58898213D02*
X135933688Y-58850594D01*
X135933688Y-58850594D02*
X135886069Y-58755356D01*
X135886069Y-58755356D02*
X135886069Y-58517261D01*
X135886069Y-58517261D02*
X135933688Y-58422023D01*
X135933688Y-58422023D02*
X135981307Y-58374404D01*
X135981307Y-58374404D02*
X136076545Y-58326785D01*
X136076545Y-58326785D02*
X136171783Y-58326785D01*
X136171783Y-58326785D02*
X136314640Y-58374404D01*
X136314640Y-58374404D02*
X136886069Y-58945832D01*
X136886069Y-58945832D02*
X136886069Y-58326785D01*
X166761069Y-113133035D02*
X165761069Y-113133035D01*
X165761069Y-113133035D02*
X165761069Y-112894940D01*
X165761069Y-112894940D02*
X165808688Y-112752083D01*
X165808688Y-112752083D02*
X165903926Y-112656845D01*
X165903926Y-112656845D02*
X165999164Y-112609226D01*
X165999164Y-112609226D02*
X166189640Y-112561607D01*
X166189640Y-112561607D02*
X166332497Y-112561607D01*
X166332497Y-112561607D02*
X166522973Y-112609226D01*
X166522973Y-112609226D02*
X166618211Y-112656845D01*
X166618211Y-112656845D02*
X166713450Y-112752083D01*
X166713450Y-112752083D02*
X166761069Y-112894940D01*
X166761069Y-112894940D02*
X166761069Y-113133035D01*
X165761069Y-112228273D02*
X165761069Y-111609226D01*
X165761069Y-111609226D02*
X166142021Y-111942559D01*
X166142021Y-111942559D02*
X166142021Y-111799702D01*
X166142021Y-111799702D02*
X166189640Y-111704464D01*
X166189640Y-111704464D02*
X166237259Y-111656845D01*
X166237259Y-111656845D02*
X166332497Y-111609226D01*
X166332497Y-111609226D02*
X166570592Y-111609226D01*
X166570592Y-111609226D02*
X166665830Y-111656845D01*
X166665830Y-111656845D02*
X166713450Y-111704464D01*
X166713450Y-111704464D02*
X166761069Y-111799702D01*
X166761069Y-111799702D02*
X166761069Y-112085416D01*
X166761069Y-112085416D02*
X166713450Y-112180654D01*
X166713450Y-112180654D02*
X166665830Y-112228273D01*
X165761069Y-110704464D02*
X165761069Y-111180654D01*
X165761069Y-111180654D02*
X166237259Y-111228273D01*
X166237259Y-111228273D02*
X166189640Y-111180654D01*
X166189640Y-111180654D02*
X166142021Y-111085416D01*
X166142021Y-111085416D02*
X166142021Y-110847321D01*
X166142021Y-110847321D02*
X166189640Y-110752083D01*
X166189640Y-110752083D02*
X166237259Y-110704464D01*
X166237259Y-110704464D02*
X166332497Y-110656845D01*
X166332497Y-110656845D02*
X166570592Y-110656845D01*
X166570592Y-110656845D02*
X166665830Y-110704464D01*
X166665830Y-110704464D02*
X166713450Y-110752083D01*
X166713450Y-110752083D02*
X166761069Y-110847321D01*
X166761069Y-110847321D02*
X166761069Y-111085416D01*
X166761069Y-111085416D02*
X166713450Y-111180654D01*
X166713450Y-111180654D02*
X166665830Y-111228273D01*
X204861069Y-94083035D02*
X203861069Y-94083035D01*
X203861069Y-94083035D02*
X203861069Y-93844940D01*
X203861069Y-93844940D02*
X203908688Y-93702083D01*
X203908688Y-93702083D02*
X204003926Y-93606845D01*
X204003926Y-93606845D02*
X204099164Y-93559226D01*
X204099164Y-93559226D02*
X204289640Y-93511607D01*
X204289640Y-93511607D02*
X204432497Y-93511607D01*
X204432497Y-93511607D02*
X204622973Y-93559226D01*
X204622973Y-93559226D02*
X204718211Y-93606845D01*
X204718211Y-93606845D02*
X204813450Y-93702083D01*
X204813450Y-93702083D02*
X204861069Y-93844940D01*
X204861069Y-93844940D02*
X204861069Y-94083035D01*
X203956307Y-93130654D02*
X203908688Y-93083035D01*
X203908688Y-93083035D02*
X203861069Y-92987797D01*
X203861069Y-92987797D02*
X203861069Y-92749702D01*
X203861069Y-92749702D02*
X203908688Y-92654464D01*
X203908688Y-92654464D02*
X203956307Y-92606845D01*
X203956307Y-92606845D02*
X204051545Y-92559226D01*
X204051545Y-92559226D02*
X204146783Y-92559226D01*
X204146783Y-92559226D02*
X204289640Y-92606845D01*
X204289640Y-92606845D02*
X204861069Y-93178273D01*
X204861069Y-93178273D02*
X204861069Y-92559226D01*
X204861069Y-92083035D02*
X204861069Y-91892559D01*
X204861069Y-91892559D02*
X204813450Y-91797321D01*
X204813450Y-91797321D02*
X204765830Y-91749702D01*
X204765830Y-91749702D02*
X204622973Y-91654464D01*
X204622973Y-91654464D02*
X204432497Y-91606845D01*
X204432497Y-91606845D02*
X204051545Y-91606845D01*
X204051545Y-91606845D02*
X203956307Y-91654464D01*
X203956307Y-91654464D02*
X203908688Y-91702083D01*
X203908688Y-91702083D02*
X203861069Y-91797321D01*
X203861069Y-91797321D02*
X203861069Y-91987797D01*
X203861069Y-91987797D02*
X203908688Y-92083035D01*
X203908688Y-92083035D02*
X203956307Y-92130654D01*
X203956307Y-92130654D02*
X204051545Y-92178273D01*
X204051545Y-92178273D02*
X204289640Y-92178273D01*
X204289640Y-92178273D02*
X204384878Y-92130654D01*
X204384878Y-92130654D02*
X204432497Y-92083035D01*
X204432497Y-92083035D02*
X204480116Y-91987797D01*
X204480116Y-91987797D02*
X204480116Y-91797321D01*
X204480116Y-91797321D02*
X204432497Y-91702083D01*
X204432497Y-91702083D02*
X204384878Y-91654464D01*
X204384878Y-91654464D02*
X204289640Y-91606845D01*
X147711069Y-94083035D02*
X146711069Y-94083035D01*
X146711069Y-94083035D02*
X146711069Y-93844940D01*
X146711069Y-93844940D02*
X146758688Y-93702083D01*
X146758688Y-93702083D02*
X146853926Y-93606845D01*
X146853926Y-93606845D02*
X146949164Y-93559226D01*
X146949164Y-93559226D02*
X147139640Y-93511607D01*
X147139640Y-93511607D02*
X147282497Y-93511607D01*
X147282497Y-93511607D02*
X147472973Y-93559226D01*
X147472973Y-93559226D02*
X147568211Y-93606845D01*
X147568211Y-93606845D02*
X147663450Y-93702083D01*
X147663450Y-93702083D02*
X147711069Y-93844940D01*
X147711069Y-93844940D02*
X147711069Y-94083035D01*
X146806307Y-93130654D02*
X146758688Y-93083035D01*
X146758688Y-93083035D02*
X146711069Y-92987797D01*
X146711069Y-92987797D02*
X146711069Y-92749702D01*
X146711069Y-92749702D02*
X146758688Y-92654464D01*
X146758688Y-92654464D02*
X146806307Y-92606845D01*
X146806307Y-92606845D02*
X146901545Y-92559226D01*
X146901545Y-92559226D02*
X146996783Y-92559226D01*
X146996783Y-92559226D02*
X147139640Y-92606845D01*
X147139640Y-92606845D02*
X147711069Y-93178273D01*
X147711069Y-93178273D02*
X147711069Y-92559226D01*
X146711069Y-91702083D02*
X146711069Y-91892559D01*
X146711069Y-91892559D02*
X146758688Y-91987797D01*
X146758688Y-91987797D02*
X146806307Y-92035416D01*
X146806307Y-92035416D02*
X146949164Y-92130654D01*
X146949164Y-92130654D02*
X147139640Y-92178273D01*
X147139640Y-92178273D02*
X147520592Y-92178273D01*
X147520592Y-92178273D02*
X147615830Y-92130654D01*
X147615830Y-92130654D02*
X147663450Y-92083035D01*
X147663450Y-92083035D02*
X147711069Y-91987797D01*
X147711069Y-91987797D02*
X147711069Y-91797321D01*
X147711069Y-91797321D02*
X147663450Y-91702083D01*
X147663450Y-91702083D02*
X147615830Y-91654464D01*
X147615830Y-91654464D02*
X147520592Y-91606845D01*
X147520592Y-91606845D02*
X147282497Y-91606845D01*
X147282497Y-91606845D02*
X147187259Y-91654464D01*
X147187259Y-91654464D02*
X147139640Y-91702083D01*
X147139640Y-91702083D02*
X147092021Y-91797321D01*
X147092021Y-91797321D02*
X147092021Y-91987797D01*
X147092021Y-91987797D02*
X147139640Y-92083035D01*
X147139640Y-92083035D02*
X147187259Y-92130654D01*
X147187259Y-92130654D02*
X147282497Y-92178273D01*
X105421905Y-63244819D02*
X105421905Y-62244819D01*
X105421905Y-62244819D02*
X105660000Y-62244819D01*
X105660000Y-62244819D02*
X105802857Y-62292438D01*
X105802857Y-62292438D02*
X105898095Y-62387676D01*
X105898095Y-62387676D02*
X105945714Y-62482914D01*
X105945714Y-62482914D02*
X105993333Y-62673390D01*
X105993333Y-62673390D02*
X105993333Y-62816247D01*
X105993333Y-62816247D02*
X105945714Y-63006723D01*
X105945714Y-63006723D02*
X105898095Y-63101961D01*
X105898095Y-63101961D02*
X105802857Y-63197200D01*
X105802857Y-63197200D02*
X105660000Y-63244819D01*
X105660000Y-63244819D02*
X105421905Y-63244819D01*
X106326667Y-62244819D02*
X106993333Y-62244819D01*
X106993333Y-62244819D02*
X106564762Y-63244819D01*
X103188571Y-65027295D02*
X102731428Y-65027295D01*
X102960000Y-65027295D02*
X102960000Y-64227295D01*
X102960000Y-64227295D02*
X102883809Y-64341580D01*
X102883809Y-64341580D02*
X102807619Y-64417771D01*
X102807619Y-64417771D02*
X102731428Y-64455866D01*
X185811069Y-113133035D02*
X184811069Y-113133035D01*
X184811069Y-113133035D02*
X184811069Y-112894940D01*
X184811069Y-112894940D02*
X184858688Y-112752083D01*
X184858688Y-112752083D02*
X184953926Y-112656845D01*
X184953926Y-112656845D02*
X185049164Y-112609226D01*
X185049164Y-112609226D02*
X185239640Y-112561607D01*
X185239640Y-112561607D02*
X185382497Y-112561607D01*
X185382497Y-112561607D02*
X185572973Y-112609226D01*
X185572973Y-112609226D02*
X185668211Y-112656845D01*
X185668211Y-112656845D02*
X185763450Y-112752083D01*
X185763450Y-112752083D02*
X185811069Y-112894940D01*
X185811069Y-112894940D02*
X185811069Y-113133035D01*
X184811069Y-112228273D02*
X184811069Y-111609226D01*
X184811069Y-111609226D02*
X185192021Y-111942559D01*
X185192021Y-111942559D02*
X185192021Y-111799702D01*
X185192021Y-111799702D02*
X185239640Y-111704464D01*
X185239640Y-111704464D02*
X185287259Y-111656845D01*
X185287259Y-111656845D02*
X185382497Y-111609226D01*
X185382497Y-111609226D02*
X185620592Y-111609226D01*
X185620592Y-111609226D02*
X185715830Y-111656845D01*
X185715830Y-111656845D02*
X185763450Y-111704464D01*
X185763450Y-111704464D02*
X185811069Y-111799702D01*
X185811069Y-111799702D02*
X185811069Y-112085416D01*
X185811069Y-112085416D02*
X185763450Y-112180654D01*
X185763450Y-112180654D02*
X185715830Y-112228273D01*
X184811069Y-110752083D02*
X184811069Y-110942559D01*
X184811069Y-110942559D02*
X184858688Y-111037797D01*
X184858688Y-111037797D02*
X184906307Y-111085416D01*
X184906307Y-111085416D02*
X185049164Y-111180654D01*
X185049164Y-111180654D02*
X185239640Y-111228273D01*
X185239640Y-111228273D02*
X185620592Y-111228273D01*
X185620592Y-111228273D02*
X185715830Y-111180654D01*
X185715830Y-111180654D02*
X185763450Y-111133035D01*
X185763450Y-111133035D02*
X185811069Y-111037797D01*
X185811069Y-111037797D02*
X185811069Y-110847321D01*
X185811069Y-110847321D02*
X185763450Y-110752083D01*
X185763450Y-110752083D02*
X185715830Y-110704464D01*
X185715830Y-110704464D02*
X185620592Y-110656845D01*
X185620592Y-110656845D02*
X185382497Y-110656845D01*
X185382497Y-110656845D02*
X185287259Y-110704464D01*
X185287259Y-110704464D02*
X185239640Y-110752083D01*
X185239640Y-110752083D02*
X185192021Y-110847321D01*
X185192021Y-110847321D02*
X185192021Y-111037797D01*
X185192021Y-111037797D02*
X185239640Y-111133035D01*
X185239640Y-111133035D02*
X185287259Y-111180654D01*
X185287259Y-111180654D02*
X185382497Y-111228273D01*
X140114819Y-74884285D02*
X139114819Y-74884285D01*
X139114819Y-74884285D02*
X139114819Y-74646190D01*
X139114819Y-74646190D02*
X139162438Y-74503333D01*
X139162438Y-74503333D02*
X139257676Y-74408095D01*
X139257676Y-74408095D02*
X139352914Y-74360476D01*
X139352914Y-74360476D02*
X139543390Y-74312857D01*
X139543390Y-74312857D02*
X139686247Y-74312857D01*
X139686247Y-74312857D02*
X139876723Y-74360476D01*
X139876723Y-74360476D02*
X139971961Y-74408095D01*
X139971961Y-74408095D02*
X140067200Y-74503333D01*
X140067200Y-74503333D02*
X140114819Y-74646190D01*
X140114819Y-74646190D02*
X140114819Y-74884285D01*
X139210057Y-73931904D02*
X139162438Y-73884285D01*
X139162438Y-73884285D02*
X139114819Y-73789047D01*
X139114819Y-73789047D02*
X139114819Y-73550952D01*
X139114819Y-73550952D02*
X139162438Y-73455714D01*
X139162438Y-73455714D02*
X139210057Y-73408095D01*
X139210057Y-73408095D02*
X139305295Y-73360476D01*
X139305295Y-73360476D02*
X139400533Y-73360476D01*
X139400533Y-73360476D02*
X139543390Y-73408095D01*
X139543390Y-73408095D02*
X140114819Y-73979523D01*
X140114819Y-73979523D02*
X140114819Y-73360476D01*
X139114819Y-72741428D02*
X139114819Y-72646190D01*
X139114819Y-72646190D02*
X139162438Y-72550952D01*
X139162438Y-72550952D02*
X139210057Y-72503333D01*
X139210057Y-72503333D02*
X139305295Y-72455714D01*
X139305295Y-72455714D02*
X139495771Y-72408095D01*
X139495771Y-72408095D02*
X139733866Y-72408095D01*
X139733866Y-72408095D02*
X139924342Y-72455714D01*
X139924342Y-72455714D02*
X140019580Y-72503333D01*
X140019580Y-72503333D02*
X140067200Y-72550952D01*
X140067200Y-72550952D02*
X140114819Y-72646190D01*
X140114819Y-72646190D02*
X140114819Y-72741428D01*
X140114819Y-72741428D02*
X140067200Y-72836666D01*
X140067200Y-72836666D02*
X140019580Y-72884285D01*
X140019580Y-72884285D02*
X139924342Y-72931904D01*
X139924342Y-72931904D02*
X139733866Y-72979523D01*
X139733866Y-72979523D02*
X139495771Y-72979523D01*
X139495771Y-72979523D02*
X139305295Y-72931904D01*
X139305295Y-72931904D02*
X139210057Y-72884285D01*
X139210057Y-72884285D02*
X139162438Y-72836666D01*
X139162438Y-72836666D02*
X139114819Y-72741428D01*
X128661069Y-94083035D02*
X127661069Y-94083035D01*
X127661069Y-94083035D02*
X127661069Y-93844940D01*
X127661069Y-93844940D02*
X127708688Y-93702083D01*
X127708688Y-93702083D02*
X127803926Y-93606845D01*
X127803926Y-93606845D02*
X127899164Y-93559226D01*
X127899164Y-93559226D02*
X128089640Y-93511607D01*
X128089640Y-93511607D02*
X128232497Y-93511607D01*
X128232497Y-93511607D02*
X128422973Y-93559226D01*
X128422973Y-93559226D02*
X128518211Y-93606845D01*
X128518211Y-93606845D02*
X128613450Y-93702083D01*
X128613450Y-93702083D02*
X128661069Y-93844940D01*
X128661069Y-93844940D02*
X128661069Y-94083035D01*
X127756307Y-93130654D02*
X127708688Y-93083035D01*
X127708688Y-93083035D02*
X127661069Y-92987797D01*
X127661069Y-92987797D02*
X127661069Y-92749702D01*
X127661069Y-92749702D02*
X127708688Y-92654464D01*
X127708688Y-92654464D02*
X127756307Y-92606845D01*
X127756307Y-92606845D02*
X127851545Y-92559226D01*
X127851545Y-92559226D02*
X127946783Y-92559226D01*
X127946783Y-92559226D02*
X128089640Y-92606845D01*
X128089640Y-92606845D02*
X128661069Y-93178273D01*
X128661069Y-93178273D02*
X128661069Y-92559226D01*
X127661069Y-91654464D02*
X127661069Y-92130654D01*
X127661069Y-92130654D02*
X128137259Y-92178273D01*
X128137259Y-92178273D02*
X128089640Y-92130654D01*
X128089640Y-92130654D02*
X128042021Y-92035416D01*
X128042021Y-92035416D02*
X128042021Y-91797321D01*
X128042021Y-91797321D02*
X128089640Y-91702083D01*
X128089640Y-91702083D02*
X128137259Y-91654464D01*
X128137259Y-91654464D02*
X128232497Y-91606845D01*
X128232497Y-91606845D02*
X128470592Y-91606845D01*
X128470592Y-91606845D02*
X128565830Y-91654464D01*
X128565830Y-91654464D02*
X128613450Y-91702083D01*
X128613450Y-91702083D02*
X128661069Y-91797321D01*
X128661069Y-91797321D02*
X128661069Y-92035416D01*
X128661069Y-92035416D02*
X128613450Y-92130654D01*
X128613450Y-92130654D02*
X128565830Y-92178273D01*
X98701905Y-68364819D02*
X98701905Y-67364819D01*
X98701905Y-67364819D02*
X98940000Y-67364819D01*
X98940000Y-67364819D02*
X99082857Y-67412438D01*
X99082857Y-67412438D02*
X99178095Y-67507676D01*
X99178095Y-67507676D02*
X99225714Y-67602914D01*
X99225714Y-67602914D02*
X99273333Y-67793390D01*
X99273333Y-67793390D02*
X99273333Y-67936247D01*
X99273333Y-67936247D02*
X99225714Y-68126723D01*
X99225714Y-68126723D02*
X99178095Y-68221961D01*
X99178095Y-68221961D02*
X99082857Y-68317200D01*
X99082857Y-68317200D02*
X98940000Y-68364819D01*
X98940000Y-68364819D02*
X98701905Y-68364819D01*
X100130476Y-67698152D02*
X100130476Y-68364819D01*
X99892381Y-67317200D02*
X99654286Y-68031485D01*
X99654286Y-68031485D02*
X100273333Y-68031485D01*
X96468571Y-70147295D02*
X96011428Y-70147295D01*
X96240000Y-70147295D02*
X96240000Y-69347295D01*
X96240000Y-69347295D02*
X96163809Y-69461580D01*
X96163809Y-69461580D02*
X96087619Y-69537771D01*
X96087619Y-69537771D02*
X96011428Y-69575866D01*
X222954819Y-113114285D02*
X221954819Y-113114285D01*
X221954819Y-113114285D02*
X221954819Y-112876190D01*
X221954819Y-112876190D02*
X222002438Y-112733333D01*
X222002438Y-112733333D02*
X222097676Y-112638095D01*
X222097676Y-112638095D02*
X222192914Y-112590476D01*
X222192914Y-112590476D02*
X222383390Y-112542857D01*
X222383390Y-112542857D02*
X222526247Y-112542857D01*
X222526247Y-112542857D02*
X222716723Y-112590476D01*
X222716723Y-112590476D02*
X222811961Y-112638095D01*
X222811961Y-112638095D02*
X222907200Y-112733333D01*
X222907200Y-112733333D02*
X222954819Y-112876190D01*
X222954819Y-112876190D02*
X222954819Y-113114285D01*
X221954819Y-112209523D02*
X221954819Y-111590476D01*
X221954819Y-111590476D02*
X222335771Y-111923809D01*
X222335771Y-111923809D02*
X222335771Y-111780952D01*
X222335771Y-111780952D02*
X222383390Y-111685714D01*
X222383390Y-111685714D02*
X222431009Y-111638095D01*
X222431009Y-111638095D02*
X222526247Y-111590476D01*
X222526247Y-111590476D02*
X222764342Y-111590476D01*
X222764342Y-111590476D02*
X222859580Y-111638095D01*
X222859580Y-111638095D02*
X222907200Y-111685714D01*
X222907200Y-111685714D02*
X222954819Y-111780952D01*
X222954819Y-111780952D02*
X222954819Y-112066666D01*
X222954819Y-112066666D02*
X222907200Y-112161904D01*
X222907200Y-112161904D02*
X222859580Y-112209523D01*
X222383390Y-111019047D02*
X222335771Y-111114285D01*
X222335771Y-111114285D02*
X222288152Y-111161904D01*
X222288152Y-111161904D02*
X222192914Y-111209523D01*
X222192914Y-111209523D02*
X222145295Y-111209523D01*
X222145295Y-111209523D02*
X222050057Y-111161904D01*
X222050057Y-111161904D02*
X222002438Y-111114285D01*
X222002438Y-111114285D02*
X221954819Y-111019047D01*
X221954819Y-111019047D02*
X221954819Y-110828571D01*
X221954819Y-110828571D02*
X222002438Y-110733333D01*
X222002438Y-110733333D02*
X222050057Y-110685714D01*
X222050057Y-110685714D02*
X222145295Y-110638095D01*
X222145295Y-110638095D02*
X222192914Y-110638095D01*
X222192914Y-110638095D02*
X222288152Y-110685714D01*
X222288152Y-110685714D02*
X222335771Y-110733333D01*
X222335771Y-110733333D02*
X222383390Y-110828571D01*
X222383390Y-110828571D02*
X222383390Y-111019047D01*
X222383390Y-111019047D02*
X222431009Y-111114285D01*
X222431009Y-111114285D02*
X222478628Y-111161904D01*
X222478628Y-111161904D02*
X222573866Y-111209523D01*
X222573866Y-111209523D02*
X222764342Y-111209523D01*
X222764342Y-111209523D02*
X222859580Y-111161904D01*
X222859580Y-111161904D02*
X222907200Y-111114285D01*
X222907200Y-111114285D02*
X222954819Y-111019047D01*
X222954819Y-111019047D02*
X222954819Y-110828571D01*
X222954819Y-110828571D02*
X222907200Y-110733333D01*
X222907200Y-110733333D02*
X222859580Y-110685714D01*
X222859580Y-110685714D02*
X222764342Y-110638095D01*
X222764342Y-110638095D02*
X222573866Y-110638095D01*
X222573866Y-110638095D02*
X222478628Y-110685714D01*
X222478628Y-110685714D02*
X222431009Y-110733333D01*
X222431009Y-110733333D02*
X222383390Y-110828571D01*
X77247917Y-90164450D02*
X77390774Y-90212069D01*
X77390774Y-90212069D02*
X77628869Y-90212069D01*
X77628869Y-90212069D02*
X77724107Y-90164450D01*
X77724107Y-90164450D02*
X77771726Y-90116830D01*
X77771726Y-90116830D02*
X77819345Y-90021592D01*
X77819345Y-90021592D02*
X77819345Y-89926354D01*
X77819345Y-89926354D02*
X77771726Y-89831116D01*
X77771726Y-89831116D02*
X77724107Y-89783497D01*
X77724107Y-89783497D02*
X77628869Y-89735878D01*
X77628869Y-89735878D02*
X77438393Y-89688259D01*
X77438393Y-89688259D02*
X77343155Y-89640640D01*
X77343155Y-89640640D02*
X77295536Y-89593021D01*
X77295536Y-89593021D02*
X77247917Y-89497783D01*
X77247917Y-89497783D02*
X77247917Y-89402545D01*
X77247917Y-89402545D02*
X77295536Y-89307307D01*
X77295536Y-89307307D02*
X77343155Y-89259688D01*
X77343155Y-89259688D02*
X77438393Y-89212069D01*
X77438393Y-89212069D02*
X77676488Y-89212069D01*
X77676488Y-89212069D02*
X77819345Y-89259688D01*
X78152679Y-89212069D02*
X78390774Y-90212069D01*
X78390774Y-90212069D02*
X78581250Y-89497783D01*
X78581250Y-89497783D02*
X78771726Y-90212069D01*
X78771726Y-90212069D02*
X79009822Y-89212069D01*
X79438393Y-90212069D02*
X79628869Y-90212069D01*
X79628869Y-90212069D02*
X79724107Y-90164450D01*
X79724107Y-90164450D02*
X79771726Y-90116830D01*
X79771726Y-90116830D02*
X79866964Y-89973973D01*
X79866964Y-89973973D02*
X79914583Y-89783497D01*
X79914583Y-89783497D02*
X79914583Y-89402545D01*
X79914583Y-89402545D02*
X79866964Y-89307307D01*
X79866964Y-89307307D02*
X79819345Y-89259688D01*
X79819345Y-89259688D02*
X79724107Y-89212069D01*
X79724107Y-89212069D02*
X79533631Y-89212069D01*
X79533631Y-89212069D02*
X79438393Y-89259688D01*
X79438393Y-89259688D02*
X79390774Y-89307307D01*
X79390774Y-89307307D02*
X79343155Y-89402545D01*
X79343155Y-89402545D02*
X79343155Y-89640640D01*
X79343155Y-89640640D02*
X79390774Y-89735878D01*
X79390774Y-89735878D02*
X79438393Y-89783497D01*
X79438393Y-89783497D02*
X79533631Y-89831116D01*
X79533631Y-89831116D02*
X79724107Y-89831116D01*
X79724107Y-89831116D02*
X79819345Y-89783497D01*
X79819345Y-89783497D02*
X79866964Y-89735878D01*
X79866964Y-89735878D02*
X79914583Y-89640640D01*
X134397917Y-109214450D02*
X134540774Y-109262069D01*
X134540774Y-109262069D02*
X134778869Y-109262069D01*
X134778869Y-109262069D02*
X134874107Y-109214450D01*
X134874107Y-109214450D02*
X134921726Y-109166830D01*
X134921726Y-109166830D02*
X134969345Y-109071592D01*
X134969345Y-109071592D02*
X134969345Y-108976354D01*
X134969345Y-108976354D02*
X134921726Y-108881116D01*
X134921726Y-108881116D02*
X134874107Y-108833497D01*
X134874107Y-108833497D02*
X134778869Y-108785878D01*
X134778869Y-108785878D02*
X134588393Y-108738259D01*
X134588393Y-108738259D02*
X134493155Y-108690640D01*
X134493155Y-108690640D02*
X134445536Y-108643021D01*
X134445536Y-108643021D02*
X134397917Y-108547783D01*
X134397917Y-108547783D02*
X134397917Y-108452545D01*
X134397917Y-108452545D02*
X134445536Y-108357307D01*
X134445536Y-108357307D02*
X134493155Y-108309688D01*
X134493155Y-108309688D02*
X134588393Y-108262069D01*
X134588393Y-108262069D02*
X134826488Y-108262069D01*
X134826488Y-108262069D02*
X134969345Y-108309688D01*
X135302679Y-108262069D02*
X135540774Y-109262069D01*
X135540774Y-109262069D02*
X135731250Y-108547783D01*
X135731250Y-108547783D02*
X135921726Y-109262069D01*
X135921726Y-109262069D02*
X136159822Y-108262069D01*
X136969345Y-108595402D02*
X136969345Y-109262069D01*
X136731250Y-108214450D02*
X136493155Y-108928735D01*
X136493155Y-108928735D02*
X137112202Y-108928735D01*
X114871726Y-90164450D02*
X115014583Y-90212069D01*
X115014583Y-90212069D02*
X115252678Y-90212069D01*
X115252678Y-90212069D02*
X115347916Y-90164450D01*
X115347916Y-90164450D02*
X115395535Y-90116830D01*
X115395535Y-90116830D02*
X115443154Y-90021592D01*
X115443154Y-90021592D02*
X115443154Y-89926354D01*
X115443154Y-89926354D02*
X115395535Y-89831116D01*
X115395535Y-89831116D02*
X115347916Y-89783497D01*
X115347916Y-89783497D02*
X115252678Y-89735878D01*
X115252678Y-89735878D02*
X115062202Y-89688259D01*
X115062202Y-89688259D02*
X114966964Y-89640640D01*
X114966964Y-89640640D02*
X114919345Y-89593021D01*
X114919345Y-89593021D02*
X114871726Y-89497783D01*
X114871726Y-89497783D02*
X114871726Y-89402545D01*
X114871726Y-89402545D02*
X114919345Y-89307307D01*
X114919345Y-89307307D02*
X114966964Y-89259688D01*
X114966964Y-89259688D02*
X115062202Y-89212069D01*
X115062202Y-89212069D02*
X115300297Y-89212069D01*
X115300297Y-89212069D02*
X115443154Y-89259688D01*
X115776488Y-89212069D02*
X116014583Y-90212069D01*
X116014583Y-90212069D02*
X116205059Y-89497783D01*
X116205059Y-89497783D02*
X116395535Y-90212069D01*
X116395535Y-90212069D02*
X116633631Y-89212069D01*
X117538392Y-90212069D02*
X116966964Y-90212069D01*
X117252678Y-90212069D02*
X117252678Y-89212069D01*
X117252678Y-89212069D02*
X117157440Y-89354926D01*
X117157440Y-89354926D02*
X117062202Y-89450164D01*
X117062202Y-89450164D02*
X116966964Y-89497783D01*
X118490773Y-90212069D02*
X117919345Y-90212069D01*
X118205059Y-90212069D02*
X118205059Y-89212069D01*
X118205059Y-89212069D02*
X118109821Y-89354926D01*
X118109821Y-89354926D02*
X118014583Y-89450164D01*
X118014583Y-89450164D02*
X117919345Y-89497783D01*
X70517319Y-77661904D02*
X71326842Y-77661904D01*
X71326842Y-77661904D02*
X71422080Y-77614285D01*
X71422080Y-77614285D02*
X71469700Y-77566666D01*
X71469700Y-77566666D02*
X71517319Y-77471428D01*
X71517319Y-77471428D02*
X71517319Y-77280952D01*
X71517319Y-77280952D02*
X71469700Y-77185714D01*
X71469700Y-77185714D02*
X71422080Y-77138095D01*
X71422080Y-77138095D02*
X71326842Y-77090476D01*
X71326842Y-77090476D02*
X70517319Y-77090476D01*
X70517319Y-76709523D02*
X70517319Y-76090476D01*
X70517319Y-76090476D02*
X70898271Y-76423809D01*
X70898271Y-76423809D02*
X70898271Y-76280952D01*
X70898271Y-76280952D02*
X70945890Y-76185714D01*
X70945890Y-76185714D02*
X70993509Y-76138095D01*
X70993509Y-76138095D02*
X71088747Y-76090476D01*
X71088747Y-76090476D02*
X71326842Y-76090476D01*
X71326842Y-76090476D02*
X71422080Y-76138095D01*
X71422080Y-76138095D02*
X71469700Y-76185714D01*
X71469700Y-76185714D02*
X71517319Y-76280952D01*
X71517319Y-76280952D02*
X71517319Y-76566666D01*
X71517319Y-76566666D02*
X71469700Y-76661904D01*
X71469700Y-76661904D02*
X71422080Y-76709523D01*
X203396726Y-67144700D02*
X203539583Y-67192319D01*
X203539583Y-67192319D02*
X203777678Y-67192319D01*
X203777678Y-67192319D02*
X203872916Y-67144700D01*
X203872916Y-67144700D02*
X203920535Y-67097080D01*
X203920535Y-67097080D02*
X203968154Y-67001842D01*
X203968154Y-67001842D02*
X203968154Y-66906604D01*
X203968154Y-66906604D02*
X203920535Y-66811366D01*
X203920535Y-66811366D02*
X203872916Y-66763747D01*
X203872916Y-66763747D02*
X203777678Y-66716128D01*
X203777678Y-66716128D02*
X203587202Y-66668509D01*
X203587202Y-66668509D02*
X203491964Y-66620890D01*
X203491964Y-66620890D02*
X203444345Y-66573271D01*
X203444345Y-66573271D02*
X203396726Y-66478033D01*
X203396726Y-66478033D02*
X203396726Y-66382795D01*
X203396726Y-66382795D02*
X203444345Y-66287557D01*
X203444345Y-66287557D02*
X203491964Y-66239938D01*
X203491964Y-66239938D02*
X203587202Y-66192319D01*
X203587202Y-66192319D02*
X203825297Y-66192319D01*
X203825297Y-66192319D02*
X203968154Y-66239938D01*
X204301488Y-66192319D02*
X204539583Y-67192319D01*
X204539583Y-67192319D02*
X204730059Y-66478033D01*
X204730059Y-66478033D02*
X204920535Y-67192319D01*
X204920535Y-67192319D02*
X205158631Y-66192319D01*
X206063392Y-67192319D02*
X205491964Y-67192319D01*
X205777678Y-67192319D02*
X205777678Y-66192319D01*
X205777678Y-66192319D02*
X205682440Y-66335176D01*
X205682440Y-66335176D02*
X205587202Y-66430414D01*
X205587202Y-66430414D02*
X205491964Y-66478033D01*
X206634821Y-66620890D02*
X206539583Y-66573271D01*
X206539583Y-66573271D02*
X206491964Y-66525652D01*
X206491964Y-66525652D02*
X206444345Y-66430414D01*
X206444345Y-66430414D02*
X206444345Y-66382795D01*
X206444345Y-66382795D02*
X206491964Y-66287557D01*
X206491964Y-66287557D02*
X206539583Y-66239938D01*
X206539583Y-66239938D02*
X206634821Y-66192319D01*
X206634821Y-66192319D02*
X206825297Y-66192319D01*
X206825297Y-66192319D02*
X206920535Y-66239938D01*
X206920535Y-66239938D02*
X206968154Y-66287557D01*
X206968154Y-66287557D02*
X207015773Y-66382795D01*
X207015773Y-66382795D02*
X207015773Y-66430414D01*
X207015773Y-66430414D02*
X206968154Y-66525652D01*
X206968154Y-66525652D02*
X206920535Y-66573271D01*
X206920535Y-66573271D02*
X206825297Y-66620890D01*
X206825297Y-66620890D02*
X206634821Y-66620890D01*
X206634821Y-66620890D02*
X206539583Y-66668509D01*
X206539583Y-66668509D02*
X206491964Y-66716128D01*
X206491964Y-66716128D02*
X206444345Y-66811366D01*
X206444345Y-66811366D02*
X206444345Y-67001842D01*
X206444345Y-67001842D02*
X206491964Y-67097080D01*
X206491964Y-67097080D02*
X206539583Y-67144700D01*
X206539583Y-67144700D02*
X206634821Y-67192319D01*
X206634821Y-67192319D02*
X206825297Y-67192319D01*
X206825297Y-67192319D02*
X206920535Y-67144700D01*
X206920535Y-67144700D02*
X206968154Y-67097080D01*
X206968154Y-67097080D02*
X207015773Y-67001842D01*
X207015773Y-67001842D02*
X207015773Y-66811366D01*
X207015773Y-66811366D02*
X206968154Y-66716128D01*
X206968154Y-66716128D02*
X206920535Y-66668509D01*
X206920535Y-66668509D02*
X206825297Y-66620890D01*
X111665714Y-58124819D02*
X111665714Y-57124819D01*
X111665714Y-57124819D02*
X111903809Y-57124819D01*
X111903809Y-57124819D02*
X112046666Y-57172438D01*
X112046666Y-57172438D02*
X112141904Y-57267676D01*
X112141904Y-57267676D02*
X112189523Y-57362914D01*
X112189523Y-57362914D02*
X112237142Y-57553390D01*
X112237142Y-57553390D02*
X112237142Y-57696247D01*
X112237142Y-57696247D02*
X112189523Y-57886723D01*
X112189523Y-57886723D02*
X112141904Y-57981961D01*
X112141904Y-57981961D02*
X112046666Y-58077200D01*
X112046666Y-58077200D02*
X111903809Y-58124819D01*
X111903809Y-58124819D02*
X111665714Y-58124819D01*
X113189523Y-58124819D02*
X112618095Y-58124819D01*
X112903809Y-58124819D02*
X112903809Y-57124819D01*
X112903809Y-57124819D02*
X112808571Y-57267676D01*
X112808571Y-57267676D02*
X112713333Y-57362914D01*
X112713333Y-57362914D02*
X112618095Y-57410533D01*
X113808571Y-57124819D02*
X113903809Y-57124819D01*
X113903809Y-57124819D02*
X113999047Y-57172438D01*
X113999047Y-57172438D02*
X114046666Y-57220057D01*
X114046666Y-57220057D02*
X114094285Y-57315295D01*
X114094285Y-57315295D02*
X114141904Y-57505771D01*
X114141904Y-57505771D02*
X114141904Y-57743866D01*
X114141904Y-57743866D02*
X114094285Y-57934342D01*
X114094285Y-57934342D02*
X114046666Y-58029580D01*
X114046666Y-58029580D02*
X113999047Y-58077200D01*
X113999047Y-58077200D02*
X113903809Y-58124819D01*
X113903809Y-58124819D02*
X113808571Y-58124819D01*
X113808571Y-58124819D02*
X113713333Y-58077200D01*
X113713333Y-58077200D02*
X113665714Y-58029580D01*
X113665714Y-58029580D02*
X113618095Y-57934342D01*
X113618095Y-57934342D02*
X113570476Y-57743866D01*
X113570476Y-57743866D02*
X113570476Y-57505771D01*
X113570476Y-57505771D02*
X113618095Y-57315295D01*
X113618095Y-57315295D02*
X113665714Y-57220057D01*
X113665714Y-57220057D02*
X113713333Y-57172438D01*
X113713333Y-57172438D02*
X113808571Y-57124819D01*
X109908571Y-59907295D02*
X109451428Y-59907295D01*
X109680000Y-59907295D02*
X109680000Y-59107295D01*
X109680000Y-59107295D02*
X109603809Y-59221580D01*
X109603809Y-59221580D02*
X109527619Y-59297771D01*
X109527619Y-59297771D02*
X109451428Y-59335866D01*
X105421905Y-58124819D02*
X105421905Y-57124819D01*
X105421905Y-57124819D02*
X105660000Y-57124819D01*
X105660000Y-57124819D02*
X105802857Y-57172438D01*
X105802857Y-57172438D02*
X105898095Y-57267676D01*
X105898095Y-57267676D02*
X105945714Y-57362914D01*
X105945714Y-57362914D02*
X105993333Y-57553390D01*
X105993333Y-57553390D02*
X105993333Y-57696247D01*
X105993333Y-57696247D02*
X105945714Y-57886723D01*
X105945714Y-57886723D02*
X105898095Y-57981961D01*
X105898095Y-57981961D02*
X105802857Y-58077200D01*
X105802857Y-58077200D02*
X105660000Y-58124819D01*
X105660000Y-58124819D02*
X105421905Y-58124819D01*
X106850476Y-57124819D02*
X106660000Y-57124819D01*
X106660000Y-57124819D02*
X106564762Y-57172438D01*
X106564762Y-57172438D02*
X106517143Y-57220057D01*
X106517143Y-57220057D02*
X106421905Y-57362914D01*
X106421905Y-57362914D02*
X106374286Y-57553390D01*
X106374286Y-57553390D02*
X106374286Y-57934342D01*
X106374286Y-57934342D02*
X106421905Y-58029580D01*
X106421905Y-58029580D02*
X106469524Y-58077200D01*
X106469524Y-58077200D02*
X106564762Y-58124819D01*
X106564762Y-58124819D02*
X106755238Y-58124819D01*
X106755238Y-58124819D02*
X106850476Y-58077200D01*
X106850476Y-58077200D02*
X106898095Y-58029580D01*
X106898095Y-58029580D02*
X106945714Y-57934342D01*
X106945714Y-57934342D02*
X106945714Y-57696247D01*
X106945714Y-57696247D02*
X106898095Y-57601009D01*
X106898095Y-57601009D02*
X106850476Y-57553390D01*
X106850476Y-57553390D02*
X106755238Y-57505771D01*
X106755238Y-57505771D02*
X106564762Y-57505771D01*
X106564762Y-57505771D02*
X106469524Y-57553390D01*
X106469524Y-57553390D02*
X106421905Y-57601009D01*
X106421905Y-57601009D02*
X106374286Y-57696247D01*
X103188571Y-59907295D02*
X102731428Y-59907295D01*
X102960000Y-59907295D02*
X102960000Y-59107295D01*
X102960000Y-59107295D02*
X102883809Y-59221580D01*
X102883809Y-59221580D02*
X102807619Y-59297771D01*
X102807619Y-59297771D02*
X102731428Y-59335866D01*
X77247917Y-109214450D02*
X77390774Y-109262069D01*
X77390774Y-109262069D02*
X77628869Y-109262069D01*
X77628869Y-109262069D02*
X77724107Y-109214450D01*
X77724107Y-109214450D02*
X77771726Y-109166830D01*
X77771726Y-109166830D02*
X77819345Y-109071592D01*
X77819345Y-109071592D02*
X77819345Y-108976354D01*
X77819345Y-108976354D02*
X77771726Y-108881116D01*
X77771726Y-108881116D02*
X77724107Y-108833497D01*
X77724107Y-108833497D02*
X77628869Y-108785878D01*
X77628869Y-108785878D02*
X77438393Y-108738259D01*
X77438393Y-108738259D02*
X77343155Y-108690640D01*
X77343155Y-108690640D02*
X77295536Y-108643021D01*
X77295536Y-108643021D02*
X77247917Y-108547783D01*
X77247917Y-108547783D02*
X77247917Y-108452545D01*
X77247917Y-108452545D02*
X77295536Y-108357307D01*
X77295536Y-108357307D02*
X77343155Y-108309688D01*
X77343155Y-108309688D02*
X77438393Y-108262069D01*
X77438393Y-108262069D02*
X77676488Y-108262069D01*
X77676488Y-108262069D02*
X77819345Y-108309688D01*
X78152679Y-108262069D02*
X78390774Y-109262069D01*
X78390774Y-109262069D02*
X78581250Y-108547783D01*
X78581250Y-108547783D02*
X78771726Y-109262069D01*
X78771726Y-109262069D02*
X79009822Y-108262069D01*
X79914583Y-109262069D02*
X79343155Y-109262069D01*
X79628869Y-109262069D02*
X79628869Y-108262069D01*
X79628869Y-108262069D02*
X79533631Y-108404926D01*
X79533631Y-108404926D02*
X79438393Y-108500164D01*
X79438393Y-108500164D02*
X79343155Y-108547783D01*
X154402319Y-53453035D02*
X153402319Y-53453035D01*
X153402319Y-53453035D02*
X153402319Y-53214940D01*
X153402319Y-53214940D02*
X153449938Y-53072083D01*
X153449938Y-53072083D02*
X153545176Y-52976845D01*
X153545176Y-52976845D02*
X153640414Y-52929226D01*
X153640414Y-52929226D02*
X153830890Y-52881607D01*
X153830890Y-52881607D02*
X153973747Y-52881607D01*
X153973747Y-52881607D02*
X154164223Y-52929226D01*
X154164223Y-52929226D02*
X154259461Y-52976845D01*
X154259461Y-52976845D02*
X154354700Y-53072083D01*
X154354700Y-53072083D02*
X154402319Y-53214940D01*
X154402319Y-53214940D02*
X154402319Y-53453035D01*
X154402319Y-51929226D02*
X154402319Y-52500654D01*
X154402319Y-52214940D02*
X153402319Y-52214940D01*
X153402319Y-52214940D02*
X153545176Y-52310178D01*
X153545176Y-52310178D02*
X153640414Y-52405416D01*
X153640414Y-52405416D02*
X153688033Y-52500654D01*
X153402319Y-51595892D02*
X153402319Y-50929226D01*
X153402319Y-50929226D02*
X154402319Y-51357797D01*
X191071726Y-90164450D02*
X191214583Y-90212069D01*
X191214583Y-90212069D02*
X191452678Y-90212069D01*
X191452678Y-90212069D02*
X191547916Y-90164450D01*
X191547916Y-90164450D02*
X191595535Y-90116830D01*
X191595535Y-90116830D02*
X191643154Y-90021592D01*
X191643154Y-90021592D02*
X191643154Y-89926354D01*
X191643154Y-89926354D02*
X191595535Y-89831116D01*
X191595535Y-89831116D02*
X191547916Y-89783497D01*
X191547916Y-89783497D02*
X191452678Y-89735878D01*
X191452678Y-89735878D02*
X191262202Y-89688259D01*
X191262202Y-89688259D02*
X191166964Y-89640640D01*
X191166964Y-89640640D02*
X191119345Y-89593021D01*
X191119345Y-89593021D02*
X191071726Y-89497783D01*
X191071726Y-89497783D02*
X191071726Y-89402545D01*
X191071726Y-89402545D02*
X191119345Y-89307307D01*
X191119345Y-89307307D02*
X191166964Y-89259688D01*
X191166964Y-89259688D02*
X191262202Y-89212069D01*
X191262202Y-89212069D02*
X191500297Y-89212069D01*
X191500297Y-89212069D02*
X191643154Y-89259688D01*
X191976488Y-89212069D02*
X192214583Y-90212069D01*
X192214583Y-90212069D02*
X192405059Y-89497783D01*
X192405059Y-89497783D02*
X192595535Y-90212069D01*
X192595535Y-90212069D02*
X192833631Y-89212069D01*
X193738392Y-90212069D02*
X193166964Y-90212069D01*
X193452678Y-90212069D02*
X193452678Y-89212069D01*
X193452678Y-89212069D02*
X193357440Y-89354926D01*
X193357440Y-89354926D02*
X193262202Y-89450164D01*
X193262202Y-89450164D02*
X193166964Y-89497783D01*
X194643154Y-89212069D02*
X194166964Y-89212069D01*
X194166964Y-89212069D02*
X194119345Y-89688259D01*
X194119345Y-89688259D02*
X194166964Y-89640640D01*
X194166964Y-89640640D02*
X194262202Y-89593021D01*
X194262202Y-89593021D02*
X194500297Y-89593021D01*
X194500297Y-89593021D02*
X194595535Y-89640640D01*
X194595535Y-89640640D02*
X194643154Y-89688259D01*
X194643154Y-89688259D02*
X194690773Y-89783497D01*
X194690773Y-89783497D02*
X194690773Y-90021592D01*
X194690773Y-90021592D02*
X194643154Y-90116830D01*
X194643154Y-90116830D02*
X194595535Y-90164450D01*
X194595535Y-90164450D02*
X194500297Y-90212069D01*
X194500297Y-90212069D02*
X194262202Y-90212069D01*
X194262202Y-90212069D02*
X194166964Y-90164450D01*
X194166964Y-90164450D02*
X194119345Y-90116830D01*
D13*
%TO.C,R5*%
X123058750Y-80770814D02*
X123058750Y-80316686D01*
X124528750Y-80770814D02*
X124528750Y-80316686D01*
%TO.C,SW3*%
X109696250Y-109696250D02*
X123666250Y-109696250D01*
X109696250Y-123666250D02*
X109696250Y-109696250D01*
X123666250Y-109696250D02*
X123666250Y-123666250D01*
X123666250Y-123666250D02*
X109696250Y-123666250D01*
%TO.C,SW6*%
X166846250Y-109696250D02*
X180816250Y-109696250D01*
X166846250Y-123666250D02*
X166846250Y-109696250D01*
X180816250Y-109696250D02*
X180816250Y-123666250D01*
X180816250Y-123666250D02*
X166846250Y-123666250D01*
%TO.C,SW2*%
X90646250Y-109696250D02*
X104616250Y-109696250D01*
X90646250Y-123666250D02*
X90646250Y-109696250D01*
X104616250Y-109696250D02*
X104616250Y-123666250D01*
X104616250Y-123666250D02*
X90646250Y-123666250D01*
%TO.C,D37*%
X201406250Y-109558750D02*
X201406250Y-113568750D01*
X203406250Y-109558750D02*
X201406250Y-109558750D01*
X203406250Y-109558750D02*
X203406250Y-113568750D01*
%TO.C,D9*%
X110080000Y-53300000D02*
X110080000Y-57300000D01*
X110080000Y-53300000D02*
X115680000Y-53300000D01*
X110080000Y-57300000D02*
X115080000Y-57300000D01*
X115680000Y-56700000D02*
X115080000Y-57300000D01*
X115680000Y-56700000D02*
X115680000Y-53300000D01*
%TO.C,SW16*%
X204946250Y-90646250D02*
X218916250Y-90646250D01*
X204946250Y-104616250D02*
X204946250Y-90646250D01*
X218916250Y-90646250D02*
X218916250Y-104616250D01*
X218916250Y-104616250D02*
X204946250Y-104616250D01*
%TO.C,R3*%
X132583750Y-66483314D02*
X132583750Y-66029186D01*
X134053750Y-66483314D02*
X134053750Y-66029186D01*
%TO.C,R4*%
X127821250Y-73627064D02*
X127821250Y-73172936D01*
X129291250Y-73627064D02*
X129291250Y-73172936D01*
%TO.C,SW10*%
X90646250Y-90646250D02*
X104616250Y-90646250D01*
X90646250Y-104616250D02*
X90646250Y-90646250D01*
X104616250Y-90646250D02*
X104616250Y-104616250D01*
X104616250Y-104616250D02*
X90646250Y-104616250D01*
%TO.C,D21*%
X132482500Y-78253750D02*
X129392500Y-78253750D01*
X130937500Y-83803750D02*
G75*
G02*
X129392670Y-78253750I0J2990000D01*
G01*
X132482330Y-78253750D02*
G75*
G02*
X130937500Y-83803750I-1544830J-2560000D01*
G01*
X133437500Y-80813750D02*
G75*
G02*
X128437500Y-80813750I-2500000J0D01*
G01*
X128437500Y-80813750D02*
G75*
G02*
X133437500Y-80813750I2500000J0D01*
G01*
%TO.C,R1*%
X142108750Y-52195814D02*
X142108750Y-51741686D01*
X143578750Y-52195814D02*
X143578750Y-51741686D01*
%TO.C,D12*%
X110080000Y-68660000D02*
X110080000Y-72660000D01*
X110080000Y-68660000D02*
X115680000Y-68660000D01*
X110080000Y-72660000D02*
X115080000Y-72660000D01*
X115680000Y-72060000D02*
X115080000Y-72660000D01*
X115680000Y-72060000D02*
X115680000Y-68660000D01*
%TO.C,D24*%
X106156250Y-90508750D02*
X106156250Y-94518750D01*
X108156250Y-90508750D02*
X106156250Y-90508750D01*
X108156250Y-90508750D02*
X108156250Y-94518750D01*
%TO.C,D1*%
X96640000Y-53300000D02*
X96640000Y-57300000D01*
X96640000Y-53300000D02*
X102240000Y-53300000D01*
X96640000Y-57300000D02*
X101640000Y-57300000D01*
X102240000Y-56700000D02*
X101640000Y-57300000D01*
X102240000Y-56700000D02*
X102240000Y-53300000D01*
%TO.C,D13*%
X116800000Y-53300000D02*
X116800000Y-57300000D01*
X116800000Y-53300000D02*
X122400000Y-53300000D01*
X116800000Y-57300000D02*
X121800000Y-57300000D01*
X122400000Y-56700000D02*
X121800000Y-57300000D01*
X122400000Y-56700000D02*
X122400000Y-53300000D01*
%TO.C,D18*%
X146770000Y-56822500D02*
X143680000Y-56822500D01*
X145225000Y-62372500D02*
G75*
G02*
X143680170Y-56822500I0J2990000D01*
G01*
X146769830Y-56822500D02*
G75*
G02*
X145225000Y-62372500I-1544830J-2560000D01*
G01*
X147725000Y-59382500D02*
G75*
G02*
X142725000Y-59382500I-2500000J0D01*
G01*
X142725000Y-59382500D02*
G75*
G02*
X147725000Y-59382500I2500000J0D01*
G01*
%TO.C,SW14*%
X166846250Y-90646250D02*
X180816250Y-90646250D01*
X166846250Y-104616250D02*
X166846250Y-90646250D01*
X180816250Y-90646250D02*
X180816250Y-104616250D01*
X180816250Y-104616250D02*
X166846250Y-104616250D01*
D14*
%TO.C,Brd1*%
X182100000Y-50000000D02*
X182100000Y-62000000D01*
X182100000Y-62000000D02*
X220100000Y-62000000D01*
X185600000Y-50000000D02*
X185600000Y-62000000D01*
X215100000Y-50000000D02*
X215100000Y-62000000D01*
X220100000Y-50000000D02*
X182100000Y-50000000D01*
X220100000Y-62000000D02*
X220100000Y-50000000D01*
D13*
%TO.C,D34*%
X144256250Y-109558750D02*
X144256250Y-113568750D01*
X146256250Y-109558750D02*
X144256250Y-109558750D01*
X146256250Y-109558750D02*
X146256250Y-113568750D01*
%TO.C,SW12*%
X128746250Y-90646250D02*
X142716250Y-90646250D01*
X128746250Y-104616250D02*
X128746250Y-90646250D01*
X142716250Y-90646250D02*
X142716250Y-104616250D01*
X142716250Y-104616250D02*
X128746250Y-104616250D01*
%TO.C,D28*%
X182356250Y-90508750D02*
X182356250Y-94518750D01*
X184356250Y-90508750D02*
X182356250Y-90508750D01*
X184356250Y-90508750D02*
X184356250Y-94518750D01*
%TO.C,D2*%
X96640000Y-58420000D02*
X96640000Y-62420000D01*
X96640000Y-58420000D02*
X102240000Y-58420000D01*
X96640000Y-62420000D02*
X101640000Y-62420000D01*
X102240000Y-61820000D02*
X101640000Y-62420000D01*
X102240000Y-61820000D02*
X102240000Y-58420000D01*
%TO.C,D14*%
X116800000Y-58420000D02*
X116800000Y-62420000D01*
X116800000Y-58420000D02*
X122400000Y-58420000D01*
X116800000Y-62420000D02*
X121800000Y-62420000D01*
X122400000Y-61820000D02*
X121800000Y-62420000D01*
X122400000Y-61820000D02*
X122400000Y-58420000D01*
%TO.C,D31*%
X87106250Y-109558750D02*
X87106250Y-113568750D01*
X89106250Y-109558750D02*
X87106250Y-109558750D01*
X89106250Y-109558750D02*
X89106250Y-113568750D01*
%TO.C,D22*%
X68056250Y-90508750D02*
X68056250Y-94518750D01*
X70056250Y-90508750D02*
X68056250Y-90508750D01*
X70056250Y-90508750D02*
X70056250Y-94518750D01*
%TO.C,D8*%
X103360000Y-68660000D02*
X103360000Y-72660000D01*
X103360000Y-68660000D02*
X108960000Y-68660000D01*
X103360000Y-72660000D02*
X108360000Y-72660000D01*
X108960000Y-72060000D02*
X108360000Y-72660000D01*
X108960000Y-72060000D02*
X108960000Y-68660000D01*
%TO.C,SW8*%
X204946250Y-109696250D02*
X218916250Y-109696250D01*
X204946250Y-123666250D02*
X204946250Y-109696250D01*
X218916250Y-109696250D02*
X218916250Y-123666250D01*
X218916250Y-123666250D02*
X204946250Y-123666250D01*
%TO.C,SW7*%
X185896250Y-109696250D02*
X199866250Y-109696250D01*
X185896250Y-123666250D02*
X185896250Y-109696250D01*
X199866250Y-109696250D02*
X199866250Y-123666250D01*
X199866250Y-123666250D02*
X185896250Y-123666250D01*
%TO.C,D16*%
X116800000Y-68660000D02*
X116800000Y-72660000D01*
X116800000Y-68660000D02*
X122400000Y-68660000D01*
X116800000Y-72660000D02*
X121800000Y-72660000D01*
X122400000Y-72060000D02*
X121800000Y-72660000D01*
X122400000Y-72060000D02*
X122400000Y-68660000D01*
%TO.C,D23*%
X87106250Y-90508750D02*
X87106250Y-94518750D01*
X89106250Y-90508750D02*
X87106250Y-90508750D01*
X89106250Y-90508750D02*
X89106250Y-94518750D01*
%TO.C,D32*%
X106156250Y-109558750D02*
X106156250Y-113568750D01*
X108156250Y-109558750D02*
X106156250Y-109558750D01*
X108156250Y-109558750D02*
X108156250Y-113568750D01*
%TO.C,D3*%
X96640000Y-63540000D02*
X96640000Y-67540000D01*
X96640000Y-63540000D02*
X102240000Y-63540000D01*
X96640000Y-67540000D02*
X101640000Y-67540000D01*
X102240000Y-66940000D02*
X101640000Y-67540000D01*
X102240000Y-66940000D02*
X102240000Y-63540000D01*
%TO.C,D30*%
X68056250Y-109558750D02*
X68056250Y-113568750D01*
X70056250Y-109558750D02*
X68056250Y-109558750D01*
X70056250Y-109558750D02*
X70056250Y-113568750D01*
%TO.C,SW5*%
X147796250Y-109696250D02*
X161766250Y-109696250D01*
X147796250Y-123666250D02*
X147796250Y-109696250D01*
X161766250Y-109696250D02*
X161766250Y-123666250D01*
X161766250Y-123666250D02*
X147796250Y-123666250D01*
D15*
%TO.C,U1*%
X72072500Y-65659000D02*
X72072500Y-48514000D01*
X73977500Y-67564000D02*
X87947500Y-67564000D01*
X76467500Y-46609000D02*
X76471228Y-45698728D01*
X76971228Y-45199000D02*
X84966500Y-45199000D01*
X85466500Y-45699000D02*
X85466500Y-46609000D01*
D11*
X87947500Y-46609000D02*
X73977500Y-46609000D01*
D15*
X87947500Y-46609000D02*
X73977500Y-46609000D01*
X89852500Y-65659000D02*
X89852500Y-48514000D01*
X72072500Y-48514000D02*
G75*
G02*
X73977500Y-46609000I1905001J-1D01*
G01*
X73977500Y-67564000D02*
G75*
G02*
X72072500Y-65659000I1J1905001D01*
G01*
X76471228Y-45698728D02*
G75*
G02*
X76971228Y-45199001I500018J-291D01*
G01*
X84966500Y-45199000D02*
G75*
G02*
X85466500Y-45699000I0J-500000D01*
G01*
X87947500Y-46609000D02*
G75*
G02*
X89852500Y-48514000I0J-1905000D01*
G01*
X89852500Y-65659000D02*
G75*
G02*
X87947500Y-67564000I-1905000J0D01*
G01*
D16*
X72264500Y-46850000D02*
G75*
G02*
X71760500Y-46850000I-252000J0D01*
G01*
X71760500Y-46850000D02*
G75*
G02*
X72264500Y-46850000I252000J0D01*
G01*
X73407500Y-47730000D02*
G75*
G02*
X72903500Y-47730000I-252000J0D01*
G01*
X72903500Y-47730000D02*
G75*
G02*
X73407500Y-47730000I252000J0D01*
G01*
D13*
%TO.C,D27*%
X163306250Y-90508750D02*
X163306250Y-94518750D01*
X165306250Y-90508750D02*
X163306250Y-90508750D01*
X165306250Y-90508750D02*
X165306250Y-94518750D01*
%TO.C,D39*%
X219400000Y-90440000D02*
X219400000Y-94450000D01*
X221400000Y-90440000D02*
X219400000Y-90440000D01*
X221400000Y-90440000D02*
X221400000Y-94450000D01*
%TO.C,D33*%
X125206250Y-109558750D02*
X125206250Y-113568750D01*
X127206250Y-109558750D02*
X125206250Y-109558750D01*
X127206250Y-109558750D02*
X127206250Y-113568750D01*
%TO.C,D11*%
X110080000Y-63540000D02*
X110080000Y-67540000D01*
X110080000Y-63540000D02*
X115680000Y-63540000D01*
X110080000Y-67540000D02*
X115080000Y-67540000D01*
X115680000Y-66940000D02*
X115080000Y-67540000D01*
X115680000Y-66940000D02*
X115680000Y-63540000D01*
%TO.C,SW17*%
X182843750Y-69837500D02*
X183443750Y-69837500D01*
X183143750Y-70137500D02*
X182843750Y-69837500D01*
X183443750Y-69837500D02*
X183143750Y-70137500D01*
X184543750Y-68037500D02*
X184543750Y-79837500D01*
X188643750Y-68037500D02*
X184543750Y-68037500D01*
X188643750Y-79837500D02*
X184543750Y-79837500D01*
X192643750Y-68037500D02*
X196743750Y-68037500D01*
X196743750Y-68037500D02*
X196743750Y-70437500D01*
X196743750Y-72637500D02*
X196743750Y-75237500D01*
X196743750Y-77437500D02*
X196743750Y-79837500D01*
X196743750Y-79837500D02*
X192643750Y-79837500D01*
X193643750Y-73937500D02*
G75*
G02*
X187643750Y-73937500I-3000000J0D01*
G01*
X187643750Y-73937500D02*
G75*
G02*
X193643750Y-73937500I3000000J0D01*
G01*
%TO.C,D19*%
X142007500Y-63966250D02*
X138917500Y-63966250D01*
X140462500Y-69516250D02*
G75*
G02*
X138917670Y-63966250I0J2990000D01*
G01*
X142007330Y-63966250D02*
G75*
G02*
X140462500Y-69516250I-1544830J-2560000D01*
G01*
X142962500Y-66526250D02*
G75*
G02*
X137962500Y-66526250I-2500000J0D01*
G01*
X137962500Y-66526250D02*
G75*
G02*
X142962500Y-66526250I2500000J0D01*
G01*
%TO.C,D15*%
X116800000Y-63540000D02*
X116800000Y-67540000D01*
X116800000Y-63540000D02*
X122400000Y-63540000D01*
X116800000Y-67540000D02*
X121800000Y-67540000D01*
X122400000Y-66940000D02*
X121800000Y-67540000D01*
X122400000Y-66940000D02*
X122400000Y-63540000D01*
%TO.C,D5*%
X103360000Y-53300000D02*
X103360000Y-57300000D01*
X103360000Y-53300000D02*
X108960000Y-53300000D01*
X103360000Y-57300000D02*
X108360000Y-57300000D01*
X108960000Y-56700000D02*
X108360000Y-57300000D01*
X108960000Y-56700000D02*
X108960000Y-53300000D01*
%TO.C,SW13*%
X147796250Y-90646250D02*
X161766250Y-90646250D01*
X147796250Y-104616250D02*
X147796250Y-90646250D01*
X161766250Y-90646250D02*
X161766250Y-104616250D01*
X161766250Y-104616250D02*
X147796250Y-104616250D01*
%TO.C,R2*%
X137346250Y-59339564D02*
X137346250Y-58885436D01*
X138816250Y-59339564D02*
X138816250Y-58885436D01*
%TO.C,D35*%
X163306250Y-109558750D02*
X163306250Y-113568750D01*
X165306250Y-109558750D02*
X163306250Y-109558750D01*
X165306250Y-109558750D02*
X165306250Y-113568750D01*
%TO.C,D29*%
X201406250Y-90508750D02*
X201406250Y-94518750D01*
X203406250Y-90508750D02*
X201406250Y-90508750D01*
X203406250Y-90508750D02*
X203406250Y-94518750D01*
%TO.C,D26*%
X144256250Y-90508750D02*
X144256250Y-94518750D01*
X146256250Y-90508750D02*
X144256250Y-90508750D01*
X146256250Y-90508750D02*
X146256250Y-94518750D01*
%TO.C,D7*%
X103360000Y-63540000D02*
X103360000Y-67540000D01*
X103360000Y-63540000D02*
X108960000Y-63540000D01*
X103360000Y-67540000D02*
X108360000Y-67540000D01*
X108960000Y-66940000D02*
X108360000Y-67540000D01*
X108960000Y-66940000D02*
X108960000Y-63540000D01*
%TO.C,D36*%
X182356250Y-109558750D02*
X182356250Y-113568750D01*
X184356250Y-109558750D02*
X182356250Y-109558750D01*
X184356250Y-109558750D02*
X184356250Y-113568750D01*
%TO.C,D20*%
X137245000Y-71110000D02*
X134155000Y-71110000D01*
X135700000Y-76660000D02*
G75*
G02*
X134155170Y-71110000I0J2990000D01*
G01*
X137244830Y-71110000D02*
G75*
G02*
X135700000Y-76660000I-1544830J-2560000D01*
G01*
X138200000Y-73670000D02*
G75*
G02*
X133200000Y-73670000I-2500000J0D01*
G01*
X133200000Y-73670000D02*
G75*
G02*
X138200000Y-73670000I2500000J0D01*
G01*
%TO.C,D25*%
X125206250Y-90508750D02*
X125206250Y-94518750D01*
X127206250Y-90508750D02*
X125206250Y-90508750D01*
X127206250Y-90508750D02*
X127206250Y-94518750D01*
%TO.C,D4*%
X96640000Y-68660000D02*
X96640000Y-72660000D01*
X96640000Y-68660000D02*
X102240000Y-68660000D01*
X96640000Y-72660000D02*
X101640000Y-72660000D01*
X102240000Y-72060000D02*
X101640000Y-72660000D01*
X102240000Y-72060000D02*
X102240000Y-68660000D01*
%TO.C,D38*%
X219500000Y-109540000D02*
X219500000Y-113550000D01*
X221500000Y-109540000D02*
X219500000Y-109540000D01*
X221500000Y-109540000D02*
X221500000Y-113550000D01*
%TO.C,SW9*%
X71596250Y-90646250D02*
X85566250Y-90646250D01*
X71596250Y-104616250D02*
X71596250Y-90646250D01*
X85566250Y-90646250D02*
X85566250Y-104616250D01*
X85566250Y-104616250D02*
X71596250Y-104616250D01*
%TO.C,SW4*%
X128746250Y-109696250D02*
X142716250Y-109696250D01*
X128746250Y-123666250D02*
X128746250Y-109696250D01*
X142716250Y-109696250D02*
X142716250Y-123666250D01*
X142716250Y-123666250D02*
X128746250Y-123666250D01*
%TO.C,SW11*%
X109696250Y-90646250D02*
X123666250Y-90646250D01*
X109696250Y-104616250D02*
X109696250Y-90646250D01*
X123666250Y-90646250D02*
X123666250Y-104616250D01*
X123666250Y-104616250D02*
X109696250Y-104616250D01*
%TO.C,U3*%
X71902500Y-73040000D02*
X72147500Y-73040000D01*
X71902500Y-80760000D02*
X71902500Y-73040000D01*
X72147500Y-80760000D02*
X71902500Y-80760000D01*
X89777500Y-73040000D02*
X90022500Y-73040000D01*
X90022500Y-73040000D02*
X90022500Y-80760000D01*
X90022500Y-80760000D02*
X89777500Y-80760000D01*
X72142500Y-81550000D02*
X71672500Y-81890000D01*
X71672500Y-81210000D01*
X72142500Y-81550000D01*
G36*
X72142500Y-81550000D02*
G01*
X71672500Y-81890000D01*
X71672500Y-81210000D01*
X72142500Y-81550000D01*
G37*
%TO.C,SW18*%
X202106250Y-69837500D02*
X202706250Y-69837500D01*
X202406250Y-70137500D02*
X202106250Y-69837500D01*
X202706250Y-69837500D02*
X202406250Y-70137500D01*
X203806250Y-68037500D02*
X203806250Y-79837500D01*
X207906250Y-68037500D02*
X203806250Y-68037500D01*
X207906250Y-79837500D02*
X203806250Y-79837500D01*
X211906250Y-68037500D02*
X216006250Y-68037500D01*
X216006250Y-68037500D02*
X216006250Y-70437500D01*
X216006250Y-72637500D02*
X216006250Y-75237500D01*
X216006250Y-77437500D02*
X216006250Y-79837500D01*
X216006250Y-79837500D02*
X211906250Y-79837500D01*
X212906250Y-73937500D02*
G75*
G02*
X206906250Y-73937500I-3000000J0D01*
G01*
X206906250Y-73937500D02*
G75*
G02*
X212906250Y-73937500I3000000J0D01*
G01*
%TO.C,D10*%
X110080000Y-58420000D02*
X110080000Y-62420000D01*
X110080000Y-58420000D02*
X115680000Y-58420000D01*
X110080000Y-62420000D02*
X115080000Y-62420000D01*
X115680000Y-61820000D02*
X115080000Y-62420000D01*
X115680000Y-61820000D02*
X115680000Y-58420000D01*
%TO.C,D6*%
X103360000Y-58420000D02*
X103360000Y-62420000D01*
X103360000Y-58420000D02*
X108960000Y-58420000D01*
X103360000Y-62420000D02*
X108360000Y-62420000D01*
X108960000Y-61820000D02*
X108360000Y-62420000D01*
X108960000Y-61820000D02*
X108960000Y-58420000D01*
%TO.C,SW1*%
X71596250Y-109696250D02*
X85566250Y-109696250D01*
X71596250Y-123666250D02*
X71596250Y-109696250D01*
X85566250Y-109696250D02*
X85566250Y-123666250D01*
X85566250Y-123666250D02*
X71596250Y-123666250D01*
%TO.C,D17*%
X151532500Y-49678750D02*
X148442500Y-49678750D01*
X149987500Y-55228750D02*
G75*
G02*
X148442670Y-49678750I0J2990000D01*
G01*
X151532330Y-49678750D02*
G75*
G02*
X149987500Y-55228750I-1544830J-2560000D01*
G01*
X152487500Y-52238750D02*
G75*
G02*
X147487500Y-52238750I-2500000J0D01*
G01*
X147487500Y-52238750D02*
G75*
G02*
X152487500Y-52238750I2500000J0D01*
G01*
%TO.C,SW15*%
X185896250Y-90646250D02*
X199866250Y-90646250D01*
X185896250Y-104616250D02*
X185896250Y-90646250D01*
X199866250Y-90646250D02*
X199866250Y-104616250D01*
X199866250Y-104616250D02*
X185896250Y-104616250D01*
%TD*%
M02*
