%TF.GenerationSoftware,KiCad,Pcbnew,9.0.6*%
%TF.CreationDate,2025-12-14T00:44:06+01:00*%
%TF.ProjectId,KiCad-Diynamic-Project-Display-Module,4b694361-642d-4446-9979-6e616d69632d,rev?*%
%TF.SameCoordinates,Original*%
%TF.FileFunction,Paste,Top*%
%TF.FilePolarity,Positive*%
%FSLAX46Y46*%
G04 Gerber Fmt 4.6, Leading zero omitted, Abs format (unit mm)*
G04 Created by KiCad (PCBNEW 9.0.6) date 2025-12-14 00:44:06*
%MOMM*%
%LPD*%
G01*
G04 APERTURE LIST*
G04 Aperture macros list*
%AMRoundRect*
0 Rectangle with rounded corners*
0 $1 Rounding radius*
0 $2 $3 $4 $5 $6 $7 $8 $9 X,Y pos of 4 corners*
0 Add a 4 corners polygon primitive as box body*
4,1,4,$2,$3,$4,$5,$6,$7,$8,$9,$2,$3,0*
0 Add four circle primitives for the rounded corners*
1,1,$1+$1,$2,$3*
1,1,$1+$1,$4,$5*
1,1,$1+$1,$6,$7*
1,1,$1+$1,$8,$9*
0 Add four rect primitives between the rounded corners*
20,1,$1+$1,$2,$3,$4,$5,0*
20,1,$1+$1,$4,$5,$6,$7,0*
20,1,$1+$1,$6,$7,$8,$9,0*
20,1,$1+$1,$8,$9,$2,$3,0*%
G04 Aperture macros list end*
%ADD10RoundRect,0.250000X0.450000X-0.350000X0.450000X0.350000X-0.450000X0.350000X-0.450000X-0.350000X0*%
%ADD11RoundRect,0.225000X-0.375000X0.225000X-0.375000X-0.225000X0.375000X-0.225000X0.375000X0.225000X0*%
%ADD12R,1.600000X0.850000*%
%ADD13RoundRect,0.150000X0.150000X-0.875000X0.150000X0.875000X-0.150000X0.875000X-0.150000X-0.875000X0*%
G04 APERTURE END LIST*
D10*
%TO.C,R5*%
X123793750Y-81543750D03*
X123793750Y-79543750D03*
%TD*%
D11*
%TO.C,D37*%
X202406250Y-110268750D03*
X202406250Y-113568750D03*
%TD*%
D12*
%TO.C,D9*%
X111130000Y-54425000D03*
X111130000Y-56175000D03*
X114630000Y-56175000D03*
X114630000Y-54425000D03*
%TD*%
D10*
%TO.C,R3*%
X133318750Y-67256250D03*
X133318750Y-65256250D03*
%TD*%
%TO.C,R4*%
X128556250Y-74400000D03*
X128556250Y-72400000D03*
%TD*%
%TO.C,R1*%
X142843750Y-52968750D03*
X142843750Y-50968750D03*
%TD*%
D12*
%TO.C,D12*%
X111130000Y-69785000D03*
X111130000Y-71535000D03*
X114630000Y-71535000D03*
X114630000Y-69785000D03*
%TD*%
D11*
%TO.C,D24*%
X107156250Y-91218750D03*
X107156250Y-94518750D03*
%TD*%
D12*
%TO.C,D1*%
X97690000Y-54425000D03*
X97690000Y-56175000D03*
X101190000Y-56175000D03*
X101190000Y-54425000D03*
%TD*%
%TO.C,D13*%
X117850000Y-54425000D03*
X117850000Y-56175000D03*
X121350000Y-56175000D03*
X121350000Y-54425000D03*
%TD*%
D11*
%TO.C,D34*%
X145256250Y-110268750D03*
X145256250Y-113568750D03*
%TD*%
%TO.C,D28*%
X183356250Y-91218750D03*
X183356250Y-94518750D03*
%TD*%
D12*
%TO.C,D2*%
X97690000Y-59545000D03*
X97690000Y-61295000D03*
X101190000Y-61295000D03*
X101190000Y-59545000D03*
%TD*%
%TO.C,D14*%
X117850000Y-59545000D03*
X117850000Y-61295000D03*
X121350000Y-61295000D03*
X121350000Y-59545000D03*
%TD*%
D11*
%TO.C,D31*%
X88106250Y-110268750D03*
X88106250Y-113568750D03*
%TD*%
%TO.C,D22*%
X69056250Y-91218750D03*
X69056250Y-94518750D03*
%TD*%
D12*
%TO.C,D8*%
X104410000Y-69785000D03*
X104410000Y-71535000D03*
X107910000Y-71535000D03*
X107910000Y-69785000D03*
%TD*%
%TO.C,D16*%
X117850000Y-69785000D03*
X117850000Y-71535000D03*
X121350000Y-71535000D03*
X121350000Y-69785000D03*
%TD*%
D11*
%TO.C,D23*%
X88106250Y-91218750D03*
X88106250Y-94518750D03*
%TD*%
%TO.C,D32*%
X107156250Y-110268750D03*
X107156250Y-113568750D03*
%TD*%
D12*
%TO.C,D3*%
X97690000Y-64665000D03*
X97690000Y-66415000D03*
X101190000Y-66415000D03*
X101190000Y-64665000D03*
%TD*%
D11*
%TO.C,D30*%
X69056250Y-110268750D03*
X69056250Y-113568750D03*
%TD*%
%TO.C,D27*%
X164306250Y-91218750D03*
X164306250Y-94518750D03*
%TD*%
%TO.C,D39*%
X220400000Y-91150000D03*
X220400000Y-94450000D03*
%TD*%
%TO.C,D33*%
X126206250Y-110268750D03*
X126206250Y-113568750D03*
%TD*%
D12*
%TO.C,D11*%
X111130000Y-64665000D03*
X111130000Y-66415000D03*
X114630000Y-66415000D03*
X114630000Y-64665000D03*
%TD*%
%TO.C,D15*%
X117850000Y-64665000D03*
X117850000Y-66415000D03*
X121350000Y-66415000D03*
X121350000Y-64665000D03*
%TD*%
%TO.C,D5*%
X104410000Y-54425000D03*
X104410000Y-56175000D03*
X107910000Y-56175000D03*
X107910000Y-54425000D03*
%TD*%
D10*
%TO.C,R2*%
X138081250Y-60112500D03*
X138081250Y-58112500D03*
%TD*%
D11*
%TO.C,D35*%
X164306250Y-110268750D03*
X164306250Y-113568750D03*
%TD*%
%TO.C,D29*%
X202406250Y-91218750D03*
X202406250Y-94518750D03*
%TD*%
%TO.C,D26*%
X145256250Y-91218750D03*
X145256250Y-94518750D03*
%TD*%
D12*
%TO.C,D7*%
X104410000Y-64665000D03*
X104410000Y-66415000D03*
X107910000Y-66415000D03*
X107910000Y-64665000D03*
%TD*%
D11*
%TO.C,D36*%
X183356250Y-110268750D03*
X183356250Y-113568750D03*
%TD*%
%TO.C,D25*%
X126206250Y-91218750D03*
X126206250Y-94518750D03*
%TD*%
D12*
%TO.C,D4*%
X97690000Y-69785000D03*
X97690000Y-71535000D03*
X101190000Y-71535000D03*
X101190000Y-69785000D03*
%TD*%
D11*
%TO.C,D38*%
X220500000Y-110250000D03*
X220500000Y-113550000D03*
%TD*%
D13*
%TO.C,U3*%
X72707500Y-81550000D03*
X73977500Y-81550000D03*
X75247500Y-81550000D03*
X76517500Y-81550000D03*
X77787500Y-81550000D03*
X79057500Y-81550000D03*
X80327500Y-81550000D03*
X81597500Y-81550000D03*
X82867500Y-81550000D03*
X84137500Y-81550000D03*
X85407500Y-81550000D03*
X86677500Y-81550000D03*
X87947500Y-81550000D03*
X89217500Y-81550000D03*
X89217500Y-72250000D03*
X87947500Y-72250000D03*
X86677500Y-72250000D03*
X85407500Y-72250000D03*
X84137500Y-72250000D03*
X82867500Y-72250000D03*
X81597500Y-72250000D03*
X80327500Y-72250000D03*
X79057500Y-72250000D03*
X77787500Y-72250000D03*
X76517500Y-72250000D03*
X75247500Y-72250000D03*
X73977500Y-72250000D03*
X72707500Y-72250000D03*
%TD*%
D12*
%TO.C,D10*%
X111130000Y-59545000D03*
X111130000Y-61295000D03*
X114630000Y-61295000D03*
X114630000Y-59545000D03*
%TD*%
%TO.C,D6*%
X104410000Y-59545000D03*
X104410000Y-61295000D03*
X107910000Y-61295000D03*
X107910000Y-59545000D03*
%TD*%
M02*
