%TF.GenerationSoftware,KiCad,Pcbnew,9.0.6*%
%TF.CreationDate,2025-12-14T23:03:34+01:00*%
%TF.ProjectId,KiCad-Diynamic-Project-Display-Module,4b694361-642d-4446-9979-6e616d69632d,rev?*%
%TF.SameCoordinates,Original*%
%TF.FileFunction,Legend,Bot*%
%TF.FilePolarity,Positive*%
%FSLAX46Y46*%
G04 Gerber Fmt 4.6, Leading zero omitted, Abs format (unit mm)*
G04 Created by KiCad (PCBNEW 9.0.6) date 2025-12-14 23:03:34*
%MOMM*%
%LPD*%
G01*
G04 APERTURE LIST*
%ADD10C,0.150000*%
%ADD11C,0.120000*%
G04 APERTURE END LIST*
D10*
X175604819Y-53166666D02*
X176319104Y-53166666D01*
X176319104Y-53166666D02*
X176461961Y-53119047D01*
X176461961Y-53119047D02*
X176557200Y-53023809D01*
X176557200Y-53023809D02*
X176604819Y-52880952D01*
X176604819Y-52880952D02*
X176604819Y-52785714D01*
X175700057Y-53595238D02*
X175652438Y-53642857D01*
X175652438Y-53642857D02*
X175604819Y-53738095D01*
X175604819Y-53738095D02*
X175604819Y-53976190D01*
X175604819Y-53976190D02*
X175652438Y-54071428D01*
X175652438Y-54071428D02*
X175700057Y-54119047D01*
X175700057Y-54119047D02*
X175795295Y-54166666D01*
X175795295Y-54166666D02*
X175890533Y-54166666D01*
X175890533Y-54166666D02*
X176033390Y-54119047D01*
X176033390Y-54119047D02*
X176604819Y-53547619D01*
X176604819Y-53547619D02*
X176604819Y-54166666D01*
X168464819Y-53166666D02*
X169179104Y-53166666D01*
X169179104Y-53166666D02*
X169321961Y-53119047D01*
X169321961Y-53119047D02*
X169417200Y-53023809D01*
X169417200Y-53023809D02*
X169464819Y-52880952D01*
X169464819Y-52880952D02*
X169464819Y-52785714D01*
X169464819Y-54166666D02*
X169464819Y-53595238D01*
X169464819Y-53880952D02*
X168464819Y-53880952D01*
X168464819Y-53880952D02*
X168607676Y-53785714D01*
X168607676Y-53785714D02*
X168702914Y-53690476D01*
X168702914Y-53690476D02*
X168750533Y-53595238D01*
D11*
%TO.C,J2*%
X169960000Y-53735000D02*
X175260000Y-53735000D01*
X169960000Y-56495000D02*
X169960000Y-53735000D01*
X170910000Y-47735000D02*
X170910000Y-53735000D01*
X170910000Y-56807642D02*
X170910000Y-56495000D01*
X171770000Y-47735000D02*
X170910000Y-47735000D01*
X171770000Y-53735000D02*
X171770000Y-47735000D01*
X171770000Y-56807642D02*
X171770000Y-56495000D01*
X172610000Y-56495000D02*
X172610000Y-53735000D01*
X173450000Y-56725000D02*
X173450000Y-56495000D01*
X173880000Y-59155000D02*
X175150000Y-59155000D01*
X174310000Y-56725000D02*
X174310000Y-56495000D01*
X175150000Y-59155000D02*
X175150000Y-57885000D01*
X175260000Y-53735000D02*
X175260000Y-56495000D01*
X175260000Y-56495000D02*
X169960000Y-56495000D01*
X174310000Y-53735000D02*
X173450000Y-53735000D01*
X173450000Y-47735000D01*
X174310000Y-47735000D01*
X174310000Y-53735000D01*
G36*
X174310000Y-53735000D02*
G01*
X173450000Y-53735000D01*
X173450000Y-47735000D01*
X174310000Y-47735000D01*
X174310000Y-53735000D01*
G37*
%TO.C,J1*%
X160280000Y-53735000D02*
X168120000Y-53735000D01*
X160280000Y-56495000D02*
X160280000Y-53735000D01*
X161230000Y-47735000D02*
X161230000Y-53735000D01*
X161230000Y-56807642D02*
X161230000Y-56495000D01*
X162090000Y-47735000D02*
X161230000Y-47735000D01*
X162090000Y-53735000D02*
X162090000Y-47735000D01*
X162090000Y-56807642D02*
X162090000Y-56495000D01*
X162930000Y-56495000D02*
X162930000Y-53735000D01*
X163770000Y-47735000D02*
X163770000Y-53735000D01*
X163770000Y-56807642D02*
X163770000Y-56495000D01*
X164630000Y-47735000D02*
X163770000Y-47735000D01*
X164630000Y-53735000D02*
X164630000Y-47735000D01*
X164630000Y-56807642D02*
X164630000Y-56495000D01*
X165470000Y-56495000D02*
X165470000Y-53735000D01*
X166310000Y-56725000D02*
X166310000Y-56495000D01*
X166740000Y-59155000D02*
X168010000Y-59155000D01*
X167170000Y-56725000D02*
X167170000Y-56495000D01*
X168010000Y-59155000D02*
X168010000Y-57885000D01*
X168120000Y-53735000D02*
X168120000Y-56495000D01*
X168120000Y-56495000D02*
X160280000Y-56495000D01*
X167170000Y-53735000D02*
X166310000Y-53735000D01*
X166310000Y-47735000D01*
X167170000Y-47735000D01*
X167170000Y-53735000D01*
G36*
X167170000Y-53735000D02*
G01*
X166310000Y-53735000D01*
X166310000Y-47735000D01*
X167170000Y-47735000D01*
X167170000Y-53735000D01*
G37*
%TD*%
M02*
