M48
; DRILL file {KiCad 9.0.6} date 2025-12-14T23:03:50+0100
; FORMAT={-:-/ absolute / metric / decimal}
; #@! TF.CreationDate,2025-12-14T23:03:50+01:00
; #@! TF.GenerationSoftware,Kicad,Pcbnew,9.0.6
; #@! TF.FileFunction,NonPlated,1,2,NPTH
FMAT,2
METRIC
; #@! TA.AperFunction,NonPlated,NPTH,ComponentDrill
T1C1.600
; #@! TA.AperFunction,NonPlated,NPTH,ComponentDrill
T2C1.700
; #@! TA.AperFunction,NonPlated,NPTH,ComponentDrill
T3C2.100
; #@! TA.AperFunction,NonPlated,NPTH,ComponentDrill
T4C4.000
%
G90
G05
T2
X73.501Y-97.631
X73.501Y-116.681
X83.661Y-97.631
X83.661Y-116.681
X92.551Y-97.631
X92.551Y-116.681
X102.711Y-97.631
X102.711Y-116.681
X111.601Y-97.631
X111.601Y-116.681
X121.761Y-97.631
X121.761Y-116.681
X130.651Y-97.631
X130.651Y-116.681
X140.811Y-97.631
X140.811Y-116.681
X149.701Y-97.631
X149.701Y-116.681
X159.861Y-97.631
X159.861Y-116.681
X168.751Y-97.631
X168.751Y-116.681
X178.911Y-97.631
X178.911Y-116.681
X187.801Y-97.631
X187.801Y-116.681
X197.961Y-97.631
X197.961Y-116.681
X206.851Y-97.631
X206.851Y-116.681
X217.011Y-97.631
X217.011Y-116.681
T3
X190.644Y-73.938
X209.906Y-73.938
T4
X78.581Y-97.631
X78.581Y-116.681
X97.631Y-97.631
X97.631Y-116.681
X116.681Y-97.631
X116.681Y-116.681
X135.731Y-97.631
X135.731Y-116.681
X154.781Y-97.631
X154.781Y-116.681
X173.831Y-97.631
X173.831Y-116.681
X192.881Y-97.631
X192.881Y-116.681
X211.931Y-97.631
X211.931Y-116.681
T1
G00X185.844Y-73.938
M15
G01X186.444Y-73.938
M16
G05
G00X205.106Y-73.938
M15
G01X205.706Y-73.938
M16
G05
M30
