%TF.GenerationSoftware,KiCad,Pcbnew,9.0.6*%
%TF.CreationDate,2025-12-14T23:03:33+01:00*%
%TF.ProjectId,KiCad-Diynamic-Project-Display-Module,4b694361-642d-4446-9979-6e616d69632d,rev?*%
%TF.SameCoordinates,Original*%
%TF.FileFunction,Copper,L1,Top*%
%TF.FilePolarity,Positive*%
%FSLAX46Y46*%
G04 Gerber Fmt 4.6, Leading zero omitted, Abs format (unit mm)*
G04 Created by KiCad (PCBNEW 9.0.6) date 2025-12-14 23:03:33*
%MOMM*%
%LPD*%
G01*
G04 APERTURE LIST*
G04 Aperture macros list*
%AMRoundRect*
0 Rectangle with rounded corners*
0 $1 Rounding radius*
0 $2 $3 $4 $5 $6 $7 $8 $9 X,Y pos of 4 corners*
0 Add a 4 corners polygon primitive as box body*
4,1,4,$2,$3,$4,$5,$6,$7,$8,$9,$2,$3,0*
0 Add four circle primitives for the rounded corners*
1,1,$1+$1,$2,$3*
1,1,$1+$1,$4,$5*
1,1,$1+$1,$6,$7*
1,1,$1+$1,$8,$9*
0 Add four rect primitives between the rounded corners*
20,1,$1+$1,$2,$3,$4,$5,0*
20,1,$1+$1,$4,$5,$6,$7,0*
20,1,$1+$1,$6,$7,$8,$9,0*
20,1,$1+$1,$8,$9,$2,$3,0*%
G04 Aperture macros list end*
%TA.AperFunction,EtchedComponent*%
%ADD10C,0.000000*%
%TD*%
%TA.AperFunction,SMDPad,CuDef*%
%ADD11R,1.600000X0.850000*%
%TD*%
%TA.AperFunction,ComponentPad*%
%ADD12R,2.000000X2.000000*%
%TD*%
%TA.AperFunction,ComponentPad*%
%ADD13C,2.000000*%
%TD*%
%TA.AperFunction,ComponentPad*%
%ADD14R,3.200000X2.000000*%
%TD*%
%TA.AperFunction,ComponentPad*%
%ADD15C,2.200000*%
%TD*%
%TA.AperFunction,SMDPad,CuDef*%
%ADD16RoundRect,0.152400X1.063600X0.609600X-1.063600X0.609600X-1.063600X-0.609600X1.063600X-0.609600X0*%
%TD*%
%TA.AperFunction,ComponentPad*%
%ADD17C,1.524000*%
%TD*%
%TA.AperFunction,SMDPad,CuDef*%
%ADD18RoundRect,0.152400X-1.063600X-0.609600X1.063600X-0.609600X1.063600X0.609600X-1.063600X0.609600X0*%
%TD*%
%TA.AperFunction,ComponentPad*%
%ADD19R,1.700000X1.700000*%
%TD*%
%TA.AperFunction,ComponentPad*%
%ADD20O,1.700000X1.700000*%
%TD*%
%TA.AperFunction,SMDPad,CuDef*%
%ADD21RoundRect,0.250000X0.450000X-0.350000X0.450000X0.350000X-0.450000X0.350000X-0.450000X-0.350000X0*%
%TD*%
%TA.AperFunction,SMDPad,CuDef*%
%ADD22RoundRect,0.225000X-0.375000X0.225000X-0.375000X-0.225000X0.375000X-0.225000X0.375000X0.225000X0*%
%TD*%
%TA.AperFunction,ComponentPad*%
%ADD23R,1.800000X1.800000*%
%TD*%
%TA.AperFunction,ComponentPad*%
%ADD24C,1.800000*%
%TD*%
%TA.AperFunction,SMDPad,CuDef*%
%ADD25RoundRect,0.150000X0.150000X-0.875000X0.150000X0.875000X-0.150000X0.875000X-0.150000X-0.875000X0*%
%TD*%
%TA.AperFunction,ComponentPad*%
%ADD26C,1.700000*%
%TD*%
%TA.AperFunction,ViaPad*%
%ADD27C,0.600000*%
%TD*%
%TA.AperFunction,Conductor*%
%ADD28C,0.200000*%
%TD*%
G04 APERTURE END LIST*
D10*
%TA.AperFunction,EtchedComponent*%
%TO.C,G\u002A\u002A\u002A*%
G36*
X160731163Y-80492307D02*
G01*
X160706114Y-80517356D01*
X160681064Y-80492307D01*
X160706114Y-80467258D01*
X160731163Y-80492307D01*
G37*
%TD.AperFunction*%
%TA.AperFunction,EtchedComponent*%
G36*
X161081853Y-79340039D02*
G01*
X161056804Y-79365088D01*
X161031755Y-79340039D01*
X161056804Y-79314990D01*
X161081853Y-79340039D01*
G37*
%TD.AperFunction*%
%TA.AperFunction,EtchedComponent*%
G36*
X161783234Y-80492307D02*
G01*
X161758185Y-80517356D01*
X161733135Y-80492307D01*
X161758185Y-80467258D01*
X161783234Y-80492307D01*
G37*
%TD.AperFunction*%
%TA.AperFunction,EtchedComponent*%
G36*
X161933530Y-80191715D02*
G01*
X161908481Y-80216765D01*
X161883431Y-80191715D01*
X161908481Y-80166666D01*
X161933530Y-80191715D01*
G37*
%TD.AperFunction*%
%TA.AperFunction,EtchedComponent*%
G36*
X161933530Y-81343984D02*
G01*
X161908481Y-81369033D01*
X161883431Y-81343984D01*
X161908481Y-81318934D01*
X161933530Y-81343984D01*
G37*
%TD.AperFunction*%
%TA.AperFunction,EtchedComponent*%
G36*
X162534713Y-78638658D02*
G01*
X162509664Y-78663707D01*
X162484615Y-78638658D01*
X162509664Y-78613609D01*
X162534713Y-78638658D01*
G37*
%TD.AperFunction*%
%TA.AperFunction,EtchedComponent*%
G36*
X163085798Y-79690729D02*
G01*
X163060749Y-79715778D01*
X163035700Y-79690729D01*
X163060749Y-79665680D01*
X163085798Y-79690729D01*
G37*
%TD.AperFunction*%
%TA.AperFunction,EtchedComponent*%
G36*
X163636883Y-77686784D02*
G01*
X163611834Y-77711834D01*
X163586784Y-77686784D01*
X163611834Y-77661735D01*
X163636883Y-77686784D01*
G37*
%TD.AperFunction*%
%TA.AperFunction,EtchedComponent*%
G36*
X163937475Y-78588560D02*
G01*
X163912425Y-78613609D01*
X163887376Y-78588560D01*
X163912425Y-78563510D01*
X163937475Y-78588560D01*
G37*
%TD.AperFunction*%
%TA.AperFunction,EtchedComponent*%
G36*
X163937475Y-79640631D02*
G01*
X163912425Y-79665680D01*
X163887376Y-79640631D01*
X163912425Y-79615581D01*
X163937475Y-79640631D01*
G37*
%TD.AperFunction*%
%TA.AperFunction,EtchedComponent*%
G36*
X164137869Y-77536489D02*
G01*
X164112820Y-77561538D01*
X164087771Y-77536489D01*
X164112820Y-77511439D01*
X164137869Y-77536489D01*
G37*
%TD.AperFunction*%
%TA.AperFunction,EtchedComponent*%
G36*
X164137869Y-78939250D02*
G01*
X164112820Y-78964299D01*
X164087771Y-78939250D01*
X164112820Y-78914201D01*
X164137869Y-78939250D01*
G37*
%TD.AperFunction*%
%TA.AperFunction,EtchedComponent*%
G36*
X164338264Y-78538461D02*
G01*
X164313214Y-78563510D01*
X164288165Y-78538461D01*
X164313214Y-78513412D01*
X164338264Y-78538461D01*
G37*
%TD.AperFunction*%
%TA.AperFunction,EtchedComponent*%
G36*
X164688954Y-81694674D02*
G01*
X164663905Y-81719723D01*
X164638855Y-81694674D01*
X164663905Y-81669625D01*
X164688954Y-81694674D01*
G37*
%TD.AperFunction*%
%TA.AperFunction,EtchedComponent*%
G36*
X164739053Y-76233924D02*
G01*
X164714003Y-76258974D01*
X164688954Y-76233924D01*
X164714003Y-76208875D01*
X164739053Y-76233924D01*
G37*
%TD.AperFunction*%
%TA.AperFunction,EtchedComponent*%
G36*
X164739053Y-76384220D02*
G01*
X164714003Y-76409270D01*
X164688954Y-76384220D01*
X164714003Y-76359171D01*
X164739053Y-76384220D01*
G37*
%TD.AperFunction*%
%TA.AperFunction,EtchedComponent*%
G36*
X164839250Y-80943195D02*
G01*
X164814201Y-80968244D01*
X164789151Y-80943195D01*
X164814201Y-80918145D01*
X164839250Y-80943195D01*
G37*
%TD.AperFunction*%
%TA.AperFunction,EtchedComponent*%
G36*
X165089743Y-78638658D02*
G01*
X165064694Y-78663707D01*
X165039644Y-78638658D01*
X165064694Y-78613609D01*
X165089743Y-78638658D01*
G37*
%TD.AperFunction*%
%TA.AperFunction,EtchedComponent*%
G36*
X165139842Y-75682840D02*
G01*
X165114792Y-75707889D01*
X165089743Y-75682840D01*
X165114792Y-75657790D01*
X165139842Y-75682840D01*
G37*
%TD.AperFunction*%
%TA.AperFunction,EtchedComponent*%
G36*
X165139842Y-75833135D02*
G01*
X165114792Y-75858185D01*
X165089743Y-75833135D01*
X165114792Y-75808086D01*
X165139842Y-75833135D01*
G37*
%TD.AperFunction*%
%TA.AperFunction,EtchedComponent*%
G36*
X165139842Y-76534516D02*
G01*
X165114792Y-76559565D01*
X165089743Y-76534516D01*
X165114792Y-76509467D01*
X165139842Y-76534516D01*
G37*
%TD.AperFunction*%
%TA.AperFunction,EtchedComponent*%
G36*
X165440433Y-76785009D02*
G01*
X165415384Y-76810059D01*
X165390335Y-76785009D01*
X165415384Y-76759960D01*
X165440433Y-76785009D01*
G37*
%TD.AperFunction*%
%TA.AperFunction,EtchedComponent*%
G36*
X166191913Y-75732938D02*
G01*
X166166863Y-75757988D01*
X166141814Y-75732938D01*
X166166863Y-75707889D01*
X166191913Y-75732938D01*
G37*
%TD.AperFunction*%
%TA.AperFunction,EtchedComponent*%
G36*
X166242011Y-75532544D02*
G01*
X166216962Y-75557593D01*
X166191913Y-75532544D01*
X166216962Y-75507494D01*
X166242011Y-75532544D01*
G37*
%TD.AperFunction*%
%TA.AperFunction,EtchedComponent*%
G36*
X166292110Y-76083629D02*
G01*
X166267061Y-76108678D01*
X166242011Y-76083629D01*
X166267061Y-76058579D01*
X166292110Y-76083629D01*
G37*
%TD.AperFunction*%
%TA.AperFunction,EtchedComponent*%
G36*
X166342208Y-73929388D02*
G01*
X166317159Y-73954437D01*
X166292110Y-73929388D01*
X166317159Y-73904339D01*
X166342208Y-73929388D01*
G37*
%TD.AperFunction*%
%TA.AperFunction,EtchedComponent*%
G36*
X166392307Y-70472583D02*
G01*
X166367258Y-70497633D01*
X166342208Y-70472583D01*
X166367258Y-70447534D01*
X166392307Y-70472583D01*
G37*
%TD.AperFunction*%
%TA.AperFunction,EtchedComponent*%
G36*
X166692899Y-80091518D02*
G01*
X166667849Y-80116567D01*
X166642800Y-80091518D01*
X166667849Y-80066469D01*
X166692899Y-80091518D01*
G37*
%TD.AperFunction*%
%TA.AperFunction,EtchedComponent*%
G36*
X166843195Y-74430374D02*
G01*
X166818145Y-74455423D01*
X166793096Y-74430374D01*
X166818145Y-74405325D01*
X166843195Y-74430374D01*
G37*
%TD.AperFunction*%
%TA.AperFunction,EtchedComponent*%
G36*
X167193885Y-75732938D02*
G01*
X167168836Y-75757988D01*
X167143786Y-75732938D01*
X167168836Y-75707889D01*
X167193885Y-75732938D01*
G37*
%TD.AperFunction*%
%TA.AperFunction,EtchedComponent*%
G36*
X167294082Y-79490335D02*
G01*
X167269033Y-79515384D01*
X167243984Y-79490335D01*
X167269033Y-79465285D01*
X167294082Y-79490335D01*
G37*
%TD.AperFunction*%
%TA.AperFunction,EtchedComponent*%
G36*
X167494477Y-76534516D02*
G01*
X167469427Y-76559565D01*
X167444378Y-76534516D01*
X167469427Y-76509467D01*
X167494477Y-76534516D01*
G37*
%TD.AperFunction*%
%TA.AperFunction,EtchedComponent*%
G36*
X167544575Y-77035502D02*
G01*
X167519526Y-77060552D01*
X167494477Y-77035502D01*
X167519526Y-77010453D01*
X167544575Y-77035502D01*
G37*
%TD.AperFunction*%
%TA.AperFunction,EtchedComponent*%
G36*
X167644773Y-77185798D02*
G01*
X167619723Y-77210847D01*
X167594674Y-77185798D01*
X167619723Y-77160749D01*
X167644773Y-77185798D01*
G37*
%TD.AperFunction*%
%TA.AperFunction,EtchedComponent*%
G36*
X167795068Y-78137672D02*
G01*
X167770019Y-78162721D01*
X167744970Y-78137672D01*
X167770019Y-78112623D01*
X167795068Y-78137672D01*
G37*
%TD.AperFunction*%
%TA.AperFunction,EtchedComponent*%
G36*
X167995463Y-78538461D02*
G01*
X167970414Y-78563510D01*
X167945364Y-78538461D01*
X167970414Y-78513412D01*
X167995463Y-78538461D01*
G37*
%TD.AperFunction*%
%TA.AperFunction,EtchedComponent*%
G36*
X169197830Y-77686784D02*
G01*
X169172780Y-77711834D01*
X169147731Y-77686784D01*
X169172780Y-77661735D01*
X169197830Y-77686784D01*
G37*
%TD.AperFunction*%
%TA.AperFunction,EtchedComponent*%
G36*
X169298027Y-81694674D02*
G01*
X169272978Y-81719723D01*
X169247928Y-81694674D01*
X169272978Y-81669625D01*
X169298027Y-81694674D01*
G37*
%TD.AperFunction*%
%TA.AperFunction,EtchedComponent*%
G36*
X169498421Y-71524654D02*
G01*
X169473372Y-71549704D01*
X169448323Y-71524654D01*
X169473372Y-71499605D01*
X169498421Y-71524654D01*
G37*
%TD.AperFunction*%
%TA.AperFunction,EtchedComponent*%
G36*
X169498421Y-77336094D02*
G01*
X169473372Y-77361143D01*
X169448323Y-77336094D01*
X169473372Y-77311045D01*
X169498421Y-77336094D01*
G37*
%TD.AperFunction*%
%TA.AperFunction,EtchedComponent*%
G36*
X169498421Y-80241814D02*
G01*
X169473372Y-80266863D01*
X169448323Y-80241814D01*
X169473372Y-80216765D01*
X169498421Y-80241814D01*
G37*
%TD.AperFunction*%
%TA.AperFunction,EtchedComponent*%
G36*
X169949309Y-81544378D02*
G01*
X169924260Y-81569427D01*
X169899210Y-81544378D01*
X169924260Y-81519329D01*
X169949309Y-81544378D01*
G37*
%TD.AperFunction*%
%TA.AperFunction,EtchedComponent*%
G36*
X170299999Y-79239842D02*
G01*
X170274950Y-79264891D01*
X170249901Y-79239842D01*
X170274950Y-79214792D01*
X170299999Y-79239842D01*
G37*
%TD.AperFunction*%
%TA.AperFunction,EtchedComponent*%
G36*
X170650690Y-69921498D02*
G01*
X170625640Y-69946548D01*
X170600591Y-69921498D01*
X170625640Y-69896449D01*
X170650690Y-69921498D01*
G37*
%TD.AperFunction*%
%TA.AperFunction,EtchedComponent*%
G36*
X170650690Y-75783037D02*
G01*
X170625640Y-75808086D01*
X170600591Y-75783037D01*
X170625640Y-75757988D01*
X170650690Y-75783037D01*
G37*
%TD.AperFunction*%
%TA.AperFunction,EtchedComponent*%
G36*
X170700788Y-73628796D02*
G01*
X170675739Y-73653846D01*
X170650690Y-73628796D01*
X170675739Y-73603747D01*
X170700788Y-73628796D01*
G37*
%TD.AperFunction*%
%TA.AperFunction,EtchedComponent*%
G36*
X170700788Y-73728993D02*
G01*
X170675739Y-73754043D01*
X170650690Y-73728993D01*
X170675739Y-73703944D01*
X170700788Y-73728993D01*
G37*
%TD.AperFunction*%
%TA.AperFunction,EtchedComponent*%
G36*
X170750887Y-73979487D02*
G01*
X170725838Y-74004536D01*
X170700788Y-73979487D01*
X170725838Y-73954437D01*
X170750887Y-73979487D01*
G37*
%TD.AperFunction*%
%TA.AperFunction,EtchedComponent*%
G36*
X170750887Y-75783037D02*
G01*
X170725838Y-75808086D01*
X170700788Y-75783037D01*
X170725838Y-75757988D01*
X170750887Y-75783037D01*
G37*
%TD.AperFunction*%
%TA.AperFunction,EtchedComponent*%
G36*
X170951281Y-76684812D02*
G01*
X170926232Y-76709861D01*
X170901183Y-76684812D01*
X170926232Y-76659763D01*
X170951281Y-76684812D01*
G37*
%TD.AperFunction*%
%TA.AperFunction,EtchedComponent*%
G36*
X172153648Y-73478500D02*
G01*
X172128599Y-73503550D01*
X172103550Y-73478500D01*
X172128599Y-73453451D01*
X172153648Y-73478500D01*
G37*
%TD.AperFunction*%
%TA.AperFunction,EtchedComponent*%
G36*
X172354043Y-74179881D02*
G01*
X172328993Y-74204930D01*
X172303944Y-74179881D01*
X172328993Y-74154832D01*
X172354043Y-74179881D01*
G37*
%TD.AperFunction*%
%TA.AperFunction,EtchedComponent*%
G36*
X172704733Y-70873372D02*
G01*
X172679684Y-70898421D01*
X172654634Y-70873372D01*
X172679684Y-70848323D01*
X172704733Y-70873372D01*
G37*
%TD.AperFunction*%
%TA.AperFunction,EtchedComponent*%
G36*
X172704733Y-73728993D02*
G01*
X172679684Y-73754043D01*
X172654634Y-73728993D01*
X172679684Y-73703944D01*
X172704733Y-73728993D01*
G37*
%TD.AperFunction*%
%TA.AperFunction,EtchedComponent*%
G36*
X172754832Y-71474556D02*
G01*
X172729782Y-71499605D01*
X172704733Y-71474556D01*
X172729782Y-71449506D01*
X172754832Y-71474556D01*
G37*
%TD.AperFunction*%
%TA.AperFunction,EtchedComponent*%
G36*
X172754832Y-71624851D02*
G01*
X172729782Y-71649901D01*
X172704733Y-71624851D01*
X172729782Y-71599802D01*
X172754832Y-71624851D01*
G37*
%TD.AperFunction*%
%TA.AperFunction,EtchedComponent*%
G36*
X172905128Y-72576725D02*
G01*
X172880078Y-72601775D01*
X172855029Y-72576725D01*
X172880078Y-72551676D01*
X172905128Y-72576725D01*
G37*
%TD.AperFunction*%
%TA.AperFunction,EtchedComponent*%
G36*
X173105522Y-72426429D02*
G01*
X173080473Y-72451479D01*
X173055423Y-72426429D01*
X173080473Y-72401380D01*
X173105522Y-72426429D01*
G37*
%TD.AperFunction*%
%TA.AperFunction,EtchedComponent*%
G36*
X173105522Y-77235897D02*
G01*
X173080473Y-77260946D01*
X173055423Y-77235897D01*
X173080473Y-77210847D01*
X173105522Y-77235897D01*
G37*
%TD.AperFunction*%
%TA.AperFunction,EtchedComponent*%
G36*
X173556410Y-77436291D02*
G01*
X173531360Y-77461341D01*
X173506311Y-77436291D01*
X173531360Y-77411242D01*
X173556410Y-77436291D01*
G37*
%TD.AperFunction*%
%TA.AperFunction,EtchedComponent*%
G36*
X173656607Y-77536489D02*
G01*
X173631558Y-77561538D01*
X173606508Y-77536489D01*
X173631558Y-77511439D01*
X173656607Y-77536489D01*
G37*
%TD.AperFunction*%
%TA.AperFunction,EtchedComponent*%
G36*
X174057396Y-73328204D02*
G01*
X174032347Y-73353254D01*
X174007297Y-73328204D01*
X174032347Y-73303155D01*
X174057396Y-73328204D01*
G37*
%TD.AperFunction*%
%TA.AperFunction,EtchedComponent*%
G36*
X174207692Y-68568836D02*
G01*
X174182642Y-68593885D01*
X174157593Y-68568836D01*
X174182642Y-68543786D01*
X174207692Y-68568836D01*
G37*
%TD.AperFunction*%
%TA.AperFunction,EtchedComponent*%
G36*
X174307889Y-77436291D02*
G01*
X174282840Y-77461341D01*
X174257790Y-77436291D01*
X174282840Y-77411242D01*
X174307889Y-77436291D01*
G37*
%TD.AperFunction*%
%TA.AperFunction,EtchedComponent*%
G36*
X178165483Y-71474556D02*
G01*
X178140433Y-71499605D01*
X178115384Y-71474556D01*
X178140433Y-71449506D01*
X178165483Y-71474556D01*
G37*
%TD.AperFunction*%
%TA.AperFunction,EtchedComponent*%
G36*
X178315778Y-71324260D02*
G01*
X178290729Y-71349309D01*
X178265680Y-71324260D01*
X178290729Y-71299210D01*
X178315778Y-71324260D01*
G37*
%TD.AperFunction*%
%TA.AperFunction,EtchedComponent*%
G36*
X178716567Y-70923471D02*
G01*
X178691518Y-70948520D01*
X178666469Y-70923471D01*
X178691518Y-70898421D01*
X178716567Y-70923471D01*
G37*
%TD.AperFunction*%
%TA.AperFunction,EtchedComponent*%
G36*
X161666337Y-80133267D02*
G01*
X161659460Y-80163051D01*
X161632938Y-80166666D01*
X161591701Y-80148336D01*
X161599539Y-80133267D01*
X161658994Y-80127271D01*
X161666337Y-80133267D01*
G37*
%TD.AperFunction*%
%TA.AperFunction,EtchedComponent*%
G36*
X161666337Y-80383760D02*
G01*
X161659460Y-80413544D01*
X161632938Y-80417159D01*
X161591701Y-80398829D01*
X161599539Y-80383760D01*
X161658994Y-80377764D01*
X161666337Y-80383760D01*
G37*
%TD.AperFunction*%
%TA.AperFunction,EtchedComponent*%
G36*
X161916830Y-80383760D02*
G01*
X161922826Y-80443215D01*
X161916830Y-80450558D01*
X161887047Y-80443681D01*
X161883431Y-80417159D01*
X161901762Y-80375922D01*
X161916830Y-80383760D01*
G37*
%TD.AperFunction*%
%TA.AperFunction,EtchedComponent*%
G36*
X162117225Y-81135239D02*
G01*
X162110348Y-81165023D01*
X162083826Y-81168638D01*
X162042589Y-81150308D01*
X162050427Y-81135239D01*
X162109882Y-81129244D01*
X162117225Y-81135239D01*
G37*
%TD.AperFunction*%
%TA.AperFunction,EtchedComponent*%
G36*
X162267521Y-80984943D02*
G01*
X162273517Y-81044399D01*
X162267521Y-81051742D01*
X162237737Y-81044865D01*
X162234122Y-81018343D01*
X162252452Y-80977106D01*
X162267521Y-80984943D01*
G37*
%TD.AperFunction*%
%TA.AperFunction,EtchedComponent*%
G36*
X162467915Y-79882774D02*
G01*
X162461038Y-79912557D01*
X162434516Y-79916173D01*
X162393279Y-79897843D01*
X162401117Y-79882774D01*
X162460572Y-79876778D01*
X162467915Y-79882774D01*
G37*
%TD.AperFunction*%
%TA.AperFunction,EtchedComponent*%
G36*
X162467915Y-81686324D02*
G01*
X162461038Y-81716108D01*
X162434516Y-81719723D01*
X162393279Y-81701393D01*
X162401117Y-81686324D01*
X162460572Y-81680328D01*
X162467915Y-81686324D01*
G37*
%TD.AperFunction*%
%TA.AperFunction,EtchedComponent*%
G36*
X162518014Y-80383760D02*
G01*
X162511137Y-80413544D01*
X162484615Y-80417159D01*
X162443378Y-80398829D01*
X162451216Y-80383760D01*
X162510671Y-80377764D01*
X162518014Y-80383760D01*
G37*
%TD.AperFunction*%
%TA.AperFunction,EtchedComponent*%
G36*
X162521145Y-77731664D02*
G01*
X162506204Y-77754435D01*
X162455391Y-77757977D01*
X162401934Y-77745742D01*
X162425123Y-77727709D01*
X162503421Y-77721737D01*
X162521145Y-77731664D01*
G37*
%TD.AperFunction*%
%TA.AperFunction,EtchedComponent*%
G36*
X162618211Y-76876857D02*
G01*
X162611334Y-76906640D01*
X162584812Y-76910256D01*
X162543575Y-76891925D01*
X162551413Y-76876857D01*
X162610868Y-76870861D01*
X162618211Y-76876857D01*
G37*
%TD.AperFunction*%
%TA.AperFunction,EtchedComponent*%
G36*
X162921934Y-78533242D02*
G01*
X162906993Y-78556013D01*
X162856180Y-78559555D01*
X162802723Y-78547320D01*
X162825912Y-78529287D01*
X162904210Y-78523315D01*
X162921934Y-78533242D01*
G37*
%TD.AperFunction*%
%TA.AperFunction,EtchedComponent*%
G36*
X162998126Y-79281810D02*
G01*
X163004419Y-79300096D01*
X162935502Y-79307079D01*
X162864381Y-79299206D01*
X162872879Y-79281810D01*
X162975448Y-79275193D01*
X162998126Y-79281810D01*
G37*
%TD.AperFunction*%
%TA.AperFunction,EtchedComponent*%
G36*
X163069099Y-78630308D02*
G01*
X163062222Y-78660092D01*
X163035700Y-78663707D01*
X162994463Y-78645377D01*
X163002300Y-78630308D01*
X163061756Y-78624313D01*
X163069099Y-78630308D01*
G37*
%TD.AperFunction*%
%TA.AperFunction,EtchedComponent*%
G36*
X163169296Y-80483957D02*
G01*
X163162419Y-80513741D01*
X163135897Y-80517356D01*
X163094660Y-80499026D01*
X163102498Y-80483957D01*
X163161953Y-80477961D01*
X163169296Y-80483957D01*
G37*
%TD.AperFunction*%
%TA.AperFunction,EtchedComponent*%
G36*
X163469888Y-79632281D02*
G01*
X163475883Y-79691736D01*
X163469888Y-79699079D01*
X163440104Y-79692202D01*
X163436489Y-79665680D01*
X163454819Y-79624443D01*
X163469888Y-79632281D01*
G37*
%TD.AperFunction*%
%TA.AperFunction,EtchedComponent*%
G36*
X163720381Y-76526166D02*
G01*
X163713504Y-76555950D01*
X163686982Y-76559565D01*
X163645745Y-76541235D01*
X163653583Y-76526166D01*
X163713038Y-76520171D01*
X163720381Y-76526166D01*
G37*
%TD.AperFunction*%
%TA.AperFunction,EtchedComponent*%
G36*
X163820578Y-80634253D02*
G01*
X163813701Y-80664037D01*
X163787179Y-80667652D01*
X163745942Y-80649322D01*
X163753780Y-80634253D01*
X163813235Y-80628257D01*
X163820578Y-80634253D01*
G37*
%TD.AperFunction*%
%TA.AperFunction,EtchedComponent*%
G36*
X164171268Y-79281590D02*
G01*
X164164391Y-79311374D01*
X164137869Y-79314990D01*
X164096632Y-79296659D01*
X164104470Y-79281590D01*
X164163925Y-79275595D01*
X164171268Y-79281590D01*
G37*
%TD.AperFunction*%
%TA.AperFunction,EtchedComponent*%
G36*
X164174399Y-78132453D02*
G01*
X164159458Y-78155224D01*
X164108645Y-78158766D01*
X164055188Y-78146531D01*
X164078377Y-78128498D01*
X164156675Y-78122526D01*
X164174399Y-78132453D01*
G37*
%TD.AperFunction*%
%TA.AperFunction,EtchedComponent*%
G36*
X164672254Y-75874884D02*
G01*
X164678250Y-75934340D01*
X164672254Y-75941682D01*
X164642471Y-75934805D01*
X164638855Y-75908283D01*
X164657186Y-75867047D01*
X164672254Y-75874884D01*
G37*
%TD.AperFunction*%
%TA.AperFunction,EtchedComponent*%
G36*
X165323537Y-75724588D02*
G01*
X165316659Y-75754372D01*
X165290137Y-75757988D01*
X165248901Y-75739657D01*
X165256738Y-75724588D01*
X165316194Y-75718593D01*
X165323537Y-75724588D01*
G37*
%TD.AperFunction*%
%TA.AperFunction,EtchedComponent*%
G36*
X165323537Y-78880801D02*
G01*
X165316659Y-78910585D01*
X165290137Y-78914201D01*
X165248901Y-78895870D01*
X165256738Y-78880801D01*
X165316194Y-78874806D01*
X165323537Y-78880801D01*
G37*
%TD.AperFunction*%
%TA.AperFunction,EtchedComponent*%
G36*
X165724325Y-75423997D02*
G01*
X165717448Y-75453780D01*
X165690926Y-75457396D01*
X165649690Y-75439066D01*
X165657527Y-75423997D01*
X165716983Y-75418001D01*
X165724325Y-75423997D01*
G37*
%TD.AperFunction*%
%TA.AperFunction,EtchedComponent*%
G36*
X166275191Y-79102070D02*
G01*
X166281807Y-79204640D01*
X166275191Y-79227317D01*
X166256905Y-79233610D01*
X166249922Y-79164694D01*
X166257795Y-79093572D01*
X166275191Y-79102070D01*
G37*
%TD.AperFunction*%
%TA.AperFunction,EtchedComponent*%
G36*
X166275410Y-77728533D02*
G01*
X166281406Y-77787989D01*
X166275410Y-77795331D01*
X166245627Y-77788454D01*
X166242011Y-77761932D01*
X166260341Y-77720695D01*
X166275410Y-77728533D01*
G37*
%TD.AperFunction*%
%TA.AperFunction,EtchedComponent*%
G36*
X166325509Y-76526166D02*
G01*
X166318632Y-76555950D01*
X166292110Y-76559565D01*
X166250873Y-76541235D01*
X166258711Y-76526166D01*
X166318166Y-76520171D01*
X166325509Y-76526166D01*
G37*
%TD.AperFunction*%
%TA.AperFunction,EtchedComponent*%
G36*
X166375608Y-77277646D02*
G01*
X166368730Y-77307429D01*
X166342208Y-77311045D01*
X166300972Y-77292714D01*
X166308809Y-77277646D01*
X166368265Y-77271650D01*
X166375608Y-77277646D01*
G37*
%TD.AperFunction*%
%TA.AperFunction,EtchedComponent*%
G36*
X166525903Y-77377843D02*
G01*
X166519026Y-77407626D01*
X166492504Y-77411242D01*
X166451267Y-77392912D01*
X166459105Y-77377843D01*
X166518561Y-77371847D01*
X166525903Y-77377843D01*
G37*
%TD.AperFunction*%
%TA.AperFunction,EtchedComponent*%
G36*
X166579133Y-79334820D02*
G01*
X166564192Y-79357591D01*
X166513379Y-79361133D01*
X166459922Y-79348898D01*
X166483111Y-79330865D01*
X166561409Y-79324893D01*
X166579133Y-79334820D01*
G37*
%TD.AperFunction*%
%TA.AperFunction,EtchedComponent*%
G36*
X166676199Y-76425969D02*
G01*
X166682195Y-76485424D01*
X166676199Y-76492767D01*
X166646416Y-76485890D01*
X166642800Y-76459368D01*
X166661130Y-76418131D01*
X166676199Y-76425969D01*
G37*
%TD.AperFunction*%
%TA.AperFunction,EtchedComponent*%
G36*
X166876594Y-74522222D02*
G01*
X166869717Y-74552005D01*
X166843195Y-74555621D01*
X166801958Y-74537290D01*
X166809796Y-74522222D01*
X166869251Y-74516226D01*
X166876594Y-74522222D01*
G37*
%TD.AperFunction*%
%TA.AperFunction,EtchedComponent*%
G36*
X167377580Y-79732478D02*
G01*
X167370703Y-79762262D01*
X167344181Y-79765877D01*
X167302944Y-79747547D01*
X167310782Y-79732478D01*
X167370237Y-79726482D01*
X167377580Y-79732478D01*
G37*
%TD.AperFunction*%
%TA.AperFunction,EtchedComponent*%
G36*
X167477777Y-79582182D02*
G01*
X167470900Y-79611966D01*
X167444378Y-79615581D01*
X167403141Y-79597251D01*
X167410979Y-79582182D01*
X167470434Y-79576186D01*
X167477777Y-79582182D01*
G37*
%TD.AperFunction*%
%TA.AperFunction,EtchedComponent*%
G36*
X167628073Y-76075279D02*
G01*
X167621196Y-76105062D01*
X167594674Y-76108678D01*
X167553437Y-76090348D01*
X167561275Y-76075279D01*
X167620730Y-76069283D01*
X167628073Y-76075279D01*
G37*
%TD.AperFunction*%
%TA.AperFunction,EtchedComponent*%
G36*
X167778369Y-79431886D02*
G01*
X167771492Y-79461670D01*
X167744970Y-79465285D01*
X167703733Y-79446955D01*
X167711571Y-79431886D01*
X167771026Y-79425890D01*
X167778369Y-79431886D01*
G37*
%TD.AperFunction*%
%TA.AperFunction,EtchedComponent*%
G36*
X168229256Y-78730506D02*
G01*
X168222379Y-78760289D01*
X168195857Y-78763905D01*
X168154621Y-78745574D01*
X168162458Y-78730506D01*
X168221914Y-78724510D01*
X168229256Y-78730506D01*
G37*
%TD.AperFunction*%
%TA.AperFunction,EtchedComponent*%
G36*
X168780341Y-76876857D02*
G01*
X168773464Y-76906640D01*
X168746942Y-76910256D01*
X168705705Y-76891925D01*
X168713543Y-76876857D01*
X168772998Y-76870861D01*
X168780341Y-76876857D01*
G37*
%TD.AperFunction*%
%TA.AperFunction,EtchedComponent*%
G36*
X169331426Y-77728533D02*
G01*
X169324549Y-77758317D01*
X169298027Y-77761932D01*
X169256790Y-77743602D01*
X169264628Y-77728533D01*
X169324083Y-77722537D01*
X169331426Y-77728533D01*
G37*
%TD.AperFunction*%
%TA.AperFunction,EtchedComponent*%
G36*
X169381525Y-80133267D02*
G01*
X169374648Y-80163051D01*
X169348126Y-80166666D01*
X169306889Y-80148336D01*
X169314727Y-80133267D01*
X169374182Y-80127271D01*
X169381525Y-80133267D01*
G37*
%TD.AperFunction*%
%TA.AperFunction,EtchedComponent*%
G36*
X169384656Y-79184524D02*
G01*
X169369715Y-79207295D01*
X169318901Y-79210837D01*
X169265444Y-79198602D01*
X169288633Y-79180569D01*
X169366932Y-79174597D01*
X169384656Y-79184524D01*
G37*
%TD.AperFunction*%
%TA.AperFunction,EtchedComponent*%
G36*
X169431623Y-71115515D02*
G01*
X169424746Y-71145299D01*
X169398224Y-71148915D01*
X169356987Y-71130584D01*
X169364825Y-71115515D01*
X169424280Y-71109520D01*
X169431623Y-71115515D01*
G37*
%TD.AperFunction*%
%TA.AperFunction,EtchedComponent*%
G36*
X169932609Y-74171531D02*
G01*
X169925732Y-74201315D01*
X169899210Y-74204930D01*
X169857974Y-74186600D01*
X169865811Y-74171531D01*
X169925267Y-74165535D01*
X169932609Y-74171531D01*
G37*
%TD.AperFunction*%
%TA.AperFunction,EtchedComponent*%
G36*
X170834385Y-73369953D02*
G01*
X170840380Y-73429409D01*
X170834385Y-73436752D01*
X170804601Y-73429874D01*
X170800986Y-73403352D01*
X170819316Y-73362116D01*
X170834385Y-73369953D01*
G37*
%TD.AperFunction*%
%TA.AperFunction,EtchedComponent*%
G36*
X170885307Y-73594353D02*
G01*
X170891280Y-73672652D01*
X170881352Y-73690376D01*
X170858582Y-73675434D01*
X170855039Y-73624621D01*
X170867274Y-73571164D01*
X170885307Y-73594353D01*
G37*
%TD.AperFunction*%
%TA.AperFunction,EtchedComponent*%
G36*
X171585864Y-71866995D02*
G01*
X171578987Y-71896778D01*
X171552465Y-71900394D01*
X171511228Y-71882064D01*
X171519066Y-71866995D01*
X171578521Y-71860999D01*
X171585864Y-71866995D01*
G37*
%TD.AperFunction*%
%TA.AperFunction,EtchedComponent*%
G36*
X172237146Y-71265811D02*
G01*
X172230269Y-71295595D01*
X172203747Y-71299210D01*
X172162510Y-71280880D01*
X172170348Y-71265811D01*
X172229803Y-71259816D01*
X172237146Y-71265811D01*
G37*
%TD.AperFunction*%
%TA.AperFunction,EtchedComponent*%
G36*
X172587836Y-71315910D02*
G01*
X172580959Y-71345694D01*
X172554437Y-71349309D01*
X172513200Y-71330979D01*
X172521038Y-71315910D01*
X172580493Y-71309914D01*
X172587836Y-71315910D01*
G37*
%TD.AperFunction*%
%TA.AperFunction,EtchedComponent*%
G36*
X172667159Y-71165834D02*
G01*
X172673453Y-71184119D01*
X172604536Y-71191103D01*
X172533414Y-71183230D01*
X172541913Y-71165834D01*
X172644482Y-71159217D01*
X172667159Y-71165834D01*
G37*
%TD.AperFunction*%
%TA.AperFunction,EtchedComponent*%
G36*
X172888428Y-71766798D02*
G01*
X172881551Y-71796581D01*
X172855029Y-71800197D01*
X172813792Y-71781866D01*
X172821630Y-71766798D01*
X172881085Y-71760802D01*
X172888428Y-71766798D01*
G37*
%TD.AperFunction*%
%TA.AperFunction,EtchedComponent*%
G36*
X173138921Y-72568375D02*
G01*
X173132044Y-72598159D01*
X173105522Y-72601775D01*
X173064285Y-72583444D01*
X173072123Y-72568375D01*
X173131578Y-72562380D01*
X173138921Y-72568375D01*
G37*
%TD.AperFunction*%
%TA.AperFunction,EtchedComponent*%
G36*
X173292348Y-72721802D02*
G01*
X173277407Y-72744573D01*
X173226594Y-72748115D01*
X173173137Y-72735880D01*
X173196326Y-72717847D01*
X173274624Y-72711875D01*
X173292348Y-72721802D01*
G37*
%TD.AperFunction*%
%TA.AperFunction,EtchedComponent*%
G36*
X173840302Y-73169559D02*
G01*
X173833425Y-73199342D01*
X173806903Y-73202958D01*
X173765666Y-73184628D01*
X173773504Y-73169559D01*
X173832959Y-73163563D01*
X173840302Y-73169559D01*
G37*
%TD.AperFunction*%
%TA.AperFunction,EtchedComponent*%
G36*
X173940499Y-68660683D02*
G01*
X173946495Y-68720138D01*
X173940499Y-68727481D01*
X173910715Y-68720604D01*
X173907100Y-68694082D01*
X173925430Y-68652845D01*
X173940499Y-68660683D01*
G37*
%TD.AperFunction*%
%TA.AperFunction,EtchedComponent*%
G36*
X174291189Y-77578237D02*
G01*
X174284312Y-77608021D01*
X174257790Y-77611636D01*
X174216553Y-77593306D01*
X174224391Y-77578237D01*
X174283847Y-77572242D01*
X174291189Y-77578237D01*
G37*
%TD.AperFunction*%
%TA.AperFunction,EtchedComponent*%
G36*
X160355423Y-70780107D02*
G01*
X160425054Y-70820600D01*
X160399399Y-70845192D01*
X160355423Y-70848323D01*
X160288741Y-70822105D01*
X160280276Y-70799797D01*
X160316998Y-70772232D01*
X160355423Y-70780107D01*
G37*
%TD.AperFunction*%
%TA.AperFunction,EtchedComponent*%
G36*
X161478124Y-81479664D02*
G01*
X161471984Y-81526255D01*
X161444391Y-81563967D01*
X161411650Y-81526053D01*
X161393267Y-81452298D01*
X161402478Y-81432498D01*
X161452004Y-81424271D01*
X161478124Y-81479664D01*
G37*
%TD.AperFunction*%
%TA.AperFunction,EtchedComponent*%
G36*
X161489086Y-79897378D02*
G01*
X161527680Y-79959575D01*
X161519847Y-79995865D01*
X161474482Y-79982366D01*
X161433549Y-79942433D01*
X161401241Y-79879440D01*
X161423453Y-79866074D01*
X161489086Y-79897378D01*
G37*
%TD.AperFunction*%
%TA.AperFunction,EtchedComponent*%
G36*
X163851603Y-80503712D02*
G01*
X163862327Y-80517356D01*
X163879960Y-80562415D01*
X163832562Y-80545445D01*
X163787179Y-80517356D01*
X163748664Y-80477138D01*
X163771698Y-80468025D01*
X163851603Y-80503712D01*
G37*
%TD.AperFunction*%
%TA.AperFunction,EtchedComponent*%
G36*
X164283647Y-77722267D02*
G01*
X164277507Y-77768858D01*
X164249914Y-77806570D01*
X164217173Y-77768656D01*
X164198790Y-77694902D01*
X164208000Y-77675101D01*
X164257527Y-77666875D01*
X164283647Y-77722267D01*
G37*
%TD.AperFunction*%
%TA.AperFunction,EtchedComponent*%
G36*
X166543420Y-76334627D02*
G01*
X166572321Y-76394667D01*
X166565513Y-76412731D01*
X166517150Y-76457154D01*
X166493484Y-76406558D01*
X166492504Y-76381264D01*
X166517153Y-76329664D01*
X166543420Y-76334627D01*
G37*
%TD.AperFunction*%
%TA.AperFunction,EtchedComponent*%
G36*
X166585354Y-76545906D02*
G01*
X166592702Y-76581658D01*
X166576191Y-76654042D01*
X166532811Y-76632344D01*
X166519693Y-76613126D01*
X166525976Y-76548783D01*
X166541786Y-76535021D01*
X166585354Y-76545906D01*
G37*
%TD.AperFunction*%
%TA.AperFunction,EtchedComponent*%
G36*
X167108013Y-78900556D02*
G01*
X167118737Y-78914201D01*
X167136370Y-78959260D01*
X167088972Y-78942289D01*
X167043589Y-78914201D01*
X167005074Y-78873983D01*
X167028108Y-78864869D01*
X167108013Y-78900556D01*
G37*
%TD.AperFunction*%
%TA.AperFunction,EtchedComponent*%
G36*
X168723497Y-77243445D02*
G01*
X168791731Y-77282624D01*
X168762575Y-77306363D01*
X168693887Y-77311045D01*
X168624038Y-77292548D01*
X168620343Y-77263134D01*
X168685516Y-77235841D01*
X168723497Y-77243445D01*
G37*
%TD.AperFunction*%
%TA.AperFunction,EtchedComponent*%
G36*
X170700788Y-73848880D02*
G01*
X170661033Y-73904004D01*
X170628192Y-73921477D01*
X170577358Y-73919253D01*
X170583453Y-73876738D01*
X170631977Y-73815283D01*
X170684060Y-73809781D01*
X170700788Y-73848880D01*
G37*
%TD.AperFunction*%
%TA.AperFunction,EtchedComponent*%
G36*
X170754349Y-75384387D02*
G01*
X170798771Y-75432750D01*
X170748175Y-75456416D01*
X170722881Y-75457396D01*
X170671282Y-75432747D01*
X170676244Y-75406480D01*
X170736284Y-75377580D01*
X170754349Y-75384387D01*
G37*
%TD.AperFunction*%
%TA.AperFunction,EtchedComponent*%
G36*
X173952681Y-73363687D02*
G01*
X173946540Y-73410278D01*
X173918947Y-73447990D01*
X173886206Y-73410076D01*
X173867823Y-73336322D01*
X173877034Y-73316522D01*
X173926560Y-73308295D01*
X173952681Y-73363687D01*
G37*
%TD.AperFunction*%
%TA.AperFunction,EtchedComponent*%
G36*
X160379017Y-81457255D02*
G01*
X160380473Y-81469230D01*
X160342349Y-81517873D01*
X160330374Y-81519329D01*
X160281731Y-81481205D01*
X160280276Y-81469230D01*
X160318399Y-81420587D01*
X160330374Y-81419132D01*
X160379017Y-81457255D01*
G37*
%TD.AperFunction*%
%TA.AperFunction,EtchedComponent*%
G36*
X161532741Y-80241814D02*
G01*
X161580534Y-80286833D01*
X161582840Y-80294869D01*
X161544079Y-80316388D01*
X161532741Y-80316962D01*
X161484568Y-80278448D01*
X161482642Y-80263907D01*
X161513335Y-80233986D01*
X161532741Y-80241814D01*
G37*
%TD.AperFunction*%
%TA.AperFunction,EtchedComponent*%
G36*
X162018614Y-80678233D02*
G01*
X162033727Y-80720708D01*
X162002205Y-80764814D01*
X161938823Y-80749135D01*
X161906421Y-80714418D01*
X161892891Y-80646950D01*
X161900131Y-80634253D01*
X161958727Y-80630476D01*
X162018614Y-80678233D01*
G37*
%TD.AperFunction*%
%TA.AperFunction,EtchedComponent*%
G36*
X162363381Y-78536976D02*
G01*
X162359368Y-78563510D01*
X162316516Y-78611251D01*
X162309270Y-78613609D01*
X162269439Y-78578667D01*
X162259171Y-78563510D01*
X162271068Y-78521067D01*
X162309270Y-78513412D01*
X162363381Y-78536976D01*
G37*
%TD.AperFunction*%
%TA.AperFunction,EtchedComponent*%
G36*
X162583356Y-78200845D02*
G01*
X162584812Y-78212820D01*
X162546688Y-78261463D01*
X162534713Y-78262918D01*
X162486071Y-78224795D01*
X162484615Y-78212820D01*
X162522739Y-78164177D01*
X162534713Y-78162721D01*
X162583356Y-78200845D01*
G37*
%TD.AperFunction*%
%TA.AperFunction,EtchedComponent*%
G36*
X162735108Y-80191715D02*
G01*
X162782901Y-80236734D01*
X162785206Y-80244771D01*
X162746446Y-80266289D01*
X162735108Y-80266863D01*
X162686934Y-80228350D01*
X162685009Y-80213808D01*
X162715702Y-80183887D01*
X162735108Y-80191715D01*
G37*
%TD.AperFunction*%
%TA.AperFunction,EtchedComponent*%
G36*
X162928853Y-77584607D02*
G01*
X162926109Y-77614768D01*
X162862680Y-77690692D01*
X162838436Y-77702440D01*
X162791856Y-77688764D01*
X162794600Y-77658604D01*
X162858029Y-77582679D01*
X162882273Y-77570931D01*
X162928853Y-77584607D01*
G37*
%TD.AperFunction*%
%TA.AperFunction,EtchedComponent*%
G36*
X162992792Y-80347495D02*
G01*
X163010650Y-80367061D01*
X162995311Y-80406493D01*
X162938459Y-80417159D01*
X162855458Y-80396719D01*
X162835305Y-80367061D01*
X162875669Y-80322126D01*
X162907496Y-80316962D01*
X162992792Y-80347495D01*
G37*
%TD.AperFunction*%
%TA.AperFunction,EtchedComponent*%
G36*
X163669760Y-77341737D02*
G01*
X163661932Y-77361143D01*
X163616913Y-77408937D01*
X163608877Y-77411242D01*
X163587359Y-77372481D01*
X163586784Y-77361143D01*
X163625298Y-77312970D01*
X163639840Y-77311045D01*
X163669760Y-77341737D01*
G37*
%TD.AperFunction*%
%TA.AperFunction,EtchedComponent*%
G36*
X163716927Y-79736218D02*
G01*
X163737080Y-79765877D01*
X163696717Y-79810812D01*
X163664889Y-79815976D01*
X163579594Y-79785443D01*
X163561735Y-79765877D01*
X163577074Y-79726445D01*
X163633926Y-79715778D01*
X163716927Y-79736218D01*
G37*
%TD.AperFunction*%
%TA.AperFunction,EtchedComponent*%
G36*
X163745477Y-79449725D02*
G01*
X163787179Y-79490335D01*
X163817245Y-79550795D01*
X163799447Y-79565483D01*
X163728683Y-79530944D01*
X163686982Y-79490335D01*
X163656916Y-79429874D01*
X163674713Y-79415187D01*
X163745477Y-79449725D01*
G37*
%TD.AperFunction*%
%TA.AperFunction,EtchedComponent*%
G36*
X163964304Y-77168330D02*
G01*
X164051620Y-77213702D01*
X164075269Y-77248421D01*
X164071809Y-77303323D01*
X164018234Y-77293644D01*
X163943407Y-77229048D01*
X163901777Y-77171219D01*
X163939157Y-77163909D01*
X163964304Y-77168330D01*
G37*
%TD.AperFunction*%
%TA.AperFunction,EtchedComponent*%
G36*
X164028113Y-79140751D02*
G01*
X164037672Y-79164694D01*
X164001715Y-79213358D01*
X163990530Y-79214792D01*
X163922680Y-79178376D01*
X163912425Y-79164694D01*
X163923783Y-79121804D01*
X163959567Y-79114595D01*
X164028113Y-79140751D01*
G37*
%TD.AperFunction*%
%TA.AperFunction,EtchedComponent*%
G36*
X164170747Y-77391836D02*
G01*
X164162918Y-77411242D01*
X164117900Y-77459035D01*
X164109863Y-77461341D01*
X164088345Y-77422580D01*
X164087771Y-77411242D01*
X164126284Y-77363069D01*
X164140826Y-77361143D01*
X164170747Y-77391836D01*
G37*
%TD.AperFunction*%
%TA.AperFunction,EtchedComponent*%
G36*
X164295348Y-77938707D02*
G01*
X164338264Y-77962327D01*
X164378364Y-78002023D01*
X164363313Y-78010891D01*
X164280982Y-77985947D01*
X164238066Y-77962327D01*
X164197966Y-77922630D01*
X164213017Y-77913762D01*
X164295348Y-77938707D01*
G37*
%TD.AperFunction*%
%TA.AperFunction,EtchedComponent*%
G36*
X164362017Y-77431151D02*
G01*
X164425340Y-77476847D01*
X164470375Y-77542433D01*
X164440203Y-77559050D01*
X164350444Y-77520031D01*
X164339715Y-77513396D01*
X164294914Y-77456940D01*
X164303333Y-77429473D01*
X164362017Y-77431151D01*
G37*
%TD.AperFunction*%
%TA.AperFunction,EtchedComponent*%
G36*
X164904203Y-79407426D02*
G01*
X164939447Y-79463713D01*
X164908054Y-79511770D01*
X164816398Y-79482683D01*
X164790602Y-79467242D01*
X164744231Y-79412231D01*
X164750867Y-79386672D01*
X164822288Y-79372262D01*
X164904203Y-79407426D01*
G37*
%TD.AperFunction*%
%TA.AperFunction,EtchedComponent*%
G36*
X164979987Y-76335229D02*
G01*
X164989546Y-76359171D01*
X164953589Y-76407836D01*
X164942404Y-76409270D01*
X164874553Y-76372853D01*
X164864299Y-76359171D01*
X164875657Y-76316282D01*
X164911441Y-76309072D01*
X164979987Y-76335229D01*
G37*
%TD.AperFunction*%
%TA.AperFunction,EtchedComponent*%
G36*
X165025972Y-77285323D02*
G01*
X165026111Y-77338257D01*
X164960399Y-77380833D01*
X164871463Y-77407873D01*
X164841855Y-77381903D01*
X164839250Y-77336094D01*
X164881017Y-77274894D01*
X164939447Y-77260946D01*
X165025972Y-77285323D01*
G37*
%TD.AperFunction*%
%TA.AperFunction,EtchedComponent*%
G36*
X165164891Y-79296873D02*
G01*
X165230809Y-79332432D01*
X165240039Y-79345399D01*
X165199129Y-79362912D01*
X165164891Y-79365088D01*
X165098209Y-79338870D01*
X165089743Y-79316562D01*
X165126466Y-79288997D01*
X165164891Y-79296873D01*
G37*
%TD.AperFunction*%
%TA.AperFunction,EtchedComponent*%
G36*
X165288099Y-76646031D02*
G01*
X165290137Y-76659763D01*
X165273045Y-76708559D01*
X165268045Y-76709861D01*
X165225272Y-76674755D01*
X165214990Y-76659763D01*
X165218962Y-76613598D01*
X165237082Y-76609664D01*
X165288099Y-76646031D01*
G37*
%TD.AperFunction*%
%TA.AperFunction,EtchedComponent*%
G36*
X166091715Y-76434319D02*
G01*
X166139509Y-76479338D01*
X166141814Y-76487374D01*
X166103053Y-76508892D01*
X166091715Y-76509467D01*
X166043542Y-76470953D01*
X166041617Y-76456412D01*
X166072309Y-76426491D01*
X166091715Y-76434319D01*
G37*
%TD.AperFunction*%
%TA.AperFunction,EtchedComponent*%
G36*
X166141240Y-74694579D02*
G01*
X166141814Y-74705917D01*
X166103301Y-74754090D01*
X166088759Y-74756015D01*
X166058838Y-74725323D01*
X166066666Y-74705917D01*
X166111685Y-74658123D01*
X166119721Y-74655818D01*
X166141240Y-74694579D01*
G37*
%TD.AperFunction*%
%TA.AperFunction,EtchedComponent*%
G36*
X166240555Y-74844238D02*
G01*
X166242011Y-74856212D01*
X166203887Y-74904855D01*
X166191913Y-74906311D01*
X166143270Y-74868187D01*
X166141814Y-74856212D01*
X166179938Y-74807570D01*
X166191913Y-74806114D01*
X166240555Y-74844238D01*
G37*
%TD.AperFunction*%
%TA.AperFunction,EtchedComponent*%
G36*
X166679546Y-76783681D02*
G01*
X166692899Y-76810059D01*
X166685204Y-76853804D01*
X166641836Y-76840794D01*
X166592702Y-76810059D01*
X166546645Y-76771234D01*
X166593995Y-76760889D01*
X166605226Y-76760727D01*
X166679546Y-76783681D01*
G37*
%TD.AperFunction*%
%TA.AperFunction,EtchedComponent*%
G36*
X166729645Y-75531216D02*
G01*
X166742997Y-75557593D01*
X166735302Y-75601338D01*
X166691934Y-75588328D01*
X166642800Y-75557593D01*
X166596744Y-75518769D01*
X166644094Y-75508423D01*
X166655325Y-75508262D01*
X166729645Y-75531216D01*
G37*
%TD.AperFunction*%
%TA.AperFunction,EtchedComponent*%
G36*
X166742952Y-79691976D02*
G01*
X166768047Y-79715778D01*
X166772089Y-79760034D01*
X166712351Y-79752679D01*
X166642800Y-79715778D01*
X166595852Y-79676871D01*
X166640976Y-79666617D01*
X166652368Y-79666447D01*
X166742952Y-79691976D01*
G37*
%TD.AperFunction*%
%TA.AperFunction,EtchedComponent*%
G36*
X166742997Y-76083629D02*
G01*
X166790791Y-76128648D01*
X166793096Y-76136684D01*
X166754335Y-76158202D01*
X166742997Y-76158776D01*
X166694824Y-76120263D01*
X166692899Y-76105721D01*
X166723591Y-76075801D01*
X166742997Y-76083629D01*
G37*
%TD.AperFunction*%
%TA.AperFunction,EtchedComponent*%
G36*
X166829842Y-79889796D02*
G01*
X166843195Y-79916173D01*
X166835500Y-79959918D01*
X166792132Y-79946908D01*
X166742997Y-79916173D01*
X166696941Y-79877348D01*
X166744291Y-79867003D01*
X166755522Y-79866841D01*
X166829842Y-79889796D01*
G37*
%TD.AperFunction*%
%TA.AperFunction,EtchedComponent*%
G36*
X166941936Y-74693942D02*
G01*
X166943392Y-74705917D01*
X166905268Y-74754559D01*
X166893293Y-74756015D01*
X166844650Y-74717891D01*
X166843195Y-74705917D01*
X166881318Y-74657274D01*
X166893293Y-74655818D01*
X166941936Y-74693942D01*
G37*
%TD.AperFunction*%
%TA.AperFunction,EtchedComponent*%
G36*
X167108499Y-76696322D02*
G01*
X167118737Y-76709861D01*
X167116447Y-76756100D01*
X167099601Y-76759960D01*
X167028778Y-76723400D01*
X167018540Y-76709861D01*
X167020830Y-76663623D01*
X167037676Y-76659763D01*
X167108499Y-76696322D01*
G37*
%TD.AperFunction*%
%TA.AperFunction,EtchedComponent*%
G36*
X167143786Y-77937277D02*
G01*
X167191580Y-77982296D01*
X167193885Y-77990333D01*
X167155124Y-78011851D01*
X167143786Y-78012425D01*
X167095613Y-77973912D01*
X167093688Y-77959370D01*
X167124380Y-77929449D01*
X167143786Y-77937277D01*
G37*
%TD.AperFunction*%
%TA.AperFunction,EtchedComponent*%
G36*
X167242528Y-75595717D02*
G01*
X167243984Y-75607692D01*
X167205860Y-75656334D01*
X167193885Y-75657790D01*
X167145242Y-75619667D01*
X167143786Y-75607692D01*
X167181910Y-75559049D01*
X167193885Y-75557593D01*
X167242528Y-75595717D01*
G37*
%TD.AperFunction*%
%TA.AperFunction,EtchedComponent*%
G36*
X167398578Y-78085832D02*
G01*
X167470129Y-78132676D01*
X167496115Y-78175854D01*
X167492947Y-78180950D01*
X167439952Y-78173592D01*
X167372101Y-78133576D01*
X167315513Y-78080933D01*
X167322081Y-78063291D01*
X167398578Y-78085832D01*
G37*
%TD.AperFunction*%
%TA.AperFunction,EtchedComponent*%
G36*
X167883325Y-80683329D02*
G01*
X167895036Y-80696871D01*
X167823092Y-80704470D01*
X167770019Y-80705117D01*
X167672999Y-80700184D01*
X167658279Y-80688869D01*
X167682931Y-80682318D01*
X167813469Y-80674252D01*
X167883325Y-80683329D01*
G37*
%TD.AperFunction*%
%TA.AperFunction,EtchedComponent*%
G36*
X168067692Y-79534670D02*
G01*
X168070611Y-79565483D01*
X167998124Y-79611580D01*
X167967457Y-79615581D01*
X167902707Y-79587570D01*
X167895266Y-79565483D01*
X167937352Y-79525172D01*
X167998420Y-79515384D01*
X168067692Y-79534670D01*
G37*
%TD.AperFunction*%
%TA.AperFunction,EtchedComponent*%
G36*
X168145184Y-78101285D02*
G01*
X168145759Y-78112623D01*
X168107245Y-78160796D01*
X168092703Y-78162721D01*
X168062783Y-78132029D01*
X168070611Y-78112623D01*
X168115630Y-78064829D01*
X168123666Y-78062524D01*
X168145184Y-78101285D01*
G37*
%TD.AperFunction*%
%TA.AperFunction,EtchedComponent*%
G36*
X168387797Y-79691163D02*
G01*
X168396252Y-79712822D01*
X168363104Y-79778241D01*
X168298850Y-79793908D01*
X168277993Y-79781215D01*
X168247517Y-79708491D01*
X168301139Y-79667134D01*
X168321104Y-79665680D01*
X168387797Y-79691163D01*
G37*
%TD.AperFunction*%
%TA.AperFunction,EtchedComponent*%
G36*
X169296571Y-76898281D02*
G01*
X169298027Y-76910256D01*
X169259903Y-76958899D01*
X169247928Y-76960354D01*
X169199286Y-76922231D01*
X169197830Y-76910256D01*
X169235954Y-76861613D01*
X169247928Y-76860157D01*
X169296571Y-76898281D01*
G37*
%TD.AperFunction*%
%TA.AperFunction,EtchedComponent*%
G36*
X169789454Y-81545485D02*
G01*
X169799013Y-81569427D01*
X169763056Y-81618092D01*
X169751871Y-81619526D01*
X169684021Y-81583109D01*
X169673767Y-81569427D01*
X169685124Y-81526538D01*
X169720909Y-81519329D01*
X169789454Y-81545485D01*
G37*
%TD.AperFunction*%
%TA.AperFunction,EtchedComponent*%
G36*
X170398763Y-78298876D02*
G01*
X170400197Y-78310060D01*
X170363780Y-78377911D01*
X170350098Y-78388165D01*
X170307209Y-78376808D01*
X170299999Y-78341023D01*
X170326156Y-78272477D01*
X170350098Y-78262918D01*
X170398763Y-78298876D01*
G37*
%TD.AperFunction*%
%TA.AperFunction,EtchedComponent*%
G36*
X170422784Y-77544761D02*
G01*
X170450295Y-77561538D01*
X170489640Y-77598082D01*
X170439881Y-77610312D01*
X170412721Y-77610869D01*
X170324762Y-77592610D01*
X170299999Y-77561538D01*
X170331537Y-77514921D01*
X170422784Y-77544761D01*
G37*
%TD.AperFunction*%
%TA.AperFunction,EtchedComponent*%
G36*
X170695136Y-74846691D02*
G01*
X170700788Y-74881262D01*
X170673736Y-74947931D01*
X170650690Y-74956410D01*
X170606243Y-74915832D01*
X170600591Y-74881262D01*
X170627643Y-74814592D01*
X170650690Y-74806114D01*
X170695136Y-74846691D01*
G37*
%TD.AperFunction*%
%TA.AperFunction,EtchedComponent*%
G36*
X170901183Y-75382248D02*
G01*
X170948976Y-75427267D01*
X170951281Y-75435303D01*
X170912521Y-75456821D01*
X170901183Y-75457396D01*
X170853009Y-75418882D01*
X170851084Y-75404341D01*
X170881776Y-75374420D01*
X170901183Y-75382248D01*
G37*
%TD.AperFunction*%
%TA.AperFunction,EtchedComponent*%
G36*
X171974270Y-71468336D02*
G01*
X171978303Y-71499605D01*
X171916558Y-71547751D01*
X171903155Y-71549704D01*
X171838276Y-71513433D01*
X171828007Y-71499605D01*
X171843742Y-71460535D01*
X171903155Y-71449506D01*
X171974270Y-71468336D01*
G37*
%TD.AperFunction*%
%TA.AperFunction,EtchedComponent*%
G36*
X172044973Y-71777150D02*
G01*
X172053451Y-71800197D01*
X172012873Y-71844643D01*
X171978303Y-71850295D01*
X171911633Y-71823243D01*
X171903155Y-71800197D01*
X171943733Y-71755750D01*
X171978303Y-71750098D01*
X172044973Y-71777150D01*
G37*
%TD.AperFunction*%
%TA.AperFunction,EtchedComponent*%
G36*
X172332676Y-71395366D02*
G01*
X172322061Y-71424457D01*
X172255606Y-71480613D01*
X172160813Y-71499296D01*
X172028402Y-71498988D01*
X172171900Y-71424148D01*
X172287853Y-71366447D01*
X172335055Y-71356840D01*
X172332676Y-71395366D01*
G37*
%TD.AperFunction*%
%TA.AperFunction,EtchedComponent*%
G36*
X172432873Y-71695958D02*
G01*
X172422258Y-71725049D01*
X172355803Y-71781205D01*
X172261010Y-71799888D01*
X172128599Y-71799579D01*
X172272097Y-71724740D01*
X172388050Y-71667039D01*
X172435252Y-71657432D01*
X172432873Y-71695958D01*
G37*
%TD.AperFunction*%
%TA.AperFunction,EtchedComponent*%
G36*
X172471916Y-70565335D02*
G01*
X172479289Y-70597830D01*
X172447468Y-70640428D01*
X172405968Y-70630718D01*
X172354043Y-70597830D01*
X172315397Y-70561526D01*
X172365438Y-70549116D01*
X172394573Y-70548498D01*
X172471916Y-70565335D01*
G37*
%TD.AperFunction*%
%TA.AperFunction,EtchedComponent*%
G36*
X173133521Y-72059420D02*
G01*
X173143614Y-72082495D01*
X173055666Y-72115241D01*
X173055473Y-72115291D01*
X172962304Y-72117545D01*
X172927270Y-72096085D01*
X172947879Y-72062830D01*
X173027417Y-72050690D01*
X173133521Y-72059420D01*
G37*
%TD.AperFunction*%
%TA.AperFunction,EtchedComponent*%
G36*
X173284446Y-71771569D02*
G01*
X173350290Y-71857908D01*
X173330958Y-71897969D01*
X173307679Y-71900394D01*
X173248519Y-71861304D01*
X173205719Y-71800197D01*
X173175589Y-71717121D01*
X173206904Y-71708608D01*
X173284446Y-71771569D01*
G37*
%TD.AperFunction*%
%TA.AperFunction,EtchedComponent*%
G36*
X173405539Y-73241719D02*
G01*
X173406114Y-73253057D01*
X173367600Y-73301230D01*
X173353058Y-73303155D01*
X173323138Y-73272463D01*
X173330966Y-73253057D01*
X173375985Y-73205263D01*
X173384021Y-73202958D01*
X173405539Y-73241719D01*
G37*
%TD.AperFunction*%
%TA.AperFunction,EtchedComponent*%
G36*
X173501605Y-72349324D02*
G01*
X173512427Y-72367564D01*
X173544483Y-72451307D01*
X173532047Y-72490845D01*
X173489611Y-72468178D01*
X173460447Y-72393485D01*
X173457736Y-72355456D01*
X173467158Y-72308862D01*
X173501605Y-72349324D01*
G37*
%TD.AperFunction*%
%TA.AperFunction,EtchedComponent*%
G36*
X160348141Y-80962276D02*
G01*
X160355423Y-80968244D01*
X160417686Y-81028274D01*
X160430571Y-81049526D01*
X160389657Y-81066351D01*
X160355423Y-81068441D01*
X160290452Y-81027876D01*
X160280276Y-80987159D01*
X160293452Y-80933997D01*
X160348141Y-80962276D01*
G37*
%TD.AperFunction*%
%TA.AperFunction,EtchedComponent*%
G36*
X162660496Y-79391190D02*
G01*
X162764545Y-79490335D01*
X162838215Y-79579103D01*
X162834607Y-79607607D01*
X162750355Y-79579067D01*
X162697534Y-79554436D01*
X162611190Y-79488568D01*
X162584812Y-79432580D01*
X162602527Y-79372206D01*
X162660496Y-79391190D01*
G37*
%TD.AperFunction*%
%TA.AperFunction,EtchedComponent*%
G36*
X164406875Y-75656263D02*
G01*
X164409439Y-75692065D01*
X164318848Y-75704843D01*
X164285660Y-75704713D01*
X164176569Y-75700338D01*
X164159065Y-75687269D01*
X164224538Y-75656895D01*
X164234034Y-75653088D01*
X164360356Y-75632160D01*
X164406875Y-75656263D01*
G37*
%TD.AperFunction*%
%TA.AperFunction,EtchedComponent*%
G36*
X165107001Y-79548393D02*
G01*
X165196915Y-79613914D01*
X165266386Y-79685144D01*
X165252555Y-79708532D01*
X165161536Y-79681448D01*
X165102268Y-79654633D01*
X165016427Y-79598224D01*
X164989546Y-79557827D01*
X165020858Y-79517227D01*
X165107001Y-79548393D01*
G37*
%TD.AperFunction*%
%TA.AperFunction,EtchedComponent*%
G36*
X169051459Y-80548616D02*
G01*
X169143724Y-80600697D01*
X169235230Y-80697442D01*
X169246380Y-80752859D01*
X169189548Y-80763570D01*
X169077110Y-80726199D01*
X168947337Y-80654284D01*
X168771991Y-80542406D01*
X168905755Y-80526940D01*
X169051459Y-80548616D01*
G37*
%TD.AperFunction*%
%TA.AperFunction,EtchedComponent*%
G36*
X169595512Y-77785085D02*
G01*
X169643872Y-77807976D01*
X169667999Y-77838659D01*
X169600017Y-77845834D01*
X169576539Y-77844783D01*
X169467445Y-77826842D01*
X169415607Y-77799506D01*
X169430364Y-77769297D01*
X169503131Y-77764964D01*
X169595512Y-77785085D01*
G37*
%TD.AperFunction*%
%TA.AperFunction,EtchedComponent*%
G36*
X170196858Y-81643261D02*
G01*
X170249901Y-81669625D01*
X170284384Y-81704540D01*
X170232102Y-81717913D01*
X170190234Y-81718956D01*
X170079302Y-81702716D01*
X170024457Y-81669625D01*
X170033367Y-81631059D01*
X170102612Y-81622272D01*
X170196858Y-81643261D01*
G37*
%TD.AperFunction*%
%TA.AperFunction,EtchedComponent*%
G36*
X164535805Y-79547245D02*
G01*
X164610857Y-79592125D01*
X164669726Y-79647120D01*
X164644389Y-79665385D01*
X164632957Y-79665680D01*
X164535613Y-79637006D01*
X164460561Y-79592125D01*
X164401692Y-79537130D01*
X164427029Y-79518866D01*
X164438461Y-79518571D01*
X164535805Y-79547245D01*
G37*
%TD.AperFunction*%
%TA.AperFunction,EtchedComponent*%
G36*
X165990408Y-77662679D02*
G01*
X166064379Y-77723029D01*
X166109298Y-77785590D01*
X166115389Y-77851894D01*
X166067814Y-77849819D01*
X165984252Y-77781338D01*
X165974233Y-77770512D01*
X165910425Y-77687149D01*
X165891321Y-77643503D01*
X165921636Y-77628944D01*
X165990408Y-77662679D01*
G37*
%TD.AperFunction*%
%TA.AperFunction,EtchedComponent*%
G36*
X166595255Y-75035573D02*
G01*
X166670799Y-75080063D01*
X166731191Y-75134910D01*
X166709277Y-75154134D01*
X166689949Y-75155211D01*
X166590148Y-75127740D01*
X166514604Y-75083249D01*
X166454213Y-75028402D01*
X166476126Y-75009179D01*
X166495454Y-75008102D01*
X166595255Y-75035573D01*
G37*
%TD.AperFunction*%
%TA.AperFunction,EtchedComponent*%
G36*
X167644773Y-78953613D02*
G01*
X167750278Y-78981956D01*
X167795056Y-79019510D01*
X167795068Y-79020084D01*
X167751511Y-79051274D01*
X167646571Y-79064493D01*
X167644773Y-79064496D01*
X167531471Y-79044654D01*
X167494477Y-78998025D01*
X167533976Y-78952380D01*
X167644773Y-78953613D01*
G37*
%TD.AperFunction*%
%TA.AperFunction,EtchedComponent*%
G36*
X169579778Y-80699050D02*
G01*
X169570108Y-80723352D01*
X169574835Y-80793386D01*
X169604725Y-80822782D01*
X169641837Y-80857891D01*
X169586094Y-80867280D01*
X169512244Y-80827642D01*
X169498421Y-80767849D01*
X169520625Y-80686461D01*
X169551477Y-80667652D01*
X169579778Y-80699050D01*
G37*
%TD.AperFunction*%
%TA.AperFunction,EtchedComponent*%
G36*
X170691385Y-75089565D02*
G01*
X170699057Y-75103471D01*
X170728320Y-75181301D01*
X170686730Y-75205823D01*
X170655409Y-75206903D01*
X170560610Y-75186974D01*
X170528951Y-75162481D01*
X170538424Y-75098254D01*
X170572600Y-75059049D01*
X170637118Y-75031752D01*
X170691385Y-75089565D01*
G37*
%TD.AperFunction*%
%TA.AperFunction,EtchedComponent*%
G36*
X172463728Y-72406535D02*
G01*
X172490576Y-72421751D01*
X172418003Y-72446658D01*
X172316469Y-72468079D01*
X172203360Y-72476696D01*
X172153951Y-72453362D01*
X172153648Y-72450226D01*
X172197837Y-72418536D01*
X172307112Y-72402046D01*
X172337343Y-72401380D01*
X172463728Y-72406535D01*
G37*
%TD.AperFunction*%
%TA.AperFunction,EtchedComponent*%
G36*
X172670319Y-73019692D02*
G01*
X172700018Y-73059850D01*
X172638204Y-73106192D01*
X172592011Y-73121283D01*
X172470093Y-73148102D01*
X172416327Y-73136093D01*
X172404143Y-73079093D01*
X172404141Y-73077711D01*
X172448951Y-73018051D01*
X172554437Y-73002563D01*
X172670319Y-73019692D01*
G37*
%TD.AperFunction*%
%TA.AperFunction,EtchedComponent*%
G36*
X172846331Y-73377955D02*
G01*
X172855195Y-73413404D01*
X172791072Y-73445808D01*
X172695279Y-73471637D01*
X172588012Y-73481115D01*
X172533271Y-73459735D01*
X172556902Y-73425053D01*
X172640302Y-73391329D01*
X172743490Y-73369007D01*
X172826488Y-73368531D01*
X172846331Y-73377955D01*
G37*
%TD.AperFunction*%
%TA.AperFunction,EtchedComponent*%
G36*
X173191181Y-73267533D02*
G01*
X173201299Y-73282663D01*
X173180670Y-73289308D01*
X173069145Y-73331770D01*
X173023700Y-73359924D01*
X172962477Y-73367993D01*
X172937600Y-73329483D01*
X172938342Y-73279018D01*
X173006183Y-73259315D01*
X173094570Y-73258868D01*
X173191181Y-73267533D01*
G37*
%TD.AperFunction*%
%TA.AperFunction,EtchedComponent*%
G36*
X160662008Y-81521120D02*
G01*
X160671621Y-81566805D01*
X160723270Y-81657980D01*
X160771818Y-81685782D01*
X160788119Y-81701944D01*
X160719057Y-81712912D01*
X160698303Y-81713912D01*
X160592181Y-81711899D01*
X160566036Y-81678837D01*
X160598105Y-81594935D01*
X160640666Y-81514513D01*
X160662008Y-81521120D01*
G37*
%TD.AperFunction*%
%TA.AperFunction,EtchedComponent*%
G36*
X161954058Y-81530388D02*
G01*
X162054619Y-81580642D01*
X162137225Y-81642783D01*
X162158754Y-81669268D01*
X162153308Y-81709333D01*
X162087439Y-81715650D01*
X161994065Y-81690889D01*
X161921005Y-81649984D01*
X161850228Y-81572223D01*
X161833333Y-81525044D01*
X161869108Y-81506897D01*
X161954058Y-81530388D01*
G37*
%TD.AperFunction*%
%TA.AperFunction,EtchedComponent*%
G36*
X165262268Y-77325153D02*
G01*
X165276122Y-77348619D01*
X165339184Y-77405980D01*
X165369460Y-77411242D01*
X165433406Y-77439669D01*
X165440433Y-77461341D01*
X165410709Y-77507107D01*
X165321756Y-77472350D01*
X165268745Y-77435216D01*
X165209916Y-77366767D01*
X165212981Y-77324087D01*
X165262268Y-77325153D01*
G37*
%TD.AperFunction*%
%TA.AperFunction,EtchedComponent*%
G36*
X166689768Y-77432807D02*
G01*
X166692899Y-77452991D01*
X166735808Y-77496534D01*
X166821102Y-77511439D01*
X166906339Y-77527342D01*
X166918343Y-77561538D01*
X166861892Y-77607659D01*
X166776710Y-77581773D01*
X166715078Y-77540585D01*
X166654509Y-77473577D01*
X166655404Y-77432038D01*
X166689768Y-77432807D01*
G37*
%TD.AperFunction*%
%TA.AperFunction,EtchedComponent*%
G36*
X166871907Y-75197185D02*
G01*
X166943392Y-75222238D01*
X167047053Y-75272224D01*
X167093506Y-75316085D01*
X167093688Y-75318083D01*
X167089797Y-75348001D01*
X167060459Y-75345659D01*
X166979177Y-75304609D01*
X166930867Y-75278445D01*
X166821369Y-75212057D01*
X166802016Y-75183623D01*
X166871907Y-75197185D01*
G37*
%TD.AperFunction*%
%TA.AperFunction,EtchedComponent*%
G36*
X167317557Y-75893420D02*
G01*
X167405485Y-75968152D01*
X167442804Y-76021005D01*
X167432441Y-76052036D01*
X167431853Y-76051757D01*
X167379057Y-76038129D01*
X167306607Y-76023223D01*
X167212253Y-75967123D01*
X167193885Y-75902460D01*
X167199474Y-75837429D01*
X167233755Y-75836377D01*
X167317557Y-75893420D01*
G37*
%TD.AperFunction*%
%TA.AperFunction,EtchedComponent*%
G36*
X168037270Y-78755606D02*
G01*
X168045561Y-78809828D01*
X168072782Y-78899148D01*
X168105717Y-78925903D01*
X168138083Y-78955768D01*
X168109145Y-78981014D01*
X168042379Y-78971402D01*
X167975931Y-78906874D01*
X167925801Y-78796591D01*
X167948137Y-78727466D01*
X167998420Y-78713806D01*
X168037270Y-78755606D01*
G37*
%TD.AperFunction*%
%TA.AperFunction,EtchedComponent*%
G36*
X168776922Y-79663675D02*
G01*
X168871995Y-79694151D01*
X168874969Y-79707036D01*
X168797041Y-79712156D01*
X168647614Y-79728938D01*
X168559072Y-79747355D01*
X168472504Y-79760029D01*
X168446350Y-79748433D01*
X168489734Y-79691044D01*
X168594575Y-79655836D01*
X168722910Y-79652541D01*
X168776922Y-79663675D01*
G37*
%TD.AperFunction*%
%TA.AperFunction,EtchedComponent*%
G36*
X169900862Y-78442467D02*
G01*
X169902933Y-78450788D01*
X169914289Y-78525756D01*
X169927668Y-78601084D01*
X169940001Y-78693574D01*
X169915927Y-78696190D01*
X169861636Y-78638867D01*
X169810428Y-78545817D01*
X169803295Y-78457634D01*
X169842422Y-78413665D01*
X169849112Y-78413214D01*
X169900862Y-78442467D01*
G37*
%TD.AperFunction*%
%TA.AperFunction,EtchedComponent*%
G36*
X171421286Y-73894956D02*
G01*
X171499545Y-73989847D01*
X171548139Y-74098025D01*
X171552465Y-74132140D01*
X171516770Y-74161475D01*
X171436112Y-74148953D01*
X171350128Y-74106400D01*
X171303734Y-74057928D01*
X171255699Y-73931272D01*
X171282956Y-73866228D01*
X171344029Y-73854240D01*
X171421286Y-73894956D01*
G37*
%TD.AperFunction*%
%TA.AperFunction,EtchedComponent*%
G36*
X172104695Y-72264429D02*
G01*
X172159083Y-72282311D01*
X172124952Y-72311736D01*
X172006902Y-72347393D01*
X171859602Y-72376103D01*
X171723354Y-72392647D01*
X171665114Y-72380359D01*
X171663145Y-72344171D01*
X171729653Y-72296578D01*
X171886054Y-72268197D01*
X171957192Y-72263401D01*
X172104695Y-72264429D01*
G37*
%TD.AperFunction*%
%TA.AperFunction,EtchedComponent*%
G36*
X173354077Y-72021304D02*
G01*
X173356015Y-72038666D01*
X173397386Y-72095935D01*
X173443688Y-72116353D01*
X173502860Y-72135376D01*
X173465484Y-72143698D01*
X173446644Y-72145075D01*
X173355279Y-72122420D01*
X173328906Y-72097455D01*
X173317562Y-72027773D01*
X173325949Y-72013958D01*
X173354077Y-72021304D01*
G37*
%TD.AperFunction*%
%TA.AperFunction,EtchedComponent*%
G36*
X160428377Y-79699570D02*
G01*
X160518746Y-79779845D01*
X160589525Y-79874410D01*
X160612444Y-79951174D01*
X160608209Y-79962563D01*
X160558989Y-80009060D01*
X160489624Y-79991137D01*
X160392997Y-79919000D01*
X160310726Y-79822542D01*
X160281897Y-79731116D01*
X160311718Y-79673213D01*
X160346691Y-79665680D01*
X160428377Y-79699570D01*
G37*
%TD.AperFunction*%
%TA.AperFunction,EtchedComponent*%
G36*
X160937808Y-80900039D02*
G01*
X161062873Y-80924524D01*
X161229350Y-80933356D01*
X161280519Y-80932053D01*
X161504233Y-80921340D01*
X161362465Y-80994891D01*
X161225767Y-81053224D01*
X161114543Y-81056358D01*
X160999307Y-81018678D01*
X160901727Y-80965599D01*
X160852106Y-80914913D01*
X160860726Y-80886455D01*
X160937808Y-80900039D01*
G37*
%TD.AperFunction*%
%TA.AperFunction,EtchedComponent*%
G36*
X164110522Y-80746762D02*
G01*
X164154177Y-80782734D01*
X164244453Y-80861137D01*
X164288165Y-80883378D01*
X164303235Y-80903462D01*
X164231368Y-80914120D01*
X164229120Y-80914190D01*
X164093565Y-80885202D01*
X164007254Y-80830473D01*
X163948150Y-80764193D01*
X163962102Y-80736633D01*
X164007458Y-80725874D01*
X164110522Y-80746762D01*
G37*
%TD.AperFunction*%
%TA.AperFunction,EtchedComponent*%
G36*
X164789151Y-79717680D02*
G01*
X164961098Y-79762955D01*
X165082111Y-79882576D01*
X165103800Y-79928698D01*
X165125636Y-80003803D01*
X165098180Y-79999610D01*
X165037855Y-79944075D01*
X164941503Y-79869930D01*
X164814201Y-79794087D01*
X164717492Y-79741749D01*
X164705583Y-79720862D01*
X164773921Y-79717539D01*
X164789151Y-79717680D01*
G37*
%TD.AperFunction*%
%TA.AperFunction,EtchedComponent*%
G36*
X164943392Y-76951205D02*
G01*
X165035853Y-77007614D01*
X165039644Y-77010453D01*
X165118299Y-77082089D01*
X165139284Y-77127719D01*
X165138345Y-77128847D01*
X165085798Y-77119799D01*
X164993337Y-77063391D01*
X164989546Y-77060552D01*
X164910891Y-76988916D01*
X164889906Y-76943286D01*
X164890845Y-76942158D01*
X164943392Y-76951205D01*
G37*
%TD.AperFunction*%
%TA.AperFunction,EtchedComponent*%
G36*
X167481952Y-75692433D02*
G01*
X167557444Y-75734480D01*
X167639548Y-75799048D01*
X167702711Y-75862396D01*
X167721384Y-75900784D01*
X167709347Y-75903703D01*
X167642372Y-75876743D01*
X167535414Y-75818001D01*
X167532140Y-75816030D01*
X167432467Y-75743561D01*
X167396429Y-75692600D01*
X167430268Y-75678520D01*
X167481952Y-75692433D01*
G37*
%TD.AperFunction*%
%TA.AperFunction,EtchedComponent*%
G36*
X168775604Y-78665476D02*
G01*
X168879266Y-78702584D01*
X168958048Y-78748444D01*
X168973295Y-78765376D01*
X168978390Y-78819586D01*
X168914725Y-78829373D01*
X168804318Y-78792718D01*
X168784322Y-78782690D01*
X168687761Y-78718816D01*
X168646757Y-78665327D01*
X168646745Y-78664714D01*
X168685339Y-78648919D01*
X168775604Y-78665476D01*
G37*
%TD.AperFunction*%
%TA.AperFunction,EtchedComponent*%
G36*
X169175239Y-79884470D02*
G01*
X169290271Y-79924989D01*
X169396701Y-79973783D01*
X169461026Y-80016250D01*
X169465479Y-80032613D01*
X169371389Y-80061993D01*
X169227594Y-80033558D01*
X169160256Y-80005324D01*
X169076534Y-79947313D01*
X169045147Y-79892319D01*
X169080474Y-79866839D01*
X169085108Y-79866829D01*
X169175239Y-79884470D01*
G37*
%TD.AperFunction*%
%TA.AperFunction,EtchedComponent*%
G36*
X170522563Y-73443246D02*
G01*
X170498795Y-73532803D01*
X170471724Y-73643579D01*
X170477943Y-73708148D01*
X170468048Y-73750418D01*
X170447409Y-73754043D01*
X170410459Y-73714116D01*
X170418719Y-73641321D01*
X170443344Y-73524822D01*
X170449611Y-73465976D01*
X170481178Y-73407744D01*
X170499154Y-73403352D01*
X170522563Y-73443246D01*
G37*
%TD.AperFunction*%
%TA.AperFunction,EtchedComponent*%
G36*
X173806028Y-72993922D02*
G01*
X173861932Y-73027374D01*
X173827933Y-73055567D01*
X173714320Y-73074543D01*
X173581410Y-73080362D01*
X173430523Y-73076028D01*
X173330457Y-73062069D01*
X173305917Y-73047832D01*
X173349997Y-73024988D01*
X173458193Y-73004313D01*
X173594438Y-72989696D01*
X173722665Y-72985025D01*
X173806028Y-72993922D01*
G37*
%TD.AperFunction*%
%TA.AperFunction,EtchedComponent*%
G36*
X162776309Y-79756039D02*
G01*
X162785206Y-79792499D01*
X162825737Y-79876092D01*
X162860354Y-79898056D01*
X162922629Y-79946116D01*
X162932317Y-79998472D01*
X162894979Y-80016370D01*
X162826143Y-79988152D01*
X162776733Y-79953747D01*
X162696763Y-79863975D01*
X162663362Y-79776667D01*
X162684752Y-79721871D01*
X162711631Y-79715778D01*
X162776309Y-79756039D01*
G37*
%TD.AperFunction*%
%TA.AperFunction,EtchedComponent*%
G36*
X164490576Y-79125995D02*
G01*
X164503076Y-79164694D01*
X164557895Y-79246173D01*
X164609116Y-79264891D01*
X164678499Y-79302976D01*
X164688954Y-79340039D01*
X164678236Y-79395616D01*
X164628028Y-79404542D01*
X164513609Y-79372619D01*
X164426553Y-79295616D01*
X164398991Y-79202268D01*
X164406833Y-79095759D01*
X164445001Y-79067577D01*
X164490576Y-79125995D01*
G37*
%TD.AperFunction*%
%TA.AperFunction,EtchedComponent*%
G36*
X165585656Y-80057152D02*
G01*
X165590729Y-80093090D01*
X165631260Y-80176683D01*
X165665877Y-80198648D01*
X165727310Y-80245977D01*
X165739318Y-80298168D01*
X165703451Y-80316195D01*
X165632858Y-80291552D01*
X165590729Y-80267976D01*
X165536534Y-80200521D01*
X165509879Y-80108906D01*
X165517971Y-80035054D01*
X165547471Y-80016370D01*
X165585656Y-80057152D01*
G37*
%TD.AperFunction*%
%TA.AperFunction,EtchedComponent*%
G36*
X172053451Y-71968734D02*
G01*
X172010681Y-72021978D01*
X171877920Y-72053555D01*
X171824474Y-72058812D01*
X171683550Y-72065400D01*
X171590830Y-72061086D01*
X171573981Y-72055507D01*
X171553403Y-71999442D01*
X171621754Y-71970775D01*
X171715285Y-71969709D01*
X171857781Y-71964664D01*
X171965778Y-71938538D01*
X172037781Y-71925726D01*
X172053451Y-71968734D01*
G37*
%TD.AperFunction*%
%TA.AperFunction,EtchedComponent*%
G36*
X165560904Y-75788287D02*
G01*
X165679538Y-75833943D01*
X165805761Y-75904267D01*
X165904635Y-75979975D01*
X165941419Y-76038588D01*
X165934426Y-76098666D01*
X165899484Y-76083136D01*
X165851772Y-76031624D01*
X165752184Y-75972751D01*
X165670036Y-75958382D01*
X165566445Y-75934902D01*
X165488277Y-75880504D01*
X165461474Y-75819249D01*
X165484798Y-75786581D01*
X165560904Y-75788287D01*
G37*
%TD.AperFunction*%
%TA.AperFunction,EtchedComponent*%
G36*
X165946768Y-77239202D02*
G01*
X165969852Y-77285803D01*
X165934243Y-77321121D01*
X165893606Y-77367271D01*
X165928895Y-77394182D01*
X165988132Y-77449472D01*
X165955172Y-77510124D01*
X165919587Y-77528322D01*
X165869132Y-77523506D01*
X165861571Y-77441821D01*
X165863777Y-77420960D01*
X165877796Y-77306060D01*
X165885609Y-77245465D01*
X165923267Y-77228666D01*
X165946768Y-77239202D01*
G37*
%TD.AperFunction*%
%TA.AperFunction,EtchedComponent*%
G36*
X168443269Y-80289728D02*
G01*
X168446350Y-80313972D01*
X168482085Y-80355583D01*
X168517352Y-80350535D01*
X168593217Y-80364869D01*
X168617550Y-80399371D01*
X168644808Y-80537312D01*
X168613501Y-80609004D01*
X168547411Y-80605275D01*
X168470326Y-80516951D01*
X168445685Y-80465651D01*
X168411284Y-80353002D01*
X168412638Y-80284321D01*
X168414558Y-80281956D01*
X168443269Y-80289728D01*
G37*
%TD.AperFunction*%
%TA.AperFunction,EtchedComponent*%
G36*
X170758405Y-72866043D02*
G01*
X170797682Y-72923321D01*
X170800986Y-72972824D01*
X170784820Y-73059730D01*
X170719708Y-73071369D01*
X170695660Y-73065837D01*
X170588768Y-73072403D01*
X170546132Y-73108101D01*
X170515109Y-73127074D01*
X170501938Y-73052630D01*
X170501161Y-73015088D01*
X170510685Y-72902894D01*
X170559849Y-72859076D01*
X170650690Y-72852268D01*
X170758405Y-72866043D01*
G37*
%TD.AperFunction*%
%TA.AperFunction,EtchedComponent*%
G36*
X171826126Y-71656559D02*
G01*
X171873316Y-71672258D01*
X171843088Y-71702495D01*
X171840135Y-71704234D01*
X171746368Y-71733408D01*
X171703399Y-71725443D01*
X171625407Y-71722784D01*
X171553500Y-71749544D01*
X171475908Y-71778114D01*
X171452599Y-71739300D01*
X171452268Y-71726811D01*
X171478117Y-71677938D01*
X171568746Y-71655146D01*
X171690236Y-71651424D01*
X171826126Y-71656559D01*
G37*
%TD.AperFunction*%
%TA.AperFunction,EtchedComponent*%
G36*
X172823476Y-72249437D02*
G01*
X172961734Y-72263576D01*
X173006460Y-72274086D01*
X172964080Y-72284232D01*
X172905128Y-72290927D01*
X172763703Y-72322050D01*
X172658927Y-72372976D01*
X172654634Y-72376638D01*
X172596589Y-72414060D01*
X172575518Y-72366789D01*
X172572983Y-72335148D01*
X172577316Y-72271922D01*
X172616448Y-72243233D01*
X172714684Y-72240764D01*
X172823476Y-72249437D01*
G37*
%TD.AperFunction*%
%TA.AperFunction,EtchedComponent*%
G36*
X173094795Y-71292205D02*
G01*
X173129798Y-71395890D01*
X173129943Y-71396549D01*
X173173403Y-71502814D01*
X173234121Y-71516435D01*
X173296388Y-71520477D01*
X173305917Y-71544344D01*
X173264412Y-71590678D01*
X173214125Y-71599802D01*
X173127837Y-71551047D01*
X173068518Y-71424457D01*
X173043631Y-71311271D01*
X173049765Y-71251768D01*
X173056132Y-71249112D01*
X173094795Y-71292205D01*
G37*
%TD.AperFunction*%
%TA.AperFunction,EtchedComponent*%
G36*
X163185311Y-77892283D02*
G01*
X163261143Y-77962327D01*
X163367686Y-78039075D01*
X163456778Y-78063291D01*
X163525397Y-78071346D01*
X163502037Y-78102294D01*
X163486587Y-78112623D01*
X163388290Y-78157496D01*
X163322672Y-78121515D01*
X163286193Y-78062524D01*
X163214354Y-77982729D01*
X163159183Y-77962327D01*
X163093653Y-77934711D01*
X163085798Y-77912228D01*
X163113345Y-77864581D01*
X163185311Y-77892283D01*
G37*
%TD.AperFunction*%
%TA.AperFunction,EtchedComponent*%
G36*
X164350359Y-78245018D02*
G01*
X164463850Y-78286433D01*
X164607815Y-78349174D01*
X164753561Y-78419825D01*
X164872391Y-78484968D01*
X164935612Y-78531187D01*
X164939447Y-78539182D01*
X164921815Y-78557565D01*
X164856545Y-78544549D01*
X164725076Y-78495517D01*
X164663905Y-78470606D01*
X164446064Y-78372769D01*
X164321212Y-78297219D01*
X164291219Y-78245137D01*
X164296038Y-78238346D01*
X164350359Y-78245018D01*
G37*
%TD.AperFunction*%
%TA.AperFunction,EtchedComponent*%
G36*
X169797121Y-80063693D02*
G01*
X169892324Y-80104144D01*
X169935532Y-80112810D01*
X169983046Y-80147477D01*
X169989805Y-80162909D01*
X169994961Y-80197555D01*
X169966368Y-80208330D01*
X169884122Y-80194040D01*
X169728317Y-80153492D01*
X169698816Y-80145465D01*
X169569691Y-80106648D01*
X169527287Y-80079929D01*
X169560485Y-80055793D01*
X169584202Y-80047411D01*
X169717197Y-80039852D01*
X169797121Y-80063693D01*
G37*
%TD.AperFunction*%
%TA.AperFunction,EtchedComponent*%
G36*
X165518584Y-78114048D02*
G01*
X165618675Y-78148404D01*
X165736810Y-78207888D01*
X165850580Y-78283339D01*
X165918739Y-78344019D01*
X166003568Y-78451606D01*
X166015586Y-78506801D01*
X165968256Y-78508167D01*
X165875040Y-78454269D01*
X165766074Y-78360308D01*
X165658860Y-78268109D01*
X165573485Y-78216707D01*
X165556112Y-78212876D01*
X165476750Y-78175577D01*
X165462172Y-78157364D01*
X165458946Y-78113981D01*
X165518584Y-78114048D01*
G37*
%TD.AperFunction*%
%TA.AperFunction,EtchedComponent*%
G36*
X166973716Y-78247365D02*
G01*
X166967239Y-78264864D01*
X166990073Y-78310422D01*
X167081330Y-78368126D01*
X167116717Y-78384093D01*
X167230316Y-78438004D01*
X167290958Y-78479344D01*
X167294082Y-78485806D01*
X167253371Y-78509502D01*
X167155411Y-78501423D01*
X167036460Y-78465790D01*
X167006015Y-78452266D01*
X166910714Y-78357708D01*
X166893293Y-78277355D01*
X166910268Y-78196368D01*
X166944209Y-78188276D01*
X166973716Y-78247365D01*
G37*
%TD.AperFunction*%
%TA.AperFunction,EtchedComponent*%
G36*
X173248006Y-72901662D02*
G01*
X173255818Y-72910543D01*
X173211526Y-72937280D01*
X173101711Y-72958587D01*
X173067948Y-72961965D01*
X172938021Y-72987982D01*
X172891975Y-73034214D01*
X172892603Y-73040137D01*
X172864468Y-73095042D01*
X172829980Y-73102761D01*
X172763678Y-73082427D01*
X172755599Y-73065187D01*
X172799186Y-72969841D01*
X172928932Y-72911997D01*
X173042899Y-72894609D01*
X173172552Y-72889934D01*
X173248006Y-72901662D01*
G37*
%TD.AperFunction*%
%TA.AperFunction,EtchedComponent*%
G36*
X169159912Y-79477906D02*
G01*
X169266186Y-79560085D01*
X169372029Y-79652428D01*
X169402046Y-79706342D01*
X169369175Y-79735430D01*
X169296194Y-79760986D01*
X169249853Y-79749483D01*
X169202373Y-79719646D01*
X169096229Y-79696108D01*
X169052077Y-79704744D01*
X169000030Y-79715981D01*
X169023363Y-79672040D01*
X169035874Y-79656360D01*
X169074777Y-79554169D01*
X169068088Y-79496685D01*
X169051344Y-79433113D01*
X169078131Y-79425631D01*
X169159912Y-79477906D01*
G37*
%TD.AperFunction*%
%TA.AperFunction,EtchedComponent*%
G36*
X165485922Y-78954307D02*
G01*
X165490532Y-78983086D01*
X165533867Y-79040857D01*
X165634789Y-79080823D01*
X165768888Y-79128620D01*
X165856654Y-79187283D01*
X165943244Y-79250247D01*
X165990896Y-79264891D01*
X166024143Y-79295372D01*
X166016567Y-79314990D01*
X165934374Y-79361579D01*
X165803079Y-79338812D01*
X165677619Y-79273066D01*
X165547981Y-79171425D01*
X165451574Y-79066508D01*
X165400922Y-78977262D01*
X165408548Y-78922636D01*
X165440433Y-78914201D01*
X165485922Y-78954307D01*
G37*
%TD.AperFunction*%
%TA.AperFunction,EtchedComponent*%
G36*
X172735453Y-72535735D02*
G01*
X172796395Y-72593009D01*
X172782061Y-72668349D01*
X172707407Y-72736258D01*
X172597874Y-72770299D01*
X172483537Y-72791049D01*
X172427071Y-72811070D01*
X172339769Y-72822091D01*
X172316157Y-72816179D01*
X172266436Y-72777992D01*
X172298806Y-72739509D01*
X172395708Y-72710910D01*
X172513138Y-72701972D01*
X172641705Y-72695636D01*
X172693526Y-72668290D01*
X172691690Y-72607426D01*
X172691197Y-72605523D01*
X172690583Y-72535414D01*
X172735453Y-72535735D01*
G37*
%TD.AperFunction*%
%TA.AperFunction,EtchedComponent*%
G36*
X165620062Y-76131571D02*
G01*
X165720803Y-76188989D01*
X165767035Y-76216080D01*
X165877718Y-76292131D01*
X165903168Y-76343317D01*
X165882620Y-76365609D01*
X165782222Y-76406227D01*
X165722873Y-76388831D01*
X165722908Y-76334122D01*
X165720704Y-76269781D01*
X165696286Y-76258974D01*
X165643398Y-76294027D01*
X165640828Y-76309072D01*
X165606598Y-76357753D01*
X165596029Y-76359171D01*
X165564877Y-76316510D01*
X165558455Y-76233960D01*
X165567211Y-76139704D01*
X165575341Y-76108713D01*
X165620062Y-76131571D01*
G37*
%TD.AperFunction*%
%TA.AperFunction,EtchedComponent*%
G36*
X164772807Y-81349212D02*
G01*
X164765896Y-81366131D01*
X164787309Y-81414798D01*
X164876465Y-81478246D01*
X164913235Y-81497085D01*
X165025873Y-81560009D01*
X165086422Y-81612281D01*
X165089743Y-81621750D01*
X165132147Y-81661829D01*
X165202465Y-81684367D01*
X165226204Y-81697234D01*
X165163248Y-81706313D01*
X165089743Y-81708726D01*
X164906315Y-81691227D01*
X164789143Y-81628146D01*
X164776627Y-81615351D01*
X164714394Y-81514111D01*
X164690198Y-81408732D01*
X164708128Y-81334242D01*
X164742009Y-81318934D01*
X164772807Y-81349212D01*
G37*
%TD.AperFunction*%
%TA.AperFunction,EtchedComponent*%
G36*
X166083237Y-78139674D02*
G01*
X166091715Y-78162721D01*
X166132463Y-78206764D01*
X166169351Y-78212820D01*
X166271356Y-78235267D01*
X166392327Y-78289204D01*
X166495055Y-78354526D01*
X166542330Y-78411127D01*
X166542603Y-78414501D01*
X166503488Y-78454766D01*
X166415947Y-78461505D01*
X166324686Y-78438147D01*
X166276256Y-78394062D01*
X166215015Y-78327262D01*
X166102854Y-78259882D01*
X166095550Y-78256586D01*
X165981123Y-78192274D01*
X165943519Y-78140731D01*
X165989354Y-78114015D01*
X166016567Y-78112623D01*
X166083237Y-78139674D01*
G37*
%TD.AperFunction*%
%TA.AperFunction,EtchedComponent*%
G36*
X172621235Y-71955486D02*
G01*
X172723272Y-71960746D01*
X172731467Y-71972332D01*
X172654634Y-71997495D01*
X172564269Y-72040169D01*
X172537443Y-72080174D01*
X172496817Y-72107198D01*
X172383570Y-72128974D01*
X172271647Y-72138072D01*
X172126913Y-72137991D01*
X172038205Y-72125038D01*
X172023515Y-72108695D01*
X172085840Y-72079977D01*
X172207370Y-72061690D01*
X172238856Y-72059955D01*
X172365441Y-72043156D01*
X172439789Y-72010550D01*
X172445534Y-72001659D01*
X172501939Y-71967590D01*
X172615060Y-71955331D01*
X172621235Y-71955486D01*
G37*
%TD.AperFunction*%
%TA.AperFunction,EtchedComponent*%
G36*
X163479081Y-78704238D02*
G01*
X163495977Y-78807350D01*
X163527604Y-78843511D01*
X163533060Y-78841294D01*
X163596956Y-78852455D01*
X163696382Y-78916357D01*
X163720930Y-78936951D01*
X163804115Y-79019291D01*
X163810136Y-79056867D01*
X163778233Y-79062913D01*
X163676609Y-79030773D01*
X163613931Y-78984289D01*
X163493521Y-78927554D01*
X163422067Y-78932106D01*
X163312257Y-78940784D01*
X163222159Y-78889788D01*
X163137413Y-78788954D01*
X163107332Y-78740034D01*
X163141432Y-78759792D01*
X163200700Y-78810835D01*
X163312817Y-78887194D01*
X163388021Y-78875230D01*
X163435221Y-78770582D01*
X163450176Y-78688757D01*
X163471574Y-78538461D01*
X163479081Y-78704238D01*
G37*
%TD.AperFunction*%
%TA.AperFunction,EtchedComponent*%
G36*
X164711846Y-77649178D02*
G01*
X164820607Y-77695602D01*
X165015390Y-77771140D01*
X165139406Y-77795972D01*
X165206874Y-77772464D01*
X165215422Y-77761233D01*
X165279313Y-77721262D01*
X165368117Y-77714500D01*
X165432521Y-77740795D01*
X165440433Y-77761932D01*
X165398276Y-77802017D01*
X165335546Y-77812031D01*
X165235530Y-77854984D01*
X165204456Y-77912228D01*
X165161696Y-77994560D01*
X165113586Y-78006242D01*
X165089772Y-77940800D01*
X165089743Y-77937277D01*
X165058361Y-77870679D01*
X165031429Y-77862130D01*
X164942972Y-77842431D01*
X164820055Y-77794360D01*
X164697527Y-77734450D01*
X164610235Y-77679235D01*
X164588757Y-77652094D01*
X164594619Y-77621105D01*
X164627835Y-77618667D01*
X164711846Y-77649178D01*
G37*
%TD.AperFunction*%
%TA.AperFunction,EtchedComponent*%
G36*
X170358662Y-73989158D02*
G01*
X170372668Y-74103095D01*
X170375479Y-74289440D01*
X170371862Y-74407832D01*
X170358220Y-74606059D01*
X170337555Y-74777477D01*
X170331175Y-74812240D01*
X170325049Y-74806114D01*
X170299999Y-74831163D01*
X170323408Y-74854571D01*
X170313377Y-74909238D01*
X170289196Y-74988494D01*
X170268523Y-75002399D01*
X170254870Y-74938104D01*
X170251424Y-74848589D01*
X170237957Y-74719735D01*
X170183402Y-74650302D01*
X170099605Y-74613226D01*
X169980170Y-74550914D01*
X169960333Y-74485330D01*
X170040185Y-74421546D01*
X170095806Y-74399142D01*
X170199998Y-74342187D01*
X170255370Y-74242850D01*
X170275554Y-74151255D01*
X170307498Y-74006291D01*
X170336069Y-73954574D01*
X170358662Y-73989158D01*
G37*
%TD.AperFunction*%
%TA.AperFunction,EtchedComponent*%
G36*
X166325885Y-74970607D02*
G01*
X166295754Y-75027165D01*
X166295009Y-75028064D01*
X166268125Y-75090824D01*
X166322345Y-75145295D01*
X166351365Y-75161705D01*
X166419795Y-75214120D01*
X166404698Y-75244521D01*
X166344863Y-75291357D01*
X166367868Y-75339720D01*
X166442406Y-75357199D01*
X166523833Y-75376953D01*
X166542603Y-75404341D01*
X166507367Y-75471286D01*
X166409802Y-75469080D01*
X166340243Y-75440751D01*
X166235588Y-75354104D01*
X166195988Y-75282051D01*
X166242011Y-75282051D01*
X166267061Y-75307100D01*
X166292110Y-75282051D01*
X166267061Y-75257001D01*
X166242011Y-75282051D01*
X166195988Y-75282051D01*
X166170177Y-75235087D01*
X166147899Y-75111147D01*
X166172644Y-75009734D01*
X166248300Y-74958295D01*
X166271622Y-74956410D01*
X166325885Y-74970607D01*
G37*
%TD.AperFunction*%
%TA.AperFunction,EtchedComponent*%
G36*
X172540615Y-70888728D02*
G01*
X172554437Y-70948520D01*
X172517218Y-71035856D01*
X172466765Y-71056348D01*
X172352328Y-71066141D01*
X172314371Y-71069311D01*
X172228688Y-71112173D01*
X172214174Y-71129874D01*
X172147887Y-71172513D01*
X172030282Y-71206169D01*
X171895250Y-71226444D01*
X171776682Y-71228940D01*
X171708468Y-71209259D01*
X171702761Y-71196240D01*
X171742258Y-71158538D01*
X171802958Y-71163431D01*
X171882875Y-71166857D01*
X171903155Y-71145797D01*
X171940421Y-71123118D01*
X171983359Y-71132738D01*
X172069734Y-71131071D01*
X172098948Y-71106262D01*
X172169493Y-71061074D01*
X172291239Y-71030766D01*
X172296298Y-71030151D01*
X172444784Y-70999716D01*
X172499589Y-70955367D01*
X172457722Y-70899660D01*
X172452789Y-70896465D01*
X172408874Y-70859083D01*
X172459458Y-70849182D01*
X172466765Y-70849090D01*
X172540615Y-70888728D01*
G37*
%TD.AperFunction*%
%TA.AperFunction,EtchedComponent*%
G36*
X161179878Y-81259711D02*
G01*
X161235207Y-81350446D01*
X161260571Y-81442662D01*
X161253988Y-81474425D01*
X161259950Y-81545421D01*
X161310154Y-81622683D01*
X161361457Y-81686448D01*
X161347049Y-81713543D01*
X161251538Y-81719642D01*
X161214865Y-81719723D01*
X161080291Y-81703921D01*
X161032161Y-81654122D01*
X161031755Y-81646926D01*
X160990353Y-81580430D01*
X160887725Y-81506953D01*
X160862968Y-81494279D01*
X161081853Y-81494279D01*
X161106903Y-81519329D01*
X161131952Y-81494279D01*
X161106903Y-81469230D01*
X161081853Y-81494279D01*
X160862968Y-81494279D01*
X160856410Y-81490922D01*
X160744134Y-81427283D01*
X160684168Y-81373108D01*
X160681064Y-81363325D01*
X160709215Y-81321196D01*
X160788367Y-81358411D01*
X160832695Y-81395290D01*
X160938090Y-81443986D01*
X161032702Y-81418885D01*
X161080845Y-81331690D01*
X161081853Y-81313574D01*
X161098633Y-81235048D01*
X161119901Y-81218737D01*
X161179878Y-81259711D01*
G37*
%TD.AperFunction*%
%TA.AperFunction,EtchedComponent*%
G36*
X163769056Y-79885728D02*
G01*
X163869498Y-79925812D01*
X164029360Y-80001420D01*
X164262369Y-80117147D01*
X164311390Y-80141717D01*
X164522859Y-80247212D01*
X164698993Y-80334034D01*
X164822100Y-80393539D01*
X164874493Y-80417079D01*
X164875000Y-80417159D01*
X164886680Y-80374984D01*
X164889348Y-80316962D01*
X164924903Y-80236491D01*
X165015677Y-80219865D01*
X165137840Y-80269365D01*
X165167840Y-80290319D01*
X165235033Y-80345458D01*
X165221014Y-80363344D01*
X165164891Y-80365776D01*
X165049117Y-80390008D01*
X164921196Y-80442517D01*
X164821154Y-80492389D01*
X164771648Y-80512606D01*
X164770900Y-80512444D01*
X164727523Y-80487555D01*
X164638855Y-80438035D01*
X164506696Y-80385107D01*
X164407021Y-80367799D01*
X164294800Y-80338221D01*
X164245792Y-80301222D01*
X164171555Y-80243894D01*
X164039784Y-80167571D01*
X163939066Y-80117313D01*
X163800287Y-80041239D01*
X163708728Y-79969822D01*
X163686982Y-79932659D01*
X163691525Y-79893747D01*
X163714308Y-79876572D01*
X163769056Y-79885728D01*
G37*
%TD.AperFunction*%
%TA.AperFunction,EtchedComponent*%
G36*
X163365592Y-76744257D02*
G01*
X163494943Y-76780506D01*
X163678463Y-76834035D01*
X163910377Y-76901248D01*
X164142748Y-76968254D01*
X164158965Y-76972915D01*
X164366088Y-77040386D01*
X164508226Y-77102554D01*
X164578270Y-77153542D01*
X164569113Y-77187476D01*
X164473647Y-77198478D01*
X164429533Y-77196588D01*
X164299924Y-77173150D01*
X164214965Y-77131267D01*
X164213017Y-77129184D01*
X164135842Y-77077732D01*
X164030418Y-77042540D01*
X163935029Y-77031864D01*
X163887961Y-77053964D01*
X163887376Y-77058946D01*
X163847573Y-77068119D01*
X163745612Y-77036853D01*
X163661932Y-76999819D01*
X163532477Y-76929602D01*
X163450945Y-76871297D01*
X163436489Y-76850174D01*
X163394755Y-76816782D01*
X163343239Y-76810059D01*
X163276845Y-76832328D01*
X163270519Y-76915786D01*
X163273931Y-76935305D01*
X163302754Y-77029921D01*
X163329607Y-77062145D01*
X163390293Y-77090448D01*
X163454030Y-77133960D01*
X163517809Y-77213219D01*
X163505083Y-77268757D01*
X163432692Y-77271877D01*
X163386346Y-77249292D01*
X163295915Y-77217482D01*
X163251314Y-77229026D01*
X163252691Y-77282120D01*
X163286610Y-77311372D01*
X163450273Y-77421682D01*
X163527553Y-77513308D01*
X163530591Y-77554772D01*
X163492976Y-77571292D01*
X163440901Y-77517562D01*
X163340755Y-77435900D01*
X163226248Y-77391738D01*
X163128637Y-77361778D01*
X163112290Y-77313298D01*
X163132037Y-77268158D01*
X163157342Y-77135155D01*
X163140465Y-77026380D01*
X163128299Y-76867734D01*
X163163007Y-76790663D01*
X163207643Y-76742126D01*
X163265358Y-76726958D01*
X163365592Y-76744257D01*
G37*
%TD.AperFunction*%
%TA.AperFunction,EtchedComponent*%
G36*
X162826699Y-80545291D02*
G01*
X162955937Y-80601440D01*
X163079570Y-80592860D01*
X163131026Y-80576660D01*
X163266466Y-80544709D01*
X163382044Y-80563962D01*
X163507119Y-80644809D01*
X163623753Y-80751084D01*
X163728407Y-80861609D01*
X163755475Y-80910977D01*
X163708330Y-80897066D01*
X163590342Y-80817755D01*
X163557282Y-80792899D01*
X163396755Y-80698487D01*
X163259611Y-80669836D01*
X163166613Y-80710590D01*
X163157827Y-80722798D01*
X163086711Y-80754523D01*
X162967000Y-80748927D01*
X162810256Y-80719911D01*
X162957955Y-80841351D01*
X163109210Y-80932140D01*
X163285683Y-80994996D01*
X163308646Y-80999735D01*
X163412424Y-81025701D01*
X163440794Y-81048767D01*
X163423964Y-81056233D01*
X163349537Y-81096682D01*
X163336291Y-81126194D01*
X163378783Y-81153691D01*
X163483323Y-81144306D01*
X163629556Y-81143276D01*
X163725521Y-81202949D01*
X163822217Y-81282744D01*
X163935265Y-81360369D01*
X164027384Y-81411316D01*
X164054376Y-81419132D01*
X164107180Y-81387909D01*
X164188469Y-81317449D01*
X164261043Y-81242565D01*
X164288165Y-81200336D01*
X164246190Y-81174293D01*
X164190924Y-81168638D01*
X164095018Y-81145634D01*
X164062721Y-81118540D01*
X164059844Y-81073909D01*
X164118502Y-81073087D01*
X164212939Y-81110693D01*
X164301606Y-81168458D01*
X164432187Y-81255746D01*
X164546331Y-81312710D01*
X164589638Y-81337365D01*
X164568540Y-81360501D01*
X164471565Y-81386784D01*
X164287243Y-81420883D01*
X164275640Y-81422857D01*
X164093600Y-81458499D01*
X163957302Y-81494209D01*
X163890457Y-81523501D01*
X163887376Y-81529098D01*
X163927652Y-81565742D01*
X163956390Y-81569427D01*
X164044605Y-81604758D01*
X164086450Y-81642984D01*
X164101999Y-81675326D01*
X164074691Y-81696242D01*
X163990037Y-81707777D01*
X163833548Y-81711975D01*
X163604123Y-81711017D01*
X163342919Y-81703258D01*
X163151751Y-81686776D01*
X163042860Y-81662862D01*
X163023942Y-81649985D01*
X162991833Y-81625294D01*
X162986368Y-81657100D01*
X162939553Y-81701558D01*
X162811866Y-81719287D01*
X162797731Y-81719381D01*
X162668104Y-81706104D01*
X162576732Y-81650537D01*
X162485062Y-81531511D01*
X162454407Y-81488351D01*
X162607631Y-81488351D01*
X162658371Y-81566024D01*
X162729749Y-81628819D01*
X162790611Y-81641188D01*
X162791902Y-81640437D01*
X162830949Y-81572515D01*
X162835305Y-81536061D01*
X162802796Y-81481586D01*
X162763394Y-81486105D01*
X162688997Y-81479023D01*
X162670055Y-81453891D01*
X162627139Y-81421322D01*
X162608677Y-81431349D01*
X162607631Y-81488351D01*
X162454407Y-81488351D01*
X162398067Y-81409027D01*
X162327219Y-81323273D01*
X162309717Y-81307177D01*
X162291078Y-81274093D01*
X162315951Y-81269603D01*
X162372993Y-81227063D01*
X162398988Y-81168432D01*
X162449132Y-81095332D01*
X162505028Y-81098644D01*
X162577176Y-81160112D01*
X162568803Y-81230159D01*
X162487435Y-81269541D01*
X162472090Y-81270359D01*
X162394652Y-81276043D01*
X162411481Y-81301214D01*
X162453007Y-81326286D01*
X162540522Y-81354319D01*
X162584407Y-81319590D01*
X162641476Y-81284020D01*
X162723559Y-81312753D01*
X162799910Y-81338566D01*
X162837732Y-81296158D01*
X163098083Y-81296158D01*
X163103966Y-81365758D01*
X163167719Y-81459089D01*
X163278466Y-81557603D01*
X163361341Y-81610589D01*
X163471715Y-81661389D01*
X163534092Y-81652780D01*
X163561710Y-81619566D01*
X163542519Y-81566064D01*
X163457370Y-81491806D01*
X163414371Y-81464322D01*
X163303047Y-81388689D01*
X163240829Y-81327105D01*
X163236094Y-81313986D01*
X163195443Y-81273907D01*
X163160946Y-81268836D01*
X163098083Y-81296158D01*
X162837732Y-81296158D01*
X162840912Y-81292592D01*
X162858958Y-81231514D01*
X162867719Y-81121060D01*
X162839087Y-81078051D01*
X162787298Y-81024921D01*
X162785206Y-81010589D01*
X162754864Y-80938313D01*
X162656282Y-80847322D01*
X162478129Y-80727360D01*
X162459565Y-80715876D01*
X162386037Y-80670609D01*
X162634911Y-80670609D01*
X162651010Y-80716128D01*
X162687954Y-80676418D01*
X162704125Y-80640001D01*
X162707626Y-80588285D01*
X162684435Y-80592859D01*
X162636691Y-80657002D01*
X162634911Y-80670609D01*
X162386037Y-80670609D01*
X162259171Y-80592504D01*
X162409467Y-80575547D01*
X162537970Y-80547426D01*
X162620062Y-80508718D01*
X162707976Y-80493347D01*
X162826699Y-80545291D01*
G37*
%TD.AperFunction*%
%TA.AperFunction,EtchedComponent*%
G36*
X165288682Y-79453311D02*
G01*
X165290137Y-79465285D01*
X165330182Y-79510902D01*
X165358268Y-79515384D01*
X165434135Y-79552268D01*
X165520455Y-79640631D01*
X165602902Y-79728834D01*
X165669731Y-79765875D01*
X165670071Y-79765877D01*
X165771019Y-79792937D01*
X165906486Y-79858328D01*
X166032291Y-79938366D01*
X166092578Y-79992360D01*
X166173541Y-80055228D01*
X166215055Y-80066469D01*
X166278603Y-80107301D01*
X166333093Y-80191715D01*
X166410581Y-80289124D01*
X166539974Y-80316961D01*
X166540938Y-80316962D01*
X166646925Y-80329222D01*
X166681240Y-80380637D01*
X166679783Y-80429684D01*
X166692114Y-80515947D01*
X166749822Y-80528994D01*
X166835940Y-80555957D01*
X166860971Y-80591617D01*
X166929914Y-80657080D01*
X166979394Y-80667796D01*
X167067003Y-80706636D01*
X167157381Y-80800559D01*
X167161745Y-80806935D01*
X167329321Y-80972096D01*
X167555355Y-81056763D01*
X167698103Y-81068441D01*
X167837620Y-81091137D01*
X167972114Y-81148110D01*
X168075197Y-81222685D01*
X168120483Y-81298187D01*
X168113353Y-81330838D01*
X168120829Y-81364833D01*
X168188092Y-81356547D01*
X168260522Y-81351250D01*
X168267899Y-81374059D01*
X168281279Y-81427472D01*
X168317929Y-81449895D01*
X168386263Y-81502652D01*
X168396252Y-81531690D01*
X168432093Y-81600561D01*
X168483924Y-81649984D01*
X168541515Y-81700849D01*
X168510912Y-81716623D01*
X168465883Y-81718130D01*
X168369416Y-81686092D01*
X168242338Y-81602767D01*
X168174249Y-81544378D01*
X168059268Y-81443909D01*
X167970412Y-81380470D01*
X167941797Y-81369033D01*
X167900498Y-81328402D01*
X167895266Y-81293885D01*
X167854507Y-81229562D01*
X167811147Y-81218737D01*
X167722849Y-81203960D01*
X167572364Y-81165229D01*
X167393040Y-81111168D01*
X167163329Y-81050244D01*
X166987446Y-81030256D01*
X166926073Y-81036975D01*
X166815802Y-81084630D01*
X166797670Y-81133299D01*
X166866392Y-81160578D01*
X166954232Y-81156361D01*
X167139795Y-81164558D01*
X167333096Y-81227046D01*
X167490398Y-81327088D01*
X167537569Y-81379590D01*
X167622802Y-81450986D01*
X167748981Y-81450889D01*
X167751309Y-81450428D01*
X167854405Y-81440774D01*
X167899441Y-81457958D01*
X167907740Y-81532155D01*
X167916348Y-81610135D01*
X167929081Y-81725991D01*
X167073022Y-81710332D01*
X166736003Y-81702180D01*
X166483531Y-81690772D01*
X166299967Y-81674581D01*
X166169677Y-81652080D01*
X166077022Y-81621743D01*
X166054141Y-81610841D01*
X165944168Y-81562076D01*
X165897389Y-81567065D01*
X165891321Y-81594142D01*
X165930950Y-81672551D01*
X165953944Y-81686544D01*
X165973953Y-81708796D01*
X165932447Y-81715768D01*
X165874910Y-81689395D01*
X165828386Y-81593184D01*
X165791124Y-81444181D01*
X165758096Y-81322397D01*
X165995553Y-81322397D01*
X166039244Y-81374643D01*
X166062616Y-81388840D01*
X166181331Y-81472850D01*
X166237615Y-81522367D01*
X166299889Y-81568330D01*
X166358184Y-81550675D01*
X166429881Y-81482212D01*
X166507231Y-81394844D01*
X166542404Y-81342951D01*
X166542603Y-81341402D01*
X166502122Y-81320957D01*
X166473589Y-81318934D01*
X166411364Y-81293885D01*
X167243984Y-81293885D01*
X167269033Y-81318934D01*
X167294082Y-81293885D01*
X167269033Y-81268836D01*
X167243984Y-81293885D01*
X166411364Y-81293885D01*
X166385790Y-81283590D01*
X166342208Y-81243786D01*
X166230772Y-81175372D01*
X166106279Y-81193505D01*
X166035572Y-81251069D01*
X165995553Y-81322397D01*
X165758096Y-81322397D01*
X165750331Y-81293766D01*
X165704734Y-81193122D01*
X165674850Y-81167296D01*
X165607667Y-81134543D01*
X165499582Y-81051938D01*
X165388320Y-80954052D01*
X165846302Y-80954052D01*
X165896502Y-80943540D01*
X165906006Y-80939974D01*
X165967354Y-80900286D01*
X165967794Y-80877722D01*
X165914797Y-80883342D01*
X165877961Y-80911929D01*
X165846302Y-80954052D01*
X165388320Y-80954052D01*
X165372665Y-80940279D01*
X165248992Y-80820364D01*
X165150633Y-80712991D01*
X165099663Y-80638958D01*
X165097503Y-80623297D01*
X165147971Y-80613040D01*
X165253597Y-80644939D01*
X165298075Y-80665043D01*
X165455062Y-80733455D01*
X165601440Y-80784505D01*
X165619446Y-80789343D01*
X165757534Y-80824000D01*
X165621483Y-80645629D01*
X165541765Y-80536312D01*
X165520746Y-80484114D01*
X165554220Y-80468168D01*
X165585529Y-80467258D01*
X165696726Y-80493769D01*
X165861773Y-80564119D01*
X166052546Y-80664527D01*
X166240918Y-80781216D01*
X166276503Y-80805769D01*
X166404760Y-80884533D01*
X166520548Y-80936959D01*
X166601392Y-80955657D01*
X166603802Y-80953350D01*
X166724179Y-80953350D01*
X166793096Y-80960334D01*
X166864218Y-80952461D01*
X166855719Y-80935065D01*
X166753150Y-80928448D01*
X166730473Y-80935065D01*
X166724179Y-80953350D01*
X166603802Y-80953350D01*
X166624813Y-80933237D01*
X166617606Y-80917911D01*
X166619321Y-80842974D01*
X166648906Y-80813114D01*
X166686019Y-80778005D01*
X166630276Y-80768617D01*
X166555866Y-80747135D01*
X166542603Y-80723792D01*
X166508062Y-80660946D01*
X166419171Y-80555563D01*
X166298024Y-80429877D01*
X166166716Y-80306124D01*
X166047342Y-80206538D01*
X165988985Y-80166666D01*
X165757292Y-80029642D01*
X165601243Y-79931470D01*
X165508514Y-79863036D01*
X165466780Y-79815228D01*
X165463714Y-79778931D01*
X165463909Y-79778402D01*
X165455811Y-79721950D01*
X165435904Y-79715778D01*
X165405054Y-79686692D01*
X165410717Y-79673230D01*
X165391650Y-79622270D01*
X165313477Y-79564568D01*
X165219674Y-79497392D01*
X165190111Y-79440765D01*
X165234909Y-79415276D01*
X165240039Y-79415187D01*
X165288682Y-79453311D01*
G37*
%TD.AperFunction*%
%TA.AperFunction,EtchedComponent*%
G36*
X180319723Y-71699999D02*
G01*
X180319723Y-81719723D01*
X175334911Y-81719723D01*
X174637495Y-81719354D01*
X173969069Y-81718280D01*
X173336354Y-81716553D01*
X172746076Y-81714222D01*
X172204960Y-81711338D01*
X171719728Y-81707953D01*
X171297106Y-81704117D01*
X170943818Y-81699880D01*
X170666588Y-81695293D01*
X170472140Y-81690408D01*
X170367198Y-81685274D01*
X170349989Y-81682149D01*
X170311699Y-81635605D01*
X170213390Y-81556097D01*
X170125647Y-81494279D01*
X170000573Y-81404163D01*
X169988953Y-81394082D01*
X170249901Y-81394082D01*
X170274950Y-81419132D01*
X170299999Y-81394082D01*
X170274950Y-81369033D01*
X170249901Y-81394082D01*
X169988953Y-81394082D01*
X169918685Y-81333123D01*
X169900312Y-81306410D01*
X169857826Y-81274857D01*
X169811538Y-81269603D01*
X169757167Y-81280388D01*
X169788860Y-81311599D01*
X169825275Y-81357529D01*
X169776335Y-81417163D01*
X169697046Y-81456192D01*
X169619600Y-81415755D01*
X169525872Y-81376596D01*
X169452321Y-81405008D01*
X169355264Y-81441448D01*
X169198697Y-81476987D01*
X169075746Y-81496052D01*
X168914483Y-81513472D01*
X168830567Y-81510864D01*
X168802333Y-81483572D01*
X168805823Y-81438041D01*
X168776837Y-81335623D01*
X168659393Y-81205725D01*
X168637772Y-81187121D01*
X168518551Y-81073996D01*
X168482933Y-81012003D01*
X168525369Y-81006551D01*
X168640305Y-81063050D01*
X168715740Y-81111161D01*
X168940212Y-81235661D01*
X169169951Y-81318291D01*
X169374028Y-81349683D01*
X169471453Y-81339989D01*
X169574196Y-81275624D01*
X169595397Y-81174251D01*
X169542866Y-81082826D01*
X169511555Y-81004409D01*
X169520773Y-80972609D01*
X169599095Y-80921432D01*
X169689367Y-80941131D01*
X169730798Y-80993293D01*
X169793876Y-81059876D01*
X169829422Y-81068441D01*
X169890504Y-81108883D01*
X169899210Y-81146546D01*
X169924982Y-81197350D01*
X169952681Y-81191604D01*
X170004718Y-81205340D01*
X170033672Y-81263795D01*
X170074210Y-81359432D01*
X170112836Y-81367838D01*
X170121727Y-81343984D01*
X171051479Y-81343984D01*
X171076528Y-81369033D01*
X171101577Y-81343984D01*
X171076528Y-81318934D01*
X171051479Y-81343984D01*
X170121727Y-81343984D01*
X170137574Y-81301470D01*
X170137508Y-81293885D01*
X170951281Y-81293885D01*
X170976331Y-81318934D01*
X171001380Y-81293885D01*
X170976331Y-81268836D01*
X170951281Y-81293885D01*
X170137508Y-81293885D01*
X170136447Y-81172786D01*
X170134687Y-81158718D01*
X170125884Y-81046662D01*
X170135916Y-81003895D01*
X170146878Y-81013770D01*
X170193217Y-81050865D01*
X170222902Y-81021497D01*
X170225146Y-80939500D01*
X170198510Y-80891539D01*
X170162433Y-80800495D01*
X170181922Y-80717490D01*
X170242970Y-80679993D01*
X170275372Y-80685931D01*
X170339624Y-80686760D01*
X170350098Y-80666080D01*
X170309496Y-80623020D01*
X170274950Y-80617554D01*
X170208220Y-80594780D01*
X170199802Y-80575497D01*
X170177677Y-80542406D01*
X170299999Y-80542406D01*
X170325049Y-80567455D01*
X170350098Y-80542406D01*
X170325049Y-80517356D01*
X170299999Y-80542406D01*
X170177677Y-80542406D01*
X170155589Y-80509369D01*
X170039795Y-80470322D01*
X169877688Y-80459753D01*
X169694538Y-80479058D01*
X169515613Y-80529634D01*
X169498318Y-80536723D01*
X169412484Y-80524815D01*
X169360956Y-80469185D01*
X169326511Y-80401251D01*
X169357963Y-80384719D01*
X169442656Y-80398491D01*
X169559426Y-80402452D01*
X169620549Y-80372108D01*
X169619560Y-80322481D01*
X169598619Y-80316962D01*
X169567315Y-80285858D01*
X169576350Y-80262364D01*
X169648065Y-80231272D01*
X169774502Y-80238610D01*
X169940573Y-80241579D01*
X170074245Y-80207790D01*
X170165724Y-80150977D01*
X170185378Y-80091518D01*
X170299999Y-80091518D01*
X170325049Y-80116567D01*
X170350098Y-80091518D01*
X170325049Y-80066469D01*
X170299999Y-80091518D01*
X170185378Y-80091518D01*
X170192056Y-80071315D01*
X170182412Y-79978715D01*
X170175277Y-79856322D01*
X170184851Y-79841025D01*
X170299999Y-79841025D01*
X170325049Y-79866074D01*
X170350098Y-79841025D01*
X170325049Y-79815976D01*
X170299999Y-79841025D01*
X170184851Y-79841025D01*
X170217759Y-79788446D01*
X170273475Y-79757434D01*
X170386040Y-79679130D01*
X170424945Y-79598163D01*
X170395319Y-79538905D01*
X170302288Y-79525729D01*
X170228949Y-79545793D01*
X170157794Y-79598625D01*
X170167970Y-79649092D01*
X170233201Y-79665680D01*
X170289810Y-79679391D01*
X170287051Y-79695328D01*
X170221562Y-79701526D01*
X170111010Y-79671508D01*
X169995327Y-79621296D01*
X169914443Y-79566910D01*
X169899210Y-79539720D01*
X169857042Y-79487234D01*
X169752577Y-79427314D01*
X169721454Y-79414241D01*
X169587842Y-79349212D01*
X169491933Y-79280650D01*
X169483485Y-79271441D01*
X169451138Y-79223331D01*
X169491390Y-79233794D01*
X169523471Y-79249758D01*
X169684605Y-79316574D01*
X169813891Y-79341341D01*
X169888976Y-79321413D01*
X169899210Y-79294271D01*
X169857474Y-79222052D01*
X169799013Y-79189743D01*
X169717983Y-79142486D01*
X169698816Y-79105859D01*
X169735764Y-79077846D01*
X169786489Y-79089619D01*
X169893550Y-79128769D01*
X170036431Y-79175935D01*
X170049506Y-79180027D01*
X170154804Y-79216642D01*
X170171245Y-79238075D01*
X170111387Y-79253323D01*
X170027231Y-79280947D01*
X170025936Y-79311292D01*
X170091563Y-79330393D01*
X170194803Y-79326410D01*
X170315928Y-79282091D01*
X170359830Y-79196991D01*
X170403492Y-79113137D01*
X170455926Y-79102683D01*
X170511347Y-79084737D01*
X170548444Y-78997041D01*
X170568648Y-78882772D01*
X170592160Y-78693235D01*
X170595340Y-78613609D01*
X173030374Y-78613609D01*
X173049951Y-78649090D01*
X173147421Y-78663683D01*
X173152664Y-78663707D01*
X173259463Y-78649454D01*
X173305856Y-78615019D01*
X173305917Y-78613609D01*
X173263135Y-78575621D01*
X173183627Y-78563510D01*
X173077548Y-78581982D01*
X173030374Y-78613609D01*
X170595340Y-78613609D01*
X170596597Y-78582123D01*
X170579666Y-78529079D01*
X170539071Y-78513746D01*
X170527015Y-78513412D01*
X170476473Y-78480218D01*
X170482277Y-78438264D01*
X170550598Y-78374901D01*
X170605951Y-78363116D01*
X170684403Y-78341079D01*
X170700788Y-78313017D01*
X170741432Y-78268726D01*
X170776891Y-78262918D01*
X170828624Y-78235929D01*
X170822684Y-78142223D01*
X170821558Y-78137672D01*
X170813057Y-78043002D01*
X170862004Y-78012854D01*
X170874877Y-78012425D01*
X170933885Y-77985132D01*
X170930439Y-77949802D01*
X170906714Y-77892544D01*
X172406669Y-77892544D01*
X172433820Y-77994455D01*
X172479289Y-78062524D01*
X172542952Y-78147819D01*
X172554437Y-78193905D01*
X172514203Y-78254967D01*
X172479289Y-78262918D01*
X172413911Y-78293620D01*
X172414908Y-78367013D01*
X172477715Y-78455026D01*
X172515486Y-78485521D01*
X172638248Y-78554883D01*
X172698141Y-78546764D01*
X172704733Y-78516990D01*
X172691238Y-78488362D01*
X173456212Y-78488362D01*
X173481262Y-78513412D01*
X173506311Y-78488362D01*
X173481262Y-78463313D01*
X173456212Y-78488362D01*
X172691238Y-78488362D01*
X172672655Y-78448941D01*
X172617489Y-78383226D01*
X172567242Y-78326842D01*
X172584418Y-78309747D01*
X172683439Y-78322579D01*
X172705161Y-78326318D01*
X172881592Y-78358865D01*
X173042899Y-78391197D01*
X173167263Y-78402458D01*
X173205719Y-78369378D01*
X173161838Y-78331498D01*
X173054509Y-78313299D01*
X173037690Y-78313017D01*
X172938486Y-78287968D01*
X173305917Y-78287968D01*
X173330966Y-78313017D01*
X173356015Y-78287968D01*
X173330966Y-78262918D01*
X173305917Y-78287968D01*
X172938486Y-78287968D01*
X172847873Y-78265088D01*
X172752061Y-78187771D01*
X173456212Y-78187771D01*
X173481262Y-78212820D01*
X173506311Y-78187771D01*
X173481262Y-78162721D01*
X173456212Y-78187771D01*
X172752061Y-78187771D01*
X172679939Y-78129571D01*
X172551123Y-77922883D01*
X172494055Y-77815784D01*
X172447017Y-77763072D01*
X172442010Y-77761932D01*
X172407708Y-77801402D01*
X172406669Y-77892544D01*
X170906714Y-77892544D01*
X170888340Y-77848199D01*
X170870323Y-77799506D01*
X170800022Y-77729295D01*
X170722951Y-77711834D01*
X170619196Y-77692474D01*
X170611115Y-77686784D01*
X172404141Y-77686784D01*
X172429191Y-77711834D01*
X172454240Y-77686784D01*
X172429191Y-77661735D01*
X172404141Y-77686784D01*
X170611115Y-77686784D01*
X170575542Y-77661735D01*
X170583109Y-77622076D01*
X170674217Y-77605115D01*
X170856093Y-77609543D01*
X170861755Y-77609909D01*
X170971151Y-77594556D01*
X171011847Y-77532138D01*
X172504339Y-77532138D01*
X172540603Y-77525378D01*
X172634375Y-77470972D01*
X172730671Y-77405224D01*
X172872740Y-77312312D01*
X172961581Y-77280598D01*
X173016233Y-77301914D01*
X173116761Y-77355269D01*
X173158649Y-77361143D01*
X173249160Y-77388003D01*
X173378029Y-77455509D01*
X173429666Y-77488608D01*
X173561429Y-77563789D01*
X173671139Y-77602428D01*
X173699675Y-77603733D01*
X173798156Y-77618359D01*
X173924799Y-77670651D01*
X173932149Y-77674657D01*
X174010848Y-77728893D01*
X174016224Y-77758295D01*
X174004940Y-77759926D01*
X173939309Y-77789005D01*
X173844737Y-77860381D01*
X173741873Y-77953700D01*
X173651361Y-78048609D01*
X173593850Y-78124753D01*
X173589987Y-78161780D01*
X173596341Y-78162721D01*
X173650392Y-78202871D01*
X173656607Y-78234542D01*
X173700151Y-78293697D01*
X173794378Y-78327232D01*
X173901718Y-78344937D01*
X173952039Y-78355609D01*
X173998354Y-78330804D01*
X174096555Y-78258980D01*
X174182909Y-78190233D01*
X174366553Y-78013151D01*
X174465547Y-77838575D01*
X174490338Y-77637451D01*
X174459979Y-77419698D01*
X174398504Y-77130013D01*
X174112749Y-77045184D01*
X173817429Y-76981539D01*
X173522946Y-76960324D01*
X173257417Y-76981089D01*
X173048960Y-77043383D01*
X173013235Y-77062809D01*
X172888555Y-77150147D01*
X172751932Y-77262537D01*
X172626776Y-77378390D01*
X172536492Y-77476121D01*
X172504339Y-77532138D01*
X171011847Y-77532138D01*
X171023690Y-77513973D01*
X171027674Y-77499266D01*
X171045318Y-77376557D01*
X171042052Y-77307815D01*
X171062403Y-77252225D01*
X171092965Y-77249726D01*
X171142080Y-77220789D01*
X171148268Y-77124479D01*
X171159523Y-76971412D01*
X171194454Y-76844371D01*
X171244864Y-76667346D01*
X171224514Y-76529067D01*
X171156852Y-76424695D01*
X171043651Y-76342108D01*
X170945600Y-76340741D01*
X170863025Y-76355489D01*
X170868100Y-76334223D01*
X170926232Y-76285569D01*
X170962736Y-76249668D01*
X170989094Y-76199889D01*
X171006907Y-76120944D01*
X171017776Y-75997544D01*
X171023303Y-75814401D01*
X171025089Y-75556226D01*
X171025005Y-75342502D01*
X171022472Y-75035035D01*
X171016391Y-74740891D01*
X171007519Y-74483900D01*
X170996613Y-74287894D01*
X170988849Y-74204930D01*
X170973093Y-74059212D01*
X170975274Y-74004311D01*
X170996296Y-74032305D01*
X171005978Y-74054634D01*
X171033976Y-74163144D01*
X171061508Y-74338017D01*
X171083492Y-74545524D01*
X171087149Y-74593195D01*
X171104611Y-74782405D01*
X171125568Y-74926073D01*
X171146326Y-75000894D01*
X171152673Y-75006508D01*
X171222054Y-74999444D01*
X171370721Y-74980162D01*
X171579017Y-74951524D01*
X171827287Y-74916393D01*
X172095872Y-74877633D01*
X172365116Y-74838108D01*
X172615363Y-74800679D01*
X172826954Y-74768212D01*
X172980234Y-74743568D01*
X173055546Y-74729611D01*
X173057666Y-74729026D01*
X173135581Y-74712983D01*
X173294976Y-74685532D01*
X173518137Y-74649406D01*
X173787350Y-74607339D01*
X174084900Y-74562063D01*
X174393073Y-74516311D01*
X174694155Y-74472815D01*
X174949561Y-74437155D01*
X175138587Y-74407140D01*
X175282014Y-74376388D01*
X175357020Y-74350114D01*
X175362874Y-74342702D01*
X175359961Y-74259694D01*
X175359960Y-74258607D01*
X175328086Y-74188100D01*
X175288275Y-74140402D01*
X175217495Y-74099496D01*
X175103104Y-74091893D01*
X174950109Y-74109749D01*
X174772073Y-74131881D01*
X174537802Y-74153941D01*
X174291180Y-74171918D01*
X174232741Y-74175304D01*
X174014620Y-74193168D01*
X173730804Y-74225055D01*
X173414143Y-74266848D01*
X173097483Y-74314433D01*
X173016932Y-74327625D01*
X172738240Y-74372435D01*
X172482247Y-74410380D01*
X172270891Y-74438444D01*
X172126107Y-74453609D01*
X172087654Y-74455423D01*
X172000359Y-74450352D01*
X171942281Y-74421189D01*
X171896841Y-74347014D01*
X171847462Y-74206907D01*
X171826320Y-74138667D01*
X171904344Y-74138667D01*
X171932352Y-74217539D01*
X171975544Y-74270162D01*
X172047765Y-74312421D01*
X172161298Y-74317377D01*
X172288660Y-74298952D01*
X172440944Y-74273933D01*
X172659110Y-74241327D01*
X172909622Y-74206040D01*
X173079397Y-74183270D01*
X173302348Y-74149542D01*
X173485398Y-74113328D01*
X173607576Y-74079334D01*
X173647879Y-74055770D01*
X173685956Y-74026723D01*
X173731835Y-74054701D01*
X173832631Y-74089183D01*
X173947491Y-74069121D01*
X173948927Y-74068120D01*
X175570930Y-74068120D01*
X175572090Y-74123642D01*
X175615094Y-74213602D01*
X175677288Y-74274364D01*
X175729879Y-74256206D01*
X175743083Y-74178352D01*
X175731982Y-74138160D01*
X175670453Y-74066509D01*
X175630142Y-74054634D01*
X175570930Y-74068120D01*
X173948927Y-74068120D01*
X174034853Y-74008207D01*
X174057396Y-73947434D01*
X174024167Y-73853902D01*
X173984653Y-73823181D01*
X173908672Y-73819488D01*
X173759985Y-73829850D01*
X173564533Y-73850766D01*
X173348258Y-73878732D01*
X173137100Y-73910247D01*
X172957001Y-73941808D01*
X172833902Y-73969912D01*
X172798772Y-73983293D01*
X172723756Y-74004038D01*
X172583837Y-74024474D01*
X172463349Y-74035852D01*
X172286998Y-74051135D01*
X172139425Y-74067664D01*
X172078500Y-74077050D01*
X171978347Y-74095416D01*
X171940729Y-74100900D01*
X171904344Y-74138667D01*
X171826320Y-74138667D01*
X171819687Y-74117258D01*
X171710628Y-73774264D01*
X171591440Y-73421053D01*
X171473806Y-73091154D01*
X171411205Y-72927416D01*
X171903155Y-72927416D01*
X171928204Y-72952465D01*
X171953254Y-72927416D01*
X171928204Y-72902366D01*
X171903155Y-72927416D01*
X171411205Y-72927416D01*
X171369410Y-72818098D01*
X171352740Y-72777120D01*
X171310394Y-72667109D01*
X171242351Y-72482120D01*
X171155615Y-72241882D01*
X171057191Y-71966127D01*
X170954082Y-71674587D01*
X170853294Y-71386992D01*
X170761831Y-71123073D01*
X170686697Y-70902562D01*
X170676909Y-70873372D01*
X170657994Y-70817474D01*
X170827822Y-70817474D01*
X170834907Y-70860847D01*
X170874642Y-71001018D01*
X170901473Y-71073767D01*
X170959106Y-71227101D01*
X171033889Y-71449131D01*
X171116636Y-71711879D01*
X171174228Y-71904529D01*
X171255921Y-72184206D01*
X171479341Y-72164225D01*
X171626494Y-72162049D01*
X171698424Y-72185825D01*
X171702761Y-72197665D01*
X171658324Y-72231113D01*
X171547315Y-72249720D01*
X171502366Y-72251084D01*
X171357990Y-72267789D01*
X171303419Y-72322476D01*
X171333219Y-72422007D01*
X171347767Y-72446231D01*
X171422020Y-72491812D01*
X171568362Y-72492215D01*
X171594135Y-72489022D01*
X171737412Y-72481188D01*
X171809738Y-72511040D01*
X171825002Y-72536861D01*
X171876460Y-72584818D01*
X171993473Y-72598296D01*
X172078853Y-72593905D01*
X172212866Y-72590753D01*
X172293442Y-72603344D01*
X172303944Y-72613938D01*
X172260052Y-72639614D01*
X172152943Y-72651731D01*
X172138619Y-72651873D01*
X172007560Y-72667672D01*
X171919392Y-72705836D01*
X171917816Y-72707350D01*
X171860735Y-72726950D01*
X171809188Y-72663514D01*
X171719245Y-72586922D01*
X171591862Y-72565470D01*
X171476162Y-72604182D01*
X171452128Y-72626992D01*
X171426648Y-72734091D01*
X171447163Y-72813793D01*
X171486713Y-72890157D01*
X171548676Y-72919442D01*
X171666492Y-72913521D01*
X171711258Y-72907560D01*
X171900517Y-72894229D01*
X172113024Y-72897287D01*
X172178698Y-72902366D01*
X172322720Y-72925033D01*
X172375628Y-72951676D01*
X172346165Y-72978012D01*
X172243072Y-72999754D01*
X172075092Y-73012617D01*
X171950320Y-73014315D01*
X171737689Y-73023001D01*
X171612651Y-73056363D01*
X171564346Y-73120470D01*
X171581534Y-73220418D01*
X171631722Y-73260940D01*
X171750501Y-73270995D01*
X171862836Y-73263438D01*
X172017191Y-73255096D01*
X172083837Y-73269814D01*
X172082875Y-73296077D01*
X172009098Y-73342573D01*
X171937772Y-73354021D01*
X171789951Y-73383582D01*
X171714648Y-73462470D01*
X171710863Y-73533672D01*
X171733301Y-73584152D01*
X171791265Y-73610583D01*
X171907899Y-73618473D01*
X172053958Y-73615318D01*
X172251134Y-73604298D01*
X172429825Y-73587608D01*
X172529388Y-73572822D01*
X172622333Y-73561683D01*
X172646833Y-73576023D01*
X172644652Y-73578653D01*
X172575261Y-73613448D01*
X172454170Y-73648232D01*
X172444258Y-73650384D01*
X172319077Y-73699076D01*
X172285853Y-73769823D01*
X172269741Y-73844581D01*
X172222802Y-73838246D01*
X172184402Y-73775892D01*
X172117157Y-73718757D01*
X171991172Y-73713269D01*
X171870781Y-73742038D01*
X171818626Y-73811790D01*
X171811100Y-73848567D01*
X171794193Y-73968140D01*
X172211889Y-73931807D01*
X172410212Y-73910313D01*
X172571110Y-73885029D01*
X172667540Y-73860469D01*
X172680195Y-73853644D01*
X172748614Y-73831071D01*
X172876256Y-73806452D01*
X174087750Y-73806452D01*
X174111762Y-73891814D01*
X174172719Y-73969066D01*
X174258309Y-74003757D01*
X174331996Y-73989704D01*
X174357988Y-73933485D01*
X174328517Y-73789517D01*
X174249275Y-73711834D01*
X174205288Y-73703944D01*
X174108453Y-73727551D01*
X174087750Y-73806452D01*
X172876256Y-73806452D01*
X172893423Y-73803141D01*
X173091256Y-73773900D01*
X173253864Y-73754258D01*
X173482707Y-73724840D01*
X173682451Y-73691436D01*
X173826706Y-73658877D01*
X173879586Y-73639713D01*
X173988599Y-73599774D01*
X174050029Y-73596617D01*
X174157005Y-73592191D01*
X174191889Y-73582082D01*
X174233034Y-73550382D01*
X174221584Y-73487986D01*
X174168218Y-73390831D01*
X174090130Y-73241751D01*
X174008714Y-73058297D01*
X173981145Y-72987857D01*
X173922768Y-72846055D01*
X173869881Y-72777345D01*
X173798423Y-72759078D01*
X173741606Y-72762413D01*
X173616155Y-72751687D01*
X173567362Y-72707406D01*
X173574853Y-72660314D01*
X173657229Y-72659701D01*
X173676314Y-72663114D01*
X173786916Y-72669559D01*
X173832020Y-72626556D01*
X173813989Y-72523258D01*
X173741903Y-72362121D01*
X173656766Y-72178333D01*
X173581251Y-71991891D01*
X173557317Y-71923472D01*
X173499294Y-71761775D01*
X173438761Y-71619196D01*
X173429188Y-71599802D01*
X173318417Y-71364795D01*
X173182812Y-71042883D01*
X173105566Y-70849190D01*
X173020412Y-70639569D01*
X172926406Y-70418225D01*
X172884437Y-70323154D01*
X172798576Y-70127605D01*
X172703365Y-69903775D01*
X172653638Y-69783727D01*
X172576914Y-69616034D01*
X172511528Y-69527323D01*
X172443498Y-69499629D01*
X172432497Y-69499615D01*
X172375563Y-69511872D01*
X172391617Y-69528839D01*
X172440968Y-69593143D01*
X172454240Y-69669046D01*
X172485254Y-69787665D01*
X172529388Y-69846350D01*
X172593486Y-69940657D01*
X172604536Y-69994431D01*
X172622753Y-70088012D01*
X172639226Y-70114834D01*
X172673758Y-70188050D01*
X172690260Y-70260955D01*
X172736469Y-70376739D01*
X172783472Y-70429949D01*
X172826124Y-70484760D01*
X172805226Y-70505884D01*
X172795078Y-70558069D01*
X172835191Y-70681606D01*
X172899830Y-70821073D01*
X172972442Y-70977647D01*
X173017174Y-71099356D01*
X173024480Y-71158452D01*
X172967423Y-71198908D01*
X172920893Y-71177845D01*
X172921136Y-71129361D01*
X172911366Y-71042332D01*
X172863872Y-70966540D01*
X172798278Y-70876355D01*
X172777693Y-70823274D01*
X172763154Y-70747472D01*
X172729240Y-70616674D01*
X172713274Y-70560760D01*
X172634783Y-70400354D01*
X172524763Y-70312305D01*
X172401597Y-70306779D01*
X172328343Y-70347877D01*
X172267928Y-70385023D01*
X172253846Y-70378520D01*
X172253846Y-70309763D01*
X172265813Y-70281179D01*
X172319304Y-70265263D01*
X172440704Y-70255431D01*
X172479714Y-70253402D01*
X172566398Y-70239637D01*
X172569290Y-70193386D01*
X172542811Y-70146942D01*
X172466967Y-70068117D01*
X172411005Y-70046745D01*
X172367944Y-70031997D01*
X172402781Y-69973236D01*
X172402982Y-69972994D01*
X172436013Y-69899021D01*
X172386915Y-69821987D01*
X172383988Y-69819040D01*
X172292728Y-69766821D01*
X172195851Y-69759773D01*
X172133833Y-69797428D01*
X172127832Y-69821987D01*
X172102503Y-69906428D01*
X172087301Y-69934023D01*
X172087068Y-69982040D01*
X172174127Y-69996646D01*
X172262918Y-70008431D01*
X172273491Y-70062593D01*
X172257915Y-70109368D01*
X172207456Y-70186791D01*
X172115216Y-70211038D01*
X172040778Y-70208232D01*
X171925470Y-70205501D01*
X171883784Y-70235682D01*
X171890081Y-70318025D01*
X171890639Y-70320954D01*
X171920382Y-70403974D01*
X171987913Y-70440065D01*
X172112347Y-70447534D01*
X172236701Y-70458406D01*
X172281953Y-70487773D01*
X172278781Y-70497816D01*
X172212808Y-70524255D01*
X172117291Y-70515367D01*
X172026713Y-70501961D01*
X172009282Y-70535643D01*
X172018592Y-70565282D01*
X172023185Y-70634255D01*
X172001780Y-70647928D01*
X171955179Y-70686541D01*
X171953254Y-70701437D01*
X172000262Y-70731484D01*
X172136694Y-70733207D01*
X172206546Y-70726742D01*
X172361440Y-70717403D01*
X172429382Y-70732582D01*
X172429033Y-70748381D01*
X172361289Y-70784577D01*
X172253846Y-70798224D01*
X172139255Y-70813972D01*
X172078500Y-70848323D01*
X172009047Y-70886205D01*
X171937772Y-70892610D01*
X171871526Y-70884069D01*
X171901663Y-70867617D01*
X171914568Y-70864101D01*
X171971060Y-70838359D01*
X171962466Y-70786262D01*
X171926018Y-70726770D01*
X171831821Y-70640318D01*
X171730238Y-70635203D01*
X171641334Y-70684050D01*
X171613890Y-70760300D01*
X171649088Y-70826897D01*
X171723442Y-70848323D01*
X171789496Y-70859903D01*
X171766462Y-70904781D01*
X171761629Y-70909692D01*
X171691927Y-70946007D01*
X171601993Y-70909692D01*
X171475916Y-70857184D01*
X171357762Y-70847999D01*
X171277631Y-70879809D01*
X171261624Y-70935995D01*
X171301401Y-70995761D01*
X171405144Y-71023239D01*
X171490675Y-71027776D01*
X171626830Y-71038145D01*
X171715974Y-71058105D01*
X171743851Y-71079948D01*
X171696211Y-71095964D01*
X171623438Y-71099583D01*
X171458743Y-71122216D01*
X171379229Y-71185704D01*
X171382542Y-71270225D01*
X171431568Y-71328738D01*
X171534236Y-71344751D01*
X171609682Y-71340044D01*
X171732110Y-71337225D01*
X171798833Y-71352915D01*
X171802958Y-71360510D01*
X171759344Y-71387720D01*
X171654120Y-71399400D01*
X171651048Y-71399408D01*
X171524020Y-71424553D01*
X171457847Y-71511027D01*
X171427031Y-71581184D01*
X171398349Y-71575778D01*
X171350274Y-71487752D01*
X171343236Y-71473453D01*
X171286454Y-71341671D01*
X171218569Y-71161777D01*
X171175372Y-71036193D01*
X171117383Y-70874676D01*
X171066940Y-70787779D01*
X171006242Y-70753182D01*
X170945597Y-70748126D01*
X170849756Y-70761275D01*
X170827822Y-70817474D01*
X170657994Y-70817474D01*
X170548602Y-70494206D01*
X170710672Y-70494206D01*
X170712276Y-70522682D01*
X170732102Y-70605305D01*
X170793141Y-70640756D01*
X170913265Y-70647928D01*
X171103887Y-70647928D01*
X171094780Y-70634029D01*
X171161779Y-70634029D01*
X171162004Y-70635404D01*
X171198496Y-70728987D01*
X171222786Y-70756328D01*
X171311894Y-70779576D01*
X171427340Y-70768904D01*
X171519427Y-70732274D01*
X171541716Y-70705226D01*
X171519200Y-70655965D01*
X171481492Y-70647928D01*
X171412185Y-70622124D01*
X171402169Y-70597830D01*
X171359229Y-70560407D01*
X171274726Y-70547731D01*
X171179603Y-70567129D01*
X171161779Y-70634029D01*
X171094780Y-70634029D01*
X171021822Y-70522682D01*
X170913762Y-70422639D01*
X170820834Y-70397435D01*
X170732651Y-70416774D01*
X170710672Y-70494206D01*
X170548602Y-70494206D01*
X170547145Y-70489899D01*
X170514492Y-70396074D01*
X171072657Y-70396074D01*
X171128249Y-70454666D01*
X171266229Y-70465078D01*
X171305330Y-70460769D01*
X171447591Y-70454880D01*
X171501955Y-70486207D01*
X171502366Y-70491036D01*
X171547541Y-70528056D01*
X171664443Y-70546819D01*
X171702761Y-70547731D01*
X171828302Y-70541376D01*
X171898077Y-70525501D01*
X171903155Y-70519103D01*
X171859126Y-70435767D01*
X171750990Y-70376142D01*
X171614678Y-70358250D01*
X171588201Y-70361110D01*
X171392295Y-70347627D01*
X171287328Y-70304375D01*
X171185011Y-70254344D01*
X171129183Y-70262034D01*
X171104094Y-70293166D01*
X171072657Y-70396074D01*
X170514492Y-70396074D01*
X170473411Y-70278029D01*
X170650690Y-70278029D01*
X170694381Y-70291427D01*
X170799904Y-70297231D01*
X170803942Y-70297238D01*
X170901828Y-70285317D01*
X170931680Y-70256368D01*
X170930384Y-70253858D01*
X170874303Y-70234437D01*
X170776685Y-70235272D01*
X170686091Y-70252167D01*
X170650690Y-70278029D01*
X170473411Y-70278029D01*
X170434185Y-70165314D01*
X170341603Y-69909573D01*
X170318188Y-69849200D01*
X170500394Y-69849200D01*
X170539785Y-69978733D01*
X170652060Y-70041883D01*
X170707911Y-70046745D01*
X170739180Y-70044112D01*
X170980063Y-70044112D01*
X170994811Y-70063879D01*
X171024591Y-70140118D01*
X171013470Y-70170496D01*
X171035160Y-70186778D01*
X171131401Y-70185114D01*
X171213881Y-70175404D01*
X171356860Y-70159663D01*
X171421148Y-70169352D01*
X171425758Y-70207691D01*
X171424504Y-70211098D01*
X171430191Y-70256722D01*
X171506996Y-70271925D01*
X171587743Y-70269431D01*
X171715936Y-70260530D01*
X171793344Y-70253432D01*
X171799880Y-70252367D01*
X171783952Y-70219498D01*
X171714965Y-70147562D01*
X171713453Y-70146151D01*
X171627466Y-70088371D01*
X171758914Y-70088371D01*
X171790255Y-70131706D01*
X171904146Y-70146358D01*
X171953254Y-70146942D01*
X172078803Y-70141666D01*
X172148575Y-70128487D01*
X172153648Y-70123179D01*
X172113940Y-70086889D01*
X172016395Y-70028628D01*
X171996704Y-70018258D01*
X171884461Y-69969409D01*
X171823273Y-69974823D01*
X171797077Y-70004447D01*
X171758914Y-70088371D01*
X171627466Y-70088371D01*
X171615253Y-70080164D01*
X171495017Y-70066459D01*
X171403415Y-70077406D01*
X171257723Y-70088226D01*
X171202417Y-70059322D01*
X171201775Y-70053148D01*
X171158759Y-70011427D01*
X171070394Y-69996646D01*
X170982657Y-70006460D01*
X170980063Y-70044112D01*
X170739180Y-70044112D01*
X170806800Y-70038418D01*
X170825442Y-70000802D01*
X170804267Y-69952678D01*
X170741227Y-69890264D01*
X170689333Y-69864000D01*
X170883202Y-69864000D01*
X170937370Y-69892022D01*
X171031120Y-69896449D01*
X171073556Y-69892046D01*
X171301972Y-69892046D01*
X171319663Y-69963313D01*
X171390988Y-69992560D01*
X171480274Y-69996646D01*
X171594267Y-69984779D01*
X171630524Y-69953386D01*
X171627613Y-69946548D01*
X171646907Y-69910816D01*
X171743529Y-69896454D01*
X171745805Y-69896449D01*
X171882657Y-69886267D01*
X171975678Y-69865475D01*
X172027827Y-69834663D01*
X171999212Y-69792065D01*
X171967251Y-69766871D01*
X171858688Y-69710915D01*
X171756596Y-69696710D01*
X171691132Y-69723179D01*
X171686822Y-69776880D01*
X171693039Y-69825541D01*
X171645654Y-69839719D01*
X171523571Y-69824861D01*
X171509905Y-69822575D01*
X171378786Y-69805469D01*
X171318538Y-69819439D01*
X171302304Y-69873457D01*
X171301972Y-69892046D01*
X171073556Y-69892046D01*
X171145156Y-69884617D01*
X171200722Y-69855623D01*
X171201775Y-69850525D01*
X171162651Y-69792189D01*
X171139151Y-69779333D01*
X171138059Y-69761526D01*
X171217030Y-69750769D01*
X171235770Y-69750108D01*
X171374662Y-69722736D01*
X171475219Y-69665946D01*
X171597750Y-69609237D01*
X171681496Y-69617380D01*
X171814646Y-69631107D01*
X171869989Y-69589583D01*
X171842217Y-69496965D01*
X171839980Y-69493338D01*
X171768648Y-69425317D01*
X171685189Y-69396642D01*
X171624524Y-69412787D01*
X171615088Y-69458086D01*
X171580060Y-69504312D01*
X171455391Y-69520704D01*
X171452268Y-69520709D01*
X171332799Y-69505845D01*
X171277725Y-69468187D01*
X171276922Y-69462261D01*
X171248073Y-69376565D01*
X171239348Y-69366239D01*
X171215400Y-69384712D01*
X171202497Y-69477259D01*
X171201775Y-69512360D01*
X171186406Y-69642629D01*
X171125132Y-69700326D01*
X170995198Y-69703976D01*
X170969860Y-69701184D01*
X170913488Y-69737079D01*
X170886878Y-69795446D01*
X170883202Y-69864000D01*
X170689333Y-69864000D01*
X170646093Y-69842116D01*
X170554716Y-69820443D01*
X170502946Y-69837454D01*
X170500394Y-69849200D01*
X170318188Y-69849200D01*
X170272980Y-69732633D01*
X170241552Y-69661860D01*
X170209151Y-69547776D01*
X170214336Y-69484494D01*
X170411753Y-69484494D01*
X170419990Y-69580392D01*
X170428239Y-69614995D01*
X170483163Y-69718433D01*
X170580973Y-69746153D01*
X170672493Y-69728298D01*
X170700788Y-69696055D01*
X170660917Y-69646879D01*
X170638165Y-69642001D01*
X170605286Y-69630594D01*
X170641713Y-69611594D01*
X170657320Y-69574843D01*
X170581678Y-69520709D01*
X170800986Y-69520709D01*
X170821678Y-69616048D01*
X170903151Y-69645427D01*
X170926232Y-69645956D01*
X171020383Y-69628807D01*
X171051479Y-69595857D01*
X171009130Y-69556393D01*
X170941706Y-69545759D01*
X170865492Y-69541420D01*
X170876120Y-69513880D01*
X170929181Y-69472204D01*
X170994999Y-69417227D01*
X170975458Y-69399329D01*
X170913707Y-69397056D01*
X170827140Y-69419461D01*
X170801159Y-69507446D01*
X170800986Y-69520709D01*
X170581678Y-69520709D01*
X170576486Y-69516993D01*
X170571636Y-69514456D01*
X170457676Y-69465758D01*
X170411753Y-69484494D01*
X170214336Y-69484494D01*
X170214809Y-69478715D01*
X170230682Y-69448096D01*
X170260516Y-69422557D01*
X170316806Y-69399494D01*
X170412045Y-69376302D01*
X170482684Y-69363818D01*
X171914548Y-69363818D01*
X171951804Y-69426750D01*
X172026538Y-69447155D01*
X172097395Y-69452485D01*
X172085446Y-69479953D01*
X172031351Y-69522303D01*
X171973589Y-69578144D01*
X172002589Y-69596547D01*
X172006302Y-69596625D01*
X172051423Y-69605523D01*
X172009082Y-69642231D01*
X172003352Y-69645956D01*
X171983383Y-69676302D01*
X172049293Y-69691160D01*
X172153648Y-69693694D01*
X172287306Y-69690460D01*
X172335326Y-69676465D01*
X172312244Y-69643277D01*
X172281844Y-69619313D01*
X172223084Y-69564581D01*
X172225355Y-69545759D01*
X172234279Y-69515594D01*
X172210316Y-69478526D01*
X172178535Y-69405474D01*
X172187482Y-69378329D01*
X172181436Y-69348323D01*
X172159041Y-69345364D01*
X172121205Y-69316150D01*
X172128393Y-69295599D01*
X172111615Y-69261496D01*
X172035065Y-69256104D01*
X171942860Y-69294410D01*
X171914548Y-69363818D01*
X170482684Y-69363818D01*
X170558727Y-69350379D01*
X170761295Y-69320315D01*
X171502366Y-69320315D01*
X171527416Y-69345364D01*
X171552465Y-69320315D01*
X171527416Y-69295266D01*
X171502366Y-69320315D01*
X170761295Y-69320315D01*
X170769347Y-69319120D01*
X171056399Y-69279922D01*
X171364595Y-69239105D01*
X171365107Y-69239033D01*
X172303944Y-69239033D01*
X172343443Y-69291754D01*
X172366567Y-69296033D01*
X172392647Y-69313353D01*
X172354043Y-69345364D01*
X172307987Y-69384189D01*
X172355336Y-69394534D01*
X172366567Y-69394696D01*
X172440933Y-69374596D01*
X172454240Y-69351499D01*
X172419964Y-69286207D01*
X172379092Y-69245167D01*
X172316841Y-69211633D01*
X172303944Y-69239033D01*
X171365107Y-69239033D01*
X171712694Y-69190144D01*
X171964936Y-69147387D01*
X172125411Y-69109988D01*
X172198212Y-69077104D01*
X172203747Y-69066028D01*
X172248053Y-69019447D01*
X172358792Y-68978924D01*
X172404354Y-68969589D01*
X172522629Y-68939681D01*
X172569464Y-68911176D01*
X172721433Y-68911176D01*
X172728310Y-68940960D01*
X172754832Y-68944575D01*
X172796069Y-68926245D01*
X172791372Y-68917216D01*
X173857001Y-68917216D01*
X173866983Y-69046680D01*
X173899857Y-69200035D01*
X173960015Y-69389041D01*
X174051848Y-69625460D01*
X174179749Y-69921051D01*
X174348109Y-70287576D01*
X174447181Y-70497633D01*
X174500072Y-70626896D01*
X174524813Y-70723065D01*
X174525002Y-70735062D01*
X174545938Y-70775441D01*
X174564038Y-70769679D01*
X174603294Y-70782919D01*
X174608481Y-70812620D01*
X174629647Y-70905057D01*
X174680538Y-71028457D01*
X174680558Y-71028496D01*
X174751093Y-71176795D01*
X174805685Y-71299210D01*
X174863273Y-71423460D01*
X174904102Y-71499605D01*
X174946260Y-71579887D01*
X175015785Y-71722644D01*
X175098697Y-71899081D01*
X175110859Y-71925443D01*
X175196600Y-72108874D01*
X175311676Y-72351082D01*
X175441211Y-72620927D01*
X175570327Y-72887272D01*
X175573760Y-72894313D01*
X175695920Y-73141854D01*
X175785203Y-73312045D01*
X175851161Y-73418306D01*
X175903344Y-73474055D01*
X175951304Y-73492713D01*
X175997155Y-73489192D01*
X176076887Y-73483305D01*
X176069239Y-73515570D01*
X176065139Y-73519791D01*
X176016697Y-73625644D01*
X176033216Y-73748889D01*
X176098344Y-73857168D01*
X176195732Y-73918124D01*
X176266200Y-73917687D01*
X176337476Y-73881121D01*
X176351677Y-73803201D01*
X176341049Y-73734409D01*
X176296717Y-73606360D01*
X176236011Y-73523076D01*
X176179400Y-73464983D01*
X176160617Y-73418890D01*
X176190380Y-73415852D01*
X176201095Y-73421887D01*
X176251717Y-73401289D01*
X176325199Y-73319034D01*
X176338866Y-73299349D01*
X176416699Y-73206730D01*
X176480311Y-73170156D01*
X176487443Y-73171383D01*
X176558013Y-73154602D01*
X176611048Y-73111996D01*
X176656436Y-73056338D01*
X176623690Y-73057370D01*
X176591174Y-73069322D01*
X176528421Y-73086027D01*
X176546727Y-73046806D01*
X176560917Y-73029311D01*
X176635087Y-72980996D01*
X176675941Y-72985806D01*
X176705826Y-72987363D01*
X176697880Y-72969142D01*
X176710418Y-72908582D01*
X176775157Y-72828583D01*
X176858773Y-72761903D01*
X176927942Y-72741302D01*
X176929266Y-72741682D01*
X176948738Y-72723307D01*
X176940387Y-72705727D01*
X176953845Y-72647659D01*
X177007905Y-72604616D01*
X177121581Y-72531724D01*
X177174244Y-72489381D01*
X177275907Y-72411690D01*
X177340971Y-72370871D01*
X177418766Y-72309270D01*
X177439053Y-72270673D01*
X177474252Y-72201614D01*
X177556087Y-72110311D01*
X177648916Y-72031698D01*
X177714595Y-72000591D01*
X177760043Y-71960465D01*
X177764694Y-71931462D01*
X177802210Y-71868333D01*
X177900570Y-71769238D01*
X178038495Y-71655611D01*
X178038736Y-71655430D01*
X178138074Y-71574753D01*
X178265680Y-71574753D01*
X178290729Y-71599802D01*
X178315778Y-71574753D01*
X178290729Y-71549704D01*
X178265680Y-71574753D01*
X178138074Y-71574753D01*
X178186855Y-71535136D01*
X178305560Y-71423399D01*
X178366139Y-71348819D01*
X178437982Y-71269272D01*
X178492886Y-71249112D01*
X178558795Y-71220714D01*
X178549659Y-71162435D01*
X178503648Y-71128503D01*
X178495828Y-71117152D01*
X178561325Y-71130109D01*
X178645964Y-71140753D01*
X178657513Y-71100623D01*
X178649572Y-71076946D01*
X178640712Y-71019227D01*
X178658106Y-71018500D01*
X178715056Y-71006032D01*
X178782953Y-70943685D01*
X178828953Y-70869181D01*
X178826701Y-70824860D01*
X178835551Y-70811928D01*
X178874450Y-70823505D01*
X178954126Y-70808753D01*
X179016905Y-70720041D01*
X179037882Y-70635404D01*
X179081563Y-70595334D01*
X179092307Y-70593570D01*
X179178830Y-70558070D01*
X179236833Y-70491608D01*
X179238327Y-70440616D01*
X179248405Y-70407429D01*
X179274113Y-70408719D01*
X179333043Y-70381498D01*
X179343323Y-70347337D01*
X179368901Y-70234666D01*
X179385186Y-70193406D01*
X179379259Y-70101468D01*
X179312756Y-69939936D01*
X179218989Y-69767568D01*
X179126663Y-69597950D01*
X179062637Y-69457467D01*
X179037863Y-69370906D01*
X179039144Y-69360440D01*
X179027259Y-69322081D01*
X178981340Y-69331380D01*
X178926946Y-69336604D01*
X178933505Y-69309029D01*
X178923917Y-69249670D01*
X178885941Y-69224759D01*
X178827819Y-69157253D01*
X178831458Y-69094193D01*
X178836612Y-69025286D01*
X178817591Y-69019212D01*
X178773607Y-68994768D01*
X178712412Y-68903667D01*
X178692544Y-68864513D01*
X178614693Y-68722336D01*
X178534743Y-68607548D01*
X178524224Y-68595605D01*
X178457361Y-68509121D01*
X178360098Y-68366242D01*
X178252802Y-68196958D01*
X178246580Y-68186764D01*
X178014095Y-67808282D01*
X177776902Y-67428126D01*
X177543464Y-67059392D01*
X177322245Y-66715175D01*
X177121706Y-66408570D01*
X176950311Y-66152673D01*
X176816522Y-65960579D01*
X176751555Y-65873350D01*
X176665241Y-65763313D01*
X176461144Y-65988757D01*
X176218755Y-66258021D01*
X176022392Y-66480015D01*
X175849463Y-66680478D01*
X175735700Y-66815275D01*
X175589732Y-66988492D01*
X175435734Y-67169621D01*
X175357709Y-67260611D01*
X175224443Y-67417117D01*
X175092516Y-67574946D01*
X175044593Y-67633330D01*
X174963169Y-67725063D01*
X174914731Y-67763411D01*
X174908885Y-67758577D01*
X174886467Y-67770054D01*
X174830317Y-67847903D01*
X174802383Y-67892504D01*
X174695480Y-68046920D01*
X174610853Y-68115065D01*
X174540509Y-68106902D01*
X174516805Y-68110680D01*
X174527419Y-68133429D01*
X174519350Y-68201560D01*
X174458757Y-68291147D01*
X174375577Y-68366727D01*
X174307889Y-68393490D01*
X174259167Y-68422869D01*
X174257790Y-68431771D01*
X174216152Y-68473101D01*
X174111335Y-68532083D01*
X174057396Y-68556869D01*
X173942414Y-68611250D01*
X173882827Y-68667340D01*
X173860426Y-68757879D01*
X173857001Y-68915612D01*
X173857001Y-68917216D01*
X172791372Y-68917216D01*
X172790538Y-68915612D01*
X172788231Y-68911176D01*
X172728775Y-68905180D01*
X172721433Y-68911176D01*
X172569464Y-68911176D01*
X172579245Y-68905223D01*
X172579086Y-68893829D01*
X172596649Y-68848967D01*
X172641496Y-68828932D01*
X172689149Y-68810726D01*
X172641589Y-68801394D01*
X172620017Y-68800091D01*
X172518563Y-68816800D01*
X172477786Y-68846811D01*
X172421398Y-68869309D01*
X172374632Y-68840676D01*
X172314987Y-68811783D01*
X172303944Y-68834069D01*
X172343358Y-68897579D01*
X172366567Y-68910245D01*
X172376372Y-68926784D01*
X172321973Y-68929223D01*
X172246464Y-68903304D01*
X172236907Y-68866356D01*
X172220435Y-68835195D01*
X172128506Y-68831041D01*
X171993434Y-68846381D01*
X171820255Y-68870117D01*
X171588522Y-68900712D01*
X171339127Y-68932795D01*
X171251873Y-68943803D01*
X170972687Y-68979895D01*
X170652461Y-69022936D01*
X170349256Y-69065087D01*
X170274950Y-69075715D01*
X170011596Y-69112468D01*
X169694062Y-69154955D01*
X169367681Y-69197184D01*
X169147731Y-69224671D01*
X168834969Y-69262948D01*
X168608296Y-69292600D01*
X168454484Y-69318246D01*
X168360304Y-69344502D01*
X168312527Y-69375986D01*
X168297924Y-69417313D01*
X168303267Y-69473102D01*
X168310762Y-69516785D01*
X168359555Y-69766514D01*
X168421709Y-70011063D01*
X168490431Y-70230103D01*
X168558927Y-70403306D01*
X168620400Y-70510343D01*
X168650863Y-70534292D01*
X168711071Y-70569817D01*
X168705460Y-70647999D01*
X168693695Y-70681259D01*
X168652917Y-70813344D01*
X168667110Y-70872882D01*
X168743188Y-70875247D01*
X168777467Y-70867521D01*
X168865397Y-70852565D01*
X168891082Y-70886673D01*
X168873683Y-70991813D01*
X168859708Y-71110431D01*
X168893005Y-71142488D01*
X168979131Y-71090738D01*
X169013880Y-71061242D01*
X169084367Y-71004422D01*
X169098154Y-71024806D01*
X169081132Y-71098816D01*
X169056003Y-71216703D01*
X169048218Y-71281996D01*
X169008014Y-71318516D01*
X168947337Y-71313726D01*
X168866092Y-71272817D01*
X168847139Y-71240312D01*
X168816666Y-71214733D01*
X168801078Y-71221567D01*
X168757539Y-71198747D01*
X168708301Y-71106233D01*
X168698458Y-71078658D01*
X168615903Y-70925084D01*
X168502824Y-70852254D01*
X168467302Y-70848323D01*
X168445344Y-70887262D01*
X168452740Y-70972864D01*
X168482789Y-71058305D01*
X168500914Y-71083242D01*
X168538130Y-71164222D01*
X168565899Y-71301664D01*
X168571391Y-71356279D01*
X168583996Y-71515986D01*
X168597546Y-71587139D01*
X168621042Y-71581057D01*
X168663485Y-71509059D01*
X168675400Y-71487080D01*
X168749559Y-71381877D01*
X168808143Y-71353226D01*
X168836336Y-71405731D01*
X168836702Y-71436982D01*
X168847991Y-71511795D01*
X168881454Y-71664219D01*
X168932202Y-71875390D01*
X168995344Y-72126444D01*
X169065991Y-72398518D01*
X169139254Y-72672750D01*
X169210244Y-72930275D01*
X169274070Y-73152231D01*
X169320430Y-73303155D01*
X169361843Y-73442079D01*
X169419333Y-73649267D01*
X169485007Y-73895697D01*
X169545277Y-74129782D01*
X169611299Y-74386666D01*
X169675939Y-74630747D01*
X169731404Y-74833017D01*
X169767369Y-74956410D01*
X169814266Y-75092558D01*
X169863512Y-75156740D01*
X169946020Y-75173027D01*
X170040139Y-75168819D01*
X170172116Y-75167730D01*
X170235047Y-75196279D01*
X170258801Y-75268146D01*
X170258925Y-75269016D01*
X170293786Y-75352419D01*
X170384544Y-75374088D01*
X170412772Y-75372816D01*
X170512416Y-75382403D01*
X170550492Y-75416076D01*
X170507193Y-75447225D01*
X170397494Y-75446307D01*
X170395061Y-75445956D01*
X170239629Y-75423143D01*
X170271645Y-75623361D01*
X170300094Y-75764515D01*
X170330711Y-75864766D01*
X170337558Y-75878425D01*
X170357537Y-75965233D01*
X170356288Y-76077868D01*
X170370243Y-76211320D01*
X170452161Y-76278996D01*
X170609259Y-76285860D01*
X170650690Y-76280317D01*
X170757182Y-76267800D01*
X170776346Y-76280098D01*
X170737499Y-76309167D01*
X170629626Y-76342647D01*
X170482124Y-76350940D01*
X170461956Y-76349619D01*
X170341649Y-76332660D01*
X170285417Y-76287876D01*
X170264254Y-76184130D01*
X170260119Y-76132948D01*
X170246958Y-76023955D01*
X170213041Y-75949935D01*
X170137072Y-75888217D01*
X169997752Y-75816132D01*
X169934478Y-75786314D01*
X169624465Y-75639242D01*
X169338865Y-75500015D01*
X169092555Y-75376177D01*
X168900410Y-75275276D01*
X168777307Y-75204855D01*
X168746942Y-75183962D01*
X168655964Y-75124346D01*
X168519482Y-75048886D01*
X168471400Y-75024592D01*
X168353237Y-74963962D01*
X168170280Y-74867114D01*
X167945435Y-74746293D01*
X167701605Y-74613746D01*
X167644773Y-74582629D01*
X167290703Y-74389822D01*
X167014403Y-74242738D01*
X166806843Y-74137038D01*
X166658995Y-74068387D01*
X166561833Y-74032445D01*
X166506329Y-74024877D01*
X166493004Y-74029276D01*
X166436151Y-74015615D01*
X166401734Y-73973061D01*
X166338106Y-73921185D01*
X166234119Y-73881946D01*
X166126969Y-73863476D01*
X166053853Y-73873909D01*
X166041617Y-73894323D01*
X166073332Y-73950387D01*
X166154377Y-74050511D01*
X166216962Y-74119461D01*
X166335669Y-74251432D01*
X166383622Y-74324165D01*
X166363865Y-74346197D01*
X166292110Y-74330177D01*
X166210393Y-74325192D01*
X166199054Y-74370157D01*
X166258141Y-74443652D01*
X166291791Y-74469601D01*
X166364352Y-74535939D01*
X166348945Y-74567279D01*
X166252201Y-74561646D01*
X166106153Y-74524871D01*
X165927163Y-74475971D01*
X165827961Y-74460031D01*
X165813575Y-74477086D01*
X165882186Y-74523399D01*
X165959825Y-74576047D01*
X165954838Y-74620268D01*
X165918194Y-74654304D01*
X165847142Y-74692063D01*
X165786698Y-74649413D01*
X165768605Y-74625757D01*
X165700730Y-74568003D01*
X165657527Y-74572320D01*
X165655654Y-74631905D01*
X165691005Y-74673258D01*
X165778012Y-74754956D01*
X165866272Y-74852155D01*
X165966469Y-74971707D01*
X165816173Y-74942517D01*
X165676804Y-74909943D01*
X165578204Y-74879410D01*
X165505123Y-74874520D01*
X165490532Y-74900951D01*
X165532304Y-74946435D01*
X165587772Y-74956410D01*
X165704041Y-75000522D01*
X165768795Y-75122746D01*
X165772757Y-75144279D01*
X165747636Y-75197736D01*
X165666770Y-75200292D01*
X165558393Y-75155707D01*
X165490532Y-75106705D01*
X165473285Y-75094728D01*
X165612458Y-75094728D01*
X165661702Y-75102750D01*
X165726681Y-75093539D01*
X165727457Y-75076438D01*
X165660405Y-75064478D01*
X165631434Y-75072482D01*
X165612458Y-75094728D01*
X165473285Y-75094728D01*
X165386868Y-75034718D01*
X165307521Y-75006508D01*
X165244836Y-75034100D01*
X165253037Y-75103254D01*
X165324295Y-75193538D01*
X165402859Y-75255307D01*
X165498012Y-75321647D01*
X165512558Y-75344482D01*
X165451108Y-75333005D01*
X165440433Y-75330183D01*
X165317672Y-75287333D01*
X165159395Y-75219837D01*
X165102621Y-75193007D01*
X164971358Y-75138284D01*
X164879040Y-75116902D01*
X164857514Y-75121841D01*
X164858502Y-75178678D01*
X164908373Y-75253178D01*
X164975639Y-75303168D01*
X164995828Y-75307100D01*
X165051881Y-75328854D01*
X165153350Y-75383369D01*
X165273891Y-75454526D01*
X165387164Y-75526203D01*
X165466826Y-75582283D01*
X165486533Y-75606644D01*
X165485483Y-75606740D01*
X165395685Y-75588426D01*
X165267963Y-75542090D01*
X165146435Y-75485962D01*
X165075218Y-75438275D01*
X165073937Y-75436665D01*
X165055000Y-75434771D01*
X165067193Y-75502548D01*
X165081834Y-75586644D01*
X165044198Y-75597641D01*
X165007852Y-75584537D01*
X164852305Y-75532285D01*
X164756883Y-75522060D01*
X164732035Y-75549665D01*
X164788211Y-75610905D01*
X164845156Y-75649852D01*
X164910406Y-75719550D01*
X164890841Y-75772577D01*
X164801650Y-75786016D01*
X164760205Y-75778035D01*
X164682313Y-75712696D01*
X164615500Y-75580965D01*
X164570580Y-75416647D01*
X164558371Y-75253547D01*
X164568739Y-75179641D01*
X164577674Y-75089128D01*
X164522797Y-75058731D01*
X164470514Y-75056607D01*
X164378326Y-75072791D01*
X164368837Y-75127932D01*
X164370245Y-75131755D01*
X164368041Y-75196096D01*
X164343624Y-75206903D01*
X164290690Y-75175822D01*
X164288165Y-75162647D01*
X164246651Y-75115263D01*
X164193203Y-75093558D01*
X164130167Y-75088348D01*
X164120845Y-75137282D01*
X164139475Y-75212503D01*
X164155916Y-75328683D01*
X164112173Y-75395407D01*
X164096667Y-75405315D01*
X164054004Y-75439783D01*
X164095722Y-75453801D01*
X164156528Y-75455872D01*
X164252106Y-75464078D01*
X164263623Y-75496416D01*
X164235176Y-75536027D01*
X164131397Y-75590653D01*
X164066221Y-75583842D01*
X163906344Y-75545930D01*
X163788301Y-75535888D01*
X163737488Y-75555631D01*
X163737080Y-75559051D01*
X163779449Y-75597977D01*
X163862033Y-75628191D01*
X163951021Y-75672214D01*
X163974755Y-75721294D01*
X164005479Y-75766198D01*
X164075246Y-75771103D01*
X164168832Y-75783394D01*
X164178246Y-75835011D01*
X164100295Y-75904993D01*
X164044830Y-75946668D01*
X164076584Y-75973590D01*
X164125345Y-75988474D01*
X164212822Y-76026965D01*
X164238066Y-76057609D01*
X164275770Y-76105441D01*
X164371818Y-76185516D01*
X164440355Y-76235237D01*
X164566249Y-76339437D01*
X164602934Y-76408071D01*
X164557173Y-76434352D01*
X164435734Y-76411488D01*
X164312167Y-76363869D01*
X164163025Y-76303481D01*
X164045095Y-76265565D01*
X164006254Y-76258974D01*
X163946712Y-76293469D01*
X163947904Y-76373124D01*
X163997593Y-76449348D01*
X164026962Y-76497935D01*
X163972544Y-76509467D01*
X163909961Y-76461986D01*
X163876949Y-76321468D01*
X163874132Y-76090800D01*
X163875658Y-76060661D01*
X163854881Y-75945915D01*
X163795872Y-75855561D01*
X163722905Y-75823783D01*
X163709793Y-75827062D01*
X163630578Y-75823883D01*
X163609976Y-75805081D01*
X163549801Y-75778513D01*
X163533224Y-75785176D01*
X163489239Y-75785391D01*
X163486488Y-75773469D01*
X163442771Y-75741919D01*
X163337631Y-75722533D01*
X163336192Y-75722430D01*
X163225646Y-75729975D01*
X163188203Y-75781437D01*
X163187589Y-75797578D01*
X163235684Y-75940125D01*
X163355502Y-76045169D01*
X163438452Y-76074952D01*
X163466536Y-76087935D01*
X163407146Y-76093441D01*
X163323767Y-76091985D01*
X163162129Y-76092559D01*
X163096717Y-76112494D01*
X163124870Y-76155003D01*
X163223569Y-76212934D01*
X163337444Y-76282143D01*
X163447479Y-76365020D01*
X163532385Y-76442705D01*
X163570873Y-76496335D01*
X163558274Y-76509467D01*
X163480457Y-76481666D01*
X163408490Y-76435912D01*
X163271092Y-76367157D01*
X163159506Y-76392811D01*
X163106338Y-76446844D01*
X163058840Y-76504009D01*
X163056410Y-76474080D01*
X163066724Y-76430819D01*
X163052791Y-76312029D01*
X163012986Y-76260913D01*
X162955922Y-76221063D01*
X162956581Y-76254763D01*
X162963844Y-76274538D01*
X162976354Y-76367515D01*
X162948866Y-76425516D01*
X162901049Y-76422550D01*
X162875982Y-76390654D01*
X162811253Y-76320454D01*
X162754168Y-76319857D01*
X162735108Y-76374156D01*
X162779113Y-76432867D01*
X162888966Y-76492566D01*
X163031422Y-76539398D01*
X163173238Y-76559510D01*
X163179984Y-76559565D01*
X163254921Y-76541624D01*
X163261143Y-76509467D01*
X163253747Y-76464137D01*
X163299082Y-76467135D01*
X163365782Y-76512311D01*
X163385898Y-76533923D01*
X163416617Y-76590213D01*
X163388155Y-76627758D01*
X163287581Y-76652005D01*
X163101964Y-76668395D01*
X163060749Y-76670807D01*
X162898493Y-76690083D01*
X162827579Y-76726118D01*
X162823675Y-76750119D01*
X162802567Y-76835332D01*
X162761052Y-76891469D01*
X162694723Y-76980199D01*
X162712777Y-77047192D01*
X162821804Y-77112621D01*
X162835305Y-77118681D01*
X162943661Y-77180235D01*
X162986278Y-77232555D01*
X162952310Y-77259862D01*
X162933082Y-77260946D01*
X162859195Y-77240547D01*
X162733965Y-77189078D01*
X162673179Y-77160749D01*
X162523787Y-77099560D01*
X162395542Y-77065191D01*
X162362483Y-77062353D01*
X162304793Y-77070452D01*
X162314007Y-77102920D01*
X162396484Y-77176675D01*
X162409467Y-77187351D01*
X162522118Y-77267385D01*
X162610122Y-77309097D01*
X162622386Y-77310796D01*
X162680605Y-77341723D01*
X162685009Y-77359571D01*
X162721522Y-77387647D01*
X162757490Y-77380284D01*
X162802539Y-77374516D01*
X162794313Y-77425975D01*
X162770015Y-77481404D01*
X162722905Y-77559373D01*
X162695863Y-77543179D01*
X162693389Y-77533391D01*
X162659846Y-77485987D01*
X162571924Y-77475413D01*
X162467945Y-77486701D01*
X162242161Y-77485995D01*
X161976315Y-77418505D01*
X161971849Y-77416956D01*
X161792006Y-77354362D01*
X162058776Y-77354362D01*
X162171498Y-77357753D01*
X162259557Y-77379315D01*
X162284220Y-77411242D01*
X162322344Y-77459885D01*
X162334319Y-77461341D01*
X162382431Y-77432573D01*
X162383650Y-77423767D01*
X162358994Y-77352801D01*
X162337343Y-77314222D01*
X162281430Y-77268870D01*
X162190349Y-77291257D01*
X162175289Y-77298307D01*
X162058776Y-77354362D01*
X161792006Y-77354362D01*
X161684527Y-77316954D01*
X161705450Y-77476820D01*
X161721027Y-77599196D01*
X161729668Y-77673315D01*
X161729754Y-77674260D01*
X161773876Y-77707732D01*
X161808283Y-77711834D01*
X161874905Y-77741887D01*
X161883431Y-77767618D01*
X161868450Y-77795942D01*
X161811998Y-77802374D01*
X161696814Y-77785498D01*
X161505637Y-77743897D01*
X161457593Y-77732680D01*
X161307297Y-77697357D01*
X161427343Y-77796154D01*
X161507839Y-77883582D01*
X161508566Y-77961925D01*
X161498727Y-77981904D01*
X161452863Y-78040912D01*
X161403895Y-78012462D01*
X161385072Y-77990542D01*
X161284842Y-77927161D01*
X161205141Y-77912228D01*
X161106153Y-77888170D01*
X161067838Y-77849605D01*
X161024419Y-77815108D01*
X161004089Y-77825681D01*
X161010692Y-77878571D01*
X161080500Y-77958538D01*
X161097956Y-77973210D01*
X161245284Y-78074710D01*
X161388915Y-78146066D01*
X161502923Y-78176797D01*
X161559587Y-78159815D01*
X161629818Y-78117417D01*
X161667079Y-78112623D01*
X161718117Y-78123788D01*
X161694351Y-78173994D01*
X161676646Y-78196081D01*
X161638570Y-78252341D01*
X161671288Y-78261557D01*
X161745660Y-78245225D01*
X161879949Y-78230887D01*
X162012658Y-78244824D01*
X162108156Y-78280403D01*
X162133924Y-78317494D01*
X162091477Y-78360876D01*
X162008678Y-78392642D01*
X161904299Y-78435974D01*
X161898239Y-78483518D01*
X161989338Y-78527490D01*
X162030265Y-78537701D01*
X162157108Y-78584477D01*
X162236794Y-78641878D01*
X162322006Y-78703723D01*
X162365503Y-78713806D01*
X162428147Y-78742196D01*
X162434516Y-78762618D01*
X162479170Y-78829263D01*
X162592009Y-78891942D01*
X162741347Y-78938598D01*
X162895499Y-78957175D01*
X162940688Y-78955218D01*
X163052905Y-78951441D01*
X163100188Y-78964245D01*
X163097017Y-78971769D01*
X163025149Y-79001816D01*
X162910453Y-79023067D01*
X162801525Y-79052212D01*
X162773342Y-79114757D01*
X162774878Y-79127120D01*
X162775787Y-79197821D01*
X162736983Y-79201816D01*
X162648050Y-79135933D01*
X162569570Y-79064618D01*
X162421349Y-78946049D01*
X162261363Y-78846421D01*
X162234122Y-78832954D01*
X162084112Y-78749753D01*
X161955415Y-78657135D01*
X161947362Y-78649983D01*
X161867390Y-78583552D01*
X161827728Y-78584640D01*
X161800578Y-78640674D01*
X161795968Y-78726936D01*
X161824319Y-78752551D01*
X161880887Y-78810441D01*
X161884533Y-78830703D01*
X161923922Y-78888820D01*
X162024011Y-78975836D01*
X162113353Y-79039447D01*
X162291847Y-79172892D01*
X162387007Y-79276844D01*
X162400321Y-79343630D01*
X162333276Y-79365581D01*
X162187361Y-79335025D01*
X162064895Y-79289268D01*
X161949563Y-79244408D01*
X161884625Y-79225573D01*
X161879708Y-79226645D01*
X161869455Y-79280026D01*
X161854519Y-79365088D01*
X161846897Y-79443807D01*
X161869912Y-79433291D01*
X161882524Y-79415187D01*
X161927178Y-79379511D01*
X161944211Y-79431989D01*
X161941215Y-79472553D01*
X161976051Y-79518041D01*
X162068368Y-79593251D01*
X162110285Y-79622849D01*
X162222933Y-79717146D01*
X162280823Y-79801035D01*
X162274260Y-79855469D01*
X162234122Y-79866074D01*
X162185408Y-79835616D01*
X162184023Y-79826350D01*
X162140575Y-79790349D01*
X162027940Y-79737649D01*
X161905312Y-79691890D01*
X161746049Y-79626422D01*
X161625675Y-79556241D01*
X161580992Y-79511933D01*
X161499540Y-79434522D01*
X161409204Y-79395043D01*
X161302455Y-79353110D01*
X161604568Y-79353110D01*
X161653813Y-79361133D01*
X161718791Y-79351922D01*
X161719567Y-79334820D01*
X161652516Y-79322861D01*
X161623545Y-79330865D01*
X161604568Y-79353110D01*
X161302455Y-79353110D01*
X161295123Y-79350230D01*
X161141419Y-79270265D01*
X161047384Y-79213935D01*
X160905427Y-79130935D01*
X160830024Y-79095063D01*
X161157615Y-79095063D01*
X161207100Y-79164694D01*
X161295442Y-79230514D01*
X161393498Y-79264206D01*
X161465826Y-79257704D01*
X161482251Y-79227317D01*
X161441336Y-79183262D01*
X161361962Y-79136688D01*
X161582840Y-79136688D01*
X161599350Y-79209072D01*
X161642730Y-79187373D01*
X161655848Y-79168155D01*
X161649565Y-79103812D01*
X161633755Y-79090051D01*
X161590187Y-79100935D01*
X161582840Y-79136688D01*
X161361962Y-79136688D01*
X161346428Y-79127573D01*
X161238307Y-79081131D01*
X161164298Y-79064496D01*
X161157615Y-79095063D01*
X160830024Y-79095063D01*
X160791371Y-79076674D01*
X160746404Y-79064496D01*
X160686290Y-79033975D01*
X160681064Y-79014398D01*
X160640487Y-78969951D01*
X160605917Y-78964299D01*
X160534263Y-78987977D01*
X160537632Y-79047658D01*
X160606033Y-79126313D01*
X160729477Y-79206914D01*
X160755861Y-79219888D01*
X160879496Y-79288169D01*
X160948539Y-79346613D01*
X160953933Y-79369414D01*
X160893196Y-79386819D01*
X160841562Y-79369907D01*
X160625088Y-79269761D01*
X160486602Y-79227311D01*
X160427401Y-79242031D01*
X160448776Y-79313396D01*
X160552021Y-79440877D01*
X160584169Y-79474672D01*
X160698429Y-79588509D01*
X160766930Y-79638193D01*
X160812076Y-79633006D01*
X160853373Y-79586213D01*
X160901028Y-79532039D01*
X160931744Y-79548407D01*
X160963986Y-79648128D01*
X160968840Y-79666325D01*
X161017909Y-79789273D01*
X161085769Y-79830586D01*
X161111122Y-79829958D01*
X161162532Y-79831898D01*
X161144477Y-79846658D01*
X161088189Y-79890977D01*
X161113958Y-79946009D01*
X161227650Y-80021707D01*
X161257199Y-80037916D01*
X161382254Y-80125164D01*
X161428186Y-80201420D01*
X161392110Y-80252861D01*
X161304958Y-80266863D01*
X161218742Y-80271809D01*
X161210282Y-80304345D01*
X161266776Y-80385388D01*
X161334612Y-80462875D01*
X161380885Y-80463791D01*
X161417818Y-80422962D01*
X161466059Y-80368636D01*
X161480124Y-80396648D01*
X161481049Y-80421987D01*
X161504346Y-80526644D01*
X161558226Y-80651291D01*
X161623607Y-80759822D01*
X161681412Y-80816130D01*
X161690285Y-80817948D01*
X161762827Y-80850049D01*
X161817914Y-80895569D01*
X161861696Y-80947140D01*
X161832542Y-80955928D01*
X161751712Y-80938897D01*
X161620656Y-80880243D01*
X161484448Y-80780367D01*
X161464173Y-80761078D01*
X161350949Y-80669061D01*
X161249534Y-80620035D01*
X161230380Y-80617554D01*
X161140969Y-80587159D01*
X161115033Y-80554930D01*
X161096349Y-80551197D01*
X161085954Y-80628376D01*
X161085809Y-80633035D01*
X161067612Y-80728198D01*
X161028796Y-80740972D01*
X160992217Y-80670782D01*
X160990184Y-80597954D01*
X160962178Y-80470532D01*
X160864992Y-80345940D01*
X160725355Y-80256016D01*
X160693589Y-80244654D01*
X160602484Y-80183994D01*
X160584784Y-80101291D01*
X160634970Y-80038945D01*
X160700272Y-80049131D01*
X160761587Y-80109038D01*
X160842688Y-80178590D01*
X160906592Y-80184751D01*
X160950611Y-80154688D01*
X161103582Y-80154688D01*
X161152826Y-80162711D01*
X161217805Y-80153500D01*
X161218581Y-80136398D01*
X161151529Y-80124439D01*
X161122559Y-80132443D01*
X161103582Y-80154688D01*
X160950611Y-80154688D01*
X160953203Y-80152918D01*
X160921915Y-80100185D01*
X160905221Y-80083074D01*
X160844000Y-79993486D01*
X160831360Y-79945074D01*
X160795874Y-79866517D01*
X160705234Y-79752027D01*
X160583169Y-79627452D01*
X160453408Y-79518643D01*
X160415992Y-79492588D01*
X160350473Y-79437033D01*
X160313785Y-79359852D01*
X160297186Y-79232418D01*
X160292694Y-79088825D01*
X160296039Y-78939250D01*
X161081853Y-78939250D01*
X161106903Y-78964299D01*
X161131952Y-78939250D01*
X161106903Y-78914201D01*
X161081853Y-78939250D01*
X160296039Y-78939250D01*
X160296533Y-78917183D01*
X160312501Y-78813371D01*
X160334927Y-78791768D01*
X160359786Y-78852075D01*
X160353284Y-78867564D01*
X160360670Y-78911190D01*
X160377516Y-78914201D01*
X160420612Y-78872269D01*
X160430571Y-78814003D01*
X160398718Y-78731962D01*
X160354287Y-78713806D01*
X160340150Y-78705458D01*
X160327870Y-78676170D01*
X160318424Y-78625467D01*
X160702605Y-78625467D01*
X160712269Y-78678106D01*
X160773865Y-78769267D01*
X160786590Y-78784310D01*
X160889651Y-78884079D01*
X160958813Y-78913195D01*
X160981656Y-78872835D01*
X160949469Y-78811536D01*
X160916031Y-78775829D01*
X161081853Y-78775829D01*
X161127295Y-78861198D01*
X161257316Y-78907288D01*
X161361493Y-78914201D01*
X161453666Y-78931877D01*
X161482642Y-78964299D01*
X161502000Y-79013085D01*
X161507692Y-79014398D01*
X161529966Y-78973526D01*
X161532741Y-78939250D01*
X161488744Y-78879090D01*
X161398915Y-78864102D01*
X161260958Y-78833290D01*
X161173471Y-78781189D01*
X161105593Y-78727877D01*
X161083324Y-78745479D01*
X161081853Y-78775829D01*
X160916031Y-78775829D01*
X160873874Y-78730812D01*
X160786320Y-78658541D01*
X160718258Y-78622602D01*
X160702605Y-78625467D01*
X160318424Y-78625467D01*
X160317326Y-78619572D01*
X160308399Y-78529297D01*
X160301004Y-78399555D01*
X161009931Y-78399555D01*
X161035456Y-78442724D01*
X161097300Y-78506347D01*
X161111265Y-78482797D01*
X161096517Y-78413778D01*
X161057240Y-78345969D01*
X161023626Y-78343090D01*
X161009931Y-78399555D01*
X160301004Y-78399555D01*
X160300971Y-78398976D01*
X160297456Y-78296271D01*
X161181693Y-78296271D01*
X161194157Y-78369618D01*
X161246829Y-78442865D01*
X161269723Y-78459300D01*
X161324015Y-78499593D01*
X161289556Y-78513302D01*
X161282248Y-78513690D01*
X161261610Y-78540639D01*
X161325222Y-78612817D01*
X161357396Y-78640211D01*
X161498013Y-78736061D01*
X161592494Y-78758877D01*
X161632231Y-78707014D01*
X161632938Y-78692854D01*
X161650687Y-78578798D01*
X161658463Y-78555083D01*
X161631716Y-78501563D01*
X161544233Y-78425579D01*
X161426034Y-78347130D01*
X161307139Y-78286210D01*
X161219625Y-78262779D01*
X161181693Y-78296271D01*
X160297456Y-78296271D01*
X160294922Y-78222241D01*
X160291590Y-78062524D01*
X160401997Y-78062524D01*
X160402337Y-78099343D01*
X160430571Y-78162721D01*
X160482309Y-78241454D01*
X160509245Y-78262918D01*
X160508904Y-78226099D01*
X160480670Y-78162721D01*
X160464210Y-78137672D01*
X161031755Y-78137672D01*
X161056804Y-78162721D01*
X161081853Y-78137672D01*
X161056804Y-78112623D01*
X161031755Y-78137672D01*
X160464210Y-78137672D01*
X160428933Y-78083989D01*
X160401997Y-78062524D01*
X160291590Y-78062524D01*
X160290134Y-77992723D01*
X160286488Y-77704055D01*
X160286360Y-77686784D01*
X161232149Y-77686784D01*
X161257199Y-77711834D01*
X161282248Y-77686784D01*
X161257199Y-77661735D01*
X161232149Y-77686784D01*
X160286360Y-77686784D01*
X160284231Y-77399408D01*
X161232149Y-77399408D01*
X161274732Y-77482365D01*
X161394970Y-77511439D01*
X161465042Y-77485549D01*
X161470368Y-77448816D01*
X161419434Y-77398987D01*
X161333661Y-77369923D01*
X161257121Y-77370766D01*
X161232149Y-77399408D01*
X160284231Y-77399408D01*
X160283864Y-77349867D01*
X160282568Y-77028846D01*
X161948536Y-77028846D01*
X161952255Y-77083920D01*
X162005807Y-77139796D01*
X162112713Y-77200983D01*
X162171492Y-77199945D01*
X162172691Y-77151803D01*
X162115491Y-77073986D01*
X162028471Y-77023309D01*
X161955051Y-77023592D01*
X161948536Y-77028846D01*
X160282568Y-77028846D01*
X160282190Y-76935305D01*
X161883431Y-76935305D01*
X161908481Y-76960354D01*
X161933530Y-76935305D01*
X161918509Y-76920284D01*
X162329284Y-76920284D01*
X162338115Y-76933094D01*
X162424914Y-76943868D01*
X162479580Y-76946854D01*
X162606851Y-76945224D01*
X162678926Y-76931301D01*
X162685009Y-76924071D01*
X162648123Y-76852209D01*
X162565165Y-76769921D01*
X162477691Y-76715375D01*
X162451801Y-76709861D01*
X162396380Y-76751431D01*
X162384418Y-76805884D01*
X162359521Y-76894368D01*
X162329284Y-76920284D01*
X161918509Y-76920284D01*
X161908481Y-76910256D01*
X161883431Y-76935305D01*
X160282190Y-76935305D01*
X160282144Y-76923791D01*
X160281561Y-76609664D01*
X162033727Y-76609664D01*
X162071851Y-76658307D01*
X162083826Y-76659763D01*
X162132469Y-76621639D01*
X162133924Y-76609664D01*
X162095801Y-76561021D01*
X162083826Y-76559565D01*
X162035183Y-76597689D01*
X162033727Y-76609664D01*
X160281561Y-76609664D01*
X160281329Y-76484418D01*
X162083826Y-76484418D01*
X162108875Y-76509467D01*
X162133924Y-76484418D01*
X162108875Y-76459368D01*
X162083826Y-76484418D01*
X160281329Y-76484418D01*
X160281208Y-76419460D01*
X160281165Y-76325772D01*
X162601512Y-76325772D01*
X162608389Y-76355555D01*
X162634911Y-76359171D01*
X162676147Y-76340841D01*
X162668310Y-76325772D01*
X162608854Y-76319776D01*
X162601512Y-76325772D01*
X160281165Y-76325772D01*
X160281077Y-76132242D01*
X162756145Y-76132242D01*
X162760157Y-76158776D01*
X162803009Y-76206518D01*
X162810256Y-76208875D01*
X162850086Y-76173933D01*
X162860354Y-76158776D01*
X162848458Y-76116333D01*
X162810256Y-76108678D01*
X162756145Y-76132242D01*
X160281077Y-76132242D01*
X160280939Y-75830504D01*
X160281004Y-75670315D01*
X162785974Y-75670315D01*
X162801129Y-75770281D01*
X162835305Y-75808086D01*
X162881355Y-75768604D01*
X162884637Y-75745463D01*
X162858360Y-75650717D01*
X162835305Y-75607692D01*
X162800582Y-75573803D01*
X162787087Y-75626476D01*
X162785974Y-75670315D01*
X160281004Y-75670315D01*
X160281216Y-75150556D01*
X160281484Y-74816849D01*
X160281639Y-74657919D01*
X164933205Y-74657919D01*
X165005577Y-74769638D01*
X165112387Y-74873617D01*
X165193837Y-74900164D01*
X165236644Y-74847046D01*
X165240039Y-74809070D01*
X165215598Y-74712185D01*
X165186982Y-74679039D01*
X165152290Y-74609813D01*
X165149408Y-74517633D01*
X165137707Y-74409080D01*
X165097010Y-74366195D01*
X165051955Y-74373905D01*
X165062812Y-74449496D01*
X165069709Y-74534480D01*
X165020928Y-74555621D01*
X164934055Y-74581265D01*
X164933205Y-74657919D01*
X160281639Y-74657919D01*
X160282074Y-74213971D01*
X165495141Y-74213971D01*
X165531034Y-74248753D01*
X165540631Y-74255029D01*
X165616016Y-74298774D01*
X165639253Y-74285764D01*
X165640828Y-74255029D01*
X165599520Y-74212922D01*
X165553155Y-74205697D01*
X165495141Y-74213971D01*
X160282074Y-74213971D01*
X160282185Y-74100257D01*
X160282300Y-74015488D01*
X165741792Y-74015488D01*
X165753530Y-74143107D01*
X165792019Y-74180614D01*
X165803956Y-74177637D01*
X165845282Y-74108218D01*
X165850206Y-73946043D01*
X165848494Y-73922232D01*
X165826957Y-73791747D01*
X165796721Y-73752045D01*
X165766758Y-73795285D01*
X165746043Y-73913623D01*
X165741792Y-74015488D01*
X160282300Y-74015488D01*
X160283032Y-73477310D01*
X160284191Y-72941458D01*
X160285826Y-72486149D01*
X160285883Y-72476528D01*
X167444378Y-72476528D01*
X167469427Y-72501577D01*
X167494477Y-72476528D01*
X167469427Y-72451479D01*
X167444378Y-72476528D01*
X160285883Y-72476528D01*
X160286779Y-72326608D01*
X167507458Y-72326608D01*
X167524274Y-72386127D01*
X167594476Y-72364143D01*
X167660724Y-72309730D01*
X167765246Y-72222225D01*
X167813217Y-72214616D01*
X167811112Y-72288903D01*
X167795068Y-72351281D01*
X167784251Y-72466793D01*
X167830740Y-72505561D01*
X167921967Y-72462651D01*
X167969811Y-72419875D01*
X168033982Y-72367633D01*
X168065993Y-72399068D01*
X168079735Y-72446091D01*
X168107126Y-72519993D01*
X168144131Y-72502792D01*
X168169442Y-72469924D01*
X168213042Y-72359195D01*
X168225917Y-72235113D01*
X168212427Y-72142495D01*
X168163216Y-72081558D01*
X168053605Y-72029617D01*
X167970973Y-72000778D01*
X167802671Y-71953460D01*
X167696027Y-71960306D01*
X167621183Y-72034687D01*
X167548280Y-72189972D01*
X167548241Y-72190067D01*
X167507458Y-72326608D01*
X160286779Y-72326608D01*
X160288104Y-72104832D01*
X160291189Y-71790955D01*
X160295108Y-71546747D01*
X168095660Y-71546747D01*
X168132027Y-71597763D01*
X168145759Y-71599802D01*
X168194555Y-71582709D01*
X168195857Y-71577709D01*
X168160751Y-71534937D01*
X168145759Y-71524654D01*
X168099594Y-71528626D01*
X168095660Y-71546747D01*
X160295108Y-71546747D01*
X160295249Y-71537968D01*
X160300449Y-71339319D01*
X160306954Y-71188455D01*
X160308008Y-71173964D01*
X166742997Y-71173964D01*
X166768047Y-71199013D01*
X166793096Y-71173964D01*
X166768047Y-71148915D01*
X166742997Y-71173964D01*
X160308008Y-71173964D01*
X160314930Y-71078827D01*
X160322004Y-71023668D01*
X166692899Y-71023668D01*
X166717948Y-71048717D01*
X166742997Y-71023668D01*
X166717948Y-70998619D01*
X166692899Y-71023668D01*
X160322004Y-71023668D01*
X160324542Y-71003883D01*
X160335957Y-70957071D01*
X160349340Y-70931841D01*
X160364857Y-70921640D01*
X160380043Y-70919892D01*
X160443063Y-70935825D01*
X160424933Y-70980363D01*
X160408287Y-71021240D01*
X160474069Y-71014854D01*
X160477243Y-71014031D01*
X160545299Y-70972609D01*
X160547036Y-70934311D01*
X160551314Y-70902530D01*
X160596248Y-70912828D01*
X160690224Y-70904105D01*
X160784043Y-70839801D01*
X160831023Y-70753072D01*
X160831360Y-70745834D01*
X160812160Y-70719339D01*
X166549836Y-70719339D01*
X166561649Y-70745480D01*
X166589745Y-70748126D01*
X166657680Y-70711740D01*
X166667495Y-70698601D01*
X166659431Y-70670132D01*
X166620353Y-70678912D01*
X166549836Y-70719339D01*
X160812160Y-70719339D01*
X160788078Y-70686108D01*
X160682484Y-70624600D01*
X160680592Y-70623913D01*
X166145104Y-70623913D01*
X166220000Y-70627078D01*
X166296059Y-70624808D01*
X166447432Y-70610961D01*
X166559400Y-70588367D01*
X166584126Y-70578080D01*
X166630274Y-70504176D01*
X166642800Y-70423703D01*
X166666405Y-70321657D01*
X166705423Y-70279511D01*
X166730261Y-70240143D01*
X166670799Y-70175139D01*
X166562767Y-70118192D01*
X166448924Y-70098797D01*
X166364584Y-70118636D01*
X166341929Y-70159467D01*
X166321676Y-70303128D01*
X166272089Y-70450861D01*
X166208190Y-70566606D01*
X166152923Y-70613151D01*
X166145104Y-70623913D01*
X160680592Y-70623913D01*
X160550954Y-70576844D01*
X160429864Y-70558376D01*
X160399093Y-70561222D01*
X160302076Y-70556868D01*
X160281044Y-70514332D01*
X165908020Y-70514332D01*
X165914897Y-70544116D01*
X165941419Y-70547731D01*
X165982656Y-70529401D01*
X165974819Y-70514332D01*
X165915363Y-70508336D01*
X165908020Y-70514332D01*
X160281044Y-70514332D01*
X160280276Y-70512778D01*
X160310005Y-70467485D01*
X160342899Y-70476976D01*
X160380462Y-70491999D01*
X160345353Y-70447513D01*
X160342899Y-70444864D01*
X160331466Y-70412530D01*
X160321410Y-70338214D01*
X160312657Y-70216683D01*
X160305133Y-70042707D01*
X160299229Y-69827981D01*
X165690926Y-69827981D01*
X165706584Y-69927003D01*
X165740938Y-69973658D01*
X165755318Y-69963247D01*
X165991518Y-69963247D01*
X166013992Y-70091823D01*
X166088608Y-70143972D01*
X166125114Y-70146942D01*
X166175605Y-70102035D01*
X166191913Y-69996646D01*
X166176167Y-69886634D01*
X166117580Y-69847901D01*
X166091715Y-69846350D01*
X166011263Y-69877949D01*
X165991518Y-69963247D01*
X165755318Y-69963247D01*
X165775061Y-69948953D01*
X165783297Y-69920671D01*
X165769697Y-69817260D01*
X165745723Y-69780911D01*
X165702600Y-69762713D01*
X165690926Y-69827981D01*
X160299229Y-69827981D01*
X160298764Y-69811052D01*
X160295889Y-69650888D01*
X165741025Y-69650888D01*
X165769805Y-69663979D01*
X165811120Y-69635407D01*
X165861767Y-69574270D01*
X165864552Y-69553267D01*
X165814553Y-69556561D01*
X165758417Y-69606535D01*
X165741025Y-69650888D01*
X160295889Y-69650888D01*
X160293476Y-69516487D01*
X160292856Y-69463953D01*
X166005448Y-69463953D01*
X166015584Y-69494069D01*
X166088790Y-69535713D01*
X166179290Y-69516391D01*
X166229501Y-69458112D01*
X166211818Y-69393239D01*
X166139023Y-69357623D01*
X166055394Y-69367829D01*
X166032595Y-69384445D01*
X166005448Y-69463953D01*
X160292856Y-69463953D01*
X160289193Y-69153781D01*
X160287794Y-68971731D01*
X166742997Y-68971731D01*
X166788496Y-69099152D01*
X166868244Y-69174626D01*
X166946658Y-69243118D01*
X166983776Y-69336858D01*
X166993476Y-69492057D01*
X166993490Y-69501422D01*
X167002527Y-69642416D01*
X167025578Y-69730864D01*
X167042635Y-69746153D01*
X167090121Y-69788662D01*
X167123214Y-69871400D01*
X167186753Y-69971168D01*
X167292597Y-69994538D01*
X167417265Y-69940684D01*
X167479884Y-69883924D01*
X167636870Y-69660512D01*
X167731828Y-69414949D01*
X167752779Y-69225653D01*
X167771491Y-69052303D01*
X167826325Y-68971281D01*
X167887548Y-68868877D01*
X167902164Y-68781755D01*
X173206486Y-68781755D01*
X173224746Y-68869714D01*
X173255818Y-68894477D01*
X173303930Y-68865709D01*
X173305149Y-68856903D01*
X173280118Y-68786654D01*
X173259640Y-68750861D01*
X173456212Y-68750861D01*
X173474823Y-68836088D01*
X173514049Y-68874632D01*
X173548477Y-68843126D01*
X173534768Y-68760706D01*
X173511947Y-68729777D01*
X173465801Y-68705540D01*
X173456212Y-68750861D01*
X173259640Y-68750861D01*
X173255818Y-68744181D01*
X173219274Y-68704836D01*
X173207043Y-68754595D01*
X173206486Y-68781755D01*
X167902164Y-68781755D01*
X167916872Y-68694082D01*
X172203747Y-68694082D01*
X172222077Y-68735319D01*
X172237146Y-68727481D01*
X172243142Y-68668026D01*
X172237146Y-68660683D01*
X172207362Y-68667560D01*
X172203747Y-68694082D01*
X167916872Y-68694082D01*
X167920184Y-68674342D01*
X167922391Y-68640178D01*
X167930866Y-68510387D01*
X173973898Y-68510387D01*
X173980775Y-68540171D01*
X174007297Y-68543786D01*
X174048534Y-68525456D01*
X174040696Y-68510387D01*
X173981241Y-68504391D01*
X173973898Y-68510387D01*
X167930866Y-68510387D01*
X167934993Y-68447175D01*
X167953408Y-68207979D01*
X167972515Y-67987034D01*
X167985112Y-67688278D01*
X167959078Y-67465677D01*
X167944025Y-67412508D01*
X167867219Y-67263201D01*
X167734944Y-67081460D01*
X167571811Y-66895068D01*
X167402434Y-66731810D01*
X167251423Y-66619471D01*
X167232142Y-66608866D01*
X167128333Y-66571441D01*
X167093736Y-66592969D01*
X167138894Y-66664877D01*
X167149653Y-66675964D01*
X167177169Y-66741273D01*
X167176265Y-66866161D01*
X167148386Y-67060578D01*
X167119278Y-67264843D01*
X167091439Y-67523598D01*
X167069569Y-67791195D01*
X167064175Y-67878834D01*
X167046683Y-68163235D01*
X167028796Y-68362030D01*
X167007499Y-68489777D01*
X166979778Y-68561032D01*
X166942621Y-68590355D01*
X166916148Y-68593885D01*
X166843073Y-68638825D01*
X166781853Y-68753064D01*
X166746635Y-68905731D01*
X166742997Y-68971731D01*
X160287794Y-68971731D01*
X160285843Y-68717702D01*
X160283351Y-68203017D01*
X160281642Y-67604496D01*
X160280644Y-66916906D01*
X160280280Y-66135016D01*
X160280276Y-66028836D01*
X160280276Y-61680276D01*
X170299999Y-61680276D01*
X180319723Y-61680276D01*
X180319723Y-71699999D01*
G37*
%TD.AperFunction*%
%TD*%
D11*
%TO.P,D9,1,DOUT*%
%TO.N,Net-(D10-DIN)*%
X111130000Y-54425000D03*
%TO.P,D9,2,VSS*%
%TO.N,GND*%
X111130000Y-56175000D03*
%TO.P,D9,3,DIN*%
%TO.N,Net-(D8-DOUT)*%
X114630000Y-56175000D03*
%TO.P,D9,4,VDD*%
%TO.N,+5V*%
X114630000Y-54425000D03*
%TD*%
%TO.P,D12,1,DOUT*%
%TO.N,Net-(D12-DOUT)*%
X111130000Y-69785000D03*
%TO.P,D12,2,VSS*%
%TO.N,GND*%
X111130000Y-71535000D03*
%TO.P,D12,3,DIN*%
%TO.N,Net-(D11-DOUT)*%
X114630000Y-71535000D03*
%TO.P,D12,4,VDD*%
%TO.N,+5V*%
X114630000Y-69785000D03*
%TD*%
%TO.P,D1,1,DOUT*%
%TO.N,Net-(D1-DOUT)*%
X97690000Y-54425000D03*
%TO.P,D1,2,VSS*%
%TO.N,GND*%
X97690000Y-56175000D03*
%TO.P,D1,3,DIN*%
%TO.N,Net-(D1-DIN)*%
X101190000Y-56175000D03*
%TO.P,D1,4,VDD*%
%TO.N,+5V*%
X101190000Y-54425000D03*
%TD*%
%TO.P,D13,1,DOUT*%
%TO.N,Net-(D13-DOUT)*%
X117850000Y-54425000D03*
%TO.P,D13,2,VSS*%
%TO.N,GND*%
X117850000Y-56175000D03*
%TO.P,D13,3,DIN*%
%TO.N,Net-(D12-DOUT)*%
X121350000Y-56175000D03*
%TO.P,D13,4,VDD*%
%TO.N,+5V*%
X121350000Y-54425000D03*
%TD*%
%TO.P,D2,1,DOUT*%
%TO.N,Net-(D2-DOUT)*%
X97690000Y-59545000D03*
%TO.P,D2,2,VSS*%
%TO.N,GND*%
X97690000Y-61295000D03*
%TO.P,D2,3,DIN*%
%TO.N,Net-(D1-DOUT)*%
X101190000Y-61295000D03*
%TO.P,D2,4,VDD*%
%TO.N,+5V*%
X101190000Y-59545000D03*
%TD*%
%TO.P,D14,1,DOUT*%
%TO.N,Net-(D14-DOUT)*%
X117850000Y-59545000D03*
%TO.P,D14,2,VSS*%
%TO.N,GND*%
X117850000Y-61295000D03*
%TO.P,D14,3,DIN*%
%TO.N,Net-(D13-DOUT)*%
X121350000Y-61295000D03*
%TO.P,D14,4,VDD*%
%TO.N,+5V*%
X121350000Y-59545000D03*
%TD*%
%TO.P,D8,1,DOUT*%
%TO.N,Net-(D8-DOUT)*%
X104410000Y-69785000D03*
%TO.P,D8,2,VSS*%
%TO.N,GND*%
X104410000Y-71535000D03*
%TO.P,D8,3,DIN*%
%TO.N,Net-(D7-DOUT)*%
X107910000Y-71535000D03*
%TO.P,D8,4,VDD*%
%TO.N,+5V*%
X107910000Y-69785000D03*
%TD*%
%TO.P,D16,1,DOUT*%
%TO.N,unconnected-(D16-DOUT-Pad1)*%
X117850000Y-69785000D03*
%TO.P,D16,2,VSS*%
%TO.N,GND*%
X117850000Y-71535000D03*
%TO.P,D16,3,DIN*%
%TO.N,Net-(D15-DOUT)*%
X121350000Y-71535000D03*
%TO.P,D16,4,VDD*%
%TO.N,+5V*%
X121350000Y-69785000D03*
%TD*%
%TO.P,D3,1,DOUT*%
%TO.N,Net-(D3-DOUT)*%
X97690000Y-64665000D03*
%TO.P,D3,2,VSS*%
%TO.N,GND*%
X97690000Y-66415000D03*
%TO.P,D3,3,DIN*%
%TO.N,Net-(D2-DOUT)*%
X101190000Y-66415000D03*
%TO.P,D3,4,VDD*%
%TO.N,+5V*%
X101190000Y-64665000D03*
%TD*%
%TO.P,D11,1,DOUT*%
%TO.N,Net-(D11-DOUT)*%
X111130000Y-64665000D03*
%TO.P,D11,2,VSS*%
%TO.N,GND*%
X111130000Y-66415000D03*
%TO.P,D11,3,DIN*%
%TO.N,Net-(D10-DOUT)*%
X114630000Y-66415000D03*
%TO.P,D11,4,VDD*%
%TO.N,+5V*%
X114630000Y-64665000D03*
%TD*%
%TO.P,D15,1,DOUT*%
%TO.N,Net-(D15-DOUT)*%
X117850000Y-64665000D03*
%TO.P,D15,2,VSS*%
%TO.N,GND*%
X117850000Y-66415000D03*
%TO.P,D15,3,DIN*%
%TO.N,Net-(D14-DOUT)*%
X121350000Y-66415000D03*
%TO.P,D15,4,VDD*%
%TO.N,+5V*%
X121350000Y-64665000D03*
%TD*%
%TO.P,D5,1,DOUT*%
%TO.N,Net-(D5-DOUT)*%
X104410000Y-54425000D03*
%TO.P,D5,2,VSS*%
%TO.N,GND*%
X104410000Y-56175000D03*
%TO.P,D5,3,DIN*%
%TO.N,Net-(D4-DOUT)*%
X107910000Y-56175000D03*
%TO.P,D5,4,VDD*%
%TO.N,+5V*%
X107910000Y-54425000D03*
%TD*%
%TO.P,D7,1,DOUT*%
%TO.N,Net-(D7-DOUT)*%
X104410000Y-64665000D03*
%TO.P,D7,2,VSS*%
%TO.N,GND*%
X104410000Y-66415000D03*
%TO.P,D7,3,DIN*%
%TO.N,Net-(D6-DOUT)*%
X107910000Y-66415000D03*
%TO.P,D7,4,VDD*%
%TO.N,+5V*%
X107910000Y-64665000D03*
%TD*%
%TO.P,D4,1,DOUT*%
%TO.N,Net-(D4-DOUT)*%
X97690000Y-69785000D03*
%TO.P,D4,2,VSS*%
%TO.N,GND*%
X97690000Y-71535000D03*
%TO.P,D4,3,DIN*%
%TO.N,Net-(D3-DOUT)*%
X101190000Y-71535000D03*
%TO.P,D4,4,VDD*%
%TO.N,+5V*%
X101190000Y-69785000D03*
%TD*%
%TO.P,D10,1,DOUT*%
%TO.N,Net-(D10-DOUT)*%
X111130000Y-59545000D03*
%TO.P,D10,2,VSS*%
%TO.N,GND*%
X111130000Y-61295000D03*
%TO.P,D10,3,DIN*%
%TO.N,Net-(D10-DIN)*%
X114630000Y-61295000D03*
%TO.P,D10,4,VDD*%
%TO.N,+5V*%
X114630000Y-59545000D03*
%TD*%
%TO.P,D6,1,DOUT*%
%TO.N,Net-(D6-DOUT)*%
X104410000Y-59545000D03*
%TO.P,D6,2,VSS*%
%TO.N,GND*%
X104410000Y-61295000D03*
%TO.P,D6,3,DIN*%
%TO.N,Net-(D5-DOUT)*%
X107910000Y-61295000D03*
%TO.P,D6,4,VDD*%
%TO.N,+5V*%
X107910000Y-59545000D03*
%TD*%
D12*
%TO.P,SW17,A,A*%
%TO.N,/SW17.A*%
X183143750Y-71437500D03*
D13*
%TO.P,SW17,B,B*%
%TO.N,/SW17.B*%
X183143750Y-76437500D03*
%TO.P,SW17,C,C*%
%TO.N,GND*%
X183143750Y-73937500D03*
D14*
%TO.P,SW17,MP,MP*%
%TO.N,unconnected-(SW17-PadMP)*%
X190643750Y-68337500D03*
X190643750Y-79537500D03*
D13*
%TO.P,SW17,S1,S1*%
%TO.N,/SW17.S*%
X197643750Y-76437500D03*
%TO.P,SW17,S2,S2*%
%TO.N,/COL9*%
X197643750Y-71437500D03*
%TD*%
D12*
%TO.P,SW18,A,A*%
%TO.N,/SW18.A*%
X202406250Y-71437500D03*
D13*
%TO.P,SW18,B,B*%
%TO.N,/SW18.B*%
X202406250Y-76437500D03*
%TO.P,SW18,C,C*%
%TO.N,GND*%
X202406250Y-73937500D03*
D14*
%TO.P,SW18,MP,MP*%
%TO.N,unconnected-(SW18-PadMP)*%
X209906250Y-68337500D03*
X209906250Y-79537500D03*
D13*
%TO.P,SW18,S1,S1*%
%TO.N,/SW18.S*%
X216906250Y-76437500D03*
%TO.P,SW18,S2,S2*%
%TO.N,/COL9*%
X216906250Y-71437500D03*
%TD*%
D15*
%TO.P,SW16,1,1*%
%TO.N,/COL8*%
X214471250Y-92551250D03*
%TO.P,SW16,2,2*%
%TO.N,Net-(D29-A)*%
X208121250Y-95091250D03*
%TD*%
%TO.P,SW10,1,1*%
%TO.N,/COL2*%
X100171250Y-92551250D03*
%TO.P,SW10,2,2*%
%TO.N,Net-(D23-A)*%
X93821250Y-95091250D03*
%TD*%
%TO.P,SW3,1,1*%
%TO.N,/COL3*%
X119221250Y-111601250D03*
%TO.P,SW3,2,2*%
%TO.N,Net-(D32-A)*%
X112871250Y-114141250D03*
%TD*%
%TO.P,SW6,1,1*%
%TO.N,/COL6*%
X176371250Y-111601250D03*
%TO.P,SW6,2,2*%
%TO.N,Net-(D35-A)*%
X170021250Y-114141250D03*
%TD*%
%TO.P,SW2,1,1*%
%TO.N,/COL2*%
X100171250Y-111601250D03*
%TO.P,SW2,2,2*%
%TO.N,Net-(D31-A)*%
X93821250Y-114141250D03*
%TD*%
%TO.P,SW14,1,1*%
%TO.N,/COL6*%
X176371250Y-92551250D03*
%TO.P,SW14,2,2*%
%TO.N,Net-(D27-A)*%
X170021250Y-95091250D03*
%TD*%
%TO.P,SW12,1,1*%
%TO.N,/COL4*%
X138271250Y-92551250D03*
%TO.P,SW12,2,2*%
%TO.N,Net-(D25-A)*%
X131921250Y-95091250D03*
%TD*%
%TO.P,SW8,1,1*%
%TO.N,/COL8*%
X214471250Y-111601250D03*
%TO.P,SW8,2,2*%
%TO.N,Net-(D37-A)*%
X208121250Y-114141250D03*
%TD*%
%TO.P,SW7,1,1*%
%TO.N,/COL7*%
X195421250Y-111601250D03*
%TO.P,SW7,2,2*%
%TO.N,Net-(D36-A)*%
X189071250Y-114141250D03*
%TD*%
%TO.P,SW5,1,1*%
%TO.N,/COL5*%
X157321250Y-111601250D03*
%TO.P,SW5,2,2*%
%TO.N,Net-(D34-A)*%
X150971250Y-114141250D03*
%TD*%
%TO.P,SW13,1,1*%
%TO.N,/COL5*%
X157321250Y-92551250D03*
%TO.P,SW13,2,2*%
%TO.N,Net-(D26-A)*%
X150971250Y-95091250D03*
%TD*%
%TO.P,SW9,1,1*%
%TO.N,/COL1*%
X81121250Y-92551250D03*
%TO.P,SW9,2,2*%
%TO.N,Net-(D22-A)*%
X74771250Y-95091250D03*
%TD*%
%TO.P,SW4,1,1*%
%TO.N,/COL4*%
X138271250Y-111601250D03*
%TO.P,SW4,2,2*%
%TO.N,Net-(D33-A)*%
X131921250Y-114141250D03*
%TD*%
%TO.P,SW11,1,1*%
%TO.N,/COL3*%
X119221250Y-92551250D03*
%TO.P,SW11,2,2*%
%TO.N,Net-(D24-A)*%
X112871250Y-95091250D03*
%TD*%
%TO.P,SW1,1,1*%
%TO.N,/COL1*%
X81121250Y-111601250D03*
%TO.P,SW1,2,2*%
%TO.N,Net-(D30-A)*%
X74771250Y-114141250D03*
%TD*%
%TO.P,SW15,1,1*%
%TO.N,/COL7*%
X195421250Y-92551250D03*
%TO.P,SW15,2,2*%
%TO.N,Net-(D28-A)*%
X189071250Y-95091250D03*
%TD*%
D16*
%TO.P,U1,1,GPIO26/ADC0/A0*%
%TO.N,Net-(D1-DIN)*%
X72507500Y-49530000D03*
D17*
X73342500Y-49530000D03*
D16*
%TO.P,U1,2,GPIO27/ADC1/A1*%
%TO.N,Net-(J1-Pin_3)*%
X72507500Y-52070000D03*
D17*
X73342500Y-52070000D03*
D16*
%TO.P,U1,3,GPIO28/ADC2/A2*%
%TO.N,Net-(J1-Pin_2)*%
X72507500Y-54610000D03*
D17*
X73342500Y-54610000D03*
D16*
%TO.P,U1,4,GPIO29/ADC3/A3*%
%TO.N,Net-(J1-Pin_1)*%
X72507500Y-57150000D03*
D17*
X73342500Y-57150000D03*
D16*
%TO.P,U1,5,GPIO6/SDA*%
%TO.N,/SDA*%
X72507500Y-59690000D03*
D17*
X73342500Y-59690000D03*
D16*
%TO.P,U1,6,GPIO7/SCL*%
%TO.N,/SCL*%
X72507500Y-62230000D03*
D17*
X73342500Y-62230000D03*
D16*
%TO.P,U1,7,GPIO0/TX*%
%TO.N,Net-(U1-GPIO0{slash}TX)*%
X72507500Y-64770000D03*
D17*
X73342500Y-64770000D03*
%TO.P,U1,8,GPIO1/RX*%
%TO.N,Net-(U1-GPIO1{slash}RX)*%
X88582500Y-64770000D03*
D18*
X89417500Y-64770000D03*
D17*
%TO.P,U1,9,GPIO2/SCK*%
%TO.N,Net-(U1-GPIO2{slash}SCK)*%
X88582500Y-62230000D03*
D18*
X89417500Y-62230000D03*
D17*
%TO.P,U1,10,GPIO4/MISO*%
%TO.N,Net-(U1-GPIO4{slash}MISO)*%
X88582500Y-59690000D03*
D18*
X89417500Y-59690000D03*
D17*
%TO.P,U1,11,GPIO3/MOSI*%
%TO.N,Net-(U1-GPIO3{slash}MOSI)*%
X88582500Y-57150000D03*
D18*
X89417500Y-57150000D03*
D17*
%TO.P,U1,12,3V3*%
%TO.N,+3.3V*%
X88582500Y-54610000D03*
D18*
X89417500Y-54610000D03*
D17*
%TO.P,U1,13,GND*%
%TO.N,GND*%
X88582500Y-52070000D03*
D18*
X89417500Y-52070000D03*
D17*
%TO.P,U1,14,VBUS*%
%TO.N,+5V*%
X88582500Y-49530000D03*
D18*
X89417500Y-49530000D03*
%TD*%
D19*
%TO.P,Brd1,1,VCC*%
%TO.N,+3.3V*%
X218600000Y-52190000D03*
D20*
%TO.P,Brd1,2,GND*%
%TO.N,GND*%
X218600000Y-54730000D03*
%TO.P,Brd1,3,SCL*%
%TO.N,/SCL*%
X218600000Y-57270000D03*
%TO.P,Brd1,4,SDA*%
%TO.N,/SDA*%
X218600000Y-59810000D03*
%TD*%
D21*
%TO.P,R5,1*%
%TO.N,Net-(D21-A)*%
X123793750Y-81543750D03*
%TO.P,R5,2*%
%TO.N,Net-(U1-GPIO0{slash}TX)*%
X123793750Y-79543750D03*
%TD*%
D22*
%TO.P,D37,1,K*%
%TO.N,/ROW2*%
X202406250Y-110268750D03*
%TO.P,D37,2,A*%
%TO.N,Net-(D37-A)*%
X202406250Y-113568750D03*
%TD*%
D21*
%TO.P,R3,1*%
%TO.N,Net-(D19-A)*%
X133318750Y-67256250D03*
%TO.P,R3,2*%
%TO.N,Net-(U1-GPIO2{slash}SCK)*%
X133318750Y-65256250D03*
%TD*%
%TO.P,R4,1*%
%TO.N,Net-(D20-A)*%
X128556250Y-74400000D03*
%TO.P,R4,2*%
%TO.N,Net-(U1-GPIO1{slash}RX)*%
X128556250Y-72400000D03*
%TD*%
D23*
%TO.P,D21,1,K*%
%TO.N,GND*%
X130937500Y-79543750D03*
D24*
%TO.P,D21,2,A*%
%TO.N,Net-(D21-A)*%
X130937500Y-82083750D03*
%TD*%
D21*
%TO.P,R1,1*%
%TO.N,Net-(D17-A)*%
X142843750Y-52968750D03*
%TO.P,R1,2*%
%TO.N,Net-(U1-GPIO3{slash}MOSI)*%
X142843750Y-50968750D03*
%TD*%
D22*
%TO.P,D24,1,K*%
%TO.N,/ROW1*%
X107156250Y-91218750D03*
%TO.P,D24,2,A*%
%TO.N,Net-(D24-A)*%
X107156250Y-94518750D03*
%TD*%
D23*
%TO.P,D18,1,K*%
%TO.N,GND*%
X145225000Y-58112500D03*
D24*
%TO.P,D18,2,A*%
%TO.N,Net-(D18-A)*%
X145225000Y-60652500D03*
%TD*%
D22*
%TO.P,D34,1,K*%
%TO.N,/ROW2*%
X145256250Y-110268750D03*
%TO.P,D34,2,A*%
%TO.N,Net-(D34-A)*%
X145256250Y-113568750D03*
%TD*%
%TO.P,D28,1,K*%
%TO.N,/ROW1*%
X183356250Y-91218750D03*
%TO.P,D28,2,A*%
%TO.N,Net-(D28-A)*%
X183356250Y-94518750D03*
%TD*%
%TO.P,D31,1,K*%
%TO.N,/ROW2*%
X88106250Y-110268750D03*
%TO.P,D31,2,A*%
%TO.N,Net-(D31-A)*%
X88106250Y-113568750D03*
%TD*%
%TO.P,D22,1,K*%
%TO.N,/ROW1*%
X69056250Y-91218750D03*
%TO.P,D22,2,A*%
%TO.N,Net-(D22-A)*%
X69056250Y-94518750D03*
%TD*%
%TO.P,D23,1,K*%
%TO.N,/ROW1*%
X88106250Y-91218750D03*
%TO.P,D23,2,A*%
%TO.N,Net-(D23-A)*%
X88106250Y-94518750D03*
%TD*%
%TO.P,D32,1,K*%
%TO.N,/ROW2*%
X107156250Y-110268750D03*
%TO.P,D32,2,A*%
%TO.N,Net-(D32-A)*%
X107156250Y-113568750D03*
%TD*%
%TO.P,D30,1,K*%
%TO.N,/ROW2*%
X69056250Y-110268750D03*
%TO.P,D30,2,A*%
%TO.N,Net-(D30-A)*%
X69056250Y-113568750D03*
%TD*%
%TO.P,D27,1,K*%
%TO.N,/ROW1*%
X164306250Y-91218750D03*
%TO.P,D27,2,A*%
%TO.N,Net-(D27-A)*%
X164306250Y-94518750D03*
%TD*%
%TO.P,D39,1,K*%
%TO.N,/ROW1*%
X220400000Y-91150000D03*
%TO.P,D39,2,A*%
%TO.N,/SW17.S*%
X220400000Y-94450000D03*
%TD*%
%TO.P,D33,1,K*%
%TO.N,/ROW2*%
X126206250Y-110268750D03*
%TO.P,D33,2,A*%
%TO.N,Net-(D33-A)*%
X126206250Y-113568750D03*
%TD*%
D23*
%TO.P,D19,1,K*%
%TO.N,GND*%
X140462500Y-65256250D03*
D24*
%TO.P,D19,2,A*%
%TO.N,Net-(D19-A)*%
X140462500Y-67796250D03*
%TD*%
D21*
%TO.P,R2,1*%
%TO.N,Net-(D18-A)*%
X138081250Y-60112500D03*
%TO.P,R2,2*%
%TO.N,Net-(U1-GPIO4{slash}MISO)*%
X138081250Y-58112500D03*
%TD*%
D22*
%TO.P,D35,1,K*%
%TO.N,/ROW2*%
X164306250Y-110268750D03*
%TO.P,D35,2,A*%
%TO.N,Net-(D35-A)*%
X164306250Y-113568750D03*
%TD*%
%TO.P,D29,1,K*%
%TO.N,/ROW1*%
X202406250Y-91218750D03*
%TO.P,D29,2,A*%
%TO.N,Net-(D29-A)*%
X202406250Y-94518750D03*
%TD*%
%TO.P,D26,1,K*%
%TO.N,/ROW1*%
X145256250Y-91218750D03*
%TO.P,D26,2,A*%
%TO.N,Net-(D26-A)*%
X145256250Y-94518750D03*
%TD*%
%TO.P,D36,1,K*%
%TO.N,/ROW2*%
X183356250Y-110268750D03*
%TO.P,D36,2,A*%
%TO.N,Net-(D36-A)*%
X183356250Y-113568750D03*
%TD*%
D23*
%TO.P,D20,1,K*%
%TO.N,GND*%
X135700000Y-72400000D03*
D24*
%TO.P,D20,2,A*%
%TO.N,Net-(D20-A)*%
X135700000Y-74940000D03*
%TD*%
D22*
%TO.P,D25,1,K*%
%TO.N,/ROW1*%
X126206250Y-91218750D03*
%TO.P,D25,2,A*%
%TO.N,Net-(D25-A)*%
X126206250Y-94518750D03*
%TD*%
%TO.P,D38,1,K*%
%TO.N,/ROW2*%
X220500000Y-110250000D03*
%TO.P,D38,2,A*%
%TO.N,/SW18.S*%
X220500000Y-113550000D03*
%TD*%
D25*
%TO.P,U3,1,GPB0*%
%TO.N,/COL1*%
X72707500Y-81550000D03*
%TO.P,U3,2,GPB1*%
%TO.N,/COL2*%
X73977500Y-81550000D03*
%TO.P,U3,3,GPB2*%
%TO.N,/COL3*%
X75247500Y-81550000D03*
%TO.P,U3,4,GPB3*%
%TO.N,/COL4*%
X76517500Y-81550000D03*
%TO.P,U3,5,GPB4*%
%TO.N,/COL5*%
X77787500Y-81550000D03*
%TO.P,U3,6,GPB5*%
%TO.N,/COL6*%
X79057500Y-81550000D03*
%TO.P,U3,7,GPB6*%
%TO.N,/COL7*%
X80327500Y-81550000D03*
%TO.P,U3,8,GPB7*%
%TO.N,/COL8*%
X81597500Y-81550000D03*
%TO.P,U3,9,VDD*%
%TO.N,+5V*%
X82867500Y-81550000D03*
%TO.P,U3,10,VSS*%
%TO.N,GND*%
X84137500Y-81550000D03*
%TO.P,U3,11,NC*%
%TO.N,unconnected-(U3-NC-Pad11)*%
X85407500Y-81550000D03*
%TO.P,U3,12,SCK*%
%TO.N,/SCL*%
X86677500Y-81550000D03*
%TO.P,U3,13,SDA*%
%TO.N,/SDA*%
X87947500Y-81550000D03*
%TO.P,U3,14,NC*%
%TO.N,unconnected-(U3-NC-Pad14)*%
X89217500Y-81550000D03*
%TO.P,U3,15,A0*%
%TO.N,GND*%
X89217500Y-72250000D03*
%TO.P,U3,16,A1*%
X87947500Y-72250000D03*
%TO.P,U3,17,A2*%
X86677500Y-72250000D03*
%TO.P,U3,18,~{RESET}*%
%TO.N,+5V*%
X85407500Y-72250000D03*
%TO.P,U3,19,INTB*%
%TO.N,unconnected-(U3-INTB-Pad19)*%
X84137500Y-72250000D03*
%TO.P,U3,20,INTA*%
%TO.N,unconnected-(U3-INTA-Pad20)*%
X82867500Y-72250000D03*
%TO.P,U3,21,GPA0*%
%TO.N,/ROW1*%
X81597500Y-72250000D03*
%TO.P,U3,22,GPA1*%
%TO.N,/ROW2*%
X80327500Y-72250000D03*
%TO.P,U3,23,GPA2*%
%TO.N,/SW17.A*%
X79057500Y-72250000D03*
%TO.P,U3,24,GPA3*%
%TO.N,/SW17.B*%
X77787500Y-72250000D03*
%TO.P,U3,25,GPA4*%
%TO.N,unconnected-(U3-GPA4-Pad25)*%
X76517500Y-72250000D03*
%TO.P,U3,26,GPA5*%
%TO.N,/SW18.A*%
X75247500Y-72250000D03*
%TO.P,U3,27,GPA6*%
%TO.N,/SW18.B*%
X73977500Y-72250000D03*
%TO.P,U3,28,GPA7*%
%TO.N,/COL9*%
X72707500Y-72250000D03*
%TD*%
D23*
%TO.P,D17,1,K*%
%TO.N,GND*%
X149987500Y-50968750D03*
D24*
%TO.P,D17,2,A*%
%TO.N,Net-(D17-A)*%
X149987500Y-53508750D03*
%TD*%
D19*
%TO.P,J2,1,Pin_1*%
%TO.N,/SDA*%
X173880000Y-57885000D03*
D26*
%TO.P,J2,2,Pin_2*%
%TO.N,/SCL*%
X171340000Y-57885000D03*
%TD*%
D19*
%TO.P,J1,1,Pin_1*%
%TO.N,Net-(J1-Pin_1)*%
X166740000Y-57885000D03*
D26*
%TO.P,J1,2,Pin_2*%
%TO.N,Net-(J1-Pin_2)*%
X164200000Y-57885000D03*
%TO.P,J1,3,Pin_3*%
%TO.N,Net-(J1-Pin_3)*%
X161660000Y-57885000D03*
%TD*%
D27*
%TO.N,GND*%
X184600000Y-82800000D03*
X135100000Y-79800000D03*
%TO.N,+5V*%
X107900000Y-57800000D03*
X116200000Y-52967500D03*
X86800000Y-51600000D03*
X90200000Y-68600000D03*
X114600000Y-57800000D03*
X101200000Y-68100000D03*
X107900000Y-68100000D03*
X101200000Y-62900000D03*
X102800000Y-53000000D03*
X123067500Y-68067500D03*
X107900000Y-62900000D03*
X109500000Y-52967500D03*
X114600000Y-63000000D03*
X114600000Y-68100000D03*
X85400000Y-74000000D03*
X101200000Y-58000000D03*
%TO.N,Net-(D4-DOUT)*%
X106300000Y-57900000D03*
X97700000Y-68100000D03*
%TO.N,Net-(D8-DOUT)*%
X104400000Y-68000000D03*
X113200000Y-57900000D03*
%TO.N,Net-(D12-DOUT)*%
X111100000Y-68100000D03*
X120000000Y-57800000D03*
%TO.N,/ROW1*%
X70900000Y-92868750D03*
X81600000Y-74600000D03*
%TO.N,/ROW2*%
X80300764Y-74600764D03*
X70900000Y-111918750D03*
%TO.N,Net-(U1-GPIO3{slash}MOSI)*%
X98900000Y-51000000D03*
X94500000Y-57100000D03*
%TO.N,Net-(U1-GPIO4{slash}MISO)*%
X100100000Y-52200000D03*
X94500000Y-59600000D03*
%TO.N,Net-(U1-GPIO0{slash}TX)*%
X93400000Y-73200000D03*
%TO.N,/COL1*%
X72700000Y-83900000D03*
%TO.N,/COL2*%
X74000000Y-83900000D03*
%TO.N,/COL3*%
X75300000Y-83900000D03*
%TO.N,/COL4*%
X76500000Y-83900000D03*
%TO.N,/COL5*%
X77800000Y-83900000D03*
%TO.N,/COL6*%
X79100000Y-83900000D03*
%TO.N,/COL7*%
X80300000Y-83900000D03*
%TO.N,/COL8*%
X81600000Y-83900000D03*
%TO.N,/SW17.A*%
X198400000Y-84900000D03*
%TO.N,+3.3V*%
X204500000Y-48200000D03*
X94525735Y-54525735D03*
%TO.N,/SW17.S*%
X195900000Y-84900000D03*
%TO.N,/SW17.B*%
X197200000Y-84900000D03*
%TO.N,/SW18.A*%
X200000000Y-79900000D03*
%TO.N,/SDA*%
X80257100Y-59690000D03*
%TO.N,/SCL*%
X79200000Y-62230000D03*
%TO.N,/COL9*%
X82267500Y-79900000D03*
%TD*%
D28*
%TO.N,GND*%
X183143750Y-73937500D02*
X184544750Y-75338500D01*
X116405000Y-61295000D02*
X116300000Y-61400000D01*
X86677500Y-76377500D02*
X86700000Y-76400000D01*
X96100000Y-69945000D02*
X96100000Y-73400000D01*
X109400000Y-73500000D02*
X116300000Y-73500000D01*
X95270000Y-52070000D02*
X89417500Y-52070000D01*
X198303858Y-73937500D02*
X202406250Y-73937500D01*
X139561500Y-64355250D02*
X140462500Y-65256250D01*
X104410000Y-56190000D02*
X104410000Y-56175000D01*
X206243750Y-70100000D02*
X206243750Y-67086250D01*
X109505000Y-61295000D02*
X109500000Y-61300000D01*
X130937500Y-79543750D02*
X132794721Y-79543750D01*
X121212000Y-73500000D02*
X130356750Y-64355250D01*
X117850000Y-71535000D02*
X116335000Y-71535000D01*
X137557221Y-72400000D02*
X141663500Y-68293721D01*
X84137500Y-81550000D02*
X84137500Y-78962500D01*
X135069235Y-77269235D02*
X136901000Y-75437471D01*
X116315000Y-66415000D02*
X116300000Y-66400000D01*
X102800000Y-57800000D02*
X104410000Y-56190000D01*
X117850000Y-66415000D02*
X116315000Y-66415000D01*
X109500000Y-66400000D02*
X109500000Y-61300000D01*
X146426000Y-59313500D02*
X145225000Y-58112500D01*
X109500000Y-71500000D02*
X109500000Y-66400000D01*
X86700000Y-76400000D02*
X88000000Y-75100000D01*
X132794721Y-79543750D02*
X135069235Y-77269235D01*
X184544750Y-75338500D02*
X196902858Y-75338500D01*
X96100000Y-64825000D02*
X96100000Y-59705000D01*
X117850000Y-61295000D02*
X116405000Y-61295000D01*
X97690000Y-66415000D02*
X96100000Y-64825000D01*
X109400000Y-73500000D02*
X102800000Y-73500000D01*
X109515000Y-66415000D02*
X109500000Y-66400000D01*
X202406250Y-73937500D02*
X206243750Y-70100000D01*
X116300000Y-61400000D02*
X116300000Y-57725000D01*
X96200000Y-73500000D02*
X102800000Y-73500000D01*
X151188500Y-52169750D02*
X149987500Y-50968750D01*
X87947500Y-72250000D02*
X87947500Y-75047500D01*
X184544750Y-75338500D02*
X184544750Y-82744750D01*
X141663500Y-66457250D02*
X140462500Y-65256250D01*
X132138500Y-82961500D02*
X130000000Y-85100000D01*
X102805000Y-61295000D02*
X102800000Y-61300000D01*
X147082221Y-58112500D02*
X151188500Y-54006221D01*
X116300000Y-66400000D02*
X116300000Y-61400000D01*
X97690000Y-61295000D02*
X96100000Y-59705000D01*
X96100000Y-59705000D02*
X96100000Y-56200000D01*
X116300000Y-73500000D02*
X121212000Y-73500000D01*
X102800000Y-73500000D02*
X102800000Y-71500000D01*
X146426000Y-61149971D02*
X146426000Y-59313500D01*
X102800000Y-71500000D02*
X102800000Y-66400000D01*
X102815000Y-66415000D02*
X102800000Y-66400000D01*
X102800000Y-66400000D02*
X102800000Y-61300000D01*
X97690000Y-56175000D02*
X96125000Y-56175000D01*
X109500000Y-71500000D02*
X109500000Y-73400000D01*
X196902858Y-75338500D02*
X198303858Y-73937500D01*
X96100000Y-52900000D02*
X95270000Y-52070000D01*
X109500000Y-73400000D02*
X109400000Y-73500000D01*
X136901000Y-75437471D02*
X136901000Y-73601000D01*
X109500000Y-57805000D02*
X111130000Y-56175000D01*
X109500000Y-61300000D02*
X109500000Y-57805000D01*
X89217500Y-73882500D02*
X89217500Y-72250000D01*
X142319721Y-65256250D02*
X146426000Y-61149971D01*
X116335000Y-71535000D02*
X116300000Y-71500000D01*
X88000000Y-75100000D02*
X89217500Y-73882500D01*
X96100000Y-73400000D02*
X96200000Y-73500000D01*
X130356750Y-64355250D02*
X139561500Y-64355250D01*
X130937500Y-79543750D02*
X132138500Y-80744750D01*
X116300000Y-57725000D02*
X117850000Y-56175000D01*
X84400000Y-85100000D02*
X84100000Y-84800000D01*
X104410000Y-71535000D02*
X102835000Y-71535000D01*
X111130000Y-66415000D02*
X109515000Y-66415000D01*
X96100000Y-56200000D02*
X96100000Y-52900000D01*
X116300000Y-73500000D02*
X116300000Y-71500000D01*
X145225000Y-58112500D02*
X147082221Y-58112500D01*
X109535000Y-71535000D02*
X109500000Y-71500000D01*
X130000000Y-85100000D02*
X84400000Y-85100000D01*
X104410000Y-66415000D02*
X102815000Y-66415000D01*
X136901000Y-73601000D02*
X135700000Y-72400000D01*
X151188500Y-54006221D02*
X151188500Y-52169750D01*
X135700000Y-72400000D02*
X137557221Y-72400000D01*
X135069235Y-77269235D02*
X135069235Y-79769235D01*
X84100000Y-84800000D02*
X84137500Y-84762500D01*
X84137500Y-84762500D02*
X84137500Y-80850000D01*
X96100000Y-69945000D02*
X96100000Y-64825000D01*
X102800000Y-61300000D02*
X102800000Y-57800000D01*
X96125000Y-56175000D02*
X96100000Y-56200000D01*
X102835000Y-71535000D02*
X102800000Y-71500000D01*
X116300000Y-71500000D02*
X116300000Y-66400000D01*
X86677500Y-72250000D02*
X86677500Y-76377500D01*
X141663500Y-68293721D02*
X141663500Y-66457250D01*
X104410000Y-61295000D02*
X102805000Y-61295000D01*
X97690000Y-71535000D02*
X96100000Y-69945000D01*
X87947500Y-75047500D02*
X88000000Y-75100000D01*
X111130000Y-71535000D02*
X109535000Y-71535000D01*
X135069235Y-79769235D02*
X135100000Y-79800000D01*
X206243750Y-67086250D02*
X218600000Y-54730000D01*
X140462500Y-65256250D02*
X142319721Y-65256250D01*
X184544750Y-82744750D02*
X184600000Y-82800000D01*
X132138500Y-80744750D02*
X132138500Y-82961500D01*
X111130000Y-61295000D02*
X109505000Y-61295000D01*
X84137500Y-78962500D02*
X86700000Y-76400000D01*
%TO.N,Net-(D1-DIN)*%
X95715000Y-50700000D02*
X74512500Y-50700000D01*
X74512500Y-50700000D02*
X73342500Y-49530000D01*
X101190000Y-56175000D02*
X95715000Y-50700000D01*
%TO.N,Net-(D1-DOUT)*%
X97690000Y-54425000D02*
X98791000Y-55526000D01*
X98791000Y-58896000D02*
X101190000Y-61295000D01*
X98791000Y-55526000D02*
X98791000Y-58896000D01*
%TO.N,+5V*%
X121350000Y-64665000D02*
X123015000Y-63000000D01*
X114630000Y-63030000D02*
X114600000Y-63000000D01*
X107910000Y-57810000D02*
X107900000Y-57800000D01*
X101190000Y-69785000D02*
X101190000Y-68110000D01*
X99732500Y-52967500D02*
X101190000Y-54425000D01*
X107910000Y-59545000D02*
X107910000Y-57810000D01*
X107910000Y-69785000D02*
X107910000Y-68110000D01*
X119892500Y-52967500D02*
X123067500Y-52967500D01*
X101190000Y-64665000D02*
X101190000Y-62910000D01*
X107910000Y-62910000D02*
X107900000Y-62900000D01*
X82867500Y-76532500D02*
X82867500Y-81550000D01*
X88582500Y-49530000D02*
X96295000Y-49530000D01*
X107910000Y-68110000D02*
X107900000Y-68100000D01*
X123067500Y-52967500D02*
X123067500Y-57827500D01*
X116200000Y-52967500D02*
X113172500Y-52967500D01*
X85407500Y-73992500D02*
X85400000Y-74000000D01*
X114630000Y-64665000D02*
X114630000Y-63030000D01*
X101190000Y-59545000D02*
X101190000Y-58010000D01*
X123067500Y-63000000D02*
X123067500Y-68067500D01*
X90200000Y-68600000D02*
X86800000Y-65200000D01*
X114630000Y-54425000D02*
X113172500Y-52967500D01*
X107910000Y-64665000D02*
X107910000Y-62910000D01*
X101190000Y-62910000D02*
X101200000Y-62900000D01*
X119892500Y-52967500D02*
X116200000Y-52967500D01*
X121350000Y-54425000D02*
X119892500Y-52967500D01*
X123015000Y-63000000D02*
X123067500Y-63000000D01*
X106452500Y-52967500D02*
X99732500Y-52967500D01*
X85407500Y-72250000D02*
X85407500Y-73992500D01*
X114630000Y-57830000D02*
X114600000Y-57800000D01*
X109500000Y-52967500D02*
X106452500Y-52967500D01*
X101190000Y-68110000D02*
X101200000Y-68100000D01*
X123067500Y-57827500D02*
X123067500Y-63000000D01*
X121350000Y-59545000D02*
X123067500Y-57827500D01*
X86800000Y-65200000D02*
X86800000Y-51600000D01*
X107910000Y-54425000D02*
X106452500Y-52967500D01*
X114630000Y-68130000D02*
X114600000Y-68100000D01*
X114630000Y-59545000D02*
X114630000Y-57830000D01*
X114630000Y-69785000D02*
X114630000Y-68130000D01*
X123035000Y-68100000D02*
X121350000Y-69785000D01*
X113172500Y-52967500D02*
X109500000Y-52967500D01*
X123067500Y-68067500D02*
X123035000Y-68100000D01*
X96295000Y-49530000D02*
X99732500Y-52967500D01*
X101190000Y-58010000D02*
X101200000Y-58000000D01*
X85400000Y-74000000D02*
X82867500Y-76532500D01*
%TO.N,Net-(D2-DOUT)*%
X97690000Y-59545000D02*
X98800000Y-60655000D01*
X98800000Y-60655000D02*
X98800000Y-64025000D01*
X98800000Y-64025000D02*
X101190000Y-66415000D01*
%TO.N,Net-(D3-DOUT)*%
X98800000Y-65775000D02*
X98800000Y-69145000D01*
X97690000Y-64665000D02*
X98800000Y-65775000D01*
X98800000Y-69145000D02*
X101190000Y-71535000D01*
%TO.N,Net-(D4-DOUT)*%
X97690000Y-69785000D02*
X97690000Y-68110000D01*
X107910000Y-56290000D02*
X107910000Y-56175000D01*
X106300000Y-57900000D02*
X107910000Y-56290000D01*
X97690000Y-68110000D02*
X97700000Y-68100000D01*
%TO.N,Net-(D5-DOUT)*%
X105511000Y-58896000D02*
X107910000Y-61295000D01*
X105511000Y-55526000D02*
X105511000Y-58896000D01*
X104410000Y-54425000D02*
X105511000Y-55526000D01*
%TO.N,Net-(D6-DOUT)*%
X105511000Y-60646000D02*
X105511000Y-64016000D01*
X105511000Y-64016000D02*
X107910000Y-66415000D01*
X104410000Y-59545000D02*
X105511000Y-60646000D01*
%TO.N,Net-(D7-DOUT)*%
X105600000Y-69225000D02*
X107910000Y-71535000D01*
X104410000Y-64665000D02*
X105600000Y-65855000D01*
X105600000Y-65855000D02*
X105600000Y-69225000D01*
%TO.N,Net-(D8-DOUT)*%
X113200000Y-57900000D02*
X113200000Y-57605000D01*
X104410000Y-69785000D02*
X104410000Y-68010000D01*
X104410000Y-68010000D02*
X104400000Y-68000000D01*
X113200000Y-57605000D02*
X114630000Y-56175000D01*
%TO.N,Net-(D10-DIN)*%
X112400000Y-59065000D02*
X114630000Y-61295000D01*
X111130000Y-54425000D02*
X112400000Y-55695000D01*
X112400000Y-55695000D02*
X112400000Y-59065000D01*
%TO.N,Net-(D10-DOUT)*%
X112300000Y-64085000D02*
X114630000Y-66415000D01*
X111130000Y-59545000D02*
X112300000Y-60715000D01*
X112300000Y-60715000D02*
X112300000Y-64085000D01*
%TO.N,Net-(D11-DOUT)*%
X112300000Y-69205000D02*
X114630000Y-71535000D01*
X112300000Y-65835000D02*
X112300000Y-69205000D01*
X111130000Y-64665000D02*
X112300000Y-65835000D01*
%TO.N,Net-(D12-DOUT)*%
X111130000Y-68130000D02*
X111100000Y-68100000D01*
X120000000Y-57800000D02*
X121350000Y-56450000D01*
X121350000Y-56450000D02*
X121350000Y-56175000D01*
X111130000Y-69785000D02*
X111130000Y-68130000D01*
%TO.N,Net-(D13-DOUT)*%
X119000000Y-58945000D02*
X121350000Y-61295000D01*
X119000000Y-55575000D02*
X119000000Y-58945000D01*
X117850000Y-54425000D02*
X119000000Y-55575000D01*
%TO.N,Net-(D14-DOUT)*%
X119000000Y-64065000D02*
X121350000Y-66415000D01*
X117850000Y-59545000D02*
X119000000Y-60695000D01*
X119000000Y-60695000D02*
X119000000Y-64065000D01*
%TO.N,Net-(D15-DOUT)*%
X119000000Y-69185000D02*
X121350000Y-71535000D01*
X119000000Y-65815000D02*
X119000000Y-69185000D01*
X117850000Y-64665000D02*
X119000000Y-65815000D01*
%TO.N,Net-(D17-A)*%
X149447500Y-52968750D02*
X149987500Y-53508750D01*
X142843750Y-52968750D02*
X149447500Y-52968750D01*
%TO.N,Net-(D18-A)*%
X144685000Y-60112500D02*
X145225000Y-60652500D01*
X138081250Y-60112500D02*
X144685000Y-60112500D01*
%TO.N,Net-(D19-A)*%
X139922500Y-67256250D02*
X140462500Y-67796250D01*
X133318750Y-67256250D02*
X139922500Y-67256250D01*
%TO.N,Net-(D20-A)*%
X135160000Y-74400000D02*
X135700000Y-74940000D01*
X128556250Y-74400000D02*
X135160000Y-74400000D01*
%TO.N,Net-(D21-A)*%
X124333750Y-82083750D02*
X123793750Y-81543750D01*
X130937500Y-82083750D02*
X124333750Y-82083750D01*
%TO.N,Net-(D22-A)*%
X69056250Y-94773750D02*
X69056250Y-94518750D01*
X74771250Y-95091250D02*
X69373750Y-95091250D01*
X69373750Y-95091250D02*
X69056250Y-94773750D01*
%TO.N,/ROW1*%
X174707436Y-92868750D02*
X175790936Y-93952250D01*
X145256250Y-92868750D02*
X145256250Y-91218750D01*
X87022750Y-93952250D02*
X88106250Y-92868750D01*
X107156250Y-91218750D02*
X108806250Y-92868750D01*
X99590936Y-93952250D02*
X106072750Y-93952250D01*
X127856250Y-92868750D02*
X136607436Y-92868750D01*
X219247750Y-93952250D02*
X220400000Y-92800000D01*
X117557436Y-92868750D02*
X118640936Y-93952250D01*
X136607436Y-92868750D02*
X137690936Y-93952250D01*
X183356250Y-91218750D02*
X185006250Y-92868750D01*
X163222750Y-93952250D02*
X164306250Y-92868750D01*
X155657436Y-92868750D02*
X156740936Y-93952250D01*
X81600000Y-74600000D02*
X81600000Y-74305000D01*
X107156250Y-92868750D02*
X107156250Y-91218750D01*
X202406250Y-92868750D02*
X202406250Y-91218750D01*
X81600000Y-74305000D02*
X81597500Y-74302500D01*
X146906250Y-92868750D02*
X155657436Y-92868750D01*
X201322750Y-93952250D02*
X202406250Y-92868750D01*
X183356250Y-92868750D02*
X183356250Y-91218750D01*
X185006250Y-92868750D02*
X193757436Y-92868750D01*
X70706250Y-92868750D02*
X70900000Y-92868750D01*
X126206250Y-91218750D02*
X127856250Y-92868750D01*
X164306250Y-91218750D02*
X165956250Y-92868750D01*
X193757436Y-92868750D02*
X194840936Y-93952250D01*
X70900000Y-92868750D02*
X79457436Y-92868750D01*
X81597500Y-74302500D02*
X81597500Y-72250000D01*
X210568750Y-92868750D02*
X211652250Y-93952250D01*
X118640936Y-93952250D02*
X125122750Y-93952250D01*
X88106250Y-92868750D02*
X88106250Y-91218750D01*
X126206250Y-92868750D02*
X126206250Y-91218750D01*
X202406250Y-91218750D02*
X204056250Y-92868750D01*
X204056250Y-92868750D02*
X210568750Y-92868750D01*
X98507436Y-92868750D02*
X99590936Y-93952250D01*
X137690936Y-93952250D02*
X144172750Y-93952250D01*
X144172750Y-93952250D02*
X145256250Y-92868750D01*
X88106250Y-91218750D02*
X89756250Y-92868750D01*
X194840936Y-93952250D02*
X201322750Y-93952250D01*
X69056250Y-91218750D02*
X70706250Y-92868750D01*
X125122750Y-93952250D02*
X126206250Y-92868750D01*
X145256250Y-91218750D02*
X146906250Y-92868750D01*
X211652250Y-93952250D02*
X219247750Y-93952250D01*
X79457436Y-92868750D02*
X80540936Y-93952250D01*
X108806250Y-92868750D02*
X117557436Y-92868750D01*
X165956250Y-92868750D02*
X174707436Y-92868750D01*
X80540936Y-93952250D02*
X87022750Y-93952250D01*
X175790936Y-93952250D02*
X182272750Y-93952250D01*
X106072750Y-93952250D02*
X107156250Y-92868750D01*
X156740936Y-93952250D02*
X163222750Y-93952250D01*
X164306250Y-92868750D02*
X164306250Y-91218750D01*
X220400000Y-92800000D02*
X220400000Y-91150000D01*
X182272750Y-93952250D02*
X183356250Y-92868750D01*
X89756250Y-92868750D02*
X98507436Y-92868750D01*
%TO.N,Net-(D23-A)*%
X88106250Y-94773750D02*
X88106250Y-94518750D01*
X93821250Y-95091250D02*
X88423750Y-95091250D01*
X88423750Y-95091250D02*
X88106250Y-94773750D01*
%TO.N,Net-(D24-A)*%
X112871250Y-95091250D02*
X107473750Y-95091250D01*
X107156250Y-94773750D02*
X107156250Y-94518750D01*
X107473750Y-95091250D02*
X107156250Y-94773750D01*
%TO.N,Net-(D25-A)*%
X126206250Y-94773750D02*
X126206250Y-94518750D01*
X126523750Y-95091250D02*
X126206250Y-94773750D01*
X131921250Y-95091250D02*
X126523750Y-95091250D01*
%TO.N,Net-(D26-A)*%
X145256250Y-94773750D02*
X145256250Y-94518750D01*
X150971250Y-95091250D02*
X145573750Y-95091250D01*
X145573750Y-95091250D02*
X145256250Y-94773750D01*
%TO.N,Net-(D27-A)*%
X164623750Y-95091250D02*
X164306250Y-94773750D01*
X164306250Y-94773750D02*
X164306250Y-94518750D01*
X170021250Y-95091250D02*
X164623750Y-95091250D01*
%TO.N,Net-(D28-A)*%
X183673750Y-95091250D02*
X183356250Y-94773750D01*
X189071250Y-95091250D02*
X183673750Y-95091250D01*
X183356250Y-94773750D02*
X183356250Y-94518750D01*
%TO.N,Net-(D29-A)*%
X208121250Y-95091250D02*
X202723750Y-95091250D01*
X202723750Y-95091250D02*
X202406250Y-94773750D01*
X202406250Y-94773750D02*
X202406250Y-94518750D01*
%TO.N,Net-(D30-A)*%
X69056250Y-113823750D02*
X69056250Y-113568750D01*
X69373750Y-114141250D02*
X69056250Y-113823750D01*
X74771250Y-114141250D02*
X69373750Y-114141250D01*
%TO.N,/ROW2*%
X107156250Y-110268750D02*
X108806250Y-111918750D01*
X202406250Y-110268750D02*
X204056250Y-111918750D01*
X125122750Y-113002250D02*
X126206250Y-111918750D01*
X156740936Y-113002250D02*
X163222750Y-113002250D01*
X127856250Y-111918750D02*
X131680064Y-111918750D01*
X172429436Y-111918750D02*
X173610686Y-113100000D01*
X155657436Y-111918750D02*
X156740936Y-113002250D01*
X69056250Y-110268750D02*
X70706250Y-111918750D01*
X185006250Y-111918750D02*
X188830064Y-111918750D01*
X219397750Y-113002250D02*
X220500000Y-111900000D01*
X132763564Y-113002250D02*
X144172750Y-113002250D01*
X146906250Y-111918750D02*
X155657436Y-111918750D01*
X126206250Y-111918750D02*
X126206250Y-110268750D01*
X77179436Y-111918750D02*
X78262936Y-113002250D01*
X96229436Y-111918750D02*
X97312936Y-113002250D01*
X106072750Y-113002250D02*
X107156250Y-111918750D01*
X144172750Y-113002250D02*
X145256250Y-111918750D01*
X108806250Y-111918750D02*
X117557436Y-111918750D01*
X204056250Y-111918750D02*
X212807436Y-111918750D01*
X164306250Y-111918750D02*
X164306250Y-110268750D01*
X78262936Y-113002250D02*
X87022750Y-113002250D01*
X80300764Y-74600764D02*
X80327500Y-74574028D01*
X213890936Y-113002250D02*
X219397750Y-113002250D01*
X145256250Y-110268750D02*
X146906250Y-111918750D01*
X163222750Y-113002250D02*
X164306250Y-111918750D01*
X183356250Y-110268750D02*
X185006250Y-111918750D01*
X118640936Y-113002250D02*
X125122750Y-113002250D01*
X87022750Y-113002250D02*
X88106250Y-111918750D01*
X80327500Y-74574028D02*
X80327500Y-72250000D01*
X88106250Y-111918750D02*
X88106250Y-110268750D01*
X220500000Y-111900000D02*
X220500000Y-110250000D01*
X165956250Y-111918750D02*
X172429436Y-111918750D01*
X107156250Y-111918750D02*
X107156250Y-110268750D01*
X70900000Y-111918750D02*
X77179436Y-111918750D01*
X131680064Y-111918750D02*
X132763564Y-113002250D01*
X182175000Y-113100000D02*
X183356250Y-111918750D01*
X70706250Y-111918750D02*
X70900000Y-111918750D01*
X188830064Y-111918750D02*
X189913564Y-113002250D01*
X189913564Y-113002250D02*
X201322750Y-113002250D01*
X89756250Y-111918750D02*
X96229436Y-111918750D01*
X88106250Y-110268750D02*
X89756250Y-111918750D01*
X173610686Y-113100000D02*
X182175000Y-113100000D01*
X126206250Y-110268750D02*
X127856250Y-111918750D01*
X183356250Y-111918750D02*
X183356250Y-110268750D01*
X97312936Y-113002250D02*
X106072750Y-113002250D01*
X164306250Y-110268750D02*
X165956250Y-111918750D01*
X201322750Y-113002250D02*
X202406250Y-111918750D01*
X202406250Y-111918750D02*
X202406250Y-110268750D01*
X117557436Y-111918750D02*
X118640936Y-113002250D01*
X145256250Y-111918750D02*
X145256250Y-110268750D01*
X212807436Y-111918750D02*
X213890936Y-113002250D01*
%TO.N,Net-(D31-A)*%
X88106250Y-113823750D02*
X88106250Y-113568750D01*
X88423750Y-114141250D02*
X88106250Y-113823750D01*
X93821250Y-114141250D02*
X88423750Y-114141250D01*
%TO.N,Net-(D32-A)*%
X107156250Y-113823750D02*
X107156250Y-113568750D01*
X107473750Y-114141250D02*
X107156250Y-113823750D01*
X112871250Y-114141250D02*
X107473750Y-114141250D01*
%TO.N,Net-(D33-A)*%
X131921250Y-114141250D02*
X126523750Y-114141250D01*
X126523750Y-114141250D02*
X126206250Y-113823750D01*
X126206250Y-113823750D02*
X126206250Y-113568750D01*
%TO.N,Net-(D34-A)*%
X150971250Y-114141250D02*
X145828750Y-114141250D01*
X145828750Y-114141250D02*
X145256250Y-113568750D01*
%TO.N,Net-(D35-A)*%
X164623750Y-114141250D02*
X164306250Y-113823750D01*
X170021250Y-114141250D02*
X164623750Y-114141250D01*
X164306250Y-113823750D02*
X164306250Y-113568750D01*
%TO.N,Net-(D36-A)*%
X189071250Y-114141250D02*
X183673750Y-114141250D01*
X183673750Y-114141250D02*
X183356250Y-113823750D01*
X183356250Y-113823750D02*
X183356250Y-113568750D01*
%TO.N,Net-(D37-A)*%
X208121250Y-114141250D02*
X202723750Y-114141250D01*
X202406250Y-113823750D02*
X202406250Y-113568750D01*
X202723750Y-114141250D02*
X202406250Y-113823750D01*
%TO.N,Net-(U1-GPIO3{slash}MOSI)*%
X94450000Y-57150000D02*
X88582500Y-57150000D01*
X94500000Y-57100000D02*
X94450000Y-57150000D01*
X98931250Y-50968750D02*
X98900000Y-51000000D01*
X142843750Y-50968750D02*
X98931250Y-50968750D01*
%TO.N,Net-(U1-GPIO4{slash}MISO)*%
X94500000Y-59600000D02*
X94410000Y-59690000D01*
X132168750Y-52200000D02*
X100100000Y-52200000D01*
X94410000Y-59690000D02*
X88582500Y-59690000D01*
X138081250Y-58112500D02*
X132168750Y-52200000D01*
%TO.N,Net-(U1-GPIO2{slash}SCK)*%
X95866100Y-74599000D02*
X94501000Y-73233900D01*
X94501000Y-73233900D02*
X94501000Y-66101000D01*
X131276650Y-65256250D02*
X121933900Y-74599000D01*
X90630000Y-62230000D02*
X89417500Y-62230000D01*
X121933900Y-74599000D02*
X95866100Y-74599000D01*
X133318750Y-65256250D02*
X131276650Y-65256250D01*
X94501000Y-66101000D02*
X90630000Y-62230000D01*
%TO.N,Net-(U1-GPIO1{slash}RX)*%
X94100000Y-73400000D02*
X94100000Y-68000000D01*
X95700000Y-75000000D02*
X94100000Y-73400000D01*
X128556250Y-72400000D02*
X124700000Y-72400000D01*
X124700000Y-72400000D02*
X122100000Y-75000000D01*
X122100000Y-75000000D02*
X95700000Y-75000000D01*
X90870000Y-64770000D02*
X89417500Y-64770000D01*
X94100000Y-68000000D02*
X90870000Y-64770000D01*
%TO.N,Net-(U1-GPIO0{slash}TX)*%
X123793750Y-77193750D02*
X122000000Y-75400000D01*
X93816450Y-73683550D02*
X93400000Y-73267100D01*
X95533900Y-75401000D02*
X93816450Y-73683550D01*
X93400000Y-73267100D02*
X93400000Y-73200000D01*
X121999000Y-75401000D02*
X95533900Y-75401000D01*
X122000000Y-75400000D02*
X121999000Y-75401000D01*
X123793750Y-79543750D02*
X123793750Y-77193750D01*
%TO.N,/COL1*%
X72707500Y-83892500D02*
X72707500Y-81550000D01*
X72700000Y-83900000D02*
X72707500Y-83892500D01*
%TO.N,/COL2*%
X74000000Y-83900000D02*
X73977500Y-83877500D01*
X73977500Y-83877500D02*
X73977500Y-81550000D01*
%TO.N,/COL3*%
X75300000Y-83900000D02*
X75247500Y-83847500D01*
X75247500Y-83847500D02*
X75247500Y-81550000D01*
%TO.N,/COL4*%
X76500000Y-83900000D02*
X76517500Y-83882500D01*
X76517500Y-83882500D02*
X76517500Y-81550000D01*
%TO.N,/COL5*%
X77787500Y-83887500D02*
X77787500Y-81550000D01*
X77800000Y-83900000D02*
X77787500Y-83887500D01*
%TO.N,/COL6*%
X79100000Y-83900000D02*
X79057500Y-83857500D01*
X79057500Y-83857500D02*
X79057500Y-81550000D01*
%TO.N,/COL7*%
X80300000Y-83900000D02*
X80327500Y-83872500D01*
X80327500Y-83872500D02*
X80327500Y-81550000D01*
%TO.N,/COL8*%
X81600000Y-83900000D02*
X81597500Y-83897500D01*
X81597500Y-83897500D02*
X81597500Y-81550000D01*
%TO.N,/SW17.A*%
X71169500Y-67895000D02*
X75895000Y-67895000D01*
X68296000Y-70768500D02*
X71169500Y-67895000D01*
X79057500Y-71057500D02*
X79057500Y-72250000D01*
X75895000Y-67895000D02*
X79057500Y-71057500D01*
X68296000Y-84064400D02*
X68296000Y-70768500D01*
X71435600Y-87204000D02*
X68296000Y-84064400D01*
X196096000Y-87204000D02*
X71435600Y-87204000D01*
X198400000Y-84900000D02*
X196096000Y-87204000D01*
%TO.N,+3.3V*%
X204500000Y-48200000D02*
X208490000Y-52190000D01*
X94474265Y-54525735D02*
X94390000Y-54610000D01*
X94525735Y-54525735D02*
X94474265Y-54525735D01*
X208490000Y-52190000D02*
X218600000Y-52190000D01*
X94390000Y-54610000D02*
X89417500Y-54610000D01*
%TO.N,/SW17.S*%
X196501000Y-84299000D02*
X195900000Y-84900000D01*
X220400000Y-94450000D02*
X221290000Y-95340000D01*
X222998000Y-92029250D02*
X215267750Y-84299000D01*
X222958000Y-95340000D02*
X222998000Y-95300000D01*
X215267750Y-84299000D02*
X196501000Y-84299000D01*
X221290000Y-95340000D02*
X222958000Y-95340000D01*
X222998000Y-95300000D02*
X222998000Y-92029250D01*
%TO.N,/SW17.B*%
X68697000Y-83898300D02*
X71601700Y-86803000D01*
X71601700Y-86803000D02*
X195297000Y-86803000D01*
X68697000Y-70934600D02*
X71335600Y-68296000D01*
X77787500Y-71012500D02*
X77787500Y-72250000D01*
X195297000Y-86803000D02*
X197200000Y-84900000D01*
X68697000Y-83898300D02*
X68697000Y-70934600D01*
X75096000Y-68296000D02*
X77800000Y-71000000D01*
X77800000Y-71000000D02*
X77787500Y-71012500D01*
X71335600Y-68296000D02*
X75096000Y-68296000D01*
%TO.N,/SW18.B*%
X193243750Y-85600000D02*
X72100000Y-85600000D01*
X69900000Y-71432900D02*
X71833900Y-69499000D01*
X72499000Y-69499000D02*
X73977500Y-70977500D01*
X202406250Y-76437500D02*
X193243750Y-85600000D01*
X72100000Y-85600000D02*
X69900000Y-83400000D01*
X71833900Y-69499000D02*
X72499000Y-69499000D01*
X73977500Y-70977500D02*
X73977500Y-72250000D01*
X69900000Y-83400000D02*
X69900000Y-71432900D01*
%TO.N,/SW18.A*%
X75247500Y-71047500D02*
X75247500Y-72250000D01*
X73298000Y-69098000D02*
X75247500Y-71047500D01*
X69499000Y-83566100D02*
X69499000Y-71266800D01*
X199510850Y-79900000D02*
X193409850Y-86001000D01*
X69566450Y-83633550D02*
X69499000Y-83566100D01*
X193409850Y-86001000D02*
X71933900Y-86001000D01*
X71667800Y-69098000D02*
X73298000Y-69098000D01*
X69499000Y-71266800D02*
X71667800Y-69098000D01*
X200000000Y-79900000D02*
X199510850Y-79900000D01*
X71933900Y-86001000D02*
X69566450Y-83633550D01*
X69566450Y-83633550D02*
X69516450Y-83583550D01*
%TO.N,unconnected-(SW18-PadMP)*%
X208505250Y-69738500D02*
X208505250Y-78136500D01*
X209906250Y-68337500D02*
X208505250Y-69738500D01*
X208505250Y-78136500D02*
X209906250Y-79537500D01*
%TO.N,/SW18.S*%
X223399000Y-111541000D02*
X223399000Y-82930250D01*
X221390000Y-113550000D02*
X223399000Y-111541000D01*
X220500000Y-113550000D02*
X221390000Y-113550000D01*
X223399000Y-82930250D02*
X216906250Y-76437500D01*
%TO.N,/SDA*%
X80257100Y-59690000D02*
X91401000Y-70833900D01*
X91401000Y-70833900D02*
X91401000Y-77071501D01*
X87947500Y-80525001D02*
X87947500Y-81550000D01*
X91401000Y-77071501D02*
X87947500Y-80525001D01*
X73342500Y-59690000D02*
X80257100Y-59690000D01*
%TO.N,/SCL*%
X91000000Y-76202501D02*
X86677500Y-80525001D01*
X82230000Y-62230000D02*
X91000000Y-71000000D01*
X91000000Y-71000000D02*
X91000000Y-76202501D01*
X86677500Y-80525001D02*
X86677500Y-81550000D01*
X73342500Y-62230000D02*
X82230000Y-62230000D01*
%TO.N,/COL9*%
X72707500Y-72250000D02*
X72707500Y-73274999D01*
X79332501Y-79900000D02*
X82267500Y-79900000D01*
X72707500Y-73274999D02*
X79332501Y-79900000D01*
%TD*%
M02*
