M48
; DRILL file {KiCad 9.0.6} date 2025-12-14T23:03:50+0100
; FORMAT={-:-/ absolute / metric / decimal}
; #@! TF.CreationDate,2025-12-14T23:03:50+01:00
; #@! TF.GenerationSoftware,Kicad,Pcbnew,9.0.6
; #@! TF.FileFunction,Plated,1,2,PTH
FMAT,2
METRIC
; #@! TA.AperFunction,Plated,PTH,ViaDrill
T1C0.300
; #@! TA.AperFunction,Plated,PTH,ComponentDrill
T2C0.889
; #@! TA.AperFunction,Plated,PTH,ComponentDrill
T3C0.900
; #@! TA.AperFunction,Plated,PTH,ComponentDrill
T4C1.000
; #@! TA.AperFunction,Plated,PTH,ComponentDrill
T5C1.500
%
G90
G05
T1
X70.9Y-92.869
X70.9Y-111.919
X72.7Y-83.9
X74.0Y-83.9
X75.3Y-83.9
X76.5Y-83.9
X77.8Y-83.9
X79.1Y-83.9
X79.2Y-62.23
X80.257Y-59.69
X80.3Y-83.9
X80.301Y-74.601
X81.6Y-74.6
X81.6Y-83.9
X82.267Y-79.9
X85.4Y-74.0
X86.8Y-51.6
X90.2Y-68.6
X93.4Y-73.2
X94.5Y-57.1
X94.5Y-59.6
X94.526Y-54.526
X97.7Y-68.1
X98.9Y-51.0
X100.1Y-52.2
X101.2Y-58.0
X101.2Y-62.9
X101.2Y-68.1
X102.8Y-53.0
X104.4Y-68.0
X106.3Y-57.9
X107.9Y-57.8
X107.9Y-62.9
X107.9Y-68.1
X109.5Y-52.968
X111.1Y-68.1
X113.2Y-57.9
X114.6Y-57.8
X114.6Y-63.0
X114.6Y-68.1
X116.2Y-52.968
X120.0Y-57.8
X123.067Y-68.067
X135.1Y-79.8
X184.6Y-82.8
X195.9Y-84.9
X197.2Y-84.9
X198.4Y-84.9
X200.0Y-79.9
X204.5Y-48.2
T2
X73.343Y-49.53
X73.343Y-52.07
X73.343Y-54.61
X73.343Y-57.15
X73.343Y-59.69
X73.343Y-62.23
X73.343Y-64.77
X88.582Y-49.53
X88.582Y-52.07
X88.582Y-54.61
X88.582Y-57.15
X88.582Y-59.69
X88.582Y-62.23
X88.582Y-64.77
T3
X130.938Y-79.544
X130.938Y-82.084
X135.7Y-72.4
X135.7Y-74.94
X140.463Y-65.256
X140.463Y-67.796
X145.225Y-58.112
X145.225Y-60.652
X149.987Y-50.969
X149.987Y-53.509
T4
X161.66Y-57.885
X164.2Y-57.885
X166.74Y-57.885
X171.34Y-57.885
X173.88Y-57.885
X183.144Y-71.438
X183.144Y-73.938
X183.144Y-76.438
X197.644Y-71.438
X197.644Y-76.438
X202.406Y-71.438
X202.406Y-73.938
X202.406Y-76.438
X216.906Y-71.438
X216.906Y-76.438
X218.6Y-52.19
X218.6Y-54.73
X218.6Y-57.27
X218.6Y-59.81
T5
X74.771Y-95.091
X74.771Y-114.141
X81.121Y-92.551
X81.121Y-111.601
X93.821Y-95.091
X93.821Y-114.141
X100.171Y-92.551
X100.171Y-111.601
X112.871Y-95.091
X112.871Y-114.141
X119.221Y-92.551
X119.221Y-111.601
X131.921Y-95.091
X131.921Y-114.141
X138.271Y-92.551
X138.271Y-111.601
X150.971Y-95.091
X150.971Y-114.141
X157.321Y-92.551
X157.321Y-111.601
X170.021Y-95.091
X170.021Y-114.141
X176.371Y-92.551
X176.371Y-111.601
X189.071Y-95.091
X189.071Y-114.141
X195.421Y-92.551
X195.421Y-111.601
X208.121Y-95.091
X208.121Y-114.141
X214.471Y-92.551
X214.471Y-111.601
T5
G00X189.994Y-68.337
M15
G01X191.294Y-68.337
M16
G05
G00X189.994Y-79.537
M15
G01X191.294Y-79.537
M16
G05
G00X209.256Y-68.337
M15
G01X210.556Y-68.337
M16
G05
G00X209.256Y-79.537
M15
G01X210.556Y-79.537
M16
G05
M30
