%TF.GenerationSoftware,KiCad,Pcbnew,9.0.6*%
%TF.CreationDate,2025-12-14T23:03:34+01:00*%
%TF.ProjectId,KiCad-Diynamic-Project-Display-Module,4b694361-642d-4446-9979-6e616d69632d,rev?*%
%TF.SameCoordinates,Original*%
%TF.FileFunction,Copper,L2,Bot*%
%TF.FilePolarity,Positive*%
%FSLAX46Y46*%
G04 Gerber Fmt 4.6, Leading zero omitted, Abs format (unit mm)*
G04 Created by KiCad (PCBNEW 9.0.6) date 2025-12-14 23:03:34*
%MOMM*%
%LPD*%
G01*
G04 APERTURE LIST*
%TA.AperFunction,ComponentPad*%
%ADD10R,2.000000X2.000000*%
%TD*%
%TA.AperFunction,ComponentPad*%
%ADD11C,2.000000*%
%TD*%
%TA.AperFunction,ComponentPad*%
%ADD12R,3.200000X2.000000*%
%TD*%
%TA.AperFunction,ComponentPad*%
%ADD13C,2.200000*%
%TD*%
%TA.AperFunction,ComponentPad*%
%ADD14C,1.524000*%
%TD*%
%TA.AperFunction,ComponentPad*%
%ADD15R,1.700000X1.700000*%
%TD*%
%TA.AperFunction,ComponentPad*%
%ADD16O,1.700000X1.700000*%
%TD*%
%TA.AperFunction,ComponentPad*%
%ADD17R,1.800000X1.800000*%
%TD*%
%TA.AperFunction,ComponentPad*%
%ADD18C,1.800000*%
%TD*%
%TA.AperFunction,ComponentPad*%
%ADD19C,1.700000*%
%TD*%
%TA.AperFunction,ViaPad*%
%ADD20C,0.600000*%
%TD*%
%TA.AperFunction,Conductor*%
%ADD21C,0.200000*%
%TD*%
G04 APERTURE END LIST*
D10*
%TO.P,SW17,A,A*%
%TO.N,/SW17.A*%
X183143750Y-71437500D03*
D11*
%TO.P,SW17,B,B*%
%TO.N,/SW17.B*%
X183143750Y-76437500D03*
%TO.P,SW17,C,C*%
%TO.N,GND*%
X183143750Y-73937500D03*
D12*
%TO.P,SW17,MP,MP*%
%TO.N,unconnected-(SW17-PadMP)*%
X190643750Y-68337500D03*
X190643750Y-79537500D03*
D11*
%TO.P,SW17,S1,S1*%
%TO.N,/SW17.S*%
X197643750Y-76437500D03*
%TO.P,SW17,S2,S2*%
%TO.N,/COL9*%
X197643750Y-71437500D03*
%TD*%
D10*
%TO.P,SW18,A,A*%
%TO.N,/SW18.A*%
X202406250Y-71437500D03*
D11*
%TO.P,SW18,B,B*%
%TO.N,/SW18.B*%
X202406250Y-76437500D03*
%TO.P,SW18,C,C*%
%TO.N,GND*%
X202406250Y-73937500D03*
D12*
%TO.P,SW18,MP,MP*%
%TO.N,unconnected-(SW18-PadMP)*%
X209906250Y-68337500D03*
X209906250Y-79537500D03*
D11*
%TO.P,SW18,S1,S1*%
%TO.N,/SW18.S*%
X216906250Y-76437500D03*
%TO.P,SW18,S2,S2*%
%TO.N,/COL9*%
X216906250Y-71437500D03*
%TD*%
D13*
%TO.P,SW16,1,1*%
%TO.N,/COL8*%
X214471250Y-92551250D03*
%TO.P,SW16,2,2*%
%TO.N,Net-(D29-A)*%
X208121250Y-95091250D03*
%TD*%
%TO.P,SW10,1,1*%
%TO.N,/COL2*%
X100171250Y-92551250D03*
%TO.P,SW10,2,2*%
%TO.N,Net-(D23-A)*%
X93821250Y-95091250D03*
%TD*%
%TO.P,SW3,1,1*%
%TO.N,/COL3*%
X119221250Y-111601250D03*
%TO.P,SW3,2,2*%
%TO.N,Net-(D32-A)*%
X112871250Y-114141250D03*
%TD*%
%TO.P,SW6,1,1*%
%TO.N,/COL6*%
X176371250Y-111601250D03*
%TO.P,SW6,2,2*%
%TO.N,Net-(D35-A)*%
X170021250Y-114141250D03*
%TD*%
%TO.P,SW2,1,1*%
%TO.N,/COL2*%
X100171250Y-111601250D03*
%TO.P,SW2,2,2*%
%TO.N,Net-(D31-A)*%
X93821250Y-114141250D03*
%TD*%
%TO.P,SW14,1,1*%
%TO.N,/COL6*%
X176371250Y-92551250D03*
%TO.P,SW14,2,2*%
%TO.N,Net-(D27-A)*%
X170021250Y-95091250D03*
%TD*%
%TO.P,SW12,1,1*%
%TO.N,/COL4*%
X138271250Y-92551250D03*
%TO.P,SW12,2,2*%
%TO.N,Net-(D25-A)*%
X131921250Y-95091250D03*
%TD*%
%TO.P,SW8,1,1*%
%TO.N,/COL8*%
X214471250Y-111601250D03*
%TO.P,SW8,2,2*%
%TO.N,Net-(D37-A)*%
X208121250Y-114141250D03*
%TD*%
%TO.P,SW7,1,1*%
%TO.N,/COL7*%
X195421250Y-111601250D03*
%TO.P,SW7,2,2*%
%TO.N,Net-(D36-A)*%
X189071250Y-114141250D03*
%TD*%
%TO.P,SW5,1,1*%
%TO.N,/COL5*%
X157321250Y-111601250D03*
%TO.P,SW5,2,2*%
%TO.N,Net-(D34-A)*%
X150971250Y-114141250D03*
%TD*%
%TO.P,SW13,1,1*%
%TO.N,/COL5*%
X157321250Y-92551250D03*
%TO.P,SW13,2,2*%
%TO.N,Net-(D26-A)*%
X150971250Y-95091250D03*
%TD*%
%TO.P,SW9,1,1*%
%TO.N,/COL1*%
X81121250Y-92551250D03*
%TO.P,SW9,2,2*%
%TO.N,Net-(D22-A)*%
X74771250Y-95091250D03*
%TD*%
%TO.P,SW4,1,1*%
%TO.N,/COL4*%
X138271250Y-111601250D03*
%TO.P,SW4,2,2*%
%TO.N,Net-(D33-A)*%
X131921250Y-114141250D03*
%TD*%
%TO.P,SW11,1,1*%
%TO.N,/COL3*%
X119221250Y-92551250D03*
%TO.P,SW11,2,2*%
%TO.N,Net-(D24-A)*%
X112871250Y-95091250D03*
%TD*%
%TO.P,SW1,1,1*%
%TO.N,/COL1*%
X81121250Y-111601250D03*
%TO.P,SW1,2,2*%
%TO.N,Net-(D30-A)*%
X74771250Y-114141250D03*
%TD*%
%TO.P,SW15,1,1*%
%TO.N,/COL7*%
X195421250Y-92551250D03*
%TO.P,SW15,2,2*%
%TO.N,Net-(D28-A)*%
X189071250Y-95091250D03*
%TD*%
D14*
%TO.P,U1,1,GPIO26/ADC0/A0*%
%TO.N,Net-(D1-DIN)*%
X73342500Y-49530000D03*
%TO.P,U1,2,GPIO27/ADC1/A1*%
%TO.N,Net-(J1-Pin_3)*%
X73342500Y-52070000D03*
%TO.P,U1,3,GPIO28/ADC2/A2*%
%TO.N,Net-(J1-Pin_2)*%
X73342500Y-54610000D03*
%TO.P,U1,4,GPIO29/ADC3/A3*%
%TO.N,Net-(J1-Pin_1)*%
X73342500Y-57150000D03*
%TO.P,U1,5,GPIO6/SDA*%
%TO.N,/SDA*%
X73342500Y-59690000D03*
%TO.P,U1,6,GPIO7/SCL*%
%TO.N,/SCL*%
X73342500Y-62230000D03*
%TO.P,U1,7,GPIO0/TX*%
%TO.N,Net-(U1-GPIO0{slash}TX)*%
X73342500Y-64770000D03*
%TO.P,U1,8,GPIO1/RX*%
%TO.N,Net-(U1-GPIO1{slash}RX)*%
X88582500Y-64770000D03*
%TO.P,U1,9,GPIO2/SCK*%
%TO.N,Net-(U1-GPIO2{slash}SCK)*%
X88582500Y-62230000D03*
%TO.P,U1,10,GPIO4/MISO*%
%TO.N,Net-(U1-GPIO4{slash}MISO)*%
X88582500Y-59690000D03*
%TO.P,U1,11,GPIO3/MOSI*%
%TO.N,Net-(U1-GPIO3{slash}MOSI)*%
X88582500Y-57150000D03*
%TO.P,U1,12,3V3*%
%TO.N,+3.3V*%
X88582500Y-54610000D03*
%TO.P,U1,13,GND*%
%TO.N,GND*%
X88582500Y-52070000D03*
%TO.P,U1,14,VBUS*%
%TO.N,+5V*%
X88582500Y-49530000D03*
%TD*%
D15*
%TO.P,Brd1,1,VCC*%
%TO.N,+3.3V*%
X218600000Y-52190000D03*
D16*
%TO.P,Brd1,2,GND*%
%TO.N,GND*%
X218600000Y-54730000D03*
%TO.P,Brd1,3,SCL*%
%TO.N,/SCL*%
X218600000Y-57270000D03*
%TO.P,Brd1,4,SDA*%
%TO.N,/SDA*%
X218600000Y-59810000D03*
%TD*%
D17*
%TO.P,D21,1,K*%
%TO.N,GND*%
X130937500Y-79543750D03*
D18*
%TO.P,D21,2,A*%
%TO.N,Net-(D21-A)*%
X130937500Y-82083750D03*
%TD*%
D17*
%TO.P,D18,1,K*%
%TO.N,GND*%
X145225000Y-58112500D03*
D18*
%TO.P,D18,2,A*%
%TO.N,Net-(D18-A)*%
X145225000Y-60652500D03*
%TD*%
D17*
%TO.P,D19,1,K*%
%TO.N,GND*%
X140462500Y-65256250D03*
D18*
%TO.P,D19,2,A*%
%TO.N,Net-(D19-A)*%
X140462500Y-67796250D03*
%TD*%
D17*
%TO.P,D20,1,K*%
%TO.N,GND*%
X135700000Y-72400000D03*
D18*
%TO.P,D20,2,A*%
%TO.N,Net-(D20-A)*%
X135700000Y-74940000D03*
%TD*%
D17*
%TO.P,D17,1,K*%
%TO.N,GND*%
X149987500Y-50968750D03*
D18*
%TO.P,D17,2,A*%
%TO.N,Net-(D17-A)*%
X149987500Y-53508750D03*
%TD*%
D15*
%TO.P,J2,1,Pin_1*%
%TO.N,/SDA*%
X173880000Y-57885000D03*
D19*
%TO.P,J2,2,Pin_2*%
%TO.N,/SCL*%
X171340000Y-57885000D03*
%TD*%
D15*
%TO.P,J1,1,Pin_1*%
%TO.N,Net-(J1-Pin_1)*%
X166740000Y-57885000D03*
D19*
%TO.P,J1,2,Pin_2*%
%TO.N,Net-(J1-Pin_2)*%
X164200000Y-57885000D03*
%TO.P,J1,3,Pin_3*%
%TO.N,Net-(J1-Pin_3)*%
X161660000Y-57885000D03*
%TD*%
D20*
%TO.N,GND*%
X184600000Y-82800000D03*
X135100000Y-79800000D03*
%TO.N,+5V*%
X107900000Y-57800000D03*
X116200000Y-52967500D03*
X86800000Y-51600000D03*
X90200000Y-68600000D03*
X114600000Y-57800000D03*
X101200000Y-68100000D03*
X107900000Y-68100000D03*
X101200000Y-62900000D03*
X102800000Y-53000000D03*
X123067500Y-68067500D03*
X107900000Y-62900000D03*
X109500000Y-52967500D03*
X114600000Y-63000000D03*
X114600000Y-68100000D03*
X85400000Y-74000000D03*
X101200000Y-58000000D03*
%TO.N,Net-(D4-DOUT)*%
X106300000Y-57900000D03*
X97700000Y-68100000D03*
%TO.N,Net-(D8-DOUT)*%
X104400000Y-68000000D03*
X113200000Y-57900000D03*
%TO.N,Net-(D12-DOUT)*%
X111100000Y-68100000D03*
X120000000Y-57800000D03*
%TO.N,/ROW1*%
X70900000Y-92868750D03*
X81600000Y-74600000D03*
%TO.N,/ROW2*%
X80300764Y-74600764D03*
X70900000Y-111918750D03*
%TO.N,Net-(U1-GPIO3{slash}MOSI)*%
X98900000Y-51000000D03*
X94500000Y-57100000D03*
%TO.N,Net-(U1-GPIO4{slash}MISO)*%
X100100000Y-52200000D03*
X94500000Y-59600000D03*
%TO.N,Net-(U1-GPIO0{slash}TX)*%
X93400000Y-73200000D03*
%TO.N,/COL1*%
X72700000Y-83900000D03*
%TO.N,/COL2*%
X74000000Y-83900000D03*
%TO.N,/COL3*%
X75300000Y-83900000D03*
%TO.N,/COL4*%
X76500000Y-83900000D03*
%TO.N,/COL5*%
X77800000Y-83900000D03*
%TO.N,/COL6*%
X79100000Y-83900000D03*
%TO.N,/COL7*%
X80300000Y-83900000D03*
%TO.N,/COL8*%
X81600000Y-83900000D03*
%TO.N,/SW17.A*%
X198400000Y-84900000D03*
%TO.N,+3.3V*%
X204500000Y-48200000D03*
X94525735Y-54525735D03*
%TO.N,/SW17.S*%
X195900000Y-84900000D03*
%TO.N,/SW17.B*%
X197200000Y-84900000D03*
%TO.N,/SW18.A*%
X200000000Y-79900000D03*
%TO.N,/SDA*%
X80257100Y-59690000D03*
%TO.N,/SCL*%
X79200000Y-62230000D03*
%TO.N,/COL9*%
X82267500Y-79900000D03*
%TD*%
D21*
%TO.N,GND*%
X184600000Y-82800000D02*
X135100000Y-82800000D01*
X135100000Y-79800000D02*
X135100000Y-82800000D01*
%TO.N,+5V*%
X73250057Y-68600000D02*
X90200000Y-68600000D01*
X85400000Y-74000000D02*
X72850057Y-74000000D01*
X116200000Y-56200000D02*
X116200000Y-52967500D01*
X108501000Y-68701000D02*
X113999000Y-68701000D01*
X101701000Y-68601000D02*
X107399000Y-68601000D01*
X70599000Y-71251057D02*
X73250057Y-68600000D01*
X113999000Y-68701000D02*
X114600000Y-68100000D01*
X72850057Y-74000000D02*
X70599000Y-71748943D01*
X107399000Y-68601000D02*
X107900000Y-68100000D01*
X116200000Y-61400000D02*
X116200000Y-56200000D01*
X102800000Y-56400000D02*
X102800000Y-53000000D01*
X107900000Y-57800000D02*
X109400000Y-56300000D01*
X107900000Y-62900000D02*
X109500000Y-61300000D01*
X114600000Y-57800000D02*
X116200000Y-56200000D01*
X109500000Y-56300000D02*
X109500000Y-52967500D01*
X102800000Y-61300000D02*
X102800000Y-56400000D01*
X109400000Y-56300000D02*
X109500000Y-56300000D01*
X114600000Y-68100000D02*
X123035000Y-68100000D01*
X114600000Y-63000000D02*
X116200000Y-61400000D01*
X101200000Y-62900000D02*
X102800000Y-61300000D01*
X86800000Y-51600000D02*
X86800000Y-51312500D01*
X109500000Y-61300000D02*
X109500000Y-56300000D01*
X70599000Y-71748943D02*
X70599000Y-71251057D01*
X86800000Y-51312500D02*
X88582500Y-49530000D01*
X101200000Y-58000000D02*
X102800000Y-56400000D01*
X101200000Y-68100000D02*
X101701000Y-68601000D01*
X107900000Y-68100000D02*
X108501000Y-68701000D01*
%TO.N,Net-(D4-DOUT)*%
X97700000Y-68100000D02*
X106300000Y-59500000D01*
X106300000Y-59500000D02*
X106300000Y-57900000D01*
%TO.N,Net-(D8-DOUT)*%
X113200000Y-59200000D02*
X113200000Y-57900000D01*
X104400000Y-68000000D02*
X113200000Y-59200000D01*
%TO.N,Net-(D12-DOUT)*%
X120000000Y-59200000D02*
X120000000Y-57800000D01*
X111100000Y-68100000D02*
X120000000Y-59200000D01*
%TO.N,/ROW1*%
X81150057Y-74600000D02*
X81600000Y-74600000D01*
X69056250Y-89300000D02*
X69056250Y-86693807D01*
X70900000Y-91143750D02*
X70900000Y-92868750D01*
X69056250Y-89300000D02*
X70900000Y-91143750D01*
X69056250Y-86693807D02*
X81150057Y-74600000D01*
%TO.N,/ROW2*%
X67955250Y-86946278D02*
X80300764Y-74600764D01*
X67955250Y-108400000D02*
X67955250Y-86946278D01*
X70100000Y-108400000D02*
X70900000Y-109200000D01*
X67955250Y-108400000D02*
X70100000Y-108400000D01*
X70900000Y-109200000D02*
X70900000Y-111918750D01*
%TO.N,Net-(U1-GPIO3{slash}MOSI)*%
X94500000Y-55400000D02*
X94500000Y-57100000D01*
X98900000Y-51000000D02*
X94500000Y-55400000D01*
%TO.N,Net-(U1-GPIO4{slash}MISO)*%
X100100000Y-52200000D02*
X100100000Y-54000000D01*
X100100000Y-54000000D02*
X94500000Y-59600000D01*
%TO.N,Net-(U1-GPIO0{slash}TX)*%
X73342500Y-64770000D02*
X76571500Y-67999000D01*
X90448943Y-67999000D02*
X93400000Y-70950057D01*
X76571500Y-67999000D02*
X90448943Y-67999000D01*
X93400000Y-73200000D02*
X93400000Y-70950057D01*
%TO.N,/COL1*%
X81121250Y-92551250D02*
X81121250Y-92321250D01*
X81121250Y-111601250D02*
X81121250Y-92551250D01*
X81121250Y-92321250D02*
X72700000Y-83900000D01*
%TO.N,/COL2*%
X97520000Y-89900000D02*
X80000000Y-89900000D01*
X100171250Y-111601250D02*
X100171250Y-92551250D01*
X100171250Y-92551250D02*
X97520000Y-89900000D01*
X80000000Y-89900000D02*
X74000000Y-83900000D01*
%TO.N,/COL3*%
X80800000Y-89400000D02*
X75300000Y-83900000D01*
X116070000Y-89400000D02*
X80800000Y-89400000D01*
X119221250Y-111601250D02*
X119221250Y-92551250D01*
X119221250Y-92551250D02*
X116070000Y-89400000D01*
%TO.N,/COL4*%
X134720000Y-89000000D02*
X138271250Y-92551250D01*
X81600000Y-89000000D02*
X134720000Y-89000000D01*
X76500000Y-83900000D02*
X81600000Y-89000000D01*
X138271250Y-111601250D02*
X138271250Y-92551250D01*
%TO.N,/COL5*%
X82400000Y-88500000D02*
X77800000Y-83900000D01*
X157321250Y-92551250D02*
X153270000Y-88500000D01*
X157321250Y-111601250D02*
X157321250Y-92551250D01*
X153270000Y-88500000D02*
X82400000Y-88500000D01*
%TO.N,/COL6*%
X149000000Y-88099000D02*
X83299000Y-88099000D01*
X176371250Y-111601250D02*
X176371250Y-92551250D01*
X176371250Y-92551250D02*
X171919000Y-88099000D01*
X83299000Y-88099000D02*
X79100000Y-83900000D01*
X171919000Y-88099000D02*
X149000000Y-88099000D01*
%TO.N,/COL7*%
X86300000Y-87698000D02*
X84098000Y-87698000D01*
X195421250Y-92551250D02*
X190568000Y-87698000D01*
X144300000Y-87698000D02*
X86300000Y-87698000D01*
X84098000Y-87698000D02*
X80300000Y-83900000D01*
X190568000Y-87698000D02*
X144300000Y-87698000D01*
X195421250Y-111601250D02*
X195421250Y-92551250D01*
%TO.N,/COL8*%
X92900000Y-87297000D02*
X84997000Y-87297000D01*
X84997000Y-87297000D02*
X81600000Y-83900000D01*
X214471250Y-111601250D02*
X214471250Y-92551250D01*
X214471250Y-92551250D02*
X209217000Y-87297000D01*
X209217000Y-87297000D02*
X92900000Y-87297000D01*
%TO.N,unconnected-(SW17-PadMP)*%
X190643750Y-68337500D02*
X183641750Y-68337500D01*
X181842750Y-76976392D02*
X184403858Y-79537500D01*
X183641750Y-68337500D02*
X181842750Y-70136500D01*
X184403858Y-79537500D02*
X190643750Y-79537500D01*
X181842750Y-70136500D02*
X181842750Y-76976392D01*
%TO.N,/SW17.A*%
X195050742Y-71437500D02*
X183143750Y-71437500D01*
X199345750Y-75732508D02*
X195050742Y-71437500D01*
X199345750Y-83954250D02*
X199345750Y-75732508D01*
X198400000Y-84900000D02*
X199345750Y-83954250D01*
%TO.N,+3.3V*%
X174406250Y-48200000D02*
X99000000Y-48200000D01*
X94525735Y-52674265D02*
X94525735Y-54525735D01*
X99000000Y-48200000D02*
X94525735Y-52674265D01*
X174406250Y-48200000D02*
X204500000Y-48200000D01*
%TO.N,/SW17.S*%
X196100000Y-77981250D02*
X197643750Y-76437500D01*
X196100000Y-84700000D02*
X196100000Y-77981250D01*
X195900000Y-84900000D02*
X196100000Y-84700000D01*
%TO.N,/SW17.B*%
X198944750Y-83155250D02*
X198944750Y-75898608D01*
X197200000Y-84900000D02*
X198944750Y-83155250D01*
X198944750Y-75898608D02*
X198182642Y-75136500D01*
X191426063Y-75136500D02*
X190125063Y-76437500D01*
X198182642Y-75136500D02*
X191426063Y-75136500D01*
X190125063Y-76437500D02*
X183143750Y-76437500D01*
%TO.N,/SW18.A*%
X200000000Y-73843750D02*
X200000000Y-79900000D01*
X202406250Y-71437500D02*
X200000000Y-73843750D01*
%TO.N,Net-(J1-Pin_3)*%
X123000000Y-72900000D02*
X126900000Y-69000000D01*
X90300000Y-65800000D02*
X97400000Y-72900000D01*
X81953057Y-65833000D02*
X90267000Y-65833000D01*
X78599000Y-62478943D02*
X81953057Y-65833000D01*
X78599000Y-57326500D02*
X78599000Y-62478943D01*
X150545000Y-69000000D02*
X161660000Y-57885000D01*
X97400000Y-72900000D02*
X123000000Y-72900000D01*
X73342500Y-52070000D02*
X78599000Y-57326500D01*
X126900000Y-69000000D02*
X150545000Y-69000000D01*
X90267000Y-65833000D02*
X90300000Y-65800000D01*
%TO.N,/SDA*%
X215495000Y-56705000D02*
X217495000Y-58705000D01*
X80257100Y-59690000D02*
X85600000Y-54347100D01*
X217495000Y-58705000D02*
X218600000Y-59810000D01*
X216700000Y-59500000D02*
X217495000Y-58705000D01*
X85600000Y-54347100D02*
X85600000Y-47600000D01*
X85600000Y-47600000D02*
X206390000Y-47600000D01*
X173880000Y-59480000D02*
X173900000Y-59500000D01*
X173900000Y-59500000D02*
X216700000Y-59500000D01*
X206390000Y-47600000D02*
X215495000Y-56705000D01*
X173880000Y-57885000D02*
X173880000Y-59480000D01*
%TO.N,/SCL*%
X218150000Y-61550000D02*
X218300000Y-61700000D01*
X220600000Y-60500000D02*
X220600000Y-59270000D01*
X85433900Y-47199000D02*
X208529000Y-47199000D01*
X79200000Y-53432900D02*
X85433900Y-47199000D01*
X218300000Y-61700000D02*
X219400000Y-61700000D01*
X171340000Y-57885000D02*
X173355000Y-59900000D01*
X179100000Y-59900000D02*
X216500000Y-59900000D01*
X173355000Y-59900000D02*
X179100000Y-59900000D01*
X208529000Y-47199000D02*
X218600000Y-57270000D01*
X220600000Y-59270000D02*
X218600000Y-57270000D01*
X216500000Y-59900000D02*
X218150000Y-61550000D01*
X219400000Y-61700000D02*
X220600000Y-60500000D01*
X79200000Y-62230000D02*
X79200000Y-53432900D01*
%TO.N,Net-(J1-Pin_1)*%
X90000800Y-66635000D02*
X97067800Y-73702000D01*
X127266100Y-69802000D02*
X150877200Y-69802000D01*
X73342500Y-57150000D02*
X77797000Y-61604500D01*
X164867950Y-59757050D02*
X166740000Y-57885000D01*
X123366100Y-73702000D02*
X127266100Y-69802000D01*
X150877200Y-69802000D02*
X160922150Y-59757050D01*
X77797000Y-62811143D02*
X81620857Y-66635000D01*
X81620857Y-66635000D02*
X90000800Y-66635000D01*
X97067800Y-73702000D02*
X123366100Y-73702000D01*
X160922150Y-59757050D02*
X164867950Y-59757050D01*
X77797000Y-61604500D02*
X77797000Y-62811143D01*
%TO.N,Net-(J1-Pin_2)*%
X123200000Y-73301000D02*
X127100000Y-69401000D01*
X160756050Y-59356050D02*
X162728950Y-59356050D01*
X81786957Y-66234000D02*
X90166900Y-66234000D01*
X97233900Y-73301000D02*
X123200000Y-73301000D01*
X127100000Y-69401000D02*
X150711100Y-69401000D01*
X162728950Y-59356050D02*
X164200000Y-57885000D01*
X78198000Y-62645043D02*
X81786957Y-66234000D01*
X150711100Y-69401000D02*
X160756050Y-59356050D01*
X78198000Y-59465500D02*
X78198000Y-62645043D01*
X90166900Y-66234000D02*
X97233900Y-73301000D01*
X73342500Y-54610000D02*
X78198000Y-59465500D01*
%TO.N,/COL9*%
X207300000Y-70136500D02*
X215605250Y-70136500D01*
X82267500Y-79900000D02*
X87868500Y-85501000D01*
X198648943Y-85501000D02*
X207300000Y-76849943D01*
X198944750Y-70136500D02*
X207300000Y-70136500D01*
X207300000Y-76849943D02*
X207300000Y-70136500D01*
X197643750Y-71437500D02*
X198944750Y-70136500D01*
X87868500Y-85501000D02*
X198648943Y-85501000D01*
X215605250Y-70136500D02*
X216906250Y-71437500D01*
%TD*%
M02*
